<svg width="50" height="50" viewBox="0 0 50 50" fill="none" xmlns="http://www.w3.org/2000/svg">
<rect width="50" height="50" rx="5" fill="#3B5CCC" fill-opacity="0.25"/>
<path d="M24 11.5756H25.0625L25.75 11.8277L26.25 12.1429L26.625 12.584L27.4375 13.9706L27.625 14.4118L28.75 16.3025L29.625 16.0504L30.4375 15.9874L31.375 16.1134L32.3125 16.4916L32.6875 16.7437L33.4375 17.5L33.875 18.2563L34.125 19.0756L34.1875 20.084L34 21.0924L33.5 22.1008L32.625 22.9832L32.875 23.5504L33.6875 25L34.0625 25.5672L34.8125 26.9538L34.9375 27.395V28.2773L34.75 28.9076L34.3125 29.6008L33.75 30.042L32.9375 30.2941H31.5L29.8125 30.1681H25.6875L24.3125 30.4202L23.125 30.7983L22.5 31.0504L22.875 31.7437L23.5625 32.9412L24.375 34.3277L24.875 35.2101L25.25 36.0294L25.375 36.7227V37.2899L25.1875 38.0462L24.75 38.9286L24.3125 39.3697L23.6875 39.7479L22.875 40H21.9375L21.125 39.7479L20.5 39.3697L19.9375 38.8025L19.5625 38.0462L19.1875 37.479L18.3125 35.9034L17.3125 34.2647V34.0126L16.1875 34.3277L15.6875 34.3908H14.6875L13.625 34.2017L12.625 33.8235L11.9375 33.3824L10.9375 32.563L10.25 31.6176L9.8125 30.6723L9.5625 29.7899L9.5 29.2857V28.1513L9.6875 27.1429L10.0625 26.1345L10.5625 25.3151L11.125 24.6849L11.6875 24.1807L12.3125 23.7395L13.9375 22.7941L14.4375 22.479L14.75 22.3529L15.8125 21.7227L16.8125 21.0924L17.25 20.7773L17.8125 20.2101L18.4375 19.6429L19.125 18.7605L19.75 17.8782L20.5625 16.3655L21.0625 15.4202L21.5625 14.4118L22.0625 13.3403L22.5625 12.458L22.9375 12.0168L23.75 11.6387L24 11.5756ZM24.25 13.2143L23.8125 13.5924L22.9375 15.2941L22.125 17.0588L21.375 18.4454L20.75 19.3908L19.9375 20.3992L19.4375 21.0294L18.6875 21.7857L18.0625 22.2269L17.625 22.542L17.75 22.9202L18.5625 24.3067L19.1875 25.3782L19.625 26.0714L19.8125 26.5126L20.5 27.7101L21.3125 29.0966L21.625 29.6008L22 29.4748L22.9375 29.0966L24.0625 28.7815L25.4375 28.5294L26.125 28.4664H28.875L31.5625 28.6555H32.75L33.0625 28.4664L33.25 28.0882V27.584L32.6875 26.5126L32.0625 25.4412L31.75 24.874H31.625L31.5 24.4958L30.875 23.4244L30.375 22.542L30.1875 22.1639L29.3125 20.6513L28.75 19.7059L28.125 18.6345L27.5 17.437L27.25 16.9958H27.125L27 16.6176L26.125 15.105L25.5 14.0336L25.0625 13.3403L24.8125 13.2143H24.25ZM30.1875 17.6261L29.625 17.8151L29.75 18.1303L30.4375 19.4538L30.6875 19.895H30.8125L30.9375 20.2731L31.6875 21.5336L32.125 21.1555L32.4375 20.5252L32.5625 19.958L32.5 19.3277L32.125 18.5714L31.875 18.2563L31.3125 17.8782L30.8125 17.6891L30.1875 17.6261ZM16.125 23.4874L14.5625 24.3697L13.875 24.8109L13.125 25.1891L12.5625 25.6303L12.1875 25.9454L11.8125 26.5126L11.4375 27.2689L11.25 27.8361L11.1875 28.2143V29.1597L11.4375 30.1681L11.9375 31.1134L12.4375 31.6807L13.25 32.2479L13.9375 32.563L14.75 32.7521H15.5625L16.5625 32.5L17.3125 32.1218L18.25 31.5546L19.875 30.6092L20.125 30.4202L20 30.105L19.625 29.4118L18.75 27.8361L18.1875 26.9538L17.375 25.5042L17.0625 24.874L16.6875 24.3067L16.25 23.5504L16.125 23.4874ZM20.9375 31.8697L19.875 32.5L18.75 33.1303L18.8125 33.3824L19.625 34.8319L20 35.5882L20.375 36.1555L21.1875 37.605L21.6875 38.1723L22.0625 38.2983H22.75L23.1875 38.1092L23.5625 37.6681L23.75 37.1008L23.6875 36.5966L23.3125 35.8403L22.8125 35.021L22.25 33.9496L21.5 32.6891L21 31.8697H20.9375Z" fill="white"/>
<path d="M37.5 14.6639H38.3125L38.625 14.916L38.75 15.2311L38.6875 15.8613L38.1875 16.3025L37.5625 16.6807L37.0625 16.9958L36.625 17.1849L35.375 17.8782H34.875L34.5 17.626L34.3125 17.3109V16.8067L34.5625 16.4286L35.6875 15.7353L37.1875 14.8529L37.5 14.6639Z" fill="white"/>
<path d="M33.25 10H33.75L34.125 10.2521L34.3125 10.6933L34.25 11.1975L32.9375 13.4664L32.625 14.0336L32.3125 14.3487L31.8125 14.4118L31.3125 14.2857L31.0625 13.9076V13.2773L31.75 12.0798L32.3125 11.1345L32.8125 10.3151L33 10.063L33.25 10Z" fill="white"/>
<path d="M36.4375 20.7773H39.6875L40.125 20.9034L40.4375 21.2185L40.5 21.4076V21.8487L40.3125 22.1639L40 22.416H36.125L35.75 22.1008L35.625 21.5966L35.75 21.1555L36.125 20.8403L36.4375 20.7773Z" fill="white"/>
</svg>
