<svg width="234" height="231" viewBox="0 0 234 231" fill="none" xmlns="http://www.w3.org/2000/svg">
<g clip-path="url(#clip0_2750_5986)">
<path d="M29.5559 0H29.0449V69.2488H29.5559V0Z" fill="#C7C7C7"/>
<path d="M53.3454 92.4308L51.414 96.6819H7.18116L5.25488 92.4308L24.0834 79.3965H34.5169L53.3454 92.4308Z" fill="#EBEBEB"/>
<path d="M35.825 66.8369L34.517 79.396H24.0834L22.7754 66.8369H35.825Z" fill="#DBDBDB"/>
<path d="M53.3456 92.4307L51.4091 96.6818H7.18139L5.25 92.4307H53.3456Z" fill="#DBDBDB"/>
<path d="M81.1877 0H80.6768V55.535H81.1877V0Z" fill="#C7C7C7"/>
<path d="M104.977 78.712L103.046 82.9682H58.813L56.8867 78.712L75.7152 65.6777H86.1488L104.977 78.712Z" fill="#EBEBEB"/>
<path d="M87.4569 53.123L86.1488 65.677H75.7153L74.4072 53.123H87.4569Z" fill="#DBDBDB"/>
<path d="M104.977 78.7168L103.041 82.9679H58.8132L56.8818 78.7168H104.977Z" fill="#DBDBDB"/>
<path d="M14.0429 114.115L8.99984 122.244L11.5035 123.777C11.8544 124.006 12.1355 124.326 12.3158 124.704C12.4961 125.082 12.5686 125.502 12.5254 125.918C12.4844 126.382 12.469 126.848 12.4794 127.313C12.4937 127.737 12.3906 128.156 12.1814 128.525C11.9722 128.894 11.6651 129.198 11.294 129.403L8.73926 130.788L13.2765 139.239L15.8312 137.854C16.1947 137.659 16.6048 137.568 17.0167 137.59C17.4285 137.613 17.8262 137.748 18.1663 137.982C18.5836 138.273 19.0169 138.541 19.4641 138.784C19.8273 138.984 20.1278 139.281 20.3317 139.642C20.5357 140.003 20.6351 140.413 20.6188 140.828L20.5268 143.755L30.0918 144.052L30.1787 141.114C30.1921 140.699 30.3206 140.295 30.5497 139.949C30.7789 139.603 31.0997 139.327 31.4765 139.152C31.7013 139.044 31.921 138.932 32.1407 138.815C32.3604 138.697 32.575 138.574 32.7845 138.447C33.1372 138.23 33.5431 138.115 33.9571 138.115C34.3712 138.115 34.7771 138.23 35.1298 138.447L37.6385 139.979L42.6765 131.85L40.1677 130.292C39.8164 130.064 39.535 129.744 39.3546 129.366C39.1743 128.988 39.102 128.567 39.1458 128.151C39.1867 127.689 39.2021 127.225 39.1918 126.761C39.178 126.337 39.2819 125.917 39.492 125.548C39.7022 125.179 40.0103 124.876 40.3823 124.671L42.9371 123.287L38.4152 114.856L35.8298 116.241C35.4547 116.437 35.0325 116.525 34.6102 116.495C34.188 116.466 33.7823 116.319 33.4385 116.072C33.0553 115.807 32.6568 115.561 32.2531 115.342C31.881 115.147 31.5704 114.853 31.3564 114.492C31.1425 114.131 31.0336 113.717 31.0422 113.298L31.1597 110.365L21.5998 110.063L21.5079 113.001C21.4906 113.421 21.3573 113.827 21.1228 114.176C20.8882 114.524 20.5616 114.8 20.1794 114.974C19.9648 115.071 19.7553 115.178 19.5458 115.29C19.3363 115.403 19.132 115.52 18.9327 115.643C18.5738 115.864 18.1608 115.98 17.7396 115.98C17.3184 115.98 16.9054 115.864 16.5466 115.643L14.0429 114.115ZM21.2677 120.696C22.5983 119.742 24.1945 119.228 25.832 119.227C27.4696 119.226 29.0664 119.738 30.3981 120.691C31.7298 121.644 32.7296 122.99 33.257 124.54C33.7844 126.091 33.813 127.767 33.3388 129.335C32.8645 130.902 31.9112 132.282 30.6128 133.28C29.3143 134.277 27.736 134.844 26.0993 134.898C24.4626 134.953 22.8499 134.494 21.4875 133.585C20.1252 132.677 19.0817 131.364 18.5035 129.832C17.8942 128.217 17.8348 126.447 18.3346 124.795C18.8344 123.143 19.8655 121.702 21.2677 120.696Z" fill="#EBEBEB"/>
<path d="M223.788 34.7441C223.574 34.6186 223.399 34.436 223.283 34.2168C223.166 33.9975 223.113 33.7502 223.129 33.5025C223.129 33.3645 223.129 33.2266 223.129 33.0886C223.129 32.9507 223.129 32.8076 223.129 32.6697C223.113 32.4219 223.166 32.1746 223.283 31.9554C223.399 31.7361 223.574 31.5535 223.788 31.428L225.285 30.5645L222.475 25.685L220.958 26.5689C220.742 26.6927 220.496 26.7535 220.248 26.7445C219.999 26.7355 219.758 26.6569 219.552 26.5178C219.317 26.3697 219.077 26.2266 218.827 26.0989C218.606 25.9879 218.42 25.818 218.289 25.6079C218.158 25.3978 218.088 25.1558 218.086 24.9083V23.166H212.466V24.8879C212.46 25.133 212.386 25.3718 212.254 25.5781C212.121 25.7844 211.935 25.9504 211.715 26.058C211.464 26.1857 211.204 26.3288 210.989 26.477C210.783 26.6161 210.542 26.6946 210.294 26.7036C210.045 26.7127 209.799 26.6518 209.584 26.5281L208.087 25.6646L205.271 30.5441L206.774 31.4127C206.992 31.5378 207.17 31.7223 207.288 31.9449C207.406 32.1674 207.458 32.4187 207.438 32.6697C207.438 32.8076 207.438 32.9456 207.438 33.0835C207.438 33.2215 207.438 33.3594 207.438 33.4974C207.454 33.7465 207.401 33.9952 207.284 34.2155C207.166 34.4358 206.99 34.6189 206.774 34.7441L205.271 35.6076L208.087 40.4872L209.579 39.6237C209.794 39.5003 210.04 39.4392 210.288 39.4474C210.536 39.4555 210.777 39.5324 210.984 39.6696C211.219 39.8249 211.463 39.9665 211.715 40.0937C211.935 40.205 212.121 40.3751 212.25 40.5852C212.38 40.7953 212.449 41.0372 212.45 41.2842V43.0061H218.071V41.2791C218.073 41.0317 218.143 40.7896 218.274 40.5796C218.404 40.3695 218.591 40.1996 218.812 40.0886C219.062 39.9602 219.306 39.8187 219.542 39.6645C219.748 39.5272 219.988 39.4502 220.236 39.442C220.483 39.4339 220.728 39.495 220.942 39.6186L222.439 40.4821L225.25 35.6025L223.788 34.7441ZM215.286 37.7025C214.377 37.7025 213.487 37.4328 212.731 36.9275C211.975 36.4222 211.386 35.704 211.038 34.8637C210.69 34.0235 210.598 33.0989 210.776 32.2068C210.953 31.3148 211.391 30.4954 212.034 29.8523C212.678 29.2092 213.497 28.7712 214.389 28.5938C215.281 28.4163 216.206 28.5074 217.046 28.8555C217.886 29.2035 218.604 29.7929 219.11 30.5492C219.615 31.3054 219.885 32.1945 219.885 33.104C219.884 33.7087 219.764 34.3074 219.532 34.8657C219.299 35.4241 218.959 35.9311 218.531 36.3577C218.102 36.7844 217.593 37.1224 217.034 37.3522C216.475 37.5821 215.875 37.6994 215.271 37.6974L215.286 37.7025Z" fill="#EBEBEB"/>
<path d="M97.0324 162.921C96.8324 162.804 96.666 162.637 96.5496 162.437C96.4333 162.236 96.3707 162.009 96.3682 161.777C96.3682 161.547 96.3682 161.322 96.3682 161.092C96.3433 160.862 96.3572 160.629 96.4091 160.402C96.4655 160.176 96.5821 159.97 96.7463 159.805C96.9197 159.653 97.112 159.524 97.3185 159.421L98.5091 158.727V158.752L95.6682 153.888H95.7346L94.1711 154.808C93.8834 154.951 93.5548 154.991 93.2412 154.92C92.9458 154.828 92.6653 154.694 92.4083 154.521L92.02 154.302C91.8768 154.227 91.7472 154.128 91.6368 154.011C91.4103 153.775 91.273 153.468 91.2485 153.142V151.328L91.366 151.446L85.7456 151.497L85.9193 151.328V153.147C85.9031 153.408 85.8204 153.66 85.6791 153.88C85.5378 154.1 85.3426 154.281 85.112 154.404L84.7288 154.634L84.3456 154.859C84.1972 154.952 84.0351 155.021 83.8653 155.063C83.521 155.139 83.1614 155.097 82.8434 154.946L81.2594 154.041L81.566 153.959L78.7711 158.849L78.6791 158.507L80.2631 159.416C80.4859 159.569 80.6667 159.776 80.789 160.017C80.9113 160.258 80.9712 160.526 80.9631 160.796V161.246V161.69C80.966 161.863 80.9419 162.035 80.8915 162.201C80.7853 162.546 80.5633 162.844 80.2631 163.044L78.6791 163.954L78.766 163.632L81.5558 168.521L81.2696 168.445L82.8587 167.551C83.1776 167.401 83.5376 167.363 83.8806 167.443C84.0446 167.486 84.2013 167.553 84.3456 167.643L84.7339 167.873L85.1171 168.097C85.2658 168.179 85.4003 168.284 85.5156 168.409C85.7458 168.661 85.8828 168.983 85.9039 169.324V171.148L85.766 171.01L91.3864 171.066L91.3047 171.148V169.334C91.3289 169.016 91.4625 168.716 91.6828 168.486C91.9146 168.282 92.1723 168.11 92.4492 167.975C92.7045 167.807 92.9812 167.675 93.2718 167.581C93.5765 167.508 93.8971 167.547 94.1762 167.689L95.7448 168.598H95.7091L98.5397 163.729L97.0324 162.921ZM97.0324 162.921L98.5295 163.78L95.7346 168.665V168.69L94.1609 167.796C93.8941 167.667 93.5906 167.634 93.3025 167.704C93.0075 167.793 92.7282 167.927 92.4747 168.102C92.2083 168.237 91.9623 168.409 91.7441 168.613C91.546 168.828 91.4286 169.104 91.412 169.395V171.204V171.286H91.3302L85.7098 171.342H85.5769V171.168V169.365C85.5558 169.098 85.444 168.848 85.2602 168.654C85.1672 168.559 85.0604 168.478 84.9434 168.414L84.5448 168.189L84.1463 167.965C84.0342 167.897 83.9116 167.849 83.7835 167.821C83.5267 167.764 83.258 167.797 83.0222 167.913L81.4893 168.828L81.3105 168.935L81.2032 168.751L78.3675 163.887L78.2499 163.683L78.4543 163.565L79.9872 162.661C80.1908 162.521 80.3405 162.315 80.4112 162.078C80.4461 161.959 80.4633 161.835 80.4623 161.71V161.251V160.791C80.4633 160.666 80.4461 160.542 80.4112 160.423C80.3398 160.188 80.1878 159.985 79.9821 159.851L78.4492 158.941L78.2295 158.819L78.3572 158.604L81.1879 153.74L81.3054 153.54L81.4996 153.653L83.0324 154.557C83.2605 154.67 83.5202 154.7 83.7682 154.644C83.8933 154.618 84.0127 154.569 84.1207 154.501L84.5193 154.276L84.9229 154.051C85.0364 153.991 85.1399 153.914 85.2295 153.821C85.4103 153.633 85.5189 153.387 85.5361 153.127V151.333V151.154H85.7047L91.3251 151.205H91.4529V151.323V153.127C91.4716 153.408 91.5851 153.674 91.7748 153.883C91.9896 154.086 92.2321 154.258 92.4952 154.394C92.7358 154.566 93.0011 154.7 93.2821 154.792C93.5615 154.859 93.8551 154.828 94.1149 154.705L95.6937 153.821L95.7346 153.796V153.837L98.5295 158.727L97.3339 159.411C97.1284 159.511 96.9376 159.638 96.7667 159.789C96.603 159.949 96.4864 160.15 96.4295 160.372C96.3757 160.596 96.3601 160.827 96.3835 161.056C96.3835 161.286 96.3835 161.516 96.3835 161.741C96.3782 161.978 96.4355 162.211 96.5494 162.418C96.6633 162.626 96.83 162.799 97.0324 162.921Z" fill="#EBEBEB"/>
<path d="M88.5296 165.88C87.747 165.876 86.9773 165.68 86.2893 165.306C85.6013 164.933 85.0163 164.396 84.5865 163.742C84.1568 163.088 83.8956 162.338 83.8263 161.558C83.7569 160.779 83.8817 159.994 84.1893 159.274C84.4969 158.555 84.9779 157.922 85.5893 157.434C86.2007 156.945 86.9235 156.616 87.6933 156.474C88.463 156.333 89.2558 156.385 90.0009 156.624C90.7459 156.864 91.4201 157.284 91.9632 157.848C92.8417 158.766 93.3195 159.995 93.2916 161.266C93.2506 162.497 92.7335 163.664 91.8491 164.522C90.9647 165.38 89.782 165.861 88.55 165.864L88.5296 165.88ZM88.5296 165.88C89.1279 165.879 89.72 165.759 90.2712 165.526C90.8223 165.293 91.3213 164.953 91.7389 164.524C92.1564 164.096 92.484 163.588 92.7024 163.031C92.9208 162.474 93.0256 161.879 93.0106 161.281C92.9761 160.114 92.4884 159.006 91.6509 158.193C90.8135 157.379 89.6921 156.924 88.5245 156.923C87.3347 156.923 86.1936 157.395 85.3523 158.237C84.511 159.078 84.0384 160.219 84.0384 161.409C84.0384 162.599 84.511 163.74 85.3523 164.581C86.1936 165.422 87.3347 165.895 88.5245 165.895L88.5296 165.88Z" fill="#EBEBEB"/>
<path d="M4.97949 223.672L32.9846 223.55L60.9897 223.504L117 223.422L173.01 223.504L201.015 223.55L229.02 223.672L201.015 223.8L173.01 223.846L117 223.928L60.9897 223.846L32.9846 223.8L4.97949 223.672Z" fill="#263238"/>
<path d="M224.442 45.9902H139.727V131.615H224.442V45.9902Z" fill="#EBEBEB"/>
<path d="M178.676 40.8254C181.501 37.5093 186.34 36.7122 191.02 37.6575C195.701 38.6027 201.306 40.9633 201.817 48.791C202.236 55.1472 200.284 61.345 200.284 68.437C200.284 75.529 208.311 92.8041 195.466 101.235C183.923 108.807 160.537 101.853 159.817 86.264C159.25 73.9093 173.904 62.4845 175.447 57.5947C176.99 52.7049 175.58 44.4531 178.676 40.8254Z" fill="#263238"/>
<path d="M176.566 47.7988C176.479 51.3346 175.968 54.9112 174.522 58.2477C174.147 59.0928 173.657 59.882 173.066 60.593C172.499 61.3083 171.896 61.9828 171.293 62.6368C170.077 63.9601 168.876 65.2733 167.716 66.6375C165.413 69.3103 163.509 72.3033 162.065 75.5229C160.681 78.7576 159.92 82.2247 159.822 85.7419C159.678 83.9668 159.731 82.1812 159.98 80.4178C160.257 78.6453 160.714 76.9058 161.345 75.2265C162.676 71.8619 164.562 68.7444 166.924 66.0039C168.084 64.6192 169.315 63.2959 170.542 61.9879C171.768 60.6798 173.01 59.4331 173.771 57.9003C174.552 56.3331 175.147 54.68 175.544 52.9747C175.992 51.2724 176.334 49.5438 176.566 47.7988Z" fill="#263238"/>
<path d="M201.495 54.1299C201.408 57.7372 201.178 61.3394 201.275 64.9211C201.317 66.705 201.468 68.4846 201.725 70.2503C201.991 71.9875 202.512 73.7247 202.946 75.4824C203.381 77.2401 203.769 79.0233 204.055 80.8218C204.332 82.6287 204.448 84.4565 204.402 86.2839C204.319 88.1201 203.975 89.9351 203.381 91.6744C202.695 93.3838 201.671 94.9374 200.371 96.2422C201.51 94.842 202.377 93.2406 202.926 91.5211C203.402 89.8112 203.639 88.0435 203.631 86.2685C203.486 82.6955 202.927 79.1514 201.965 75.7072C201.556 73.9547 201.035 72.2175 200.785 70.3729C200.55 68.5657 200.458 66.7428 200.509 64.9211C200.617 61.3073 200.946 57.7034 201.495 54.1299Z" fill="#263238"/>
<path d="M182.912 84.4648C171.16 97.402 161.57 103.615 152.117 103.615C143.13 103.615 123.928 81.7926 122.518 78.9159C121.302 76.4327 137.065 62.8466 139.487 64.5378C143.574 67.3685 156.685 83.7546 158.075 83.8312C159.465 83.9079 164.584 80.5254 176.914 74.7517C184.404 71.2517 191.087 75.4977 182.912 84.4648Z" fill="#EB9481"/>
<path d="M124.347 81.0674C122.62 79.1974 115.37 69.8623 113.934 66.8171C112.498 63.7718 109.019 54.7076 111.241 53.374C113.464 52.0404 114.69 54.6105 114.69 54.6105C114.69 54.6105 113.827 50.5536 116.187 49.4142C118.548 48.2748 120.326 52.3368 120.326 52.3368C120.326 52.3368 119.744 48.1061 122.176 47.1353C124.608 46.1645 125.722 50.5587 125.722 50.5587C125.722 50.5587 125.006 46.7113 127.347 46.7572C130.162 46.8134 130.678 54.0536 132.512 57.2981C132.926 58.0339 142.011 71.6047 142.011 71.6047L124.347 81.0674Z" fill="#EB9481"/>
<path d="M125.624 50.186C126.017 55.505 127.111 57.7685 130.223 61.9941C130.284 62.0758 130.177 62.1831 130.105 62.1065C126.666 58.2437 124.888 55.6072 125.353 50.1912C125.389 49.9255 125.604 49.9306 125.624 50.186Z" fill="#263238"/>
<path d="M120.31 51.9173C121.199 57.41 122.354 59.8727 125.312 64.5377C125.353 64.6041 125.246 64.6808 125.2 64.6195C121.925 60.2815 120.208 57.6092 120.039 52.0041C120.029 51.7487 120.269 51.6618 120.31 51.9173Z" fill="#263238"/>
<path d="M114.854 54.8447C116.101 60.1023 117.261 62.8563 120.704 67.0154C120.786 67.1176 120.648 67.2454 120.561 67.1534C116.637 63.2498 115.166 59.8213 114.701 54.8906C114.67 54.5636 114.777 54.5125 114.854 54.8447Z" fill="#263238"/>
<path d="M146.062 72.9022C146.062 72.9022 145.945 66.2139 145.245 63.2861C144.545 60.3584 137.948 50.4154 135.695 51.7234C132.818 53.4095 135.506 59.8986 137.228 62.9132C137.228 62.9132 130.586 66.8168 131.49 71.8956C132.394 76.9745 146.062 72.9022 146.062 72.9022Z" fill="#EB9481"/>
<path d="M135.056 52.4437C133.523 55.8773 136.078 59.6839 137.534 62.724C137.558 62.7678 137.57 62.8165 137.571 62.8661C137.572 62.9157 137.561 62.9648 137.539 63.0092C137.517 63.0537 137.485 63.0923 137.445 63.1218C137.405 63.1513 137.358 63.1708 137.309 63.1788C134.622 65.0029 131.367 68.3496 131.326 71.7729C131.326 71.7932 131.318 71.8127 131.304 71.8271C131.289 71.8415 131.27 71.8496 131.25 71.8496C131.229 71.8496 131.21 71.8415 131.195 71.8271C131.181 71.8127 131.173 71.7932 131.173 71.7729C130.718 68.0941 133.646 64.5379 136.712 62.7342C135.179 59.6328 132.793 55.7087 135.025 52.4131L135.056 52.4437Z" fill="#263238"/>
<path d="M162.647 80.0704L172.09 97.6879C172.09 97.6879 184.894 85.2565 186.938 80.0704C188.982 74.8843 186.78 71.1186 177.669 73.893C172.465 75.4355 167.431 77.5054 162.647 80.0704Z" fill="#3B5CCC"/>
<path d="M174.271 94.0145C173.806 93.059 173.398 92.0729 172.912 91.1225C172.427 90.1722 171.941 89.232 171.436 88.3021C170.414 86.4218 169.392 84.5364 168.329 82.6817C167.726 81.6598 167.092 80.6072 166.433 79.616C166.408 79.57 166.321 79.616 166.346 79.6518C168.079 83.5299 170.179 87.2445 172.273 90.9335C172.881 92.0014 173.571 93.0182 174.205 94.0707C174.225 94.0963 174.297 94.0503 174.271 94.0145Z" fill="#263238"/>
<path d="M186.938 80.0714C184.894 85.2575 172.09 97.6889 172.09 97.6889L165.729 85.84L186.713 74.2363C187.919 75.4933 187.904 77.6239 186.938 80.0714Z" fill="#263238"/>
<path d="M164.799 109.731C164.799 109.731 159.608 122.157 161.442 131.61H218.679C216.819 105.914 204.009 83.8309 196.442 76.6827C190.342 70.9192 183.919 71.4353 179.448 74.3834C178.396 75.0834 166.782 91.1323 165.525 93.6717C160.538 103.691 164.799 109.731 164.799 109.731Z" fill="#3B5CCC"/>
<path d="M179.847 73.6278C179.847 73.6278 176.27 83.9132 178.344 84.4497C183.505 85.7781 190.428 77.3526 190.842 76.4942C190.944 76.2745 191.404 70.5161 191.747 66.0351C191.966 63.1533 192.135 60.7979 192.135 60.7979L179.402 65.1665L179.811 73.0606L179.847 73.6278Z" fill="#EB9481"/>
<path d="M179.381 65.1665L179.79 73.0606C182.38 72.6978 188.077 71.2927 191.725 66.0351C191.945 63.1533 192.114 60.7979 192.114 60.7979L190.52 61.3088L179.381 65.1665Z" fill="#263238"/>
<path d="M169.898 54.1147C169.745 58.1256 170.143 61.3702 171.119 63.5264C171.955 65.3681 173.286 66.9419 174.963 68.073C176.639 69.2041 178.597 69.8482 180.618 69.9337C182.151 69.9899 186.565 69.5862 189.759 67.1541C192.242 65.2636 193.739 61.8556 194.587 55.8621C196.529 42.1585 190.259 37.5498 184.082 36.9979C177.905 36.4461 170.409 40.2884 169.898 54.1147Z" fill="#EB9481"/>
<path d="M173.439 51.0594C173.761 51.0135 174.057 50.9215 174.369 50.85C174.708 50.8195 175.028 50.6816 175.283 50.4565C175.347 50.369 175.382 50.2634 175.382 50.1551C175.382 50.0467 175.347 49.9411 175.283 49.8536C175.124 49.7058 174.929 49.6028 174.717 49.5552C174.505 49.5076 174.285 49.5171 174.078 49.5828C173.637 49.6529 173.238 49.8841 172.959 50.2317C172.893 50.3122 172.853 50.4109 172.844 50.5146C172.836 50.6183 172.86 50.7221 172.912 50.8121C172.964 50.9021 173.042 50.974 173.137 51.0182C173.231 51.0624 173.336 51.0768 173.439 51.0594Z" fill="#263238"/>
<path d="M182.467 51.4009C182.154 51.3457 181.843 51.274 181.537 51.1863C181.198 51.1581 180.878 51.0179 180.628 50.7878C180.564 50.7003 180.529 50.5947 180.529 50.4863C180.529 50.3779 180.564 50.2724 180.628 50.1849C180.788 50.0374 180.985 49.9355 181.198 49.8896C181.411 49.8438 181.632 49.8558 181.839 49.9243C182.283 49.9953 182.684 50.2305 182.963 50.5834C183.027 50.6651 183.064 50.7644 183.071 50.868C183.077 50.9716 183.051 51.0747 182.998 51.1635C182.944 51.2523 182.864 51.3225 182.769 51.3649C182.675 51.4074 182.569 51.4199 182.467 51.4009Z" fill="#263238"/>
<path d="M180.21 54.8555C180.21 54.8197 180.281 54.9015 180.281 54.9424C180.204 55.8774 180.281 56.9862 181.114 57.3234C181.114 57.3234 181.114 57.3796 181.114 57.3745C180.072 57.1803 179.99 55.7292 180.21 54.8555Z" fill="#263238"/>
<path d="M181.098 53.9106C182.631 53.8697 182.59 56.9098 181.18 56.9507C179.77 56.9916 179.846 53.9463 181.098 53.9106Z" fill="#263238"/>
<path d="M181.696 54.0792C181.956 54.2529 182.207 54.5595 182.534 54.5902C182.861 54.6208 183.188 54.3143 183.433 54.0077C183.458 53.977 183.484 54.0077 183.484 54.0435C183.484 54.6259 183.259 55.2237 182.631 55.3055C182.002 55.3873 181.66 54.8559 181.517 54.2836C181.491 54.161 181.588 54.0077 181.696 54.0792Z" fill="#263238"/>
<path d="M175.176 54.4571C175.176 54.4213 175.104 54.5031 175.104 54.5388C175.104 55.4841 175.007 56.5826 174.154 56.879C174.128 56.879 174.128 56.9352 174.154 56.9301C175.201 56.787 175.355 55.3462 175.176 54.4571Z" fill="#263238"/>
<path d="M174.338 53.4711C172.805 53.3536 172.698 56.3937 174.103 56.501C175.508 56.6083 175.605 53.5733 174.338 53.4711Z" fill="#263238"/>
<path d="M173.714 53.6492C173.469 53.8025 173.203 54.0835 172.933 54.0938C172.662 54.104 172.365 53.7616 172.166 53.4398C172.166 53.404 172.12 53.4398 172.115 53.4704C172.079 54.0529 172.243 54.6609 172.8 54.7989C173.357 54.9368 173.699 54.4361 173.857 53.8638C173.868 53.7514 173.791 53.5879 173.714 53.6492Z" fill="#263238"/>
<path d="M180.117 62.172C179.897 62.4019 179.683 62.7136 179.346 62.7545C178.995 62.757 178.648 62.6893 178.324 62.5552C178.318 62.5498 178.31 62.547 178.301 62.5475C178.293 62.548 178.286 62.5517 178.28 62.5577C178.275 62.5638 178.272 62.5719 178.273 62.58C178.273 62.5881 178.277 62.5958 178.283 62.6012C178.425 62.7815 178.612 62.9203 178.826 63.003C179.04 63.0858 179.273 63.1093 179.499 63.0713C179.688 63.0122 179.855 62.8997 179.981 62.7474C180.107 62.595 180.186 62.4093 180.209 62.2129C180.212 62.2012 180.211 62.1889 180.205 62.1781C180.2 62.1673 180.191 62.1587 180.18 62.1538C180.169 62.1489 180.157 62.1481 180.145 62.1514C180.134 62.1547 180.124 62.162 180.117 62.172Z" fill="#263238"/>
<path d="M176.27 58.6827C176.27 58.6827 176.045 60.0878 176.035 60.7521C176.035 60.8134 176.194 60.844 176.418 60.8645C176.418 60.8645 176.418 60.8645 176.444 60.8645C177.008 60.976 177.592 60.9312 178.132 60.7348C178.672 60.5385 179.149 60.1982 179.51 59.7506C179.556 59.6893 179.474 59.6178 179.413 59.6586C178.554 60.2179 177.538 60.4865 176.515 60.4251C176.475 60.236 176.98 58.0338 176.873 58.0236C176.35 58.0561 175.834 58.161 175.34 58.3353C175.724 55.3973 176.572 52.5462 176.904 49.6185C176.904 49.5163 176.766 49.4805 176.735 49.5725C175.632 52.4951 175.121 55.8674 174.645 58.8871C174.605 59.2703 175.984 58.7951 176.27 58.6827Z" fill="#263238"/>
<path d="M176.842 60.5174C177.169 61.0183 177.619 61.4265 178.15 61.7028C178.442 61.8422 178.77 61.8886 179.09 61.8357C179.79 61.7079 179.856 61.0795 179.775 60.5327C179.725 60.2418 179.643 59.9573 179.529 59.6846C178.745 60.2419 177.804 60.5338 176.842 60.5174Z" fill="#263238"/>
<path d="M178.149 61.702C178.442 61.8413 178.77 61.8877 179.09 61.8348C179.79 61.7071 179.856 61.0786 179.774 60.5319C179.411 60.5156 179.053 60.6223 178.759 60.8346C178.464 61.047 178.249 61.3526 178.149 61.702Z" fill="#FF98B9"/>
<path d="M194.337 54.6305C192.829 54.6765 188.553 50.9159 187.776 43.6911C187.776 43.6911 188.926 50.1291 189.498 51.0334C190.07 51.9378 187.107 48.913 186.397 43.0984C186.397 43.0984 183.382 45.7247 180.694 46.7466C178.007 47.7685 176.326 47.9013 176.096 47.7174C175.866 47.5334 179.816 45.8882 180.797 44.5291C180.797 44.5291 173.781 48.6167 170.429 49.1685C170.041 49.2298 170.695 43.1955 175.605 39.3123C180.516 35.4291 187.265 36.3999 189.687 38.3415C189.687 38.3415 192.334 38.4794 195.522 42.0816C198.711 45.6838 195.956 54.5794 194.337 54.6305Z" fill="#263238"/>
<path d="M192.349 56.8373C192.349 56.8373 195.154 52.3767 197.162 53.3578C199.17 54.3388 197.213 60.7001 194.96 61.6658C194.68 61.8107 194.373 61.8973 194.058 61.9203C193.743 61.9432 193.427 61.9021 193.128 61.7995C192.83 61.6968 192.555 61.5346 192.321 61.3229C192.087 61.1111 191.899 60.854 191.767 60.5672L192.349 56.8373Z" fill="#EB9481"/>
<path d="M196.554 55.1826C196.595 55.1826 196.6 55.2286 196.554 55.2439C194.975 55.9746 194.203 57.5125 193.682 59.0914C194.137 58.468 194.771 58.1103 195.598 58.6417C195.639 58.6673 195.598 58.7388 195.558 58.7286C195.273 58.6591 194.974 58.6775 194.701 58.7815C194.427 58.8856 194.191 59.0702 194.025 59.3111C193.749 59.7241 193.516 60.1641 193.33 60.6242C193.263 60.7724 192.998 60.7111 193.049 60.5425C193.046 60.5289 193.046 60.5151 193.049 60.5016C192.906 58.4374 194.362 55.4841 196.554 55.1826Z" fill="#263238"/>
<path d="M200.871 79.4885C206.533 86.0236 222.403 109.68 218.724 116.072C215.193 122.204 207.187 123.931 202.578 115.694C199.262 109.803 193.688 92.2265 192.303 83.7958C191.179 76.9696 195.639 73.444 200.871 79.4885Z" fill="#EB9481"/>
<path d="M195.583 100.431L214.345 93.5388C214.345 93.5388 203.814 79.1249 198.966 76.3811C194.117 73.6373 190.08 75.2928 191.562 84.6994C192.359 90.0674 193.707 95.3391 195.583 100.431Z" fill="#3B5CCC"/>
<path d="M211.014 90.8625C209.992 91.1946 208.97 91.4603 207.948 91.8077C206.926 92.1552 205.945 92.5077 204.954 92.8807C202.946 93.6267 200.943 94.3727 198.956 95.1749C197.842 95.6245 196.728 96.1099 195.64 96.6209C195.588 96.6209 195.609 96.7282 195.64 96.7128C199.727 95.5377 203.692 93.9742 207.637 92.4158C208.781 91.961 209.88 91.3939 211.009 90.9391C211.085 90.9187 211.05 90.8472 211.014 90.8625Z" fill="#263238"/>
<path d="M196.642 99.9929C196.27 100.075 195.906 100.188 195.554 100.33C195.043 99.2214 193.832 94.3469 193.551 93.0951C192.989 90.6017 192.529 88.0827 191.941 85.5893C191.941 85.5177 191.803 85.5382 191.813 85.5893C191.987 86.9739 192.202 88.3535 192.442 89.7228C192.186 89.0688 191.931 88.4097 191.732 87.7404C191.734 87.7357 191.734 87.7306 191.734 87.7255C191.734 87.7205 191.732 87.7156 191.729 87.7113C191.726 87.7071 191.723 87.7036 191.718 87.7011C191.714 87.6987 191.709 87.6975 191.704 87.6975C191.698 87.6975 191.693 87.6987 191.689 87.7011C191.684 87.7036 191.681 87.7071 191.678 87.7113C191.675 87.7156 191.673 87.7205 191.673 87.7255C191.673 87.7306 191.673 87.7357 191.675 87.7404C191.908 88.5718 192.193 89.3875 192.529 90.1827C192.728 92.7374 195.053 100.856 195.119 100.826C195.645 100.587 196.157 100.32 196.652 100.024C196.708 100.039 196.708 99.9878 196.642 99.9929Z" fill="#263238"/>
<path d="M187.362 51.8976L182.023 74.691C181.793 75.3604 182.135 75.8969 182.789 75.8867L192.983 77.9611C193.34 77.9284 193.68 77.7948 193.964 77.5759C194.248 77.3569 194.464 77.0617 194.587 76.7246L199.926 53.9312C200.156 53.2619 199.814 52.7254 199.16 52.7407L188.967 50.6611C188.609 50.6938 188.269 50.8274 187.985 51.0464C187.701 51.2653 187.485 51.5606 187.362 51.8976Z" fill="#A6A6A6"/>
<path d="M188.236 52.0246L182.912 74.818C182.682 75.4873 183.025 76.0238 183.679 76.0136L193.872 78.0881C194.229 78.0558 194.569 77.9229 194.853 77.7049C195.137 77.4869 195.353 77.1928 195.477 76.8567L200.796 54.0633C201.026 53.3888 200.683 52.8574 200.029 52.8676L189.841 50.7881C189.484 50.8226 189.145 50.9568 188.861 51.1755C188.577 51.3942 188.361 51.6885 188.236 52.0246Z" fill="#DBDBDB"/>
<path d="M191.465 53.0056C191.47 53.21 191.414 53.4112 191.303 53.5832C191.193 53.7552 191.033 53.8901 190.845 53.9704C190.657 54.0508 190.449 54.0728 190.249 54.0338C190.048 53.9947 189.864 53.8964 189.719 53.7514C189.575 53.6065 189.478 53.4216 189.44 53.2207C189.402 53.0198 189.425 52.8121 189.506 52.6244C189.587 52.4368 189.723 52.2779 189.896 52.1682C190.068 52.0585 190.27 52.0032 190.474 52.0092C190.737 52.0106 190.99 52.1162 191.175 52.3029C191.361 52.4896 191.465 52.7422 191.465 53.0056Z" fill="#263238"/>
<path d="M205.302 117.758C208.618 123.889 217.396 120.394 218.724 116.072C221.841 105.929 219.91 89.0681 218.05 79.6513C217.452 76.6214 196.871 79.6513 196.994 82.9265C197.137 86.8863 198.802 105.699 205.302 117.758Z" fill="#EB9481"/>
<path d="M217.82 84.1533C218.856 79.6852 218.919 75.0463 218.003 70.5519C216.92 65.6519 213.379 55.2592 199.144 50.6249C195.767 49.5212 190.172 50.3439 195.057 54.1453C198.511 56.8482 201.515 57.5176 203.232 59.4592C203.232 59.4592 196.242 61.3497 195.271 64.773C194.421 67.7695 193.784 70.8224 193.365 73.9088C193.913 74.114 194.473 74.2846 195.041 74.4197C194.741 77.4004 195.435 80.3966 197.014 82.9424L217.82 84.1533Z" fill="#EB9481"/>
<path d="M216.221 66.0398C214.105 64.507 209.578 61.2471 204.934 59.9084C199.783 58.3756 189.467 56.8938 188.394 60.7004C187.608 63.4953 191.496 64.4201 191.496 64.4201C191.496 64.4201 187.102 64.696 186.943 67.3734C186.8 69.8157 189.851 70.3522 189.851 70.3522C189.851 70.3522 187.214 70.9756 187.526 73.3566C187.904 76.2128 193.376 74.4347 196.263 76.9996C196.912 77.5617 216.221 66.0398 216.221 66.0398Z" fill="#EB9481"/>
<path d="M204.25 65.5963C202.022 64.4517 196.289 63.159 191.578 64.3291C191.471 64.3291 191.435 64.4466 191.537 64.4466C195.804 64.3315 200.069 64.7329 204.239 65.6422C204.265 65.6525 204.275 65.6065 204.25 65.5963Z" fill="#263238"/>
<path d="M202.584 70.7462C200.54 69.9594 194.588 68.8864 189.856 70.2353C189.749 70.2659 189.718 70.363 189.82 70.3579C194.081 70.0176 198.367 70.165 202.594 70.7973C202.601 70.796 202.607 70.792 202.611 70.7862C202.615 70.7805 202.616 70.7735 202.615 70.7667C202.613 70.7599 202.609 70.7539 202.603 70.7501C202.598 70.7463 202.591 70.7449 202.584 70.7462Z" fill="#263238"/>
<path d="M203.421 113.487C203.268 112.976 203.12 112.465 202.956 112C202.619 110.979 202.328 109.957 202.031 108.935C201.428 106.891 200.851 104.817 200.345 102.732C199.336 98.5767 198.569 94.3662 198.051 90.1217C197.908 88.9465 197.785 87.7713 197.657 86.5961C197.53 85.421 197.489 84.1998 197.264 83.0195C197.264 82.9582 196.666 82.0589 196.431 81.6144C196.187 81.152 195.974 80.6741 195.793 80.1837C195.411 79.1832 195.152 78.1401 195.021 77.0772C195.018 77.0705 195.014 77.0648 195.008 77.0608C195.002 77.0568 194.995 77.0547 194.988 77.0547C194.981 77.0547 194.974 77.0568 194.968 77.0608C194.962 77.0648 194.957 77.0705 194.955 77.0772C194.888 78.2867 195.041 79.4983 195.404 80.6538C195.719 81.6204 196.262 82.4967 196.988 83.2086C196.988 83.3618 197.024 85.2523 197.085 86.31C197.147 87.3677 197.244 88.4253 197.361 89.4779C197.601 91.5932 197.898 93.7034 198.271 95.8034C199 100.051 200.014 104.246 201.306 108.357C201.306 108.424 201.352 108.49 201.372 108.557C201.372 108.71 201.372 108.863 201.372 109.017C201.38 109.394 201.41 109.772 201.464 110.146C201.569 110.89 201.752 111.622 202.011 112.328C202.008 112.334 202.008 112.34 202.009 112.347C202.009 112.353 202.012 112.36 202.016 112.365C202.019 112.37 202.024 112.375 202.03 112.378C202.036 112.381 202.042 112.383 202.049 112.383C202.056 112.383 202.062 112.381 202.068 112.378C202.074 112.375 202.079 112.37 202.083 112.365C202.086 112.36 202.089 112.353 202.09 112.347C202.09 112.34 202.09 112.334 202.087 112.328C201.906 111.589 201.783 110.837 201.72 110.079L201.628 109.303C201.909 110.13 202.205 110.958 202.496 111.781C202.701 112.353 202.91 112.91 203.145 113.467C203.38 114.024 203.564 114.565 203.84 115.082C203.84 115.122 203.922 115.082 203.912 115.051C203.784 114.504 203.579 114.003 203.421 113.487Z" fill="#263238"/>
<path d="M139.727 131.61V117.876L124.117 131.61H139.727Z" fill="#EBEBEB"/>
<path d="M59.5021 160.729C63.9984 180.294 73.2977 203.746 77.2678 207.553C82.2904 212.366 115.517 221.195 117.173 221.374C121.26 221.788 129.502 192.25 125.128 191.611C118.486 190.651 94.2875 189.337 92.8415 187.851C91.3955 186.364 81.1254 173.416 70.6305 158.87C63.3853 148.819 56.7072 148.589 59.5021 160.729Z" fill="#AD6359"/>
<path d="M113.883 219.779C114.368 220.024 121.312 223.519 125.604 224.761C128.808 225.691 138.097 228.118 139.471 224.689C140.411 222.359 135.113 220.29 131.403 218.742C129.446 217.924 127.035 215.88 127.612 214.623C128.634 212.426 133.657 214.623 136.968 216.555C143.37 220.274 151.897 226.973 155.806 223.708C157.283 222.482 155.566 220.244 153.057 218.052C157.145 220.607 161.478 222.701 163.169 221.404C164.145 220.663 164.191 219.646 163.649 218.491C164.906 218.9 166.015 218.818 166.792 217.98C168.115 216.591 167.471 214.547 166.02 212.447C166.269 212.421 166.509 212.336 166.718 212.199C166.928 212.062 167.102 211.878 167.226 211.66C170.031 207.383 155.985 195.105 151.136 193.956C136.855 190.558 121.803 191.191 121.803 191.191C116.192 195.693 113.868 219.769 113.883 219.779Z" fill="#AD6359"/>
<path d="M134.882 206.633C138.283 207.164 141.531 208.413 144.412 210.296C148.034 212.688 150.436 215.488 153.471 218.303C153.483 218.319 153.489 218.339 153.488 218.359C153.487 218.379 153.48 218.398 153.467 218.413C153.453 218.428 153.435 218.438 153.416 218.441C153.396 218.444 153.376 218.441 153.358 218.431C151.912 217.092 145.914 212.054 144.366 210.91C141.565 208.802 138.322 207.359 134.882 206.689C134.836 206.684 134.847 206.623 134.882 206.633Z" fill="#263238"/>
<path d="M137.545 200.567C141.3 201.589 145.148 202.611 148.632 204.41C152.444 206.351 155.428 209.519 158.34 212.585C160.105 214.414 161.827 216.288 163.506 218.205C163.572 218.287 163.465 218.415 163.394 218.333C160.416 215.186 157.351 212.12 154.196 209.136C151.277 206.365 147.839 204.198 144.08 202.759C141.934 201.937 139.726 201.288 137.519 200.634C137.488 200.624 137.504 200.557 137.545 200.567Z" fill="#263238"/>
<path d="M141.556 195.269C145.204 196.02 148.387 196.659 151.617 198.611C155.893 201.201 160.022 205.56 161.468 207.108C163.067 208.814 164.61 210.572 166.123 212.355C166.184 212.427 166.061 212.539 165.995 212.468C162.529 208.558 158.813 204.876 154.871 201.446C153.017 199.786 150.918 198.421 148.648 197.4C146.347 196.496 143.973 195.792 141.551 195.295C141.551 195.295 141.525 195.264 141.556 195.269Z" fill="#263238"/>
<path d="M119.504 190.016L109.285 222.39C109.285 222.39 81.6169 214.491 76.584 209.039C71.5512 203.587 62.1957 175.434 59.4519 161.787C56.7081 148.139 63.606 148.502 69.9468 157.081C76.2877 165.66 92.076 186.537 92.9395 186.992C93.803 187.446 119.504 190.016 119.504 190.016Z" fill="#3B5CCC"/>
<path opacity="0.1" d="M119.504 190.016L109.285 222.39C109.285 222.39 81.6169 214.491 76.584 209.039C71.5512 203.587 62.1957 175.434 59.4519 161.787C56.7081 148.139 63.606 148.502 69.9468 157.081C76.2877 165.66 92.076 186.537 92.9395 186.992C93.803 187.446 119.504 190.016 119.504 190.016Z" fill="black"/>
<path d="M106.627 208.007C107.869 204.19 109.136 200.383 110.229 196.521C110.853 194.329 111.486 192.132 112.089 189.935C112.115 189.848 111.977 189.802 111.946 189.884C110.551 193.665 109.161 197.461 107.94 201.303C106.719 205.146 105.477 208.967 104.313 212.784C103.653 214.971 103.056 217.168 102.529 219.391C102.529 219.432 102.591 219.457 102.606 219.416C104.129 215.681 105.38 211.849 106.627 208.007Z" fill="#263238"/>
<path d="M95.3306 217.939L94.1043 217.51C91.7999 216.688 89.4495 215.804 87.2371 214.899C86.951 214.787 86.67 214.669 86.3941 214.552C85.9495 214.368 85.505 214.179 85.0758 213.99L84.432 213.709L84.2021 213.607L83.5379 213.3C82.659 212.896 81.8262 212.493 81.0495 212.084L80.5386 211.798C79.3246 211.173 78.1804 210.421 77.1255 209.555C77.0284 209.468 76.9313 209.381 76.8444 209.294C76.7576 209.207 76.6656 209.121 76.589 209.039C71.5306 203.587 62.2006 175.434 59.4568 161.786L59.3649 161.316V161.214C59.1809 160.192 59.0174 158.894 58.8846 157.505C58.5014 150.714 61.7152 149.605 65.6853 152.589C75.5824 173.829 90.7422 208.926 95.3306 217.939Z" fill="#263238"/>
<path d="M80.9775 223.377L20.6855 223.694C20.7366 222.396 29.3206 184.432 36.1469 170.422C44.8994 152.457 49.4315 151.006 52.1038 150.045C55.5527 148.809 61.6943 149.422 63.1505 150.112C64.806 150.883 70.0688 160.07 71.9542 166.81C75.725 180.365 81.8257 222.549 80.9775 223.377Z" fill="#EBEBEB"/>
<path d="M49.0134 151.466C49.0134 151.466 56.6776 179.849 57.0608 181.734C57.6382 184.473 61.4601 223.55 61.4601 223.55L19.4346 223.693C19.4346 223.693 28.6061 187.518 35.4324 171.679C42.882 154.307 49.0134 151.466 49.0134 151.466Z" fill="#3B5CCC"/>
<g opacity="0.1">
<path d="M49.0134 151.466C49.0134 151.466 56.6776 179.849 57.0608 181.734C57.6382 184.473 61.4601 223.55 61.4601 223.55L19.4346 223.693C19.4346 223.693 28.6061 187.518 35.4324 171.679C42.882 154.307 49.0134 151.466 49.0134 151.466Z" fill="black"/>
</g>
<path d="M63.7021 150.551C63.927 151.455 70.9934 174.514 71.4839 180.262C72.0306 186.639 76.8642 223.693 76.8642 223.693H82.9956C82.9956 223.693 74.1204 170.457 71.6832 164.832C66.6963 153.351 63.7021 150.551 63.7021 150.551Z" fill="#3B5CCC"/>
<path opacity="0.1" d="M63.7021 150.551C63.927 151.455 70.9934 174.514 71.4839 180.262C72.0306 186.639 76.8642 223.693 76.8642 223.693H82.9956C82.9956 223.693 74.1204 170.457 71.6832 164.832C66.6963 153.351 63.7021 150.551 63.7021 150.551Z" fill="black"/>
<path d="M41.0784 158.103C30.982 168.92 6.43604 209.959 14.2229 217.445C22.0098 224.93 65.2411 214.854 77.3813 209.065C80.9937 207.348 67.2696 184.826 63.0236 184.299C59.4879 183.865 41.4207 192.127 40.8944 191.09C40.3068 189.915 43.1784 181.244 47.5368 165.542C52.539 147.445 45.5441 153.32 41.0784 158.103Z" fill="#AD6359"/>
<path d="M80.9678 177.033C89.7459 175.807 92.2086 176.844 99.0503 171.878C103.552 168.618 107.568 170.095 104.998 175.271C100.798 183.742 89.8021 187.697 85.5816 187.973L80.9678 177.033Z" fill="#AD6359"/>
<path d="M57.6475 185.474C57.6475 185.474 67.5139 179.996 76.7416 177.769C83.1183 176.236 97.3737 174.422 111.016 188.499C114.25 191.835 116.493 198.886 109.233 195.356C104.072 192.847 101.569 189.699 98.2934 188.785C98.2934 188.785 100.082 198.089 96.6124 201.201C93.5802 203.92 90.3582 206.42 86.9708 208.681C86.4138 208.157 85.8916 207.597 85.4073 207.005C85.4073 207.005 81.892 209.606 75.2803 208.972L57.6475 185.474Z" fill="#AD6359"/>
<path d="M83.0678 177.299C86.1335 178.888 92.5255 182.367 96.7766 187.038C101.503 192.229 109.203 203.49 105.335 206.964C102.504 209.494 99.2036 205.432 99.2036 205.432C99.2036 205.432 101.406 210.761 98.3452 212.483C95.5606 214.056 93.1795 210.776 93.1795 210.776C93.1795 210.776 93.9613 214.235 90.9824 215.232C87.4058 216.427 86.3532 208.978 81.6781 207.056C80.6102 206.597 83.0678 177.299 83.0678 177.299Z" fill="#AD6359"/>
<path d="M90.4659 191.095C93.0871 193.062 97.9002 199.055 99.2287 205.263C99.2593 205.406 99.1725 205.503 99.1163 205.381C96.8082 200.3 93.8914 195.518 90.4301 191.141C90.3893 191.095 90.4302 191.095 90.4659 191.095Z" fill="#263238"/>
<path d="M85.3669 196.016C87.4567 197.947 92.1421 204.344 93.2713 210.685C93.2968 210.828 93.1998 210.92 93.1538 210.792C91.1078 205.6 88.4801 200.657 85.3209 196.056C85.2903 196.026 85.3209 195.99 85.3669 196.016Z" fill="#263238"/>
<path d="M98.2939 188.725C101.155 189.568 103.015 190.973 105.447 192.649C106.631 193.495 107.861 194.274 109.131 194.984C110.296 195.612 112.018 196.563 113.254 195.577C113.949 195.03 113.939 194.044 113.765 193.242C113.416 192.08 112.885 190.982 112.192 189.987C112.192 189.946 112.227 189.9 112.258 189.936C112.927 190.842 113.503 191.815 113.975 192.838C114.284 193.539 114.375 194.317 114.235 195.071C113.811 196.644 111.952 196.854 110.659 196.42C109.875 196.132 109.122 195.767 108.411 195.331C107.716 194.933 107.041 194.504 106.367 194.054C105.008 193.134 103.705 192.138 102.356 191.203C101.045 190.323 99.6801 189.528 98.2683 188.822C98.2576 188.817 98.249 188.808 98.244 188.797C98.239 188.786 98.2379 188.774 98.2409 188.763C98.244 188.751 98.2509 188.741 98.2606 188.734C98.2702 188.727 98.282 188.724 98.2939 188.725Z" fill="#263238"/>
<path d="M104.287 198.79C103.546 197.16 99.5353 190.364 98.2375 188.791C98.2327 188.783 98.2306 188.774 98.2317 188.765C98.2328 188.755 98.2369 188.747 98.2434 188.74C98.2499 188.734 98.2584 188.73 98.2675 188.729C98.2766 188.728 98.2858 188.73 98.2937 188.735C100.527 190.85 104.108 196.465 104.936 198.264C105.764 200.062 106.714 202.316 106.714 204.293C106.714 207.282 104.732 207.87 104.001 207.997C103.127 208.156 102.224 208.008 101.446 207.578C100.536 207.022 99.7498 206.285 99.1367 205.412C99.1061 205.371 99.1623 205.315 99.198 205.356C100.22 206.536 101.957 207.696 103.577 207.481C103.936 207.447 104.285 207.342 104.603 207.17C104.92 206.999 105.201 206.766 105.427 206.485C105.869 205.766 106.04 204.912 105.907 204.078C105.668 202.237 105.12 200.449 104.287 198.79Z" fill="#263238"/>
<path d="M57.6475 185.474L71.484 214.599C71.484 214.599 17.3643 226.749 12.6942 217.327C8.02416 207.905 29.0446 171.035 38.5125 160.295C49.4928 147.848 50.8928 152.084 48.476 163.115C45.9212 174.663 41.0519 191.361 41.0519 191.361L57.6475 185.474Z" fill="#3B5CCC"/>
<path opacity="0.1" d="M57.6475 185.474L71.484 214.599C71.484 214.599 17.3643 226.749 12.6942 217.327C8.02416 207.905 29.0446 171.035 38.5125 160.295C49.4928 147.848 50.8928 152.084 48.476 163.115C45.9212 174.663 41.0519 191.361 41.0519 191.361L57.6475 185.474Z" fill="black"/>
<path d="M24.6043 199.111C29.5963 195.645 35.0779 192.942 40.8678 191.095C42.508 190.584 44.1635 190.098 45.8189 189.623C45.87 189.623 45.8905 189.689 45.8189 189.705C42.9316 190.639 40.1012 191.741 37.3423 193.006C34.5866 194.232 31.8615 195.507 29.1671 196.833C27.6343 197.584 26.1423 198.406 24.6401 199.208C24.63 199.206 24.6207 199.202 24.6129 199.195C24.6051 199.188 24.5991 199.179 24.5956 199.17C24.592 199.16 24.5909 199.15 24.5925 199.139C24.594 199.129 24.5981 199.12 24.6043 199.111Z" fill="#263238"/>
<path d="M57.5046 185.398C57.2338 185.469 42.4317 190.359 41.9463 190.584C42.0076 190.359 44.6645 182.491 45.063 181.336C45.0988 181.223 45.1346 181.106 45.1754 180.994C45.4411 180.483 45.7171 179.972 45.9674 179.461C46.2842 178.791 46.601 178.112 46.9127 177.417H46.882L45.8601 179.394C45.7017 179.696 45.5535 180.007 45.4054 180.319C45.666 179.507 45.9163 178.689 46.1667 177.866C46.5652 176.564 46.9229 175.245 47.2754 173.927C47.2754 173.881 47.2244 173.871 47.209 173.927C46.4222 176.221 45.5638 178.49 44.7718 180.784C43.9798 183.078 40.9346 191.514 40.9601 191.514C40.9857 191.514 57.2594 185.761 57.5762 185.633C57.5916 185.628 57.606 185.621 57.6184 185.61C57.6309 185.6 57.6412 185.587 57.6488 185.573C57.6564 185.559 57.6611 185.543 57.6627 185.527C57.6642 185.511 57.6626 185.495 57.6579 185.48C57.6532 185.464 57.6455 185.45 57.6353 185.437C57.6251 185.425 57.6125 185.415 57.5982 185.407C57.584 185.399 57.5684 185.395 57.5523 185.393C57.5363 185.392 57.5201 185.393 57.5046 185.398Z" fill="#263238"/>
<path d="M58.5011 204.379C56.9683 201.135 55.4814 197.87 53.8413 194.671C52.9062 192.857 51.9814 191.038 51.031 189.235C50.9953 189.168 50.8727 189.235 50.9033 189.291C52.3033 192.612 53.7135 195.933 55.2668 199.198C56.8201 202.463 58.3325 205.687 59.9113 208.906C60.8106 210.736 61.7661 212.536 62.7778 214.307C62.7778 214.343 62.8595 214.307 62.8442 214.307C61.5566 210.925 60.0391 207.66 58.5011 204.379Z" fill="#263238"/>
<path d="M72.1838 215.048C71.6422 214.149 70.9576 212.861 70.3802 211.982C70.2269 211.752 70.0481 211.798 70.1707 212.038C70.5846 212.856 70.9269 213.771 71.3306 214.593C70.5744 214.747 69.7977 214.879 69.0517 215.038C68.1729 215.222 67.2992 215.411 66.4203 215.59C64.6967 215.93 62.9731 216.271 61.2495 216.611C57.7547 217.262 54.2461 217.834 50.724 218.328C43.6679 219.361 36.563 220.028 29.4379 220.326C27.4452 220.398 25.4474 220.433 23.4547 220.408C21.489 220.413 19.5244 220.317 17.5685 220.122C17.5123 220.122 17.5021 220.209 17.5685 220.219C19.2515 220.574 20.96 220.797 22.678 220.883C24.4817 220.97 26.2904 221.011 28.0992 220.99C31.6758 220.949 35.2882 220.714 38.87 220.387C45.9722 219.733 53.0539 218.773 60.0744 217.531C62.0432 217.191 64.007 216.821 65.9656 216.422C66.9568 216.223 67.943 216.024 68.9291 215.804C69.9152 215.584 72.2758 215.201 72.1838 215.048Z" fill="#263238"/>
<path d="M63.713 161.143C60.1364 162.129 53.7342 156.84 51.1181 152.457C50.9393 152.155 51.2919 148.905 51.532 144.935C51.67 142.529 51.7619 139.826 51.67 137.384C51.67 136.873 67.2181 140.562 67.2181 140.562C67.2181 140.562 65.8897 145.763 66.0736 150.045C66.0899 150.389 66.1378 150.731 66.2167 151.067C66.2308 151.12 66.241 151.175 66.2473 151.23C66.6305 153.126 67.1722 160.187 63.713 161.143Z" fill="#AD6359"/>
<path d="M52.6201 137.445C53.4887 141.574 56.442 151.512 64.6683 151.394C65.1959 151.389 65.7222 151.341 66.242 151.251C66.2485 151.195 66.2485 151.139 66.242 151.083C66.1662 150.746 66.1166 150.405 66.0938 150.061C65.915 145.774 67.2384 140.567 67.2384 140.567C67.2384 140.567 55.9873 137.91 52.6201 137.445Z" fill="#263238"/>
<path d="M69.0728 130.011C68.8991 133.782 71.4437 136.96 74.7546 137.113C78.0656 137.267 80.886 134.323 81.0546 130.553C81.2232 126.782 78.6787 123.604 75.3728 123.456C72.067 123.307 69.2415 126.24 69.0728 130.011Z" fill="#455A64"/>
<path d="M80.4464 130.761C80.6362 126.566 77.8054 123.031 74.1238 122.864C70.4422 122.698 67.3038 125.963 67.1141 130.158C66.9243 134.352 69.7551 137.888 73.4367 138.054C77.1183 138.221 80.2567 134.956 80.4464 130.761Z" fill="#C7C7C7"/>
<path d="M53.6979 117.819C51.0206 122.867 50.8519 138.916 53.9994 143.116C58.5622 149.196 67.5293 151.429 73.0578 145.62C78.4381 139.969 78.2848 119.05 74.6315 115.08C69.2614 109.22 57.6527 110.364 53.6979 117.819Z" fill="#AD6359"/>
<path d="M67.0437 130.226C67.0437 130.185 66.9569 130.282 66.962 130.328C67.0182 131.406 66.9058 132.653 65.9401 133.031C65.9094 133.031 65.9145 133.097 65.9401 133.092C67.1357 132.898 67.2685 131.242 67.0437 130.226Z" fill="#263238"/>
<path d="M66.0524 129.122C64.31 129.03 64.2538 132.52 65.8633 132.601C67.4728 132.683 67.5137 129.199 66.0524 129.122Z" fill="#263238"/>
<path d="M73.0943 130.358C73.0943 130.318 73.176 130.415 73.176 130.456C73.1249 131.539 73.2475 132.785 74.1979 133.158C74.2286 133.158 74.1979 133.225 74.1979 133.22C73.0176 133.031 72.8694 131.375 73.0943 130.358Z" fill="#263238"/>
<path d="M74.0796 129.27C75.8169 129.163 75.8986 132.652 74.284 132.75C72.6694 132.847 72.6183 129.331 74.0796 129.27Z" fill="#263238"/>
<path d="M64.4896 126.333C65.0005 126.307 65.4246 126.2 65.91 126.128C66.4221 126.118 66.9164 125.939 67.3151 125.617C67.4221 125.494 67.4851 125.339 67.4944 125.176C67.5036 125.014 67.4586 124.852 67.3662 124.718C67.1428 124.483 66.8608 124.312 66.5491 124.222C66.2375 124.132 65.9075 124.127 65.5932 124.207C64.9274 124.26 64.3056 124.561 63.8509 125.05C63.7556 125.167 63.6962 125.31 63.6796 125.46C63.663 125.61 63.69 125.762 63.7573 125.897C63.8247 126.032 63.9295 126.145 64.0594 126.222C64.1893 126.3 64.3386 126.338 64.4896 126.333Z" fill="#263238"/>
<path d="M75.7201 126.716C75.2536 126.613 74.7931 126.485 74.3405 126.333C73.8379 126.272 73.3693 126.048 73.007 125.694C72.9153 125.559 72.8711 125.398 72.8813 125.235C72.8915 125.072 72.9555 124.917 73.0632 124.795C73.3131 124.585 73.6142 124.446 73.9356 124.391C74.257 124.337 74.5872 124.368 74.8924 124.483C75.5457 124.62 76.1248 124.995 76.5172 125.536C76.5937 125.664 76.632 125.811 76.6278 125.961C76.6236 126.11 76.5769 126.255 76.4933 126.379C76.4097 126.503 76.2926 126.6 76.1557 126.66C76.0188 126.719 75.8677 126.739 75.7201 126.716Z" fill="#263238"/>
<path d="M65.0721 140.245C65.3275 140.501 65.583 140.853 65.9714 140.894C66.3732 140.891 66.7699 140.804 67.1363 140.639C67.1436 140.637 67.1513 140.638 67.1583 140.64C67.1654 140.643 67.1717 140.647 67.1764 140.653C67.1812 140.659 67.1842 140.666 67.1853 140.673C67.1863 140.681 67.1853 140.688 67.1823 140.695C67.0256 140.906 66.8144 141.07 66.5713 141.17C66.3282 141.27 66.0625 141.302 65.8027 141.262C65.5831 141.201 65.3864 141.076 65.2374 140.903C65.0883 140.731 64.9935 140.518 64.9648 140.291C64.9495 140.23 65.0312 140.205 65.0721 140.245Z" fill="#263238"/>
<path d="M66.2622 137.026C66.529 137.458 66.8824 137.83 67.3002 138.118C67.7179 138.406 68.1908 138.605 68.6892 138.702C69.1238 138.794 69.5696 138.824 70.0126 138.789C70.0982 138.785 70.1835 138.777 70.2681 138.763L70.5031 138.727C70.561 138.718 70.6142 138.69 70.6547 138.647C70.6953 138.605 70.721 138.55 70.7279 138.492C70.7305 138.455 70.7305 138.417 70.7279 138.38V138.283C70.7637 137.45 70.7279 136.183 70.7279 136.183C71.0294 136.341 72.5724 137.067 72.552 136.632C72.3987 133.025 72.225 129.019 71.3104 125.468C71.3053 125.446 71.2926 125.425 71.2745 125.411C71.2564 125.397 71.2339 125.389 71.2108 125.389C71.1876 125.389 71.1651 125.397 71.147 125.411C71.1289 125.425 71.1163 125.446 71.1111 125.468C71.1111 128.937 71.7447 132.381 71.8111 135.866C71.264 135.601 70.6828 135.414 70.0841 135.309C69.9666 135.345 70.2425 137.756 70.1965 138.129C70.1977 138.143 70.1977 138.157 70.1965 138.17C68.7914 138.324 67.744 137.884 66.4053 136.924C66.2827 136.867 66.1958 136.934 66.2622 137.026Z" fill="#263238"/>
<path d="M69.5272 138.355C69.0626 138.943 68.4535 139.401 67.7593 139.683C67.3762 139.825 66.9585 139.845 66.5637 139.739C65.7053 139.494 65.6951 138.718 65.8637 138.028C65.9579 137.673 66.0934 137.33 66.2674 137.006C67.1826 137.791 68.3247 138.264 69.5272 138.355Z" fill="#263238"/>
<path d="M67.7593 139.683C67.3762 139.825 66.9585 139.844 66.5637 139.739C65.7053 139.494 65.6951 138.717 65.8637 138.027C66.7885 138.14 67.6929 138.784 67.7593 139.683Z" fill="#FF98B9"/>
<path opacity="0.2" d="M51.6904 129.153C52.743 128.984 55.2671 125.423 56.335 124.007C57.4028 122.592 58.0211 115.004 58.1182 113.277C56.2444 114.337 54.7099 115.907 53.6933 117.804C52.4977 120.073 51.8079 124.534 51.6904 129.153Z" fill="#263238"/>
<path d="M71.1732 119.562C70.5493 120.247 69.7609 120.76 68.8828 121.054C68.0047 121.349 67.066 121.414 66.1557 121.243C65.2267 121.072 64.357 120.667 63.629 120.065C62.901 119.463 62.3391 118.685 61.9966 117.805C61.9966 117.748 61.8944 117.779 61.9148 117.83C62.1911 118.789 62.724 119.654 63.4561 120.332C64.1882 121.01 65.0916 121.475 66.0688 121.677C67.0397 121.824 68.0321 121.712 68.9461 121.354C69.8601 120.995 70.6635 120.402 71.2754 119.634C71.2789 119.621 71.2783 119.607 71.2736 119.594C71.2689 119.581 71.2604 119.57 71.2493 119.562C71.2381 119.554 71.2249 119.55 71.2113 119.55C71.1977 119.55 71.1844 119.554 71.1732 119.562Z" fill="#263238"/>
<path d="M65.9809 105.96C62.8283 105.93 59.8853 107.58 58.6641 109.685C57.9859 110.885 57.7337 112.279 57.9488 113.64C57.9488 113.696 58.0663 113.686 58.0612 113.64C58.0347 112.44 58.3314 111.256 58.9203 110.21C59.5091 109.165 60.3683 108.297 61.4079 107.698C62.5462 107 63.8308 106.576 65.1607 106.459C66.4906 106.342 67.8295 106.535 69.0721 107.023C70.2833 107.471 71.2944 108.338 71.9232 109.465C71.9846 109.583 72.2196 109.517 72.1736 109.399C71.3765 107.396 68.8269 105.986 65.9809 105.96Z" fill="#263238"/>
<path d="M84.0432 113.365C83.5758 111.794 82.5699 110.439 81.2023 109.538C79.3067 108.281 77.1148 108.388 74.9483 108.541C74.9361 108.541 74.9244 108.546 74.9158 108.555C74.9072 108.563 74.9023 108.575 74.9023 108.587C74.9023 108.599 74.9072 108.611 74.9158 108.62C74.9244 108.628 74.9361 108.633 74.9483 108.633C76.798 108.511 78.6834 108.49 80.3491 109.415C81.7355 110.165 82.8189 111.373 83.4148 112.833C83.9819 114.33 83.9891 115.982 83.4352 117.484C82.8813 118.986 81.8035 120.238 80.4002 121.008C79.5816 121.431 78.6854 121.682 77.7664 121.746C76.8474 121.811 75.9249 121.686 75.0556 121.381C74.9841 121.356 74.933 121.453 74.9994 121.484C76.1737 121.946 77.4535 122.073 78.6958 121.85C79.938 121.627 81.0936 121.062 82.0333 120.22C82.973 119.377 83.6596 118.29 84.0164 117.079C84.3732 115.868 84.386 114.582 84.0534 113.365H84.0432Z" fill="#263238"/>
<path d="M52.5586 120.911C52.5586 120.911 49.7689 115.173 52.3849 112.005C53.8667 110.212 58.5572 110.62 58.5572 110.62C58.5572 110.62 60.1667 107.979 64.0908 107.228C68.0149 106.477 72.6441 108.934 72.6441 108.934C72.6441 108.934 76.4557 106.936 79.8791 109.062C84.6565 112.026 83.7776 119.429 78.7805 121.636C75.2754 123.169 70.7076 119.971 70.7076 119.971C70.2528 120.017 65.5419 122.623 62.2105 118.387C62.2105 118.387 59.2878 120.798 56.8097 118.944C56.3882 119.668 55.7543 120.245 54.9939 120.597C54.2336 120.948 53.3834 121.058 52.5586 120.911Z" fill="#263238"/>
<path d="M54.5666 131.094C54.5666 131.094 51.9148 125.474 49.4162 126.312C46.9177 127.15 48.3023 134.926 50.806 136.388C51.1149 136.597 51.463 136.742 51.8294 136.814C52.1958 136.885 52.5728 136.882 52.9379 136.804C53.303 136.727 53.6486 136.576 53.954 136.361C54.2593 136.146 54.5181 135.872 54.7148 135.555L54.5666 131.094Z" fill="#AD6359"/>
<path d="M49.8658 128.524C49.825 128.524 49.8045 128.576 49.8658 128.596C51.6133 129.679 52.3031 131.595 52.6812 133.521C52.2469 132.73 51.5469 132.219 50.5045 132.719C50.4938 132.726 50.4855 132.737 50.4809 132.749C50.4764 132.761 50.4758 132.774 50.4792 132.787C50.4825 132.799 50.4898 132.81 50.4999 132.818C50.5099 132.826 50.5223 132.831 50.5352 132.832C50.8841 132.784 51.2391 132.846 51.5518 133.008C51.8646 133.17 52.1198 133.424 52.2826 133.736C52.5475 134.261 52.7564 134.813 52.906 135.381C52.9673 135.565 53.2841 135.524 53.2534 135.32C53.2558 135.305 53.2558 135.289 53.2534 135.274C53.6826 132.888 52.4002 129.214 49.8658 128.524Z" fill="#263238"/>
<path d="M60.3462 142.412L55.3133 140.241L51.2666 135.203L52.0432 134.574L55.9367 139.423L60.7447 141.498L60.3462 142.412Z" fill="#C7C7C7"/>
<path d="M59.8092 141.609C60.3202 140.143 64.4077 140.684 63.6669 142.902C62.926 145.119 59.3136 143.065 59.8092 141.609Z" fill="#37474F"/>
<path d="M49.3403 126.158C49.3403 126.158 48.7936 117.917 51.2053 113.384C53.8929 108.321 65.0315 103.503 72.6651 108.944C72.6651 108.944 60.2644 106.727 54.4856 113.747C52.0535 116.7 52.1148 126.388 52.1148 126.388L49.3403 126.158Z" fill="#C7C7C7"/>
<path d="M50.4646 137.995C54.1498 137.958 57.1034 134.525 57.0616 130.326C57.0198 126.127 53.9985 122.753 50.3133 122.79C46.6281 122.827 43.6745 126.26 43.7163 130.459C43.758 134.658 46.7793 138.032 50.4646 137.995Z" fill="#C7C7C7"/>
<path d="M55.1134 130.108C55.1492 133.884 52.4974 136.97 49.1864 137.001C45.8755 137.032 43.1572 134.002 43.1215 130.226C43.0857 126.45 45.7375 123.364 49.0485 123.333C52.3594 123.303 55.0777 126.333 55.1134 130.108Z" fill="#455A64"/>
<path d="M66.1854 150.975L62.5832 160.07L51.2504 148.635L48.0723 152.334C48.0723 152.334 59.1854 170.529 59.2518 169.706L62.9562 161.863L68.3825 167.284L67.8715 153.622L66.1854 150.975Z" fill="#EBEBEB"/>
<path d="M68.515 160.514C68.3566 158.261 68.2646 155.987 68.004 153.744C68.004 153.667 67.8712 153.631 67.8508 153.744C67.4113 155.926 68.0602 164.535 68.0602 166.604H68.0347C67.8099 166.369 63.007 161.837 62.961 161.909C62.1588 163.156 59.4354 168.863 59.2515 169.384C57.4938 166.492 50.0544 155.103 47.9595 152.369C47.9494 152.352 47.9326 152.339 47.913 152.334C47.8933 152.328 47.8724 152.331 47.8548 152.341C47.8372 152.351 47.8243 152.368 47.819 152.388C47.8138 152.408 47.8165 152.428 47.8267 152.446C49.3595 155.512 59.0164 170.539 59.1493 170.498C60.5829 167.803 61.8773 165.037 63.0274 162.21C63.8398 163.196 68.6836 168.316 68.6989 167.979C68.7695 165.489 68.7081 162.997 68.515 160.514Z" fill="#263238"/>
<path d="M189.984 127.063H174.18C172.648 127.061 171.179 126.452 170.095 125.368C169.012 124.285 168.403 122.816 168.401 121.284C168.401 119.751 169.01 118.281 170.094 117.197C171.178 116.114 172.648 115.505 174.18 115.505H189.984C191.516 115.505 192.986 116.114 194.07 117.197C195.154 118.281 195.763 119.751 195.763 121.284C195.763 122.043 195.613 122.794 195.323 123.495C195.032 124.196 194.607 124.833 194.07 125.37C193.533 125.907 192.896 126.332 192.195 126.623C191.494 126.913 190.743 127.063 189.984 127.063Z" fill="#455A64"/>
<path d="M177.634 121.182C177.645 120.999 177.705 120.823 177.808 120.671L177.951 120.461L178.252 120.16L178.605 119.904C179.09 119.596 179.632 119.385 180.199 119.286C181.506 119.026 182.852 119.026 184.159 119.286C184.718 119.382 185.254 119.589 185.732 119.894C185.855 119.976 185.978 120.068 186.095 120.155L186.391 120.451C186.469 120.563 186.541 120.679 186.606 120.799C186.656 120.922 186.697 121.048 186.729 121.177H184.138C184.118 121.179 184.098 121.175 184.08 121.165C184.063 121.155 184.049 121.139 184.041 121.121C183.97 120.983 183.864 120.867 183.734 120.784C183.604 120.7 183.455 120.652 183.3 120.645C182.546 120.597 181.79 120.597 181.037 120.645C180.883 120.652 180.735 120.699 180.605 120.781C180.476 120.864 180.371 120.979 180.301 121.115C180.301 121.151 180.265 121.177 180.214 121.177H177.634V121.182Z" fill="white"/>
<path d="M177.634 122.627V121.682H180.189C180.189 121.738 180.189 121.799 180.189 121.866V122.627C180.196 122.671 180.192 122.717 180.178 122.76C180.164 122.803 180.141 122.842 180.109 122.874C180.077 122.905 180.038 122.929 179.995 122.943C179.952 122.957 179.907 122.961 179.862 122.954H177.956C177.912 122.961 177.866 122.958 177.824 122.944C177.781 122.93 177.742 122.906 177.711 122.874C177.679 122.842 177.656 122.803 177.642 122.76C177.629 122.717 177.626 122.671 177.634 122.627Z" fill="white"/>
<path d="M184.159 122.658C184.159 122.336 184.159 122.014 184.159 121.697H186.688V121.753C186.688 122.05 186.688 122.351 186.688 122.648C186.693 122.69 186.688 122.734 186.674 122.774C186.66 122.815 186.637 122.852 186.606 122.882C186.576 122.913 186.539 122.936 186.498 122.95C186.457 122.964 186.414 122.969 186.371 122.964H184.445C184.405 122.966 184.366 122.959 184.329 122.944C184.292 122.929 184.259 122.906 184.231 122.877C184.204 122.848 184.184 122.813 184.171 122.775C184.159 122.738 184.154 122.697 184.159 122.658Z" fill="white"/>
<path d="M125.145 224.307H121.64V226.596H125.145V224.307Z" fill="#455A64"/>
<path d="M129.687 224.153H126.182V226.442H129.687V224.153Z" fill="#455A64"/>
<path d="M134.234 224H130.729V226.289H134.234V224Z" fill="#455A64"/>
<path d="M138.781 223.852H135.276V226.141H138.781V223.852Z" fill="#455A64"/>
<path d="M143.329 223.698H139.824V225.987H143.329V223.698Z" fill="#455A64"/>
<path d="M147.877 223.551H144.372V225.84H147.877V223.551Z" fill="#455A64"/>
<path d="M152.424 223.396H148.919V225.686H152.424V223.396Z" fill="#455A64"/>
<path d="M156.972 223.244H153.467V225.533H156.972V223.244Z" fill="#455A64"/>
<path d="M161.514 223.096H158.009V225.385H161.514V223.096Z" fill="#455A64"/>
<path d="M162.377 227.908H120.775V225.124L162.377 223.964V227.908Z" fill="#37474F"/>
<path d="M202.977 216.928H134.306L145.225 165.803H213.896L202.977 216.928Z" fill="#455A64"/>
<path d="M205.517 216.928H136.846L147.765 165.803H216.436L205.517 216.928Z" fill="#37474F"/>
<path d="M180.993 191.275C182.856 189.553 183.174 186.867 181.703 185.275C180.233 183.683 177.53 183.789 175.667 185.511C173.803 187.232 173.485 189.918 174.956 191.51C176.427 193.102 179.13 192.996 180.993 191.275Z" fill="#263238"/>
<path d="M186.095 230.279H152.321V227.653L186.095 226.564V230.279Z" fill="#455A64"/>
<path d="M195.277 230.274H177.144L166.22 201.625H184.353L195.277 230.274Z" fill="#455A64"/>
<path d="M198.262 230.274H180.128L169.209 201.625H187.343L198.262 230.274Z" fill="#263238"/>
<path d="M119.493 230.975H84.6717C81.7031 230.975 86.0002 222.513 96.8477 219.269C107.695 216.024 122.916 227.802 119.493 230.975Z" fill="#37474F"/>
<path d="M105.831 230.975C105.859 230.01 106.019 229.055 106.306 228.134C106.587 227.205 106.98 226.315 107.476 225.482C107.976 224.645 108.6 223.889 109.326 223.239C110.044 222.587 110.873 222.068 111.773 221.706C111.4 222.013 110.976 222.217 110.634 222.559L110.123 223.014L109.612 223.525C108.966 224.199 108.401 224.944 107.926 225.748C107.444 226.551 107.03 227.394 106.689 228.267C106.343 229.149 106.056 230.054 105.831 230.975Z" fill="#263238"/>
<path d="M109.954 222.922C112.022 223.606 113.979 224.589 115.764 225.839C116.665 226.462 117.481 227.201 118.191 228.036C118.539 228.464 118.839 228.928 119.085 229.421C119.328 229.914 119.467 230.451 119.494 231C119.372 230.48 119.159 229.985 118.865 229.539C118.587 229.091 118.262 228.675 117.894 228.297C117.15 227.543 116.337 226.858 115.467 226.253C114.604 225.63 113.689 225.073 112.775 224.521C112.315 224.245 111.845 223.98 111.375 223.724C110.904 223.469 110.429 223.182 109.954 222.922Z" fill="#263238"/>
<path d="M121.987 114.908C121.686 117.757 120.6 120.468 118.849 122.736C117.098 125.005 114.752 126.742 112.071 127.755C109.39 128.767 106.481 129.015 103.668 128.471C100.854 127.927 98.2473 126.611 96.1378 124.672L88.3867 125.827L92.2597 119.138C91.292 116.782 90.9267 114.222 91.1969 111.689C91.3954 109.658 91.9936 107.686 92.9572 105.887C93.9209 104.089 95.2308 102.498 96.8116 101.208C98.3925 99.9173 100.213 98.9524 102.168 98.3685C104.124 97.7846 106.175 97.5933 108.205 97.8056C110.234 98.0179 112.202 98.6296 113.994 99.6055C115.786 100.581 117.367 101.902 118.647 103.492C119.927 105.081 120.879 106.908 121.45 108.868C122.02 110.827 122.198 112.88 121.971 114.908H121.987Z" fill="white"/>
<path d="M121.987 114.907C121.689 117.759 120.609 120.474 118.865 122.75C118.432 123.316 117.964 123.856 117.465 124.365C116.947 124.856 116.402 125.317 115.83 125.744C114.692 126.611 113.436 127.311 112.1 127.824C110.765 128.347 109.363 128.681 107.936 128.815C107.221 128.882 106.502 128.896 105.785 128.856C105.066 128.839 104.351 128.766 103.644 128.636C100.788 128.112 98.1337 126.803 95.9796 124.855L96.1636 124.912L88.4329 126.102L87.876 126.204L88.157 125.693L92.0096 118.985V119.25C91.1055 117.053 90.7148 114.678 90.8669 112.306C91.019 109.935 91.7101 107.629 92.8875 105.565C94.065 103.501 95.6977 101.732 97.6616 100.394C99.6254 99.056 101.869 98.1835 104.22 97.8429C106.572 97.5024 108.971 97.7027 111.234 98.4288C113.496 99.1549 115.564 100.388 117.278 102.033C118.993 103.678 120.31 105.693 121.128 107.924C121.947 110.155 122.246 112.543 122.002 114.907H121.987ZM121.987 114.907C122.229 112.579 121.935 110.225 121.127 108.028C120.319 105.831 119.018 103.848 117.325 102.231C115.631 100.615 113.59 99.4076 111.358 98.7025C109.125 97.9973 106.761 97.8129 104.446 98.1635C102.151 98.5058 99.9641 99.3693 98.0541 100.688C96.1651 102.017 94.5859 103.739 93.4249 105.736C92.2824 107.743 91.6082 109.982 91.4526 112.286C91.3098 114.595 91.6852 116.906 92.5512 119.051L92.6074 119.189L92.5307 119.312L88.6373 125.99L88.3614 125.581L96.1074 124.498H96.2147L96.2913 124.569C98.3587 126.505 100.924 127.826 103.7 128.386C104.392 128.525 105.095 128.611 105.8 128.642C106.504 128.69 107.211 128.69 107.915 128.642C109.329 128.534 110.721 128.227 112.049 127.732C113.384 127.249 114.641 126.573 115.779 125.724C116.349 125.3 116.895 124.845 117.414 124.36C117.915 123.856 118.384 123.322 118.819 122.761C120.582 120.487 121.679 117.768 121.987 114.907Z" fill="#263238"/>
<path d="M115.226 113.768C115.227 114.139 115.118 114.502 114.912 114.811C114.707 115.12 114.414 115.361 114.072 115.504C113.729 115.646 113.352 115.684 112.988 115.612C112.624 115.541 112.289 115.362 112.027 115.1C111.764 114.838 111.585 114.504 111.512 114.14C111.439 113.776 111.476 113.399 111.618 113.056C111.76 112.713 112 112.42 112.308 112.214C112.617 112.008 112.98 111.897 113.351 111.897C113.597 111.897 113.84 111.945 114.068 112.038C114.295 112.132 114.502 112.27 114.676 112.443C114.851 112.617 114.989 112.823 115.083 113.051C115.177 113.278 115.226 113.522 115.226 113.768Z" fill="#263238"/>
<path d="M108.513 113.768C108.514 114.139 108.405 114.502 108.199 114.811C107.994 115.12 107.701 115.362 107.358 115.504C107.015 115.647 106.638 115.684 106.273 115.612C105.909 115.54 105.574 115.361 105.312 115.099C105.049 114.836 104.871 114.501 104.798 114.137C104.726 113.773 104.764 113.396 104.906 113.053C105.049 112.71 105.29 112.417 105.599 112.211C105.908 112.006 106.272 111.896 106.643 111.897C107.139 111.897 107.615 112.094 107.965 112.445C108.316 112.796 108.513 113.272 108.513 113.768Z" fill="#263238"/>
<path d="M101.804 113.768C101.805 114.139 101.696 114.502 101.491 114.811C101.285 115.12 100.993 115.361 100.65 115.504C100.307 115.646 99.9303 115.684 99.5662 115.612C99.2021 115.541 98.8675 115.362 98.6047 115.1C98.342 114.838 98.1629 114.504 98.0901 114.14C98.0174 113.776 98.0542 113.399 98.196 113.056C98.3377 112.713 98.5781 112.42 98.8866 112.214C99.195 112.008 99.5578 111.897 99.9289 111.897C100.425 111.897 100.902 112.094 101.253 112.445C101.605 112.795 101.803 113.271 101.804 113.768Z" fill="#263238"/>
<path d="M128.542 34.6786C128.843 37.5282 129.929 40.2384 131.68 42.5071C133.43 44.7757 135.776 46.5136 138.456 47.5271C141.137 48.5406 144.046 48.7899 146.859 48.2471C149.673 47.7043 152.28 46.3908 154.391 44.453L162.127 45.5873L158.259 38.899C159.146 36.7211 159.525 34.3696 159.367 32.0233C159.209 29.6769 158.518 27.3975 157.347 25.3582C156.176 23.319 154.555 21.5735 152.608 20.2545C150.661 18.9355 148.439 18.0777 146.111 17.7462C143.783 17.4148 141.41 17.6184 139.172 18.3417C136.935 19.0649 134.891 20.2888 133.197 21.9202C131.504 23.5516 130.204 25.5476 129.398 27.7566C128.591 29.9656 128.299 32.3294 128.542 34.6684V34.6786Z" fill="white"/>
<path d="M133.171 21.8992C134.856 20.2375 136.901 18.9853 139.146 18.2393C141.392 17.4934 143.78 17.2736 146.124 17.597C148.485 17.9084 150.743 18.7561 152.725 20.0751C155.729 22.0799 157.947 25.0612 159.004 28.514C160.06 31.9668 159.891 35.6787 158.525 39.0211V38.7554L162.367 45.4744L162.648 45.9853L162.091 45.8985L154.355 44.7131L154.539 44.6568C152.385 46.6045 149.731 47.9137 146.875 48.4379C146.168 48.5674 145.452 48.6408 144.734 48.6576C144.019 48.695 143.302 48.6814 142.588 48.6167C139.723 48.3435 136.989 47.2824 134.689 45.551C134.117 45.1235 133.571 44.6629 133.054 44.1714C132.556 43.6611 132.088 43.122 131.654 42.5568C129.338 39.5307 128.212 35.7602 128.49 31.9596C128.767 28.1589 130.43 24.5922 133.161 21.935L133.171 21.8992ZM131.71 42.4853C132.145 43.045 132.615 43.5773 133.115 44.0795C133.632 44.5674 134.178 45.023 134.75 45.4437C135.888 46.2971 137.147 46.9757 138.485 47.4568C139.813 47.9499 141.202 48.256 142.614 48.3663C143.32 48.4149 144.028 48.4149 144.734 48.3663C145.438 48.3351 146.138 48.2497 146.829 48.1109C149.605 47.5511 152.17 46.2295 154.238 44.2941L154.314 44.2225H154.422L162.168 45.3057L161.892 45.7145L157.998 39.0364L157.922 38.9087L157.978 38.7707C158.845 36.6342 159.217 34.329 159.066 32.0281C158.915 29.7272 158.244 27.4905 157.104 25.4861C155.945 23.4882 154.365 21.7658 152.475 20.4379C150.566 19.1205 148.382 18.2571 146.088 17.9138C143.056 17.4457 139.954 17.8999 137.184 19.2173C134.414 20.5347 132.103 22.6546 130.553 25.3016C129.003 27.9487 128.284 31.0006 128.491 34.0613C128.697 37.1219 129.819 40.0498 131.71 42.4649V42.4853Z" fill="#263238"/>
<path d="M145.306 34.9594V36.8908C145.311 37.0831 145.276 37.2744 145.204 37.4529C145.132 37.6315 145.025 37.7937 144.889 37.9298C144.753 38.0658 144.591 38.1729 144.412 38.2446C144.234 38.3163 144.043 38.3511 143.85 38.347C143.464 38.3456 143.095 38.1918 142.822 37.919C142.549 37.6462 142.395 37.2766 142.394 36.8908V33.8251C142.394 33.7944 142.425 33.7944 142.425 33.7638C142.425 33.7331 142.394 33.7331 142.394 33.7076C142.404 33.3246 142.561 32.9602 142.832 32.6893C143.103 32.4184 143.467 32.2617 143.85 32.2513C144.308 32.2873 144.769 32.2281 145.203 32.0775C145.637 31.9269 146.035 31.6882 146.373 31.3763C146.71 31.0644 146.979 30.686 147.163 30.2651C147.347 29.8441 147.442 29.3896 147.442 28.9302C147.442 28.4707 147.347 28.0162 147.163 27.5953C146.979 27.1743 146.71 26.796 146.373 26.4841C146.035 26.1722 145.637 25.9334 145.203 25.7828C144.769 25.6322 144.308 25.5731 143.85 25.609C143.273 25.6067 142.706 25.7566 142.205 26.0437C141.705 26.3308 141.289 26.7448 140.999 27.2441C140.9 27.4131 140.768 27.5607 140.611 27.6781C140.453 27.7956 140.275 27.8806 140.084 27.9281C139.894 27.9757 139.696 27.9849 139.502 27.9552C139.309 27.9254 139.123 27.8574 138.955 27.755C138.791 27.658 138.647 27.5295 138.532 27.3767C138.417 27.224 138.333 27.05 138.286 26.8648C138.238 26.6797 138.228 26.487 138.255 26.2977C138.282 26.1085 138.347 25.9266 138.444 25.7623C138.961 24.8651 139.693 24.1105 140.574 23.5666C141.456 23.0226 142.458 22.7064 143.492 22.6463C144.526 22.5862 145.558 22.7841 146.496 23.2223C147.435 23.6605 148.249 24.3252 148.867 25.1565C149.484 25.9878 149.885 26.9596 150.034 27.9844C150.182 29.0092 150.073 30.0548 149.717 31.0272C149.361 31.9995 148.769 32.868 147.993 33.5544C147.218 34.2408 146.284 34.7236 145.276 34.9594H145.306ZM145.306 41.4638V41.9747C145.311 42.1673 145.277 42.3588 145.206 42.5377C145.134 42.7166 145.027 42.8791 144.891 43.0153C144.755 43.1515 144.592 43.2586 144.413 43.3301C144.234 43.4015 144.043 43.4358 143.85 43.4309C143.464 43.4309 143.094 43.2775 142.821 43.0044C142.547 42.7313 142.394 42.3609 142.394 41.9747V41.4638C142.399 41.0792 142.554 40.7119 142.826 40.4399C143.098 40.168 143.466 40.0128 143.85 40.0075C144.042 40.0055 144.232 40.0418 144.41 40.1142C144.587 40.1867 144.749 40.2939 144.884 40.4295C145.02 40.5651 145.127 40.7265 145.2 40.9041C145.272 41.0817 145.308 41.2719 145.306 41.4638Z" fill="#3B5CCC"/>
</g>
<defs>
<clipPath id="clip0_2750_5986">
<rect width="234" height="231" fill="white"/>
</clipPath>
</defs>
</svg>
