<svg width="50" height="50" viewBox="0 0 50 50" fill="none" xmlns="http://www.w3.org/2000/svg">
<rect width="50" height="50" rx="5" fill="#3B5CCC" fill-opacity="0.25"/>
<mask id="path-2-outside-1_2802_6836" maskUnits="userSpaceOnUse" x="8.25977" y="9.25977" width="33" height="32" fill="black">
<rect fill="white" x="8.25977" y="9.25977" width="33" height="32"/>
<path d="M19.3594 11.3818C22.0526 10.2663 25.0168 9.97432 27.876 10.543C30.7351 11.1118 33.3615 12.5158 35.4229 14.5771C37.4842 16.6385 38.8882 19.2648 39.457 22.124C40.0257 24.9832 39.7337 27.9473 38.6182 30.6406C37.5026 33.3338 35.6132 35.6363 33.1895 37.2559C30.7655 38.8754 27.9152 39.7402 25 39.7402C22.6296 39.7402 20.387 39.1785 18.4014 38.1826L10.8604 39.7305C10.6959 39.7641 10.525 39.7125 10.4062 39.5938C10.2876 39.475 10.2359 39.3041 10.2695 39.1396L11.8174 31.5986C10.82 29.6115 10.2598 27.3718 10.2598 25C10.2598 22.0848 11.1247 19.2345 12.7441 16.8105C14.3637 14.3868 16.6663 12.4975 19.3594 11.3818ZM27.6807 11.5234C25.0156 10.9934 22.2527 11.2658 19.7422 12.3057C17.2317 13.3457 15.0849 15.1068 13.5752 17.3662C12.0656 19.6257 11.2598 22.2826 11.2598 25C11.2598 27.2727 11.8095 29.4131 12.7861 31.3008C12.8386 31.4023 12.855 31.5189 12.832 31.6309L11.4014 38.5977L18.3691 37.168C18.4809 37.145 18.5978 37.1616 18.6992 37.2139C20.5854 38.189 22.7291 38.7402 25 38.7402C27.7174 38.7402 30.3743 37.9344 32.6338 36.4248C34.8931 34.9151 36.6544 32.7691 37.6943 30.2588C38.7343 27.7481 39.0067 24.9847 38.4766 22.3193C37.9464 19.654 36.6374 17.2058 34.7158 15.2842C32.7942 13.3626 30.3459 12.0536 27.6807 11.5234ZM19.3047 24.0508C19.8288 24.0508 20.2537 24.4759 20.2539 25C20.2539 25.5243 19.8289 25.9492 19.3047 25.9492C18.7804 25.9492 18.3555 25.5243 18.3555 25C18.3556 24.4758 18.7805 24.0508 19.3047 24.0508ZM25.001 24.0508C25.5251 24.0509 25.95 24.4759 25.9502 25C25.9502 25.5243 25.5252 25.9491 25.001 25.9492C24.4767 25.9492 24.0518 25.5243 24.0518 25C24.0519 24.4758 24.4768 24.0508 25.001 24.0508ZM30.6973 24.0508C31.2214 24.0509 31.6463 24.4759 31.6465 25C31.6465 25.5243 31.2215 25.9491 30.6973 25.9492C30.173 25.9492 29.748 25.5243 29.748 25C29.7482 24.4758 30.1731 24.0508 30.6973 24.0508Z"/>
</mask>
<path d="M19.3594 11.3818C22.0526 10.2663 25.0168 9.97432 27.876 10.543C30.7351 11.1118 33.3615 12.5158 35.4229 14.5771C37.4842 16.6385 38.8882 19.2648 39.457 22.124C40.0257 24.9832 39.7337 27.9473 38.6182 30.6406C37.5026 33.3338 35.6132 35.6363 33.1895 37.2559C30.7655 38.8754 27.9152 39.7402 25 39.7402C22.6296 39.7402 20.387 39.1785 18.4014 38.1826L10.8604 39.7305C10.6959 39.7641 10.525 39.7125 10.4062 39.5938C10.2876 39.475 10.2359 39.3041 10.2695 39.1396L11.8174 31.5986C10.82 29.6115 10.2598 27.3718 10.2598 25C10.2598 22.0848 11.1247 19.2345 12.7441 16.8105C14.3637 14.3868 16.6663 12.4975 19.3594 11.3818ZM27.6807 11.5234C25.0156 10.9934 22.2527 11.2658 19.7422 12.3057C17.2317 13.3457 15.0849 15.1068 13.5752 17.3662C12.0656 19.6257 11.2598 22.2826 11.2598 25C11.2598 27.2727 11.8095 29.4131 12.7861 31.3008C12.8386 31.4023 12.855 31.5189 12.832 31.6309L11.4014 38.5977L18.3691 37.168C18.4809 37.145 18.5978 37.1616 18.6992 37.2139C20.5854 38.189 22.7291 38.7402 25 38.7402C27.7174 38.7402 30.3743 37.9344 32.6338 36.4248C34.8931 34.9151 36.6544 32.7691 37.6943 30.2588C38.7343 27.7481 39.0067 24.9847 38.4766 22.3193C37.9464 19.654 36.6374 17.2058 34.7158 15.2842C32.7942 13.3626 30.3459 12.0536 27.6807 11.5234ZM19.3047 24.0508C19.8288 24.0508 20.2537 24.4759 20.2539 25C20.2539 25.5243 19.8289 25.9492 19.3047 25.9492C18.7804 25.9492 18.3555 25.5243 18.3555 25C18.3556 24.4758 18.7805 24.0508 19.3047 24.0508ZM25.001 24.0508C25.5251 24.0509 25.95 24.4759 25.9502 25C25.9502 25.5243 25.5252 25.9491 25.001 25.9492C24.4767 25.9492 24.0518 25.5243 24.0518 25C24.0519 24.4758 24.4768 24.0508 25.001 24.0508ZM30.6973 24.0508C31.2214 24.0509 31.6463 24.4759 31.6465 25C31.6465 25.5243 31.2215 25.9491 30.6973 25.9492C30.173 25.9492 29.748 25.5243 29.748 25C29.7482 24.4758 30.1731 24.0508 30.6973 24.0508Z" fill="white"/>
<path d="M19.3594 11.3818L18.9767 10.458L18.9767 10.458L19.3594 11.3818ZM27.876 10.543L28.0711 9.56219L28.071 9.56218L27.876 10.543ZM35.4229 14.5771L36.13 13.87L36.13 13.87L35.4229 14.5771ZM39.457 22.124L40.4378 21.9289L40.4378 21.9289L39.457 22.124ZM38.6182 30.6406L39.542 31.0233L39.5421 31.0233L38.6182 30.6406ZM33.1895 37.2559L33.745 38.0873L33.7451 38.0873L33.1895 37.2559ZM25 39.7402L25 40.7402H25L25 39.7402ZM18.4014 38.1826L18.8497 37.2887L18.5399 37.1333L18.2003 37.203L18.4014 38.1826ZM10.8604 39.7305L11.0605 40.7102L11.0614 40.71L10.8604 39.7305ZM10.4062 39.5938L9.69872 40.3004L9.69915 40.3009L10.4062 39.5938ZM10.2695 39.1396L9.28995 38.9386L9.2898 38.9393L10.2695 39.1396ZM11.8174 31.5986L12.797 31.7997L12.8667 31.46L12.7111 31.1501L11.8174 31.5986ZM10.2598 25L9.25977 25V25L10.2598 25ZM12.7441 16.8105L11.9127 16.255L11.9127 16.255L12.7441 16.8105ZM27.6807 11.5234L27.8758 10.5427L27.8757 10.5426L27.6807 11.5234ZM19.7422 12.3057L19.3595 11.3818L19.3595 11.3818L19.7422 12.3057ZM13.5752 17.3662L12.7437 16.8106L12.7437 16.8107L13.5752 17.3662ZM11.2598 25L10.2598 25L10.2598 25L11.2598 25ZM12.7861 31.3008L13.6747 30.842L13.6743 30.8413L12.7861 31.3008ZM12.832 31.6309L13.8116 31.832L13.8116 31.8319L12.832 31.6309ZM11.4014 38.5977L10.4218 38.3965L10.1167 39.8821L11.6024 39.5772L11.4014 38.5977ZM18.3691 37.168L18.5701 38.1476L18.5702 38.1476L18.3691 37.168ZM18.6992 37.2139L19.1585 36.3256L19.1571 36.3249L18.6992 37.2139ZM25 38.7402L25 39.7402H25L25 38.7402ZM32.6338 36.4248L33.1893 37.2563L33.1894 37.2563L32.6338 36.4248ZM37.6943 30.2588L38.6182 30.6415L38.6182 30.6415L37.6943 30.2588ZM38.4766 22.3193L39.4574 22.1243L39.4573 22.1242L38.4766 22.3193ZM34.7158 15.2842L35.4229 14.5771L35.4229 14.5771L34.7158 15.2842ZM19.3047 24.0508L19.3048 23.0508H19.3047V24.0508ZM20.2539 25H21.2539V24.9997L20.2539 25ZM19.3047 25.9492V26.9492H19.3048L19.3047 25.9492ZM18.3555 25L17.3555 24.9997V25H18.3555ZM25.001 24.0508L25.0011 23.0508H25.001V24.0508ZM25.9502 25H26.9502V24.9997L25.9502 25ZM25.001 25.9492V26.9492H25.0011L25.001 25.9492ZM24.0518 25L23.0518 24.9997V25H24.0518ZM30.6973 24.0508L30.6974 23.0508H30.6973V24.0508ZM31.6465 25H32.6465V24.9997L31.6465 25ZM30.6973 25.9492V26.9492H30.6974L30.6973 25.9492ZM29.748 25L28.748 24.9997V25H29.748ZM19.3594 11.3818L19.742 12.3057C22.2526 11.2659 25.0157 10.9937 27.6809 11.5238L27.876 10.543L28.071 9.56218C25.0179 8.95495 21.8527 9.26672 18.9767 10.458L19.3594 11.3818ZM27.876 10.543L27.6809 11.5237C30.346 12.054 32.7942 13.3627 34.7157 15.2843L35.4229 14.5771L36.13 13.87C33.9288 11.6689 31.1243 10.1696 28.0711 9.56219L27.876 10.543ZM35.4229 14.5771L34.7157 15.2842C36.6373 17.2058 37.946 19.654 38.4762 22.3191L39.457 22.124L40.4378 21.9289C39.8304 18.8757 38.3311 16.0712 36.13 13.87L35.4229 14.5771ZM39.457 22.124L38.4762 22.3191C39.0063 24.9843 38.7341 27.7474 37.6943 30.258L38.6182 30.6406L39.5421 31.0233C40.7332 28.1473 41.0451 24.9821 40.4378 21.9289L39.457 22.124ZM38.6182 30.6406L37.6943 30.2579C36.6544 32.7684 34.8931 34.9147 32.6339 36.4244L33.1895 37.2559L33.7451 38.0873C36.3332 36.3578 38.3508 33.8991 39.542 31.0233L38.6182 30.6406ZM33.1895 37.2559L32.6339 36.4244C30.3744 37.934 27.7173 38.7402 25 38.7402L25 39.7402L25 40.7402C28.113 40.7402 31.1567 39.8167 33.745 38.0873L33.1895 37.2559ZM25 39.7402L25 38.7402C22.7891 38.7402 20.6996 38.2166 18.8497 37.2887L18.4014 38.1826L17.953 39.0765C20.0743 40.1404 22.4701 40.7402 25 40.7402L25 39.7402ZM18.4014 38.1826L18.2003 37.203L10.6593 38.7509L10.8604 39.7305L11.0614 40.71L18.6024 39.1622L18.4014 38.1826ZM10.8604 39.7305L10.6602 38.7507C10.8258 38.7169 10.9954 38.7687 11.1134 38.8866L10.4062 39.5938L9.69915 40.3009C10.0546 40.6563 10.566 40.8112 11.0605 40.7102L10.8604 39.7305ZM10.4062 39.5938L11.1138 38.8871C11.231 39.0044 11.2833 39.1736 11.2493 39.34L10.2695 39.1396L9.2898 38.9393C9.18855 39.4345 9.34429 39.9456 9.69872 40.3004L10.4062 39.5938ZM10.2695 39.1396L11.2491 39.3407L12.797 31.7997L11.8174 31.5986L10.8378 31.3976L9.28995 38.9386L10.2695 39.1396ZM11.8174 31.5986L12.7111 31.1501C11.7821 29.299 11.2598 27.2125 11.2598 25L10.2598 25L9.25977 25C9.25981 27.5311 9.85803 29.9241 10.9236 32.0472L11.8174 31.5986ZM10.2598 25L11.2598 25C11.2598 22.2827 12.066 19.6256 13.5756 17.3661L12.7441 16.8105L11.9127 16.255C10.1833 18.8433 9.2598 21.887 9.25977 25L10.2598 25ZM12.7441 16.8105L13.5756 17.3661C15.0853 15.1069 17.2316 13.3457 19.7421 12.3057L19.3594 11.3818L18.9767 10.458C16.1009 11.6493 13.6422 13.6667 11.9127 16.255L12.7441 16.8105ZM27.6807 11.5234L27.8757 10.5426C25.0166 9.97399 22.0526 10.2663 19.3595 11.3818L19.7422 12.3057L20.1249 13.2296C22.4527 12.2654 25.0145 12.0128 27.4856 12.5042L27.6807 11.5234ZM19.7422 12.3057L19.3595 11.3818C16.6664 12.4974 14.3634 14.3866 12.7437 16.8106L13.5752 17.3662L14.4067 17.9218C15.8064 15.8269 17.797 14.1939 20.1249 13.2295L19.7422 12.3057ZM13.5752 17.3662L12.7437 16.8107C11.1242 19.2346 10.2598 22.0849 10.2598 25L11.2598 25L12.2598 25C12.2598 22.4804 13.007 20.0168 14.4067 17.9217L13.5752 17.3662ZM11.2598 25L10.2598 25C10.2598 27.4359 10.8494 29.7336 11.898 31.7603L12.7861 31.3008L13.6743 30.8413C12.7696 29.0926 12.2598 27.1094 12.2598 25L11.2598 25ZM12.7861 31.3008L11.8976 31.7596C11.8462 31.66 11.829 31.5439 11.8524 31.4298L12.832 31.6309L13.8116 31.8319C13.881 31.4939 13.8309 31.1446 13.6747 30.842L12.7861 31.3008ZM12.832 31.6309L11.8525 31.4297L10.4218 38.3965L11.4014 38.5977L12.3809 38.7988L13.8116 31.832L12.832 31.6309ZM11.4014 38.5977L11.6024 39.5772L18.5701 38.1476L18.3691 37.168L18.1681 36.1884L11.2004 37.6181L11.4014 38.5977ZM18.3691 37.168L18.5702 38.1476C18.4552 38.1711 18.3399 38.1536 18.2413 38.1029L18.6992 37.2139L19.1571 36.3249C18.8557 36.1696 18.5066 36.1189 18.1681 36.1884L18.3691 37.168ZM18.6992 37.2139L18.24 38.1022C20.2649 39.1491 22.5657 39.7402 25 39.7402L25 38.7402L25 37.7402C22.8925 37.7402 20.906 37.229 19.1585 36.3256L18.6992 37.2139ZM25 38.7402L25 39.7402C27.9151 39.7402 30.7654 38.8758 33.1893 37.2563L32.6338 36.4248L32.0782 35.5933C29.9833 36.9931 27.5196 37.7402 25 37.7402L25 38.7402ZM32.6338 36.4248L33.1894 37.2563C35.6131 35.6367 37.5025 33.3346 38.6182 30.6415L37.6943 30.2588L36.7705 29.8761C35.8062 32.2037 34.1731 34.1935 32.0782 35.5933L32.6338 36.4248ZM37.6943 30.2588L38.6182 30.6415C39.7338 27.9481 40.0261 24.9836 39.4574 22.1243L38.4766 22.3193L37.4958 22.5144C37.9873 24.9857 37.7347 27.5481 36.7705 29.8761L37.6943 30.2588ZM38.4766 22.3193L39.4573 22.1242C38.8886 19.2649 37.4843 16.6385 35.4229 14.5771L34.7158 15.2842L34.0087 15.9913C35.7905 17.7731 37.0042 20.0432 37.4958 22.5144L38.4766 22.3193ZM34.7158 15.2842L35.4229 14.5771C33.3616 12.5157 30.7351 11.1114 27.8758 10.5427L27.6807 11.5234L27.4856 12.5042C29.9568 12.9958 32.2269 14.2095 34.0087 15.9913L34.7158 15.2842ZM19.3047 24.0508L19.3046 25.0508C19.2763 25.0508 19.2539 25.028 19.2539 25.0003L20.2539 25L21.2539 24.9997C21.2535 23.9237 20.3813 23.0509 19.3048 23.0508L19.3047 24.0508ZM20.2539 25H19.2539C19.2539 24.9719 19.2768 24.9492 19.3046 24.9492L19.3047 25.9492L19.3048 26.9492C20.3811 26.9491 21.2539 26.0767 21.2539 25H20.2539ZM19.3047 25.9492V24.9492C19.3327 24.9492 19.3555 24.972 19.3555 25H18.3555H17.3555C17.3555 26.0766 18.2281 26.9492 19.3047 26.9492V25.9492ZM18.3555 25L19.3555 25.0003C19.3555 25.0279 19.3331 25.0508 19.3047 25.0508V24.0508V23.0508C18.2279 23.0508 17.3558 23.9238 17.3555 24.9997L18.3555 25ZM25.001 24.0508L25.0008 25.0508C24.9726 25.0508 24.9502 25.0281 24.9502 25.0003L25.9502 25L26.9502 24.9997C26.9498 23.9237 26.0776 23.0509 25.0011 23.0508L25.001 24.0508ZM25.9502 25H24.9502C24.9502 24.9718 24.9731 24.9492 25.0008 24.9492L25.001 25.9492L25.0011 26.9492C26.0774 26.9491 26.9502 26.0767 26.9502 25H25.9502ZM25.001 25.9492V24.9492C25.0289 24.9492 25.0518 24.972 25.0518 25H24.0518H23.0518C23.0518 26.0766 23.9244 26.9492 25.001 26.9492V25.9492ZM24.0518 25L25.0518 25.0003C25.0517 25.0279 25.0294 25.0508 25.001 25.0508V24.0508V23.0508C23.9242 23.0508 23.0521 23.9238 23.0518 24.9997L24.0518 25ZM30.6973 24.0508L30.6971 25.0508C30.6689 25.0508 30.6465 25.0281 30.6465 25.0003L31.6465 25L32.6465 24.9997C32.6461 23.9237 31.7739 23.051 30.6974 23.0508L30.6973 24.0508ZM31.6465 25H30.6465C30.6465 24.9718 30.6693 24.9492 30.6971 24.9492L30.6973 25.9492L30.6974 26.9492C31.7737 26.949 32.6465 26.0767 32.6465 25H31.6465ZM30.6973 25.9492V24.9492C30.7252 24.9492 30.748 24.972 30.748 25H29.748H28.748C28.748 26.0766 29.6207 26.9492 30.6973 26.9492V25.9492ZM29.748 25L30.748 25.0003C30.748 25.0279 30.7257 25.0508 30.6973 25.0508V24.0508V23.0508C29.6205 23.0508 28.7484 23.9238 28.748 24.9997L29.748 25Z" fill="white" mask="url(#path-2-outside-1_2802_6836)"/>
</svg>
