<svg width="234" height="231" viewBox="0 0 234 231" fill="none" xmlns="http://www.w3.org/2000/svg">
<g clip-path="url(#clip0_2609_9904)">
<path d="M29.5564 0H29.0454V69.2488H29.5564V0Z" fill="#C7C7C7"/>
<path d="M53.346 92.4307L51.4146 96.6818H7.18174L5.25546 92.4307L24.0839 79.3964H34.5175L53.346 92.4307Z" fill="#EBEBEB"/>
<path d="M35.8256 66.8371L34.5176 79.3962H24.084L22.776 66.8371H35.8256Z" fill="#DBDBDB"/>
<path d="M53.3461 92.4306L51.4096 96.6817H7.18187L5.25049 92.4306H53.3461Z" fill="#DBDBDB"/>
<path d="M81.188 0H80.6771V55.535H81.188V0Z" fill="#C7C7C7"/>
<path d="M104.978 78.7118L103.046 82.968H58.8134L56.8871 78.7118L75.7155 65.6775H86.1491L104.978 78.7118Z" fill="#EBEBEB"/>
<path d="M87.4573 53.1231L86.1492 65.6771H75.7157L74.4076 53.1231H87.4573Z" fill="#DBDBDB"/>
<path d="M104.978 78.7166L103.041 82.9677H58.8135L56.8821 78.7166H104.978Z" fill="#DBDBDB"/>
<path d="M14.0436 114.115L9.00058 122.244L11.5042 123.777C11.8551 124.005 12.1362 124.326 12.3165 124.704C12.4968 125.081 12.5693 125.502 12.5261 125.918C12.4851 126.382 12.4698 126.847 12.4801 127.313C12.4944 127.737 12.3913 128.156 12.1821 128.525C11.9729 128.894 11.6658 129.197 11.2947 129.403L8.73999 130.787L13.2772 139.238L15.832 137.854C16.1954 137.659 16.6055 137.568 17.0174 137.59C17.4292 137.613 17.827 137.748 18.167 137.981C18.5843 138.273 19.0176 138.541 19.4648 138.784C19.8281 138.984 20.1285 139.281 20.3324 139.642C20.5364 140.003 20.6358 140.413 20.6196 140.827L20.5276 143.755L30.0925 144.052L30.1794 141.114C30.1929 140.698 30.3213 140.295 30.5505 139.949C30.7796 139.602 31.1004 139.326 31.4772 139.152C31.702 139.044 31.9217 138.932 32.1414 138.814C32.3612 138.697 32.5758 138.574 32.7852 138.446C33.1379 138.229 33.5438 138.115 33.9579 138.115C34.3719 138.115 34.7778 138.229 35.1305 138.446L37.6393 139.979L42.6772 131.85L40.1685 130.292C39.8171 130.064 39.5357 129.743 39.3554 129.365C39.175 128.988 39.1027 128.567 39.1466 128.151C39.1875 127.689 39.2028 127.225 39.1925 126.761C39.1787 126.337 39.2826 125.917 39.4928 125.548C39.7029 125.179 40.011 124.876 40.3831 124.671L42.9378 123.287L38.4159 114.856L35.8305 116.241C35.4554 116.437 35.0332 116.525 34.611 116.495C34.1887 116.465 33.7831 116.319 33.4393 116.072C33.056 115.806 32.6575 115.561 32.2539 115.341C31.8817 115.147 31.5711 114.853 31.3572 114.492C31.1432 114.131 31.0344 113.717 31.0429 113.298L31.1604 110.365L21.6006 110.063L21.5086 113.001C21.4913 113.421 21.358 113.827 21.1235 114.175C20.8889 114.524 20.5624 114.8 20.1801 114.973C19.9655 115.071 19.756 115.178 19.5466 115.29C19.3371 115.403 19.1327 115.52 18.9334 115.643C18.5745 115.863 18.1616 115.98 17.7404 115.98C17.3191 115.98 16.9062 115.863 16.5473 115.643L14.0436 114.115ZM21.2685 120.696C22.599 119.741 24.1952 119.228 25.8328 119.227C27.4704 119.226 29.0671 119.738 30.3988 120.691C31.7305 121.644 32.7303 122.99 33.2577 124.54C33.7852 126.091 33.8137 127.767 33.3395 129.334C32.8652 130.902 31.912 132.281 30.6135 133.279C29.3151 134.277 27.7367 134.843 26.1 134.898C24.4634 134.953 22.8506 134.494 21.4883 133.585C20.1259 132.677 19.0824 131.364 18.5042 129.832C17.8949 128.217 17.8356 126.447 18.3354 124.795C18.8352 123.143 19.8662 121.702 21.2685 120.696Z" fill="#EBEBEB"/>
<path d="M223.788 34.7446C223.574 34.6191 223.399 34.4365 223.283 34.2172C223.166 33.998 223.113 33.7507 223.129 33.503C223.129 33.365 223.129 33.2271 223.129 33.0891C223.129 32.9511 223.129 32.8081 223.129 32.6701C223.113 32.4224 223.166 32.1751 223.283 31.9558C223.399 31.7366 223.574 31.554 223.788 31.4285L225.286 30.565L222.475 25.6855L220.958 26.5694C220.742 26.6932 220.496 26.754 220.248 26.745C220 26.7359 219.759 26.6574 219.553 26.5183C219.318 26.3701 219.078 26.2271 218.827 26.0993C218.606 25.9883 218.42 25.8184 218.289 25.6084C218.158 25.3983 218.088 25.1562 218.086 24.9088V23.1665H212.466V24.8884C212.46 25.1335 212.387 25.3722 212.254 25.5786C212.122 25.7849 211.935 25.9509 211.715 26.0584C211.464 26.1862 211.204 26.3293 210.989 26.4774C210.783 26.6165 210.542 26.6951 210.294 26.7041C210.046 26.7131 209.8 26.6523 209.584 26.5285L208.087 25.665L205.272 30.5446L206.774 31.4132C206.992 31.5383 207.171 31.7228 207.288 31.9453C207.406 32.1679 207.458 32.4192 207.438 32.6701C207.438 32.8081 207.438 32.946 207.438 33.084C207.438 33.2219 207.438 33.3599 207.438 33.4979C207.455 33.7469 207.401 33.9957 207.284 34.216C207.166 34.4363 206.99 34.6194 206.774 34.7446L205.272 35.6081L208.087 40.4876L209.579 39.6241C209.794 39.5007 210.04 39.4397 210.288 39.4478C210.536 39.4559 210.777 39.5329 210.984 39.6701C211.219 39.8253 211.463 39.9669 211.715 40.0942C211.935 40.2054 212.121 40.3755 212.251 40.5856C212.38 40.7958 212.45 41.0377 212.451 41.2847V43.0066H218.071V41.2796C218.073 41.0322 218.143 40.7901 218.274 40.58C218.405 40.37 218.591 40.2001 218.812 40.0891C219.063 39.9607 219.307 39.8191 219.543 39.665C219.748 39.5277 219.989 39.4506 220.236 39.4425C220.483 39.4344 220.728 39.4955 220.943 39.619L222.44 40.4825L225.25 35.603L223.788 34.7446ZM215.286 37.703C214.377 37.703 213.488 37.4333 212.731 36.928C211.975 36.4227 211.386 35.7045 211.038 34.8642C210.69 34.0239 210.599 33.0993 210.776 32.2073C210.954 31.3153 211.392 30.4959 212.035 29.8528C212.678 29.2097 213.497 28.7717 214.389 28.5943C215.281 28.4168 216.206 28.5079 217.046 28.8559C217.886 29.204 218.605 29.7934 219.11 30.5496C219.615 31.3058 219.885 32.1949 219.885 33.1044C219.884 33.7092 219.764 34.3079 219.532 34.8662C219.3 35.4245 218.959 35.9315 218.531 36.3582C218.102 36.7849 217.594 37.1228 217.034 37.3527C216.475 37.5826 215.876 37.6999 215.271 37.6979L215.286 37.703Z" fill="#EBEBEB"/>
<path d="M97.0325 162.921C96.8325 162.804 96.6662 162.637 96.5498 162.436C96.4334 162.236 96.3709 162.008 96.3683 161.777C96.3683 161.547 96.3683 161.322 96.3683 161.092C96.3435 160.861 96.3573 160.628 96.4092 160.402C96.4657 160.176 96.5822 159.97 96.7464 159.804C96.9198 159.652 97.1122 159.524 97.3187 159.421L98.5092 158.726V158.752L95.6683 153.887H95.7347L94.1712 154.807C93.8835 154.951 93.555 154.99 93.2413 154.92C92.9459 154.828 92.6654 154.693 92.4084 154.521L92.0201 154.301C91.8769 154.227 91.7474 154.128 91.6369 154.01C91.4104 153.775 91.2731 153.467 91.2486 153.141V151.328L91.3661 151.445L85.7457 151.496L85.9194 151.328V153.147C85.9032 153.408 85.8205 153.66 85.6792 153.88C85.5379 154.1 85.3427 154.28 85.1121 154.404L84.7289 154.633L84.3457 154.858C84.1974 154.951 84.0353 155.02 83.8654 155.063C83.5212 155.138 83.1616 155.097 82.8435 154.945L81.2595 154.041L81.5661 153.959L78.7712 158.849L78.6793 158.506L80.2632 159.416C80.486 159.569 80.6669 159.775 80.7892 160.016C80.9115 160.257 80.9713 160.525 80.9632 160.796V161.245V161.69C80.9661 161.863 80.942 162.035 80.8917 162.201C80.7854 162.546 80.5634 162.843 80.2632 163.044L78.6793 163.953L78.7661 163.631L81.5559 168.521L81.2698 168.444L82.8588 167.55C83.1777 167.401 83.5377 167.363 83.8807 167.443C84.0447 167.486 84.2014 167.553 84.3457 167.642L84.734 167.872L85.1172 168.097C85.2659 168.179 85.4005 168.284 85.5158 168.409C85.7459 168.66 85.8829 168.983 85.9041 169.323V171.147L85.7661 171.009L91.3865 171.066L91.3048 171.147V169.333C91.329 169.016 91.4626 168.716 91.6829 168.485C91.9147 168.282 92.1724 168.11 92.4493 167.974C92.7046 167.807 92.9813 167.674 93.272 167.581C93.5766 167.508 93.8972 167.546 94.1763 167.688L95.7449 168.598H95.7092L98.5398 163.728L97.0325 162.921ZM97.0325 162.921L98.5296 163.779L95.7347 168.664V168.69L94.161 167.795C93.8942 167.666 93.5907 167.634 93.3026 167.704C93.0076 167.792 92.7283 167.927 92.4749 168.102C92.2084 168.237 91.9624 168.409 91.7442 168.613C91.5462 168.827 91.4287 169.104 91.4121 169.395V171.204V171.285H91.3303L85.7099 171.341H85.5771V171.168V169.364C85.5559 169.098 85.4441 168.847 85.2603 168.654C85.1673 168.558 85.0605 168.477 84.9435 168.414L84.5449 168.189L84.1464 167.964C84.0343 167.896 83.9117 167.848 83.7836 167.821C83.5268 167.764 83.2581 167.796 83.0223 167.913L81.4895 168.828L81.3106 168.935L81.2033 168.751L78.3676 163.887L78.2501 163.682L78.4544 163.565L79.9873 162.66C80.191 162.52 80.3406 162.315 80.4114 162.078C80.4462 161.958 80.4634 161.835 80.4625 161.71V161.25V160.79C80.4634 160.666 80.4462 160.542 80.4114 160.423C80.3399 160.187 80.188 159.985 79.9822 159.85L78.4493 158.941L78.2296 158.818L78.3574 158.604L81.188 153.739L81.3055 153.54L81.4997 153.652L83.0325 154.557C83.2606 154.669 83.5203 154.7 83.7683 154.644C83.8934 154.617 84.0128 154.569 84.1209 154.501L84.5194 154.276L84.923 154.051C85.0366 153.991 85.14 153.913 85.2296 153.821C85.4104 153.633 85.519 153.387 85.5362 153.126V151.333V151.154H85.7048L91.3252 151.205H91.453V151.323V153.126C91.4717 153.407 91.5852 153.674 91.7749 153.882C91.9897 154.086 92.2322 154.258 92.4953 154.393C92.736 154.565 93.0013 154.7 93.2822 154.792C93.5616 154.858 93.8553 154.827 94.115 154.705L95.6939 153.821L95.7347 153.796V153.836L98.5296 158.726L97.334 159.411C97.1285 159.51 96.9377 159.638 96.7668 159.789C96.6032 159.949 96.4865 160.15 96.4296 160.371C96.3758 160.595 96.3603 160.827 96.3836 161.056C96.3836 161.286 96.3836 161.516 96.3836 161.741C96.3784 161.977 96.4356 162.211 96.5495 162.418C96.6635 162.625 96.8301 162.799 97.0325 162.921Z" fill="#EBEBEB"/>
<path d="M88.5301 165.879C87.7474 165.876 86.9778 165.679 86.2898 165.306C85.6018 164.933 85.0168 164.396 84.587 163.742C84.1572 163.088 83.896 162.337 83.8267 161.558C83.7574 160.778 83.8821 159.994 84.1897 159.274C84.4974 158.554 84.9783 157.922 85.5897 157.434C86.2011 156.945 86.924 156.615 87.6937 156.474C88.4635 156.333 89.2563 156.384 90.0013 156.624C90.7464 156.863 91.4205 157.284 91.9636 157.847C92.8421 158.765 93.32 159.995 93.2921 161.265C93.2511 162.497 92.734 163.664 91.8496 164.522C90.9652 165.38 89.7825 165.861 88.5505 165.864L88.5301 165.879ZM88.5301 165.879C89.1283 165.879 89.7205 165.759 90.2716 165.526C90.8228 165.293 91.3218 164.953 91.7393 164.524C92.1569 164.096 92.4845 163.588 92.7029 163.031C92.9213 162.474 93.0261 161.879 93.0111 161.281C92.9765 160.114 92.4889 159.006 91.6514 158.192C90.8139 157.379 89.6926 156.923 88.525 156.922C87.3352 156.922 86.1941 157.395 85.3528 158.236C84.5115 159.078 84.0388 160.219 84.0388 161.409C84.0388 162.598 84.5115 163.739 85.3528 164.581C86.1941 165.422 87.3352 165.895 88.525 165.895L88.5301 165.879Z" fill="#EBEBEB"/>
<path d="M4.97986 223.673L32.985 223.55L60.9901 223.504L117 223.422L173.01 223.504L201.016 223.55L229.021 223.673L201.016 223.801L173.01 223.847L117 223.928L60.9901 223.847L32.985 223.801L4.97986 223.673Z" fill="#263238"/>
<path d="M224.442 45.9907H139.726V131.615H224.442V45.9907Z" fill="#EBEBEB"/>
<path d="M178.676 40.8251C181.501 37.509 186.34 36.7119 191.02 37.6572C195.701 38.6025 201.306 40.963 201.817 48.7908C202.236 55.147 200.284 61.3448 200.284 68.4367C200.284 75.5287 208.311 92.8039 195.466 101.235C183.923 108.807 160.537 101.853 159.817 86.2637C159.25 73.909 173.904 62.4842 175.447 57.5944C176.99 52.7046 175.58 44.4528 178.676 40.8251Z" fill="#263238"/>
<path d="M176.566 47.7993C176.479 51.335 175.968 54.9117 174.522 58.2482C174.147 59.0932 173.657 59.8824 173.066 60.5934C172.499 61.3087 171.896 61.9832 171.293 62.6372C170.077 63.9606 168.876 65.2737 167.716 66.6379C165.412 69.3107 163.509 72.3037 162.065 75.5233C160.681 78.758 159.92 82.2251 159.822 85.7423C159.678 83.9672 159.731 82.1816 159.98 80.4182C160.257 78.6457 160.714 76.9062 161.345 75.227C162.676 71.8623 164.562 68.7449 166.924 66.0043C168.084 64.6197 169.315 63.2963 170.542 61.9883C171.768 60.6803 173.01 59.4336 173.771 57.9007C174.552 56.3335 175.147 54.6805 175.544 52.9752C175.992 51.2729 176.334 49.5442 176.566 47.7993Z" fill="#263238"/>
<path d="M201.495 54.13C201.408 57.7373 201.178 61.3395 201.275 64.9212C201.317 66.7051 201.467 68.4848 201.725 70.2504C201.99 71.9877 202.512 73.7249 202.946 75.4825C203.38 77.2402 203.769 79.0234 204.055 80.8219C204.331 82.6288 204.447 84.4566 204.402 86.284C204.319 88.1202 203.975 89.9352 203.38 91.6745C202.694 93.384 201.671 94.9376 200.371 96.2424C201.51 94.8421 202.376 93.2407 202.925 91.5212C203.402 89.8113 203.639 88.0437 203.631 86.2687C203.486 82.6956 202.927 79.1515 201.965 75.7074C201.556 73.9548 201.035 72.2176 200.785 70.3731C200.55 68.5658 200.458 66.7429 200.509 64.9212C200.617 61.3074 200.946 57.7036 201.495 54.13Z" fill="#263238"/>
<path d="M182.912 84.4652C171.16 97.4024 161.569 103.615 152.117 103.615C143.129 103.615 123.928 81.7929 122.518 78.9163C121.302 76.433 137.064 62.8469 139.486 64.5382C143.574 67.3688 156.685 83.7549 158.075 83.8316C159.464 83.9082 164.584 80.5257 176.913 74.752C184.404 71.252 191.087 75.498 182.912 84.4652Z" fill="#EB9481"/>
<path d="M124.347 81.0672C122.62 79.1971 115.37 69.8621 113.934 66.8169C112.498 63.7716 109.018 54.7074 111.241 53.3738C113.464 52.0402 114.69 54.6103 114.69 54.6103C114.69 54.6103 113.826 50.5534 116.187 49.414C118.548 48.2745 120.326 52.3366 120.326 52.3366C120.326 52.3366 119.743 48.1059 122.175 47.1351C124.607 46.1643 125.721 50.5585 125.721 50.5585C125.721 50.5585 125.006 46.711 127.346 46.757C130.161 46.8132 130.678 54.0534 132.512 57.2979C132.926 58.0337 142.01 71.6044 142.01 71.6044L124.347 81.0672Z" fill="#EB9481"/>
<path d="M125.624 50.1858C126.018 55.5047 127.111 57.7682 130.223 61.9938C130.284 62.0755 130.177 62.1828 130.105 62.1062C126.666 58.2434 124.888 55.6069 125.353 50.1909C125.389 49.9252 125.604 49.9303 125.624 50.1858Z" fill="#263238"/>
<path d="M120.31 51.9179C121.199 57.4106 122.354 59.8733 125.313 64.5383C125.353 64.6047 125.246 64.6814 125.2 64.62C121.925 60.2821 120.208 57.6098 120.04 52.0047C120.029 51.7493 120.27 51.6624 120.31 51.9179Z" fill="#263238"/>
<path d="M114.853 54.8453C116.1 60.1029 117.26 62.8569 120.704 67.016C120.786 67.1182 120.648 67.246 120.561 67.154C116.637 63.2504 115.165 59.8219 114.7 54.8912C114.67 54.5642 114.777 54.5131 114.853 54.8453Z" fill="#263238"/>
<path d="M146.062 72.9025C146.062 72.9025 145.945 66.2142 145.245 63.2864C144.545 60.3587 137.949 50.4157 135.695 51.7237C132.819 53.4098 135.506 59.8988 137.228 62.9134C137.228 62.9134 130.586 66.8171 131.49 71.8959C132.395 76.9747 146.062 72.9025 146.062 72.9025Z" fill="#EB9481"/>
<path d="M135.056 52.4438C133.524 55.8773 136.078 59.6839 137.535 62.7241C137.558 62.7678 137.571 62.8165 137.571 62.8661C137.572 62.9157 137.561 62.9648 137.539 63.0093C137.517 63.0538 137.485 63.0923 137.445 63.1218C137.405 63.1513 137.359 63.1708 137.31 63.1788C134.622 65.0029 131.367 68.3496 131.326 71.7729C131.326 71.7933 131.318 71.8128 131.304 71.8271C131.29 71.8415 131.27 71.8496 131.25 71.8496C131.23 71.8496 131.21 71.8415 131.196 71.8271C131.181 71.8128 131.173 71.7933 131.173 71.7729C130.718 68.0941 133.646 64.5379 136.712 62.7343C135.179 59.6328 132.793 55.7087 135.026 52.4131L135.056 52.4438Z" fill="#263238"/>
<path d="M162.648 80.0707L172.09 97.6882C172.09 97.6882 184.894 85.2569 186.938 80.0707C188.982 74.8846 186.78 71.1189 177.669 73.8934C172.465 75.4358 167.432 77.5057 162.648 80.0707Z" fill="#3B5CCC"/>
<path d="M174.271 94.015C173.806 93.0596 173.398 92.0734 172.912 91.1231C172.427 90.1727 171.942 89.2326 171.436 88.3027C170.414 86.4224 169.392 84.537 168.329 82.6822C167.726 81.6603 167.093 80.6078 166.433 79.6165C166.408 79.5705 166.321 79.6165 166.347 79.6523C168.079 83.5304 170.179 87.245 172.274 90.934C172.882 92.0019 173.571 93.0187 174.205 94.0713C174.225 94.0968 174.297 94.0508 174.271 94.015Z" fill="#263238"/>
<path d="M186.938 80.0711C184.894 85.2572 172.09 97.6886 172.09 97.6886L165.728 85.8397L186.713 74.2361C187.919 75.493 187.904 77.6236 186.938 80.0711Z" fill="#263238"/>
<path d="M164.799 109.731C164.799 109.731 159.608 122.158 161.442 131.61H218.678C216.819 105.914 204.009 83.8313 196.442 76.6832C190.341 70.9197 183.919 71.4357 179.448 74.3839C178.395 75.0839 166.781 91.1328 165.524 93.6722C160.538 103.692 164.799 109.731 164.799 109.731Z" fill="#3B5CCC"/>
<path d="M179.846 73.6281C179.846 73.6281 176.27 83.9135 178.344 84.45C183.505 85.7784 190.428 77.3529 190.842 76.4945C190.944 76.2748 191.404 70.5164 191.746 66.0354C191.966 63.1536 192.135 60.7982 192.135 60.7982L179.402 65.1668L179.811 73.0609L179.846 73.6281Z" fill="#EB9481"/>
<path d="M179.381 65.1668L179.79 73.0609C182.38 72.6982 188.077 71.2931 191.726 66.0354C191.945 63.1536 192.114 60.7982 192.114 60.7982L190.52 61.3091L179.381 65.1668Z" fill="#263238"/>
<path d="M169.898 54.115C169.745 58.1259 170.143 61.3704 171.119 63.5266C171.955 65.3684 173.286 66.9422 174.963 68.0733C176.639 69.2044 178.597 69.8484 180.618 69.9339C182.151 69.9901 186.565 69.5865 189.759 67.1544C192.242 65.2639 193.739 61.8558 194.587 55.8624C196.529 42.1588 190.259 37.55 184.082 36.9982C177.905 36.4464 170.409 40.2887 169.898 54.115Z" fill="#EB9481"/>
<path d="M173.439 51.0595C173.761 51.0135 174.057 50.9215 174.369 50.85C174.708 50.8195 175.028 50.6817 175.284 50.4566C175.348 50.3691 175.382 50.2635 175.382 50.1551C175.382 50.0467 175.348 49.9412 175.284 49.8537C175.125 49.7058 174.929 49.6028 174.717 49.5552C174.505 49.5077 174.285 49.5172 174.078 49.5829C173.637 49.6529 173.238 49.8842 172.959 50.2318C172.893 50.3122 172.853 50.4109 172.845 50.5146C172.836 50.6183 172.86 50.7221 172.912 50.8121C172.964 50.9021 173.043 50.974 173.137 51.0182C173.231 51.0624 173.336 51.0768 173.439 51.0595Z" fill="#263238"/>
<path d="M182.467 51.4015C182.154 51.3462 181.844 51.2746 181.538 51.1869C181.199 51.1586 180.879 51.0184 180.628 50.7883C180.564 50.7008 180.53 50.5953 180.53 50.4869C180.53 50.3785 180.564 50.2729 180.628 50.1854C180.788 50.0379 180.985 49.936 181.198 49.8902C181.411 49.8444 181.632 49.8563 181.839 49.9248C182.283 49.9958 182.684 50.2311 182.963 50.584C183.027 50.6657 183.065 50.7649 183.071 50.8686C183.077 50.9722 183.052 51.0753 182.998 51.164C182.944 51.2528 182.864 51.3231 182.77 51.3655C182.675 51.4079 182.57 51.4205 182.467 51.4015Z" fill="#263238"/>
<path d="M180.209 54.8558C180.209 54.82 180.281 54.9018 180.281 54.9427C180.204 55.8777 180.281 56.9865 181.113 57.3237C181.113 57.3237 181.113 57.3799 181.113 57.3748C180.071 57.1806 179.989 55.7295 180.209 54.8558Z" fill="#263238"/>
<path d="M181.098 53.9106C182.631 53.8697 182.59 56.9099 181.18 56.9508C179.77 56.9916 179.846 53.9464 181.098 53.9106Z" fill="#263238"/>
<path d="M181.696 54.0791C181.956 54.2529 182.207 54.5594 182.534 54.5901C182.861 54.6207 183.188 54.3142 183.433 54.0076C183.459 53.9769 183.484 54.0076 183.484 54.0434C183.484 54.6258 183.259 55.2237 182.631 55.3054C182.002 55.3872 181.66 54.8558 181.517 54.2835C181.491 54.1609 181.589 54.0076 181.696 54.0791Z" fill="#263238"/>
<path d="M175.176 54.4571C175.176 54.4213 175.105 54.5031 175.105 54.5388C175.105 55.4841 175.008 56.5826 174.154 56.879C174.129 56.879 174.129 56.9352 174.154 56.9301C175.202 56.787 175.355 55.3462 175.176 54.4571Z" fill="#263238"/>
<path d="M174.338 53.4708C172.806 53.3533 172.698 56.3935 174.103 56.5008C175.508 56.6081 175.606 53.573 174.338 53.4708Z" fill="#263238"/>
<path d="M173.714 53.6499C173.469 53.8031 173.204 54.0842 172.933 54.0944C172.662 54.1046 172.366 53.7623 172.166 53.4404C172.166 53.4046 172.12 53.4404 172.115 53.471C172.079 54.0535 172.243 54.6615 172.8 54.7995C173.357 54.9374 173.699 54.4367 173.858 53.8644C173.868 53.752 173.791 53.5885 173.714 53.6499Z" fill="#263238"/>
<path d="M180.117 62.1723C179.897 62.4023 179.683 62.7139 179.345 62.7548C178.995 62.7574 178.647 62.6896 178.323 62.5555C178.317 62.5501 178.309 62.5473 178.301 62.5478C178.293 62.5483 178.285 62.552 178.28 62.5581C178.275 62.5642 178.272 62.5722 178.272 62.5803C178.273 62.5885 178.276 62.5961 178.283 62.6015C178.424 62.7819 178.612 62.9207 178.826 63.0034C179.04 63.0861 179.272 63.1097 179.499 63.0716C179.687 63.0126 179.855 62.9001 179.981 62.7477C180.107 62.5953 180.186 62.4097 180.209 62.2132C180.212 62.2016 180.21 62.1892 180.205 62.1784C180.2 62.1676 180.191 62.159 180.18 62.1542C180.169 62.1493 180.157 62.1484 180.145 62.1518C180.134 62.1551 180.124 62.1624 180.117 62.1723Z" fill="#263238"/>
<path d="M176.27 58.6824C176.27 58.6824 176.045 60.0875 176.035 60.7518C176.035 60.8131 176.193 60.8437 176.418 60.8642C176.418 60.8642 176.418 60.8642 176.443 60.8642C177.007 60.9757 177.591 60.9309 178.132 60.7345C178.672 60.5382 179.148 60.1979 179.509 59.7503C179.555 59.689 179.473 59.6175 179.412 59.6583C178.553 60.2176 177.538 60.4863 176.515 60.4248C176.474 60.2357 176.98 58.0335 176.873 58.0233C176.35 58.0558 175.834 58.1607 175.34 58.335C175.723 55.397 176.571 52.5459 176.903 49.6182C176.903 49.516 176.765 49.4802 176.735 49.5722C175.631 52.4948 175.12 55.8671 174.645 58.8868C174.604 59.27 175.984 58.7948 176.27 58.6824Z" fill="#263238"/>
<path d="M176.842 60.5172C177.169 61.018 177.62 61.4263 178.15 61.7026C178.442 61.842 178.771 61.8883 179.09 61.8354C179.79 61.7077 179.857 61.0792 179.775 60.5325C179.725 60.2415 179.643 59.957 179.53 59.6843C178.746 60.2417 177.804 60.5335 176.842 60.5172Z" fill="#263238"/>
<path d="M178.15 61.7024C178.442 61.8418 178.77 61.8881 179.09 61.8352C179.79 61.7075 179.856 61.079 179.774 60.5323C179.411 60.5161 179.054 60.6227 178.759 60.8351C178.464 61.0474 178.249 61.353 178.15 61.7024Z" fill="#FF98B9"/>
<path d="M194.337 54.6309C192.83 54.6768 188.553 50.9163 187.776 43.6915C187.776 43.6915 188.926 50.1294 189.498 51.0338C190.07 51.9382 187.107 48.9133 186.397 43.0988C186.397 43.0988 183.382 45.725 180.695 46.7469C178.007 47.7688 176.326 47.9017 176.096 47.7177C175.866 47.5338 179.816 45.8885 180.797 44.5294C180.797 44.5294 173.781 48.617 170.43 49.1688C170.041 49.2301 170.695 43.1958 175.606 39.3126C180.516 35.4294 187.265 36.4002 189.687 38.3418C189.687 38.3418 192.334 38.4798 195.522 42.082C198.711 45.6842 195.957 54.5798 194.337 54.6309Z" fill="#263238"/>
<path d="M192.349 56.8379C192.349 56.8379 195.154 52.3773 197.162 53.3584C199.17 54.3394 197.213 60.7007 194.96 61.6664C194.679 61.8113 194.373 61.8979 194.058 61.9208C193.743 61.9438 193.427 61.9027 193.128 61.8C192.83 61.6974 192.555 61.5352 192.321 61.3234C192.087 61.1116 191.898 60.8546 191.766 60.5678L192.349 56.8379Z" fill="#EB9481"/>
<path d="M196.554 55.1825C196.595 55.1825 196.6 55.2285 196.554 55.2439C194.975 55.9745 194.204 57.5125 193.683 59.0913C194.137 58.4679 194.771 58.1103 195.599 58.6417C195.64 58.6672 195.599 58.7388 195.558 58.7285C195.273 58.659 194.975 58.6775 194.701 58.7815C194.427 58.8855 194.192 59.0701 194.025 59.311C193.749 59.7241 193.517 60.164 193.33 60.6241C193.264 60.7723 192.998 60.711 193.049 60.5424C193.047 60.5289 193.047 60.5151 193.049 60.5015C192.906 58.4373 194.362 55.484 196.554 55.1825Z" fill="#263238"/>
<path d="M200.872 79.4887C206.533 86.0237 222.403 109.681 218.724 116.073C215.194 122.204 207.187 123.931 202.578 115.694C199.262 109.803 193.688 92.2266 192.303 83.796C191.179 76.9697 195.639 73.4442 200.872 79.4887Z" fill="#EB9481"/>
<path d="M195.583 100.432L214.345 93.5394C214.345 93.5394 203.815 79.1255 198.966 76.3817C194.117 73.638 190.08 75.2934 191.562 84.7C192.36 90.068 193.707 95.3398 195.583 100.432Z" fill="#3B5CCC"/>
<path d="M211.014 90.8622C209.992 91.1943 208.97 91.46 207.948 91.8074C206.926 92.1549 205.945 92.5074 204.954 92.8804C202.946 93.6264 200.943 94.3724 198.955 95.1746C197.842 95.6242 196.728 96.1096 195.639 96.6206C195.588 96.6206 195.609 96.7279 195.639 96.7125C199.727 95.5374 203.692 93.9739 207.636 92.4155C208.781 91.9607 209.88 91.3936 211.009 90.9388C211.085 90.9184 211.05 90.8469 211.014 90.8622Z" fill="#263238"/>
<path d="M196.641 99.9928C196.27 100.075 195.906 100.188 195.553 100.33C195.042 99.2213 193.831 94.3468 193.55 93.095C192.988 90.6016 192.528 88.0826 191.941 85.5891C191.941 85.5176 191.803 85.5381 191.813 85.5891C191.987 86.9738 192.201 88.3534 192.441 89.7227C192.186 89.0687 191.93 88.4096 191.731 87.7402C191.733 87.7356 191.734 87.7305 191.734 87.7254C191.733 87.7203 191.731 87.7155 191.729 87.7112C191.726 87.7069 191.722 87.7034 191.718 87.701C191.713 87.6986 191.708 87.6973 191.703 87.6973C191.698 87.6973 191.693 87.6986 191.688 87.701C191.684 87.7034 191.68 87.7069 191.677 87.7112C191.675 87.7155 191.673 87.7203 191.672 87.7254C191.672 87.7305 191.673 87.7356 191.675 87.7402C191.907 88.5717 192.192 89.3874 192.528 90.1826C192.727 92.7373 195.052 100.856 195.119 100.826C195.644 100.587 196.156 100.319 196.652 100.023C196.708 100.039 196.708 99.9877 196.641 99.9928Z" fill="#263238"/>
<path d="M187.362 51.8974L182.023 74.6908C181.793 75.3602 182.135 75.8967 182.789 75.8865L192.983 77.9609C193.34 77.9282 193.68 77.7946 193.964 77.5757C194.248 77.3567 194.464 77.0615 194.587 76.7244L199.926 53.931C200.156 53.2617 199.814 52.7252 199.16 52.7405L188.967 50.6609C188.609 50.6936 188.269 50.8272 187.985 51.0462C187.701 51.2651 187.485 51.5604 187.362 51.8974Z" fill="#A6A6A6"/>
<path d="M188.236 52.025L182.912 74.8184C182.682 75.4877 183.024 76.0242 183.678 76.014L193.872 78.0885C194.228 78.0562 194.568 77.9233 194.852 77.7053C195.136 77.4874 195.353 77.1932 195.476 76.8571L200.795 54.0637C201.025 53.3892 200.683 52.8578 200.029 52.868L189.84 50.7885C189.484 50.823 189.144 50.9572 188.86 51.1759C188.576 51.3947 188.36 51.6889 188.236 52.025Z" fill="#DBDBDB"/>
<path d="M191.465 53.0062C191.47 53.2106 191.414 53.4119 191.303 53.5839C191.193 53.7559 191.033 53.8908 190.845 53.9711C190.657 54.0514 190.449 54.0735 190.249 54.0344C190.048 53.9954 189.863 53.897 189.719 53.7521C189.575 53.6071 189.478 53.4222 189.44 53.2213C189.402 53.0204 189.425 52.8127 189.506 52.6251C189.587 52.4375 189.723 52.2785 189.896 52.1689C190.068 52.0592 190.27 52.0038 190.474 52.0099C190.737 52.0112 190.99 52.1168 191.175 52.3035C191.361 52.4902 191.465 52.7429 191.465 53.0062Z" fill="#263238"/>
<path d="M205.302 117.758C208.618 123.89 217.396 120.395 218.724 116.072C221.841 105.93 219.91 89.0686 218.05 79.6518C217.452 76.6219 196.871 79.6518 196.994 82.927C197.137 86.8869 198.803 105.7 205.302 117.758Z" fill="#EB9481"/>
<path d="M217.82 84.1535C218.856 79.6854 218.919 75.0465 218.004 70.5521C216.92 65.6521 213.379 55.2594 199.144 50.6251C195.767 49.5214 190.172 50.3441 195.057 54.1455C198.511 56.8484 201.515 57.5178 203.232 59.4594C203.232 59.4594 196.242 61.3499 195.271 64.7732C194.421 67.7697 193.785 70.8226 193.366 73.909C193.913 74.1142 194.473 74.2848 195.041 74.4199C194.741 77.4006 195.435 80.3968 197.014 82.9426L217.82 84.1535Z" fill="#EB9481"/>
<path d="M216.221 66.0402C214.105 64.5074 209.578 61.2475 204.934 59.9088C199.783 58.376 189.467 56.8942 188.394 60.7008C187.607 63.4957 191.496 64.4205 191.496 64.4205C191.496 64.4205 187.102 64.6964 186.943 67.3738C186.8 69.8161 189.851 70.3526 189.851 70.3526C189.851 70.3526 187.214 70.976 187.526 73.357C187.904 76.2132 193.376 74.4351 196.263 77.0001C196.912 77.5621 216.221 66.0402 216.221 66.0402Z" fill="#EB9481"/>
<path d="M204.249 65.596C202.021 64.4515 196.289 63.1588 191.578 64.3288C191.47 64.3288 191.435 64.4463 191.537 64.4463C195.804 64.3312 200.069 64.7327 204.239 65.642C204.265 65.6522 204.275 65.6062 204.249 65.596Z" fill="#263238"/>
<path d="M202.583 70.746C200.54 69.9591 194.587 68.8861 189.856 70.235C189.748 70.2657 189.718 70.3627 189.82 70.3576C194.081 70.0173 198.366 70.1647 202.594 70.797C202.6 70.7957 202.606 70.7917 202.61 70.7859C202.614 70.7802 202.615 70.7732 202.614 70.7664C202.613 70.7596 202.609 70.7537 202.603 70.7498C202.597 70.746 202.59 70.7446 202.583 70.746Z" fill="#263238"/>
<path d="M203.421 113.487C203.268 112.976 203.12 112.465 202.956 112C202.619 110.978 202.328 109.956 202.031 108.935C201.428 106.891 200.851 104.816 200.345 102.732C199.336 98.5764 198.57 94.3659 198.051 90.1214C197.908 88.9462 197.785 87.771 197.658 86.5959C197.53 85.4207 197.489 84.1995 197.264 83.0192C197.264 82.9579 196.666 82.0586 196.431 81.6141C196.187 81.1517 195.974 80.6738 195.793 80.1834C195.411 79.183 195.152 78.1398 195.021 77.0769C195.018 77.0703 195.014 77.0646 195.008 77.0605C195.002 77.0565 194.995 77.0544 194.988 77.0544C194.981 77.0544 194.974 77.0565 194.968 77.0605C194.962 77.0646 194.957 77.0703 194.955 77.0769C194.888 78.2864 195.041 79.498 195.404 80.6535C195.719 81.6201 196.263 82.4965 196.988 83.2083C196.988 83.3616 197.024 85.2521 197.085 86.3097C197.147 87.3674 197.244 88.425 197.361 89.4776C197.601 91.5929 197.898 93.7031 198.271 95.8031C199 100.051 200.014 104.245 201.306 108.357C201.306 108.424 201.352 108.49 201.372 108.556C201.372 108.71 201.372 108.863 201.372 109.016C201.38 109.394 201.411 109.771 201.464 110.145C201.569 110.89 201.752 111.621 202.011 112.327C202.009 112.333 202.008 112.34 202.009 112.347C202.01 112.353 202.012 112.359 202.016 112.365C202.019 112.37 202.024 112.375 202.03 112.378C202.036 112.381 202.043 112.382 202.049 112.382C202.056 112.382 202.062 112.381 202.068 112.378C202.074 112.375 202.079 112.37 202.083 112.365C202.087 112.359 202.089 112.353 202.09 112.347C202.091 112.34 202.09 112.333 202.088 112.327C201.906 111.589 201.783 110.837 201.72 110.079L201.628 109.302C201.909 110.13 202.205 110.958 202.496 111.781C202.701 112.353 202.91 112.91 203.145 113.467C203.38 114.024 203.564 114.565 203.84 115.081C203.84 115.122 203.922 115.081 203.912 115.051C203.784 114.504 203.58 114.003 203.421 113.487Z" fill="#263238"/>
<path d="M139.726 131.61V117.876L124.117 131.61H139.726Z" fill="#EBEBEB"/>
<path d="M59.503 160.729C63.9993 180.294 73.2986 203.746 77.2687 207.553C82.2913 212.366 115.518 221.195 117.174 221.374C121.261 221.788 129.503 192.25 125.129 191.611C118.487 190.651 94.2884 189.337 92.8424 187.851C91.3964 186.364 81.1263 173.416 70.6314 158.87C63.3862 148.819 56.7081 148.589 59.503 160.729Z" fill="#AD6359"/>
<path d="M113.883 219.78C114.369 220.025 121.312 223.52 125.604 224.761C128.808 225.691 138.097 228.118 139.472 224.69C140.412 222.36 135.113 220.29 131.404 218.742C129.447 217.925 127.035 215.881 127.612 214.624C128.634 212.427 133.657 214.624 136.968 216.555C143.37 220.275 151.898 226.974 155.807 223.709C157.283 222.482 155.566 220.244 153.058 218.052C157.145 220.607 161.478 222.702 163.169 221.404C164.145 220.663 164.191 219.647 163.65 218.492C164.907 218.901 166.015 218.819 166.792 217.981C168.115 216.591 167.472 214.547 166.02 212.447C166.27 212.422 166.509 212.337 166.719 212.2C166.928 212.063 167.102 211.878 167.226 211.661C170.031 207.384 155.985 195.106 151.137 193.956C136.856 190.558 121.803 191.192 121.803 191.192C116.193 195.693 113.868 219.769 113.883 219.78Z" fill="#AD6359"/>
<path d="M134.883 206.633C138.283 207.164 141.532 208.413 144.412 210.296C148.035 212.688 150.436 215.488 153.471 218.303C153.483 218.319 153.49 218.339 153.489 218.359C153.488 218.379 153.481 218.398 153.467 218.413C153.454 218.428 153.436 218.438 153.416 218.441C153.397 218.444 153.376 218.441 153.359 218.431C151.913 217.092 145.915 212.054 144.366 210.91C141.566 208.802 138.323 207.359 134.883 206.689C134.837 206.684 134.847 206.623 134.883 206.633Z" fill="#263238"/>
<path d="M137.545 200.568C141.301 201.59 145.148 202.612 148.633 204.41C152.445 206.352 155.428 209.52 158.341 212.585C160.105 214.414 161.827 216.288 163.507 218.206C163.573 218.287 163.466 218.415 163.394 218.333C160.417 215.186 157.351 212.12 154.197 209.136C151.278 206.365 147.84 204.198 144.08 202.76C141.934 201.937 139.727 201.288 137.52 200.634C137.489 200.624 137.504 200.558 137.545 200.568Z" fill="#263238"/>
<path d="M141.557 195.269C145.205 196.02 148.388 196.659 151.617 198.611C155.894 201.201 160.022 205.56 161.468 207.108C163.068 208.814 164.611 210.572 166.123 212.355C166.184 212.427 166.062 212.539 165.995 212.468C162.529 208.558 158.814 204.877 154.872 201.447C153.018 199.786 150.919 198.421 148.649 197.4C146.347 196.497 143.973 195.792 141.552 195.295C141.552 195.295 141.526 195.264 141.557 195.269Z" fill="#263238"/>
<path d="M119.504 190.017L109.285 222.391C109.285 222.391 81.6171 214.491 76.5843 209.04C71.5514 203.588 62.196 175.435 59.4522 161.787C56.7084 148.14 63.6062 148.502 69.9471 157.081C76.2879 165.66 92.0763 186.537 92.9398 186.992C93.8033 187.447 119.504 190.017 119.504 190.017Z" fill="#3B5CCC"/>
<path opacity="0.1" d="M119.504 190.017L109.285 222.391C109.285 222.391 81.6171 214.491 76.5843 209.04C71.5514 203.588 62.196 175.435 59.4522 161.787C56.7084 148.14 63.6062 148.502 69.9471 157.081C76.2879 165.66 92.0763 186.537 92.9398 186.992C93.8033 187.447 119.504 190.017 119.504 190.017Z" fill="black"/>
<path d="M106.628 208.007C107.869 204.191 109.137 200.384 110.23 196.521C110.853 194.329 111.487 192.132 112.09 189.935C112.115 189.848 111.977 189.802 111.947 189.884C110.552 193.665 109.162 197.461 107.941 201.304C106.72 205.146 105.478 208.968 104.313 212.785C103.654 214.972 103.056 217.169 102.53 219.391C102.53 219.432 102.591 219.458 102.607 219.417C104.129 215.682 105.381 211.85 106.628 208.007Z" fill="#263238"/>
<path d="M95.3307 217.94L94.1044 217.511C91.8001 216.688 89.4497 215.804 87.2373 214.9C86.9512 214.787 86.6701 214.67 86.3942 214.552C85.9497 214.368 85.5052 214.179 85.076 213.99L84.4322 213.709L84.2023 213.607L83.538 213.301C82.6592 212.897 81.8263 212.493 81.0497 212.084L80.5387 211.798C79.3247 211.174 78.1806 210.422 77.1256 209.555C77.0285 209.468 76.9315 209.382 76.8446 209.295C76.7577 209.208 76.6658 209.121 76.5891 209.039C71.5307 203.587 62.2008 175.434 59.457 161.787L59.365 161.317V161.214C59.1811 160.193 59.0176 158.895 58.8847 157.505C58.5015 150.714 61.7154 149.606 65.6855 152.59C75.5825 173.83 90.7424 208.927 95.3307 217.94Z" fill="#263238"/>
<path d="M80.9785 223.377L20.6866 223.694C20.7376 222.396 29.3216 184.432 36.1479 170.422C44.9004 152.457 49.4325 151.006 52.1048 150.046C55.5537 148.809 61.6953 149.422 63.1515 150.112C64.807 150.884 70.0698 160.07 71.9552 166.81C75.726 180.365 81.8267 222.549 80.9785 223.377Z" fill="#EBEBEB"/>
<path d="M49.0135 151.466C49.0135 151.466 56.6777 179.849 57.0609 181.735C57.6383 184.473 61.4602 223.551 61.4602 223.551L19.4347 223.694C19.4347 223.694 28.6062 187.519 35.4325 171.679C42.8821 154.307 49.0135 151.466 49.0135 151.466Z" fill="#3B5CCC"/>
<g opacity="0.1">
<path d="M49.013 151.466C49.013 151.466 56.6773 179.849 57.0605 181.735C57.6379 184.474 61.4598 223.551 61.4598 223.551L19.4342 223.694C19.4342 223.694 28.6057 187.519 35.432 171.679C42.8816 154.307 49.013 151.466 49.013 151.466Z" fill="black"/>
</g>
<path d="M63.7028 150.551C63.9276 151.455 70.9941 174.515 71.4846 180.263C72.0313 186.639 76.8649 223.693 76.8649 223.693H82.9962C82.9962 223.693 74.1211 170.458 71.6838 164.832C66.697 153.351 63.7028 150.551 63.7028 150.551Z" fill="#3B5CCC"/>
<path opacity="0.1" d="M63.7028 150.551C63.9276 151.455 70.9941 174.515 71.4846 180.263C72.0313 186.639 76.8649 223.693 76.8649 223.693H82.9962C82.9962 223.693 74.1211 170.458 71.6838 164.832C66.697 153.351 63.7028 150.551 63.7028 150.551Z" fill="black"/>
<path d="M41.0786 158.103C30.9822 168.92 6.43625 209.959 14.2231 217.445C22.01 224.93 65.2414 214.854 77.3815 209.065C80.9939 207.348 67.2698 184.826 63.0238 184.299C59.4881 183.865 41.4209 192.127 40.8946 191.09C40.3071 189.915 43.1786 181.244 47.537 165.543C52.5392 147.445 45.5443 153.321 41.0786 158.103Z" fill="#AD6359"/>
<path d="M80.9683 177.034C89.7464 175.807 92.2091 176.845 99.0507 171.878C103.552 168.618 107.568 170.095 104.998 175.271C100.798 183.742 89.8026 187.697 85.5821 187.973L80.9683 177.034Z" fill="#AD6359"/>
<path d="M57.6482 185.474C57.6482 185.474 67.5146 179.997 76.7424 177.769C83.119 176.236 97.3745 174.423 111.017 188.499C114.251 191.836 116.494 198.887 109.234 195.356C104.073 192.847 101.569 189.7 98.2942 188.785C98.2942 188.785 100.083 198.09 96.6132 201.201C93.581 203.921 90.3589 206.42 86.9715 208.682C86.4146 208.158 85.8923 207.598 85.408 207.006C85.408 207.006 81.8927 209.606 75.281 208.973L57.6482 185.474Z" fill="#AD6359"/>
<path d="M83.0684 177.299C86.1341 178.888 92.526 182.368 96.7771 187.038C101.503 192.229 109.203 203.49 105.336 206.965C102.505 209.494 99.2041 205.432 99.2041 205.432C99.2041 205.432 101.406 210.761 98.3457 212.483C95.5611 214.057 93.18 210.777 93.18 210.777C93.18 210.777 93.9618 214.236 90.983 215.232C87.4063 216.428 86.3538 208.978 81.6786 207.057C80.6107 206.597 83.0684 177.299 83.0684 177.299Z" fill="#AD6359"/>
<path d="M90.4667 191.095C93.0879 193.062 97.901 199.056 99.2295 205.264C99.2602 205.407 99.1733 205.504 99.1171 205.381C96.809 200.3 93.8923 195.519 90.431 191.141C90.3901 191.095 90.431 191.095 90.4667 191.095Z" fill="#263238"/>
<path d="M85.3674 196.015C87.4572 197.947 92.1426 204.344 93.2718 210.685C93.2973 210.828 93.2003 210.92 93.1543 210.792C91.1083 205.6 88.4806 200.657 85.3214 196.056C85.2908 196.026 85.3214 195.99 85.3674 196.015Z" fill="#263238"/>
<path d="M98.2945 188.724C101.156 189.568 103.016 190.973 105.448 192.649C106.632 193.494 107.861 194.274 109.132 194.984C110.297 195.612 112.019 196.562 113.255 195.576C113.95 195.03 113.94 194.043 113.766 193.241C113.417 192.08 112.885 190.981 112.192 189.986C112.192 189.946 112.228 189.9 112.259 189.935C112.928 190.842 113.503 191.814 113.976 192.838C114.285 193.539 114.376 194.317 114.236 195.07C113.812 196.644 111.952 196.854 110.659 196.419C109.876 196.132 109.123 195.767 108.411 195.331C107.716 194.932 107.042 194.503 106.368 194.054C105.008 193.134 103.705 192.138 102.357 191.203C101.046 190.323 99.6807 189.527 98.269 188.822C98.2582 188.816 98.2496 188.808 98.2446 188.797C98.2396 188.786 98.2386 188.774 98.2416 188.762C98.2446 188.751 98.2516 188.741 98.2612 188.734C98.2709 188.727 98.2827 188.724 98.2945 188.724Z" fill="#263238"/>
<path d="M104.287 198.79C103.547 197.16 99.5357 190.365 98.2379 188.791C98.2331 188.783 98.231 188.774 98.2321 188.765C98.2332 188.756 98.2373 188.747 98.2438 188.741C98.2503 188.734 98.2588 188.73 98.2679 188.729C98.277 188.728 98.2862 188.73 98.2941 188.735C100.527 190.85 104.109 196.465 104.936 198.264C105.764 200.062 106.714 202.316 106.714 204.293C106.714 207.282 104.732 207.87 104.001 207.997C103.127 208.156 102.225 208.008 101.447 207.578C100.536 207.022 99.7502 206.285 99.1371 205.412C99.1065 205.371 99.1627 205.315 99.1984 205.356C100.22 206.536 101.958 207.696 103.577 207.481C103.937 207.447 104.285 207.342 104.603 207.171C104.921 207 105.201 206.766 105.427 206.485C105.87 205.766 106.04 204.912 105.907 204.078C105.668 202.237 105.121 200.449 104.287 198.79Z" fill="#263238"/>
<path d="M57.6484 185.475L71.4849 214.599C71.4849 214.599 17.3652 226.749 12.6951 217.327C8.02501 207.905 29.0454 171.035 38.5133 160.295C49.4936 147.848 50.8936 152.084 48.4768 163.116C45.9221 174.663 41.0527 191.361 41.0527 191.361L57.6484 185.475Z" fill="#3B5CCC"/>
<path opacity="0.1" d="M57.6484 185.475L71.4849 214.599C71.4849 214.599 17.3652 226.749 12.6951 217.327C8.02501 207.905 29.0454 171.035 38.5133 160.295C49.4936 147.848 50.8936 152.084 48.4768 163.116C45.9221 174.663 41.0527 191.361 41.0527 191.361L57.6484 185.475Z" fill="black"/>
<path d="M24.6053 199.112C29.5972 195.645 35.0788 192.943 40.8688 191.095C42.5089 190.584 44.1644 190.099 45.8199 189.623C45.871 189.623 45.8914 189.69 45.8199 189.705C42.9325 190.639 40.1022 191.742 37.3432 193.006C34.5875 194.232 31.8625 195.508 29.1681 196.833C27.6352 197.584 26.1432 198.407 24.6411 199.209C24.631 199.207 24.6216 199.202 24.6138 199.195C24.606 199.188 24.6001 199.18 24.5965 199.17C24.593 199.16 24.5919 199.15 24.5934 199.14C24.595 199.129 24.599 199.12 24.6053 199.112Z" fill="#263238"/>
<path d="M57.5051 185.398C57.2343 185.469 42.4321 190.359 41.9467 190.584C42.008 190.359 44.665 182.49 45.0635 181.336C45.0993 181.223 45.135 181.106 45.1759 180.993C45.4416 180.482 45.7175 179.971 45.9679 179.46C46.2847 178.791 46.6015 178.112 46.9131 177.417H46.8825L45.8606 179.394C45.7022 179.695 45.554 180.007 45.4058 180.319C45.6664 179.506 45.9168 178.689 46.1671 177.866C46.5657 176.563 46.9234 175.245 47.2759 173.927C47.2759 173.881 47.2248 173.871 47.2095 173.927C46.4226 176.221 45.5642 178.49 44.7723 180.784C43.9803 183.078 40.935 191.514 40.9606 191.514C40.9861 191.514 57.2598 185.76 57.5766 185.633C57.5921 185.628 57.6064 185.62 57.6189 185.61C57.6313 185.6 57.6417 185.587 57.6493 185.573C57.6569 185.559 57.6616 185.543 57.6631 185.527C57.6647 185.511 57.6631 185.495 57.6584 185.479C57.6537 185.464 57.646 185.45 57.6358 185.437C57.6255 185.425 57.6129 185.414 57.5987 185.407C57.5844 185.399 57.5689 185.394 57.5528 185.393C57.5367 185.391 57.5205 185.393 57.5051 185.398Z" fill="#263238"/>
<path d="M58.5016 204.38C56.9688 201.135 55.4819 197.87 53.8418 194.672C52.9067 192.858 51.9819 191.039 51.0315 189.235C50.9958 189.169 50.8731 189.235 50.9038 189.291C52.3038 192.612 53.714 195.934 55.2673 199.199C56.8206 202.464 58.333 205.688 59.9118 208.907C60.8111 210.736 61.7666 212.536 62.7783 214.307C62.7783 214.343 62.86 214.307 62.8447 214.307C61.5571 210.925 60.0396 207.66 58.5016 204.38Z" fill="#263238"/>
<path d="M72.1847 215.049C71.6431 214.149 70.9585 212.862 70.3811 211.983C70.2278 211.753 70.049 211.799 70.1716 212.039C70.5855 212.857 70.9278 213.771 71.3315 214.594C70.5752 214.747 69.7986 214.88 69.0526 215.038C68.1738 215.222 67.3001 215.411 66.4212 215.59C64.6976 215.931 62.974 216.271 61.2504 216.612C57.7555 217.263 54.247 217.835 50.7249 218.329C43.6688 219.362 36.5639 220.029 29.4388 220.327C27.4461 220.398 25.4482 220.434 23.4555 220.408C21.4899 220.413 19.5253 220.318 17.5694 220.122C17.5132 220.122 17.503 220.209 17.5694 220.219C19.2524 220.575 20.9609 220.797 22.6789 220.884C24.4825 220.97 26.2913 221.011 28.1001 220.991C31.6767 220.95 35.2891 220.715 38.8709 220.388C45.9731 219.734 53.0548 218.773 60.0752 217.532C62.0441 217.191 64.0079 216.822 65.9665 216.423C66.9577 216.224 67.9439 216.024 68.93 215.805C69.9161 215.585 72.2767 215.202 72.1847 215.049Z" fill="#263238"/>
<path d="M63.7135 161.143C60.1368 162.129 53.7347 156.841 51.1186 152.457C50.9398 152.156 51.2923 148.906 51.5325 144.936C51.6704 142.529 51.7624 139.826 51.6704 137.384C51.6704 136.873 67.2186 140.562 67.2186 140.562C67.2186 140.562 65.8901 145.764 66.0741 150.045C66.0903 150.39 66.1382 150.732 66.2171 151.067C66.2312 151.121 66.2415 151.176 66.2478 151.231C66.631 153.126 67.1726 160.188 63.7135 161.143Z" fill="#AD6359"/>
<path d="M52.6208 137.446C53.4894 141.574 56.4427 151.512 64.6689 151.395C65.1965 151.389 65.7228 151.342 66.2427 151.251C66.2491 151.195 66.2491 151.139 66.2427 151.083C66.1668 150.747 66.1173 150.405 66.0945 150.061C65.9156 145.774 67.239 140.568 67.239 140.568C67.239 140.568 55.9879 137.911 52.6208 137.446Z" fill="#263238"/>
<path d="M69.073 130.011C68.8993 133.782 71.4438 136.96 74.7548 137.114C78.0657 137.267 80.8861 134.324 81.0547 130.553C81.2234 126.782 78.6788 123.604 75.373 123.456C72.0672 123.308 69.2416 126.241 69.073 130.011Z" fill="#455A64"/>
<path d="M80.4472 130.761C80.637 126.566 77.8062 123.031 74.1246 122.864C70.443 122.697 67.3046 125.963 67.1149 130.158C66.9251 134.352 69.7558 137.888 73.4375 138.054C77.1191 138.221 80.2575 134.955 80.4472 130.761Z" fill="#C7C7C7"/>
<path d="M53.6987 117.82C51.0213 122.868 50.8527 138.917 54.0001 143.117C58.5629 149.197 67.53 151.43 73.0585 145.62C78.4388 139.969 78.2855 119.051 74.6322 115.081C69.2622 109.22 57.6534 110.365 53.6987 117.82Z" fill="#AD6359"/>
<path d="M67.0447 130.226C67.0447 130.185 66.9579 130.282 66.963 130.328C67.0192 131.406 66.9068 132.653 65.9411 133.031C65.9104 133.031 65.9155 133.097 65.9411 133.092C67.1367 132.898 67.2695 131.243 67.0447 130.226Z" fill="#263238"/>
<path d="M66.0534 129.122C64.3111 129.03 64.2549 132.52 65.8643 132.601C67.4738 132.683 67.5147 129.198 66.0534 129.122Z" fill="#263238"/>
<path d="M73.0945 130.359C73.0945 130.318 73.1762 130.415 73.1762 130.456C73.1251 131.539 73.2477 132.786 74.1981 133.159C74.2288 133.159 74.1981 133.225 74.1981 133.22C73.0178 133.031 72.8696 131.376 73.0945 130.359Z" fill="#263238"/>
<path d="M74.0804 129.27C75.8176 129.163 75.8994 132.653 74.2848 132.75C72.6702 132.847 72.6191 129.332 74.0804 129.27Z" fill="#263238"/>
<path d="M64.4897 126.332C65.0007 126.307 65.4248 126.199 65.9102 126.128C66.4223 126.118 66.9165 125.938 67.3153 125.617C67.4222 125.494 67.4853 125.339 67.4945 125.176C67.5038 125.013 67.4587 124.852 67.3664 124.718C67.143 124.483 66.8609 124.311 66.5493 124.222C66.2376 124.132 65.9077 124.127 65.5934 124.207C64.9275 124.26 64.3058 124.561 63.8511 125.05C63.7558 125.167 63.6963 125.309 63.6797 125.459C63.6631 125.61 63.6901 125.761 63.7575 125.897C63.8248 126.032 63.9297 126.145 64.0595 126.222C64.1894 126.299 64.3388 126.338 64.4897 126.332Z" fill="#263238"/>
<path d="M75.7206 126.716C75.2541 126.613 74.7936 126.485 74.341 126.333C73.8384 126.272 73.3698 126.047 73.0075 125.694C72.9158 125.559 72.8716 125.397 72.8818 125.235C72.892 125.072 72.9559 124.917 73.0637 124.795C73.3136 124.585 73.6147 124.446 73.9361 124.391C74.2575 124.336 74.5877 124.368 74.8929 124.483C75.5462 124.62 76.1253 124.995 76.5177 125.535C76.5941 125.664 76.6325 125.811 76.6283 125.96C76.6241 126.11 76.5774 126.255 76.4938 126.379C76.4102 126.502 76.2931 126.6 76.1562 126.66C76.0193 126.719 75.8682 126.739 75.7206 126.716Z" fill="#263238"/>
<path d="M65.0726 140.245C65.328 140.501 65.5835 140.854 65.9718 140.894C66.3737 140.891 66.7704 140.804 67.1368 140.639C67.1441 140.637 67.1518 140.638 67.1588 140.64C67.1659 140.643 67.1722 140.647 67.1769 140.653C67.1816 140.659 67.1847 140.666 67.1857 140.673C67.1868 140.681 67.1858 140.688 67.1828 140.695C67.0261 140.906 66.8148 141.07 66.5718 141.17C66.3287 141.27 66.063 141.302 65.8032 141.262C65.5836 141.201 65.3869 141.076 65.2379 140.903C65.0888 140.731 64.994 140.518 64.9653 140.291C64.9499 140.23 65.0317 140.205 65.0726 140.245Z" fill="#263238"/>
<path d="M66.263 137.026C66.5298 137.458 66.8832 137.83 67.3009 138.118C67.7187 138.407 68.1916 138.606 68.69 138.702C69.1246 138.795 69.5704 138.824 70.0134 138.789C70.099 138.786 70.1843 138.777 70.2689 138.763L70.5039 138.728C70.5618 138.718 70.615 138.69 70.6555 138.648C70.6961 138.605 70.7217 138.551 70.7287 138.493C70.7313 138.455 70.7313 138.418 70.7287 138.38V138.283C70.7645 137.45 70.7287 136.183 70.7287 136.183C71.0302 136.342 72.5732 137.067 72.5528 136.633C72.3995 133.025 72.2258 129.02 71.3112 125.469C71.306 125.446 71.2934 125.426 71.2753 125.411C71.2572 125.397 71.2347 125.389 71.2116 125.389C71.1884 125.389 71.1659 125.397 71.1478 125.411C71.1297 125.426 71.1171 125.446 71.1119 125.469C71.1119 128.938 71.7455 132.382 71.8119 135.866C71.2648 135.602 70.6836 135.414 70.0849 135.309C69.9674 135.345 70.2433 137.757 70.1973 138.13C70.1985 138.143 70.1985 138.157 70.1973 138.171C68.7922 138.324 67.7448 137.885 66.4061 136.924C66.2835 136.868 66.1966 136.934 66.263 137.026Z" fill="#263238"/>
<path d="M69.5277 138.355C69.0631 138.943 68.454 139.401 67.7598 139.683C67.3767 139.825 66.959 139.845 66.5642 139.74C65.7058 139.494 65.6956 138.718 65.8642 138.028C65.9584 137.673 66.0939 137.33 66.2679 137.006C67.1831 137.791 68.3252 138.264 69.5277 138.355Z" fill="#263238"/>
<path d="M67.7598 139.683C67.3767 139.825 66.959 139.845 66.5642 139.739C65.7058 139.494 65.6956 138.717 65.8642 138.028C66.789 138.14 67.6934 138.784 67.7598 139.683Z" fill="#FF98B9"/>
<path opacity="0.2" d="M51.6908 129.153C52.7434 128.984 55.2674 125.423 56.3353 124.007C57.4032 122.592 58.0214 115.004 58.1185 113.277C56.2447 114.337 54.7103 115.907 53.6937 117.804C52.4981 120.073 51.8083 124.534 51.6908 129.153Z" fill="#263238"/>
<path d="M71.1733 119.562C70.5494 120.246 69.761 120.76 68.8829 121.054C68.0048 121.348 67.0661 121.413 66.1558 121.243C65.2269 121.072 64.3571 120.666 63.6291 120.064C62.9012 119.463 62.3392 118.685 61.9967 117.804C61.9967 117.748 61.8945 117.779 61.9149 117.83C62.1912 118.789 62.7242 119.654 63.4562 120.332C64.1883 121.01 65.0918 121.475 66.069 121.677C67.0398 121.824 68.0322 121.712 68.9463 121.353C69.8603 120.995 70.6636 120.401 71.2755 119.634C71.279 119.62 71.2784 119.606 71.2737 119.594C71.269 119.581 71.2606 119.57 71.2494 119.562C71.2383 119.554 71.225 119.55 71.2114 119.55C71.1978 119.55 71.1845 119.554 71.1733 119.562Z" fill="#263238"/>
<path d="M65.9817 105.961C62.8291 105.93 59.8861 107.58 58.6649 109.686C57.9866 110.885 57.7345 112.279 57.9496 113.64C57.9496 113.697 58.0671 113.686 58.062 113.64C58.0355 112.441 58.3322 111.256 58.921 110.211C59.5099 109.165 60.3691 108.297 61.4087 107.698C62.547 107 63.8316 106.576 65.1615 106.459C66.4914 106.342 67.8303 106.536 69.0729 107.024C70.2841 107.472 71.2952 108.338 71.924 109.466C71.9853 109.583 72.2204 109.517 72.1744 109.399C71.3773 107.397 68.8277 105.986 65.9817 105.961Z" fill="#263238"/>
<path d="M84.044 113.365C83.5766 111.794 82.5707 110.439 81.2031 109.538C79.3075 108.281 77.1155 108.388 74.9491 108.541C74.9369 108.541 74.9252 108.546 74.9166 108.555C74.908 108.563 74.9031 108.575 74.9031 108.587C74.9031 108.599 74.908 108.611 74.9166 108.62C74.9252 108.628 74.9369 108.633 74.9491 108.633C76.7988 108.511 78.6842 108.49 80.3499 109.415C81.7363 110.166 82.8197 111.374 83.4155 112.833C83.9827 114.33 83.9899 115.982 83.436 117.484C82.8821 118.986 81.8043 120.238 80.4009 121.008C79.5824 121.431 78.6862 121.682 77.7672 121.746C76.8482 121.811 75.9257 121.686 75.0564 121.381C74.9849 121.356 74.9338 121.453 75.0002 121.484C76.1745 121.946 77.4543 122.073 78.6966 121.85C79.9388 121.627 81.0944 121.062 82.0341 120.22C82.9738 119.377 83.6604 118.29 84.0172 117.079C84.374 115.868 84.3868 114.582 84.0542 113.365H84.044Z" fill="#263238"/>
<path d="M52.5591 120.911C52.5591 120.911 49.7693 115.173 52.3854 112.005C53.8671 110.212 58.5576 110.621 58.5576 110.621C58.5576 110.621 60.1671 107.979 64.0912 107.228C68.0153 106.477 72.6445 108.935 72.6445 108.935C72.6445 108.935 76.4562 106.937 79.8795 109.062C84.6569 112.026 83.7781 119.43 78.781 121.637C75.2759 123.17 70.708 119.971 70.708 119.971C70.2533 120.017 65.5423 122.623 62.2109 118.387C62.2109 118.387 59.2883 120.799 56.8102 118.944C56.3886 119.668 55.7547 120.245 54.9944 120.597C54.234 120.949 53.3839 121.059 52.5591 120.911Z" fill="#263238"/>
<path d="M54.5675 131.094C54.5675 131.094 51.9156 125.474 49.4171 126.312C46.9186 127.15 48.3032 134.927 50.8069 136.388C51.1158 136.597 51.4639 136.742 51.8303 136.814C52.1966 136.886 52.5737 136.883 52.9388 136.805C53.3039 136.727 53.6495 136.576 53.9549 136.361C54.2602 136.147 54.519 135.872 54.7156 135.555L54.5675 131.094Z" fill="#AD6359"/>
<path d="M49.8665 128.524C49.8256 128.524 49.8052 128.576 49.8665 128.596C51.6139 129.679 52.3037 131.595 52.6818 133.522C52.2475 132.73 51.5475 132.219 50.5052 132.719C50.4944 132.726 50.4861 132.737 50.4816 132.749C50.477 132.761 50.4764 132.774 50.4798 132.787C50.4832 132.799 50.4904 132.81 50.5005 132.818C50.5106 132.826 50.5229 132.831 50.5358 132.832C50.8848 132.784 51.2398 132.846 51.5525 133.008C51.8652 133.17 52.1204 133.424 52.2833 133.736C52.5481 134.261 52.757 134.813 52.9066 135.381C52.9679 135.565 53.2847 135.524 53.2541 135.32C53.2565 135.305 53.2565 135.289 53.2541 135.274C53.6833 132.888 52.4008 129.214 49.8665 128.524Z" fill="#263238"/>
<path d="M60.3463 142.412L55.3134 140.24L51.2667 135.203L52.0433 134.574L55.9368 139.423L60.7448 141.497L60.3463 142.412Z" fill="#C7C7C7"/>
<path d="M59.8097 141.61C60.3206 140.143 64.4082 140.685 63.6674 142.902C62.9265 145.12 59.3141 143.066 59.8097 141.61Z" fill="#37474F"/>
<path d="M49.3405 126.159C49.3405 126.159 48.7938 117.917 51.2055 113.385C53.8931 108.322 65.0317 103.503 72.6653 108.945C72.6653 108.945 60.2646 106.727 54.4858 113.748C52.0536 116.701 52.1149 126.389 52.1149 126.389L49.3405 126.159Z" fill="#C7C7C7"/>
<path d="M50.4646 137.995C54.1498 137.959 57.1034 134.525 57.0616 130.327C57.0199 126.128 53.9986 122.754 50.3133 122.79C46.6281 122.827 43.6745 126.261 43.7163 130.459C43.7581 134.658 46.7794 138.032 50.4646 137.995Z" fill="#C7C7C7"/>
<path d="M55.1142 130.108C55.15 133.884 52.4981 136.97 49.1872 137.001C45.8762 137.032 43.158 134.002 43.1222 130.226C43.0864 126.45 45.7383 123.364 49.0492 123.333C52.3602 123.302 55.0784 126.332 55.1142 130.108Z" fill="#455A64"/>
<path d="M66.1863 150.976L62.5841 160.07L51.2513 148.635L48.0732 152.335C48.0732 152.335 59.1863 170.53 59.2527 169.707L62.9571 161.864L68.3834 167.285L67.8724 153.622L66.1863 150.976Z" fill="#EBEBEB"/>
<path d="M68.516 160.515C68.3576 158.261 68.2657 155.988 68.0051 153.745C68.0051 153.668 67.8722 153.632 67.8518 153.745C67.4124 155.926 68.0613 164.536 68.0613 166.605H68.0357C67.8109 166.37 63.008 161.838 62.962 161.909C62.1598 163.156 59.4365 168.864 59.2525 169.385C57.4949 166.493 50.0554 155.104 47.9606 152.37C47.9504 152.352 47.9336 152.34 47.914 152.334C47.8944 152.329 47.8734 152.332 47.8558 152.342C47.8382 152.352 47.8253 152.369 47.8201 152.389C47.8148 152.408 47.8175 152.429 47.8277 152.447C49.3606 155.512 59.0175 170.539 59.1503 170.499C60.5839 167.804 61.8783 165.038 63.0284 162.211C63.8408 163.197 68.6846 168.317 68.7 167.98C68.7705 165.49 68.7092 162.998 68.516 160.515Z" fill="#263238"/>
<path d="M189.984 127.063H174.18C172.648 127.061 171.179 126.452 170.096 125.368C169.012 124.285 168.403 122.816 168.402 121.284C168.402 119.751 169.01 118.281 170.094 117.197C171.178 116.114 172.648 115.505 174.18 115.505H189.984C191.517 115.505 192.987 116.114 194.07 117.197C195.154 118.281 195.763 119.751 195.763 121.284C195.763 122.043 195.613 122.794 195.323 123.495C195.033 124.196 194.607 124.833 194.07 125.37C193.534 125.907 192.897 126.332 192.196 126.623C191.494 126.913 190.743 127.063 189.984 127.063Z" fill="#455A64"/>
<path d="M177.634 121.181C177.645 120.998 177.705 120.822 177.808 120.67L177.951 120.46L178.252 120.159L178.605 119.904C179.09 119.595 179.632 119.384 180.199 119.285C181.506 119.025 182.852 119.025 184.159 119.285C184.719 119.381 185.254 119.588 185.733 119.893C185.855 119.975 185.978 120.067 186.095 120.154L186.392 120.45C186.469 120.562 186.541 120.678 186.606 120.798C186.656 120.921 186.697 121.047 186.729 121.176H184.138C184.118 121.178 184.098 121.174 184.08 121.164C184.063 121.154 184.049 121.138 184.041 121.12C183.97 120.982 183.865 120.866 183.735 120.783C183.605 120.699 183.455 120.651 183.3 120.644C182.547 120.596 181.791 120.596 181.037 120.644C180.884 120.651 180.735 120.698 180.606 120.78C180.476 120.863 180.371 120.978 180.301 121.114C180.301 121.15 180.265 121.176 180.214 121.176H177.634V121.181Z" fill="white"/>
<path d="M177.634 122.627V121.682H180.189C180.189 121.738 180.189 121.799 180.189 121.866V122.627C180.196 122.671 180.192 122.717 180.178 122.76C180.164 122.803 180.14 122.842 180.108 122.873C180.077 122.905 180.038 122.929 179.995 122.943C179.952 122.957 179.906 122.961 179.862 122.954H177.956C177.912 122.961 177.866 122.958 177.823 122.944C177.781 122.93 177.742 122.906 177.71 122.874C177.679 122.842 177.655 122.802 177.642 122.76C177.629 122.717 177.626 122.671 177.634 122.627Z" fill="white"/>
<path d="M184.159 122.658C184.159 122.336 184.159 122.014 184.159 121.697H186.688V121.753C186.688 122.05 186.688 122.351 186.688 122.647C186.693 122.69 186.688 122.734 186.674 122.774C186.66 122.815 186.637 122.852 186.606 122.882C186.576 122.913 186.539 122.936 186.498 122.95C186.458 122.964 186.414 122.969 186.371 122.964H184.445C184.405 122.966 184.366 122.959 184.329 122.944C184.292 122.929 184.259 122.906 184.232 122.877C184.204 122.848 184.184 122.813 184.171 122.775C184.159 122.737 184.155 122.697 184.159 122.658Z" fill="white"/>
<path d="M125.145 224.306H121.64V226.595H125.145V224.306Z" fill="#455A64"/>
<path d="M129.688 224.153H126.183V226.442H129.688V224.153Z" fill="#455A64"/>
<path d="M134.235 224H130.73V226.289H134.235V224Z" fill="#455A64"/>
<path d="M138.782 223.852H135.277V226.141H138.782V223.852Z" fill="#455A64"/>
<path d="M143.33 223.698H139.825V225.987H143.33V223.698Z" fill="#455A64"/>
<path d="M147.878 223.55H144.372V225.839H147.878V223.55Z" fill="#455A64"/>
<path d="M152.425 223.397H148.919V225.686H152.425V223.397Z" fill="#455A64"/>
<path d="M156.972 223.244H153.467V225.533H156.972V223.244Z" fill="#455A64"/>
<path d="M161.515 223.095H158.01V225.384H161.515V223.095Z" fill="#455A64"/>
<path d="M162.378 227.909H120.776V225.124L162.378 223.964V227.909Z" fill="#37474F"/>
<path d="M202.978 216.928H134.306L145.225 165.803H213.897L202.978 216.928Z" fill="#455A64"/>
<path d="M205.518 216.928H136.846L147.765 165.803H216.437L205.518 216.928Z" fill="#37474F"/>
<path d="M180.994 191.275C182.857 189.553 183.175 186.867 181.704 185.275C180.234 183.684 177.531 183.789 175.668 185.511C173.804 187.233 173.486 189.919 174.957 191.51C176.428 193.102 179.131 192.997 180.994 191.275Z" fill="#263238"/>
<path d="M186.096 230.28H152.322V227.653L186.096 226.565V230.28Z" fill="#455A64"/>
<path d="M195.278 230.274H177.144L166.22 201.625H184.354L195.278 230.274Z" fill="#455A64"/>
<path d="M198.262 230.274H180.128L169.209 201.625H187.343L198.262 230.274Z" fill="#263238"/>
<path d="M119.494 230.974H84.6729C81.7043 230.974 86.0014 222.513 96.8488 219.269C107.696 216.024 122.917 227.801 119.494 230.974Z" fill="#37474F"/>
<path d="M105.831 230.975C105.859 230.01 106.019 229.055 106.307 228.134C106.587 227.205 106.98 226.315 107.477 225.482C107.976 224.645 108.6 223.889 109.326 223.239C110.045 222.587 110.873 222.068 111.774 221.706C111.401 222.013 110.977 222.217 110.634 222.559L110.123 223.014L109.612 223.525C108.967 224.199 108.401 224.944 107.926 225.748C107.444 226.551 107.03 227.394 106.69 228.267C106.343 229.149 106.056 230.054 105.831 230.975Z" fill="#263238"/>
<path d="M109.955 222.922C112.023 223.606 113.98 224.589 115.764 225.839C116.666 226.463 117.482 227.201 118.191 228.037C118.54 228.464 118.84 228.928 119.086 229.421C119.328 229.914 119.467 230.451 119.494 231C119.372 230.48 119.16 229.985 118.866 229.539C118.588 229.091 118.262 228.675 117.895 228.297C117.151 227.543 116.338 226.859 115.468 226.253C114.605 225.63 113.69 225.073 112.775 224.521C112.315 224.245 111.845 223.98 111.375 223.724C110.905 223.469 110.43 223.183 109.955 222.922Z" fill="#263238"/>
<path d="M121.986 114.907C121.686 117.757 120.599 120.468 118.848 122.736C117.098 125.004 114.751 126.742 112.07 127.754C109.39 128.767 106.48 129.015 103.667 128.471C100.854 127.926 98.2467 126.611 96.1371 124.672L88.386 125.826L92.259 119.138C91.2913 116.782 90.926 114.221 91.1963 111.688C91.3947 109.658 91.993 107.686 92.9566 105.887C93.9202 104.088 95.2301 102.498 96.811 101.208C98.3918 99.9171 100.212 98.9522 102.168 98.3683C104.123 97.7845 106.174 97.5931 108.204 97.8054C110.234 98.0177 112.201 98.6294 113.993 99.6053C115.785 100.581 117.367 101.902 118.646 103.492C119.926 105.081 120.878 106.908 121.449 108.867C122.02 110.827 122.197 112.879 121.971 114.907H121.986Z" fill="white"/>
<path d="M121.986 114.907C121.689 117.76 120.608 120.474 118.864 122.751C118.431 123.317 117.963 123.856 117.464 124.365C116.947 124.857 116.401 125.317 115.829 125.745C114.691 126.611 113.435 127.311 112.099 127.824C110.764 128.347 109.363 128.681 107.935 128.815C107.22 128.883 106.501 128.896 105.784 128.856C105.066 128.84 104.35 128.766 103.643 128.637C100.787 128.113 98.1329 126.803 95.9789 124.856L96.1628 124.912L88.4322 126.102L87.8752 126.205L88.1563 125.694L92.0088 118.985V119.251C91.1048 117.053 90.714 114.678 90.8662 112.306C91.0183 109.935 91.7094 107.629 92.8868 105.565C94.0642 103.501 95.697 101.732 97.6608 100.394C99.6247 99.0562 101.868 98.1837 104.22 97.8431C106.572 97.5026 108.97 97.703 111.233 98.429C113.496 99.1551 115.563 100.388 117.278 102.033C118.992 103.679 120.309 105.693 121.127 107.924C121.946 110.155 122.245 112.544 122.002 114.907H121.986ZM121.986 114.907C122.229 112.579 121.935 110.226 121.127 108.028C120.318 105.831 119.018 103.848 117.324 102.232C115.631 100.615 113.589 99.4078 111.357 98.7027C109.124 97.9976 106.76 97.8132 104.445 98.1637C102.15 98.5061 99.9634 99.3695 98.0533 100.688C96.1644 102.017 94.5852 103.739 93.4241 105.736C92.2817 107.743 91.6075 109.982 91.4519 112.286C91.3091 114.595 91.6845 116.906 92.5504 119.051L92.6066 119.189L92.53 119.312L88.6366 125.99L88.3606 125.581L96.1066 124.498H96.2139L96.2906 124.569C98.3579 126.505 100.923 127.827 103.699 128.386C104.392 128.525 105.094 128.611 105.799 128.642C106.504 128.69 107.21 128.69 107.915 128.642C109.328 128.534 110.72 128.228 112.048 127.732C113.383 127.25 114.64 126.573 115.778 125.724C116.348 125.3 116.894 124.845 117.413 124.36C117.914 123.856 118.383 123.322 118.818 122.761C120.581 120.487 121.678 117.768 121.986 114.907Z" fill="#263238"/>
<path d="M115.226 113.768C115.227 114.139 115.118 114.502 114.913 114.811C114.707 115.12 114.415 115.361 114.072 115.504C113.73 115.647 113.352 115.685 112.988 115.613C112.624 115.541 112.29 115.363 112.027 115.101C111.764 114.839 111.585 114.505 111.512 114.141C111.439 113.777 111.476 113.4 111.618 113.057C111.76 112.714 112 112.421 112.309 112.214C112.617 112.008 112.98 111.898 113.351 111.898C113.597 111.897 113.841 111.945 114.068 112.039C114.296 112.133 114.502 112.27 114.677 112.444C114.851 112.618 114.989 112.824 115.083 113.051C115.178 113.278 115.226 113.522 115.226 113.768Z" fill="#263238"/>
<path d="M108.513 113.768C108.514 114.139 108.405 114.503 108.199 114.812C107.993 115.121 107.7 115.362 107.358 115.505C107.015 115.647 106.637 115.685 106.273 115.613C105.909 115.54 105.574 115.362 105.312 115.099C105.049 114.837 104.87 114.502 104.798 114.138C104.726 113.774 104.764 113.396 104.906 113.053C105.049 112.71 105.29 112.418 105.599 112.212C105.908 112.006 106.271 111.897 106.643 111.898C107.139 111.898 107.614 112.095 107.965 112.446C108.316 112.796 108.513 113.272 108.513 113.768Z" fill="#263238"/>
<path d="M101.804 113.768C101.805 114.139 101.696 114.502 101.49 114.811C101.285 115.12 100.992 115.361 100.65 115.504C100.307 115.647 99.9299 115.685 99.5658 115.613C99.2017 115.541 98.8671 115.363 98.6044 115.101C98.3416 114.839 98.1625 114.505 98.0898 114.141C98.017 113.777 98.0538 113.4 98.1956 113.057C98.3374 112.714 98.5777 112.421 98.8862 112.214C99.1947 112.008 99.5574 111.898 99.9285 111.898C100.425 111.898 100.901 112.095 101.253 112.445C101.604 112.796 101.802 113.272 101.804 113.768Z" fill="#263238"/>
<path d="M128.542 34.6788C128.842 37.5284 129.928 40.2386 131.679 42.5073C133.429 44.7759 135.775 46.5138 138.456 47.5273C141.136 48.5408 144.045 48.7901 146.859 48.2473C149.672 47.7045 152.28 46.391 154.391 44.4532L162.126 45.5875L158.259 38.8992C159.146 36.7213 159.524 34.3698 159.366 32.0234C159.208 29.6771 158.517 27.3977 157.346 25.3584C156.175 23.3192 154.554 21.5737 152.608 20.2547C150.661 18.9357 148.439 18.0779 146.11 17.7464C143.782 17.415 141.409 17.6186 139.171 18.3419C136.934 19.0651 134.89 20.289 133.197 21.9204C131.503 23.5518 130.203 25.5478 129.397 27.7568C128.59 29.9658 128.298 32.3296 128.542 34.6686V34.6788Z" fill="white"/>
<path d="M133.171 21.8997C134.856 20.238 136.9 18.9858 139.146 18.2399C141.392 17.4939 143.779 17.2741 146.123 17.5975C148.484 17.9089 150.742 18.7566 152.725 20.0756C155.728 22.0804 157.946 25.0617 159.003 28.5145C160.06 31.9673 159.891 35.6793 158.524 39.0216V38.7559L162.366 45.4749L162.647 45.9858L162.091 45.899L154.355 44.7136L154.539 44.6574C152.385 46.605 149.731 47.9143 146.875 48.4384C146.168 48.5679 145.452 48.6414 144.734 48.6581C144.018 48.6956 143.301 48.6819 142.588 48.6172C139.722 48.344 136.988 47.2829 134.688 45.5515C134.117 45.1241 133.571 44.6634 133.053 44.172C132.555 43.6616 132.088 43.1225 131.653 42.5574C129.337 39.5312 128.211 35.7607 128.489 31.9601C128.767 28.1594 130.429 24.5927 133.161 21.9355L133.171 21.8997ZM131.71 42.4858C132.145 43.0455 132.614 43.5779 133.115 44.08C133.631 44.568 134.177 45.0236 134.75 45.4442C135.887 46.2976 137.146 46.9762 138.485 47.4574C139.812 47.9504 141.202 48.2565 142.613 48.3668C143.319 48.4154 144.028 48.4154 144.734 48.3668C145.437 48.3356 146.138 48.2502 146.829 48.1114C149.605 47.5516 152.17 46.23 154.237 44.2946L154.314 44.2231H154.421L162.167 45.3063L161.891 45.715L157.998 39.0369L157.921 38.9092L157.977 38.7712C158.845 36.6347 159.217 34.3295 159.065 32.0286C158.914 29.7277 158.243 27.4911 157.104 25.4866C155.944 23.4887 154.365 21.7663 152.474 20.4384C150.566 19.121 148.381 18.2576 146.088 17.9143C143.056 17.4462 139.954 17.9004 137.183 19.2178C134.413 20.5353 132.103 22.6551 130.553 25.3021C129.002 27.9492 128.284 31.0012 128.49 34.0618C128.696 37.1224 129.818 40.0503 131.71 42.4654V42.4858Z" fill="#263238"/>
<path d="M145.306 34.9598V36.8912C145.31 37.0835 145.275 37.2748 145.203 37.4533C145.132 37.6319 145.025 37.7941 144.888 37.9302C144.752 38.0662 144.59 38.1733 144.412 38.245C144.233 38.3167 144.042 38.3515 143.849 38.3474C143.464 38.346 143.094 38.1922 142.821 37.9194C142.548 37.6466 142.395 37.2769 142.393 36.8912V33.8255C142.393 33.7948 142.424 33.7948 142.424 33.7642C142.424 33.7335 142.393 33.7335 142.393 33.7079C142.404 33.325 142.56 32.9606 142.831 32.6897C143.102 32.4188 143.467 32.2621 143.849 32.2517C144.308 32.2877 144.768 32.2285 145.202 32.0779C145.636 31.9273 146.034 31.6886 146.372 31.3767C146.709 31.0648 146.978 30.6864 147.162 30.2655C147.347 29.8445 147.442 29.39 147.442 28.9306C147.442 28.4711 147.347 28.0166 147.162 27.5957C146.978 27.1747 146.709 26.7964 146.372 26.4845C146.034 26.1726 145.636 25.9338 145.202 25.7832C144.768 25.6326 144.308 25.5735 143.849 25.6094C143.272 25.6071 142.705 25.757 142.204 26.0441C141.704 26.3312 141.288 26.7452 140.998 27.2444C140.899 27.4135 140.767 27.5611 140.61 27.6785C140.453 27.796 140.274 27.881 140.084 27.9285C139.893 27.9761 139.696 27.9853 139.502 27.9555C139.308 27.9258 139.122 27.8578 138.955 27.7554C138.79 27.6584 138.646 27.5299 138.531 27.3771C138.416 27.2244 138.332 27.0504 138.285 26.8652C138.237 26.6801 138.227 26.4873 138.254 26.2981C138.282 26.1089 138.346 25.927 138.444 25.7627C138.961 24.8655 139.693 24.1109 140.574 23.567C141.455 23.023 142.458 22.7068 143.491 22.6467C144.525 22.5866 145.558 22.7845 146.496 23.2227C147.434 23.6609 148.249 24.3256 148.866 25.1569C149.483 25.9881 149.884 26.9599 150.033 27.9848C150.181 29.0096 150.073 30.0552 149.716 31.0276C149.36 31.9999 148.768 32.8684 147.993 33.5548C147.217 34.2412 146.283 34.724 145.275 34.9598H145.306ZM145.306 41.4641V41.9751C145.311 42.1677 145.276 42.3592 145.205 42.5381C145.133 42.717 145.026 42.8795 144.89 43.0157C144.754 43.1519 144.591 43.259 144.412 43.3305C144.234 43.4019 144.042 43.4362 143.849 43.4313C143.463 43.4313 143.093 43.2779 142.82 43.0048C142.547 42.7317 142.393 42.3613 142.393 41.9751V41.4641C142.399 41.0796 142.554 40.7122 142.826 40.4403C143.098 40.1683 143.465 40.0132 143.849 40.0079C144.041 40.0059 144.232 40.0422 144.409 40.1146C144.587 40.1871 144.748 40.2942 144.884 40.4299C145.019 40.5655 145.127 40.7269 145.199 40.9045C145.271 41.0821 145.308 41.2723 145.306 41.4641Z" fill="#3B5CCC"/>
</g>
<defs>
<clipPath id="clip0_2609_9904">
<rect width="234" height="231" fill="white"/>
</clipPath>
</defs>
</svg>
