<svg width="234" height="231" viewBox="0 0 234 231" fill="none" xmlns="http://www.w3.org/2000/svg">
<path d="M146.86 230.766H102.38L102.3 230.405C101.164 225.379 100.033 220.317 98.9272 215.422C98.8568 215.07 98.7764 214.728 98.696 214.387C98.505 213.532 98.319 212.678 98.128 211.833L96.5046 204.616C96.374 204.023 96.2383 203.445 96.1076 202.867C96.1076 202.777 96.0724 202.691 96.0473 202.601C95.9618 202.194 95.8663 201.786 95.7759 201.374C95.5447 200.369 95.3218 199.377 95.1074 198.399C95.022 198.037 94.9415 197.675 94.8661 197.323C94.7908 196.972 94.6902 196.544 94.5998 196.162C94.4892 195.66 94.3736 195.157 94.263 194.655L94.067 193.785C93.7805 192.503 93.494 191.272 93.2277 190.046C93.2259 190.032 93.2259 190.019 93.2277 190.005C93.1523 189.674 93.0819 189.342 93.0065 189C92.9613 188.789 92.911 188.583 92.8658 188.387C92.7703 187.97 92.6748 187.558 92.5894 187.146C92.3079 185.919 92.0465 184.743 91.7952 183.627C91.7148 183.276 91.6394 182.939 91.5691 182.622C91.5155 182.394 91.4652 182.173 91.4183 181.959C91.358 181.692 91.3027 181.431 91.2424 181.175C91.1318 180.672 91.0263 180.215 90.9207 179.762C90.8152 179.31 90.7297 178.903 90.6393 178.496C90.5789 178.229 90.5237 177.993 90.4633 177.722L90.2573 176.797C90.2221 176.646 90.1869 176.495 90.1568 176.35C90.1266 176.204 90.0914 176.058 90.0613 175.923C90.0598 175.906 90.0598 175.889 90.0613 175.872C90.0261 175.747 90.006 175.631 89.9758 175.505C89.9457 175.38 89.9155 175.244 89.8904 175.113C89.8401 174.897 89.7949 174.686 89.7497 174.485C89.7044 174.284 89.6692 174.148 89.6391 173.982C89.6089 173.817 89.5436 173.565 89.4984 173.374C89.428 173.053 89.3627 172.766 89.3023 172.505C89.2722 172.354 89.237 172.208 89.2068 172.078L89.1616 171.877C89.1164 171.681 89.0812 171.515 89.051 171.374C89.0209 171.233 89.0058 171.188 88.9907 171.123C88.994 171.088 88.994 171.052 88.9907 171.017C88.9907 171.017 88.9907 170.987 88.9907 170.977C88.9869 170.966 88.9869 170.953 88.9907 170.942C88.9883 170.925 88.9883 170.908 88.9907 170.891H128.571C128.571 170.891 128.646 171.118 128.782 171.555C128.782 171.61 128.817 171.671 128.837 171.731C128.938 172.063 129.073 172.48 129.229 172.987C129.274 173.123 129.32 173.269 129.365 173.415L130.008 175.48C130.073 175.676 130.134 175.877 130.199 176.083C130.264 176.289 130.33 176.501 130.4 176.717C130.47 176.933 130.536 177.159 130.606 177.385C130.677 177.611 130.717 177.742 130.777 177.928L131.053 178.812C131.129 179.059 131.209 179.315 131.295 179.576C131.38 179.838 131.456 180.079 131.541 180.371C132.511 183.492 133.682 187.266 134.999 191.518C135.125 191.94 135.255 192.358 135.391 192.79C135.471 193.045 135.552 193.306 135.632 193.574C135.713 193.835 135.793 194.102 135.878 194.368C136.205 195.429 136.542 196.519 136.884 197.625L137.663 200.138C137.834 200.711 138.01 201.284 138.19 201.872C138.371 202.46 138.552 203.033 138.733 203.626C138.819 203.922 138.909 204.219 139 204.516C139.025 204.596 139.045 204.666 139.075 204.747C139.15 204.983 139.251 205.32 139.372 205.722C139.422 205.893 139.472 206.059 139.527 206.224C139.558 206.315 139.583 206.405 139.613 206.501C139.643 206.596 139.708 206.828 139.759 207.003C139.809 207.179 139.899 207.461 139.975 207.692C140.05 207.923 140.09 208.094 140.156 208.29C140.186 208.406 140.226 208.516 140.256 208.627L140.879 210.637C141.01 211.064 141.121 211.436 141.206 211.708L141.271 211.939C141.271 212.004 141.312 212.055 141.327 212.1C142.729 216.729 144.176 221.524 145.629 226.354C145.996 227.846 146.428 229.319 146.86 230.766Z" fill="#3B5CCC"/>
<path opacity="0.2" d="M146.86 230.766H102.38L102.3 230.405C101.164 225.379 100.033 220.317 98.9272 215.422C98.8568 215.07 98.7764 214.728 98.696 214.387C98.505 213.532 98.319 212.678 98.128 211.833L96.5046 204.616C96.374 204.023 96.2383 203.445 96.1076 202.867C96.1076 202.777 96.0724 202.691 96.0473 202.601C95.9618 202.194 95.8663 201.786 95.7759 201.374C95.5447 200.369 95.3218 199.377 95.1074 198.399C95.022 198.037 94.9415 197.675 94.8661 197.323C94.7908 196.972 94.6902 196.544 94.5998 196.162C94.4892 195.66 94.3736 195.157 94.263 194.655L94.067 193.785C93.7805 192.503 93.494 191.272 93.2277 190.046C93.2259 190.032 93.2259 190.019 93.2277 190.005C93.1523 189.674 93.0819 189.342 93.0065 189C92.9613 188.789 92.911 188.583 92.8658 188.387C92.7703 187.97 92.6748 187.558 92.5894 187.146C92.3079 185.919 92.0465 184.743 91.7952 183.627C91.7148 183.276 91.6394 182.939 91.5691 182.622C91.5155 182.394 91.4652 182.173 91.4183 181.959C91.358 181.692 91.3027 181.431 91.2424 181.175C91.1318 180.672 91.0263 180.215 90.9207 179.762C90.8152 179.31 90.7297 178.903 90.6393 178.496C90.5789 178.229 90.5237 177.993 90.4633 177.722L90.2573 176.797C90.2221 176.646 90.1869 176.495 90.1568 176.35C90.1266 176.204 90.0914 176.058 90.0613 175.923C90.0598 175.906 90.0598 175.889 90.0613 175.872C90.0261 175.747 90.006 175.631 89.9758 175.505C89.9457 175.38 89.9155 175.244 89.8904 175.113C89.8401 174.897 89.7949 174.686 89.7497 174.485C89.7044 174.284 89.6692 174.148 89.6391 173.982C89.6089 173.817 89.5436 173.565 89.4984 173.374C89.428 173.053 89.3627 172.766 89.3023 172.505C89.2722 172.354 89.237 172.208 89.2068 172.078L89.1616 171.877C89.1164 171.681 89.0812 171.515 89.051 171.374C89.0209 171.233 89.0058 171.188 88.9907 171.123C88.994 171.088 88.994 171.052 88.9907 171.017C88.9907 171.017 88.9907 170.987 88.9907 170.977C88.9869 170.966 88.9869 170.953 88.9907 170.942C88.9883 170.925 88.9883 170.908 88.9907 170.891H128.571C128.571 170.891 128.646 171.118 128.782 171.555C128.782 171.61 128.817 171.671 128.837 171.731C128.938 172.063 129.073 172.48 129.229 172.987C129.274 173.123 129.32 173.269 129.365 173.415L130.008 175.48C130.073 175.676 130.134 175.877 130.199 176.083C130.264 176.289 130.33 176.501 130.4 176.717C130.47 176.933 130.536 177.159 130.606 177.385C130.677 177.611 130.717 177.742 130.777 177.928L131.053 178.812C131.129 179.059 131.209 179.315 131.295 179.576C131.38 179.838 131.456 180.079 131.541 180.371C132.511 183.492 133.682 187.266 134.999 191.518C135.125 191.94 135.255 192.358 135.391 192.79C135.471 193.045 135.552 193.306 135.632 193.574C135.713 193.835 135.793 194.102 135.878 194.368C136.205 195.429 136.542 196.519 136.884 197.625L137.663 200.138C137.834 200.711 138.01 201.284 138.19 201.872C138.371 202.46 138.552 203.033 138.733 203.626C138.819 203.922 138.909 204.219 139 204.516C139.025 204.596 139.045 204.666 139.075 204.747C139.15 204.983 139.251 205.32 139.372 205.722C139.422 205.893 139.472 206.059 139.527 206.224C139.558 206.315 139.583 206.405 139.613 206.501C139.643 206.596 139.708 206.828 139.759 207.003C139.809 207.179 139.899 207.461 139.975 207.692C140.05 207.923 140.09 208.094 140.156 208.29C140.186 208.406 140.226 208.516 140.256 208.627L140.879 210.637C141.01 211.064 141.121 211.436 141.206 211.708L141.271 211.939C141.271 212.004 141.312 212.055 141.327 212.1C142.729 216.729 144.176 221.524 145.629 226.354C145.996 227.846 146.428 229.319 146.86 230.766Z" fill="black"/>
<path opacity="0.1" d="M109.642 230.766H108.687C107.347 225.201 106.007 219.635 104.667 214.07C104.642 213.944 104.606 213.824 104.581 213.698C102.933 206.822 101.291 199.945 99.6557 193.066C98.8314 189.593 98.0423 186.105 97.2432 182.622C96.8461 180.893 97.017 180.144 97.3236 181.506C98.0876 184.848 99.0475 188.141 99.8919 191.453C100.736 194.765 101.596 198.233 102.445 201.625C103.474 205.757 104.499 209.89 105.521 214.025C106.164 216.615 106.804 219.205 107.441 221.795C107.979 223.951 108.507 226.112 109.039 228.268C109.234 229.103 109.435 229.935 109.642 230.766Z" fill="black"/>
<path opacity="0.1" d="M124.007 170.896C123.474 174.993 122.705 180.446 121.775 186.829C121.077 191.614 120.267 196.881 119.453 202.5C119.118 204.782 118.768 207.107 118.403 209.476C118.4 209.494 118.4 209.513 118.403 209.531C118.353 209.833 118.307 210.134 118.267 210.441C118.116 211.406 117.976 212.381 117.825 213.356C116.965 219.051 116.081 224.916 115.206 230.751H102.375C102.375 230.631 102.325 230.51 102.299 230.389C101.164 225.363 100.033 220.302 98.927 215.407C98.8566 215.06 98.7762 214.713 98.7008 214.371C98.5098 213.517 98.3239 212.663 98.1329 211.818L96.5095 204.601C96.3788 204.008 96.2431 203.43 96.1124 202.852C96.1124 202.761 96.0772 202.676 96.0521 202.585C95.9667 202.178 95.8712 201.771 95.7807 201.359C95.5495 200.354 95.3267 199.362 95.1122 198.384C95.0268 198.022 94.9464 197.66 94.871 197.308C94.7956 196.956 94.6951 196.529 94.6046 196.147C94.494 195.644 94.3785 195.142 94.2679 194.639L94.0719 193.77C93.7854 192.488 93.4989 191.257 93.2325 190.03C93.2308 190.017 93.2308 190.003 93.2325 189.99C93.1571 189.658 93.0868 189.327 93.0114 188.985C92.9661 188.774 92.9159 188.568 92.8706 188.372C92.7752 187.955 92.6797 187.542 92.5942 187.13C92.3128 185.904 92.0514 184.728 91.8001 183.612C91.7197 183.26 91.6443 182.924 91.5739 182.607C91.5203 182.379 91.4701 182.158 91.4231 181.943C91.3628 181.677 91.3076 181.416 91.2472 181.159C91.1367 180.657 91.0311 180.199 90.9256 179.747C90.82 179.295 90.7346 178.888 90.6441 178.481C90.5838 178.214 90.5285 177.978 90.4682 177.707L90.2621 176.782C90.227 176.631 90.1918 176.48 90.1616 176.334C90.1315 176.189 90.0963 176.043 90.0661 175.907C90.0647 175.891 90.0647 175.874 90.0661 175.857C90.0309 175.731 90.0108 175.616 89.9807 175.49C89.9505 175.364 89.9204 175.229 89.8952 175.098C89.845 174.882 89.7997 174.671 89.7545 174.47C89.7093 174.269 89.6741 174.133 89.6439 173.967C89.6138 173.801 89.5484 173.55 89.5032 173.359C89.4328 173.037 89.3675 172.751 89.3072 172.49C89.277 172.339 89.2419 172.193 89.2117 172.062L89.1665 171.861C89.1212 171.665 89.0861 171.499 89.0559 171.359C89.0257 171.218 89.0107 171.173 88.9956 171.107C88.9989 171.072 88.9989 171.037 88.9956 171.002C88.9956 171.002 88.9956 170.972 88.9956 170.962C88.9917 170.95 88.9917 170.938 88.9956 170.926C88.9932 170.91 88.9932 170.893 88.9956 170.876L124.007 170.896Z" fill="black"/>
<path d="M127.219 170.892C127.219 171.299 126.264 189.991 121.972 204.822C121.63 206.064 121.248 207.28 120.846 208.451C120.846 208.451 119.971 208.768 118.403 209.486C118.192 209.577 117.966 209.688 117.73 209.798H117.679C116.674 210.301 115.428 210.899 113.995 211.673L113.272 212.07C112.364 212.566 111.39 213.125 110.352 213.749C110.06 213.919 109.764 214.1 109.462 214.286H109.437C109.437 214.286 109.266 219.956 109.03 228.234C109.03 229.043 108.984 229.877 108.959 230.747H70.259C70.6259 225.218 70.9877 220.101 71.3245 215.809V215.628C71.3245 215.583 71.3245 215.523 71.3245 215.462C71.3223 215.432 71.3223 215.402 71.3245 215.372C71.5858 212.005 71.8271 209.175 72.0583 207.084C72.0583 206.984 72.0583 206.893 72.0834 206.818C72.1086 206.742 72.0834 206.742 72.0834 206.717C72.0834 206.692 72.0834 206.642 72.0834 206.612C72.1074 206.253 72.1074 205.894 72.0834 205.536C72.0834 205.355 72.0834 205.164 72.0583 204.963C72.0583 204.656 72.0181 204.315 71.9929 203.958C71.9929 203.722 71.9527 203.455 71.9326 203.219C71.9326 203.058 71.9025 202.897 71.8924 202.716C71.8623 202.38 71.8321 202.028 71.7969 201.671C71.7467 201.058 71.6864 200.42 71.6311 199.761C71.5909 199.299 71.5557 198.826 71.5155 198.354C71.5155 198.198 71.4903 198.032 71.4753 197.876C71.4451 197.399 71.4099 196.911 71.3798 196.429C71.3496 195.831 71.3144 195.233 71.2893 194.65C71.2893 194.449 71.2893 194.253 71.2893 194.062C71.2893 193.83 71.2893 193.604 71.2893 193.388C71.2893 192.619 71.2893 191.88 71.3195 191.197C71.3168 191.162 71.3168 191.126 71.3195 191.091C71.3195 190.87 71.3195 190.659 71.3597 190.453C71.3999 190.247 71.3999 189.98 71.43 189.759C71.7467 187.151 72.1638 184.683 72.6112 182.441C72.6614 182.165 72.7167 181.889 72.777 181.617C73.1841 179.642 73.6063 177.863 73.9983 176.345L74.124 176.043C74.2798 175.425 74.4356 174.847 74.5864 174.329C74.5864 174.239 74.6316 174.159 74.6567 174.073C74.9432 173.068 75.1895 172.249 75.3604 171.706C75.4006 171.585 75.4308 171.48 75.4609 171.389C75.5665 171.068 75.6268 170.887 75.6268 170.887H127.219V170.892Z" fill="#3B5CCC"/>
<path opacity="0.2" d="M127.219 170.892C127.219 171.299 126.264 189.991 121.972 204.822C121.63 206.064 121.248 207.28 120.846 208.451C120.846 208.451 119.971 208.768 118.403 209.486C118.192 209.577 117.966 209.688 117.73 209.798H117.679C116.674 210.301 115.428 210.899 113.995 211.673L113.272 212.07C112.364 212.566 111.39 213.125 110.352 213.749C110.06 213.919 109.764 214.1 109.462 214.286H109.437C109.437 214.286 109.266 219.956 109.03 228.234C109.03 229.043 108.984 229.877 108.959 230.747H70.259C70.6259 225.218 70.9877 220.101 71.3245 215.809V215.628C71.3245 215.583 71.3245 215.523 71.3245 215.462C71.3223 215.432 71.3223 215.402 71.3245 215.372C71.5858 212.005 71.8271 209.175 72.0583 207.084C72.0583 206.984 72.0583 206.893 72.0834 206.818C72.1086 206.742 72.0834 206.742 72.0834 206.717C72.0834 206.692 72.0834 206.642 72.0834 206.612C72.1074 206.253 72.1074 205.894 72.0834 205.536C72.0834 205.355 72.0834 205.164 72.0583 204.963C72.0583 204.656 72.0181 204.315 71.9929 203.958C71.9929 203.722 71.9527 203.455 71.9326 203.219C71.9326 203.058 71.9025 202.897 71.8924 202.716C71.8623 202.38 71.8321 202.028 71.7969 201.671C71.7467 201.058 71.6864 200.42 71.6311 199.761C71.5909 199.299 71.5557 198.826 71.5155 198.354C71.5155 198.198 71.4903 198.032 71.4753 197.876C71.4451 197.399 71.4099 196.911 71.3798 196.429C71.3496 195.831 71.3144 195.233 71.2893 194.65C71.2893 194.449 71.2893 194.253 71.2893 194.062C71.2893 193.83 71.2893 193.604 71.2893 193.388C71.2893 192.619 71.2893 191.88 71.3195 191.197C71.3168 191.162 71.3168 191.126 71.3195 191.091C71.3195 190.87 71.3195 190.659 71.3597 190.453C71.3999 190.247 71.3999 189.98 71.43 189.759C71.7467 187.151 72.1638 184.683 72.6112 182.441C72.6614 182.165 72.7167 181.889 72.777 181.617C73.1841 179.642 73.6063 177.863 73.9983 176.345L74.124 176.043C74.2798 175.425 74.4356 174.847 74.5864 174.329C74.5864 174.239 74.6316 174.159 74.6567 174.073C74.9432 173.068 75.1895 172.249 75.3604 171.706C75.4006 171.585 75.4308 171.48 75.4609 171.389C75.5665 171.068 75.6268 170.887 75.6268 170.887H127.219V170.892Z" fill="black"/>
<path d="M120.072 208.933C115.504 210.595 111.089 212.652 106.878 215.08C106.849 215.1 106.827 215.129 106.818 215.163C106.808 215.197 106.81 215.234 106.825 215.266C106.839 215.299 106.864 215.325 106.896 215.34C106.928 215.356 106.964 215.36 106.999 215.351C111.442 213.441 115.975 211.617 120.308 209.466C120.376 209.433 120.429 209.375 120.456 209.304C120.482 209.233 120.479 209.154 120.449 209.085C120.418 209.015 120.361 208.961 120.291 208.932C120.22 208.904 120.142 208.904 120.072 208.933Z" fill="#263238"/>
<path d="M121.484 178.44C121.484 178.284 121.203 178.249 121.203 178.44C121.238 183.718 120.901 188.362 120.459 193.292C120.253 195.579 118.408 208.235 114.428 207.31C113.764 207.154 113.422 206.501 113.322 205.5C113.196 204.294 113.649 202.816 113.85 201.62C114.287 198.972 114.644 196.313 114.855 193.639C115.317 188.658 115.263 183.642 114.694 178.671C114.688 178.642 114.672 178.615 114.649 178.596C114.625 178.577 114.596 178.566 114.566 178.566C114.536 178.566 114.506 178.577 114.483 178.596C114.46 178.615 114.444 178.642 114.438 178.671C114.438 185.587 114.262 192.483 113.231 199.333C112.729 202.62 111.075 207.576 114.518 208.084C117.961 208.591 120.288 200.298 120.715 198.032C121.937 191.689 121.982 184.848 121.484 178.44Z" fill="#263238"/>
<path d="M114.543 207.626C114.191 208.481 113.894 209.357 113.653 210.25C113.396 210.938 113.27 211.667 113.281 212.401C113.281 212.542 113.482 212.557 113.558 212.461C113.967 211.813 114.277 211.106 114.477 210.366C114.779 209.551 115.101 208.747 115.377 207.928C115.417 207.817 115.411 207.695 115.361 207.589C115.312 207.482 115.221 207.4 115.111 207.36C115 207.32 114.878 207.326 114.772 207.376C114.665 207.426 114.583 207.516 114.543 207.626Z" fill="#263238"/>
<path opacity="0.1" d="M76.7775 197.232C77.0539 199.962 77.2801 202.696 77.4711 205.435L77.0891 215.522L76.5111 230.766H76.0085C76.2347 225.303 76.4407 220.181 76.6267 215.547C76.7724 211.833 76.9081 208.425 77.0288 205.415C77.0288 205.415 76.4106 197.323 76.4106 197.268L76.2146 195.227C75.913 193.191 76.501 191.091 76.8428 189.09C77.9284 183.727 79.2402 178.415 80.5872 173.118C79.3257 178.435 78.0742 183.768 77.069 189.141C76.7624 191.151 76.2146 193.161 76.5362 195.172L76.7775 197.232Z" fill="black"/>
<path opacity="0.1" d="M141.246 212.14L71.3191 215.829C71.4146 214.824 72.063 207.395 72.1484 206.631C72.3796 204.48 70.8467 194.815 71.4699 189.769C72.2642 183.362 73.6574 177.043 75.6315 170.896H128.5C128.5 170.896 133.109 185.512 138.929 204.541C139.221 205.495 140.97 211.17 141.246 212.14Z" fill="black"/>
<path d="M118.916 120.943C127.917 129.04 159.953 162.508 157.219 173.42C154.676 183.572 145.212 185.271 139.025 179.772C130.058 171.801 115.87 140.745 112.296 131.206C108.894 122.129 110.065 112.992 118.916 120.943Z" fill="#3B5CCC"/>
<g opacity="0.2">
<path d="M118.916 120.943C127.917 129.04 159.953 162.508 157.219 173.42C154.676 183.572 145.212 185.271 139.025 179.773C130.059 171.801 115.87 140.746 112.297 131.206C108.894 122.129 110.065 112.992 118.916 120.943Z" fill="black"/>
</g>
<path opacity="0.1" d="M148.69 182.662C145.438 183.321 141.885 182.316 139.025 179.772C130.059 171.806 115.87 140.745 112.297 131.206C109.437 123.561 109.819 115.862 115.312 118.395L148.69 182.662Z" fill="black"/>
<path d="M135.477 186.623L141.623 207.797L121.313 209.933L116.252 198.549L109.99 210.501L67.8263 209.717L70.8118 186.979C70.8118 186.979 68.9722 184.004 70.0176 179.385C73.3951 164.453 83.6934 132.402 95.8815 120.078C102.501 113.378 113.307 116.143 116.408 119.309C126.188 129.296 136.009 174.354 137.301 179.968C137.804 182.2 135.502 186.597 135.477 186.623Z" fill="#3B5CCC"/>
<g opacity="0.2">
<path d="M135.477 186.623L141.623 207.798L121.313 209.934L116.252 198.55L109.99 210.502L67.8263 209.718L70.8118 186.98C70.8118 186.98 68.9722 184.004 70.0176 179.385C73.3951 164.453 83.6934 132.402 95.8815 120.078C102.501 113.379 113.307 116.143 116.408 119.309C126.188 129.296 136.009 174.354 137.301 179.969C137.804 182.2 135.502 186.598 135.477 186.623Z" fill="black"/>
</g>
<path d="M131.767 157.416C126.434 157.683 119.845 157.969 115.493 157.979H108.421C95.9716 157.979 84.1202 157.919 76.2846 157.859C76.5761 157.004 76.8827 156.135 77.1943 155.27C86.5478 155.33 101.058 155.406 115.488 155.371C116.613 155.371 117.885 155.371 119.257 155.31C120.071 155.31 120.931 155.27 121.805 155.235L122.881 155.2L125.897 155.079H125.987L128.957 154.938H129.053L130.988 154.843H131.058C131.299 155.712 131.541 156.567 131.767 157.416Z" fill="#3B5CCC"/>
<path d="M123.836 146.49C120.73 146.611 117.74 146.691 115.393 146.701H108.301C101.234 146.701 94.3588 146.701 88.3125 146.651H83.2864H80.5121C80.874 145.787 81.2409 144.917 81.6027 144.063C90.7652 144.123 103.109 144.163 115.388 144.138C118.715 144.138 123.364 143.967 127.752 143.766C128.018 144.616 128.289 145.465 128.546 146.324C128.541 146.284 125.389 146.43 123.836 146.49Z" fill="#3B5CCC"/>
<path d="M111.256 208.089L111.17 208.25L109.989 210.496L67.8207 209.717L68.1324 207.315L68.1575 207.159L109.974 208.149L111.256 208.089Z" fill="#3B5CCC"/>
<path d="M141.623 207.803L121.313 209.934L120.358 207.793L120.288 207.637L121.253 207.587L140.93 205.425L140.985 205.606L141.623 207.803Z" fill="#3B5CCC"/>
<path d="M116.252 198.55C117.141 195.343 118.161 192.137 118.795 188.905C118.831 188.089 118.796 187.272 118.689 186.462C118.237 182.009 117.222 173.616 116.704 169.082C116.518 167.419 116.05 163.217 115.9 161.614C115.628 158.487 116.734 155.386 116.729 152.28C116.709 152.094 116.678 151.909 116.634 151.727C115.126 145.058 113.306 136.483 111.889 129.734L109.909 119.928L112.321 129.638C113.935 136.393 115.93 144.867 117.433 151.557C117.935 154.849 116.427 158.241 116.744 161.543C116.88 163.126 117.322 167.363 117.493 168.997C118.136 175.073 118.845 181.562 119.257 187.679C119.363 189.774 118.367 191.81 117.845 193.8C117.342 195.393 116.814 196.972 116.267 198.55H116.252Z" fill="#263238"/>
<path d="M92.1268 122.702C79.0591 134.141 60.1864 154.869 60.9353 160.327C62.805 174.008 75.4102 194.841 80.6674 201.244C83.7333 204.978 104.245 189.769 101.686 186.316C97.6655 180.868 85.4874 160.146 84.4018 157.909C83.8188 156.718 92.946 140.504 97.9419 129.382C103.365 117.289 98.4998 117.123 92.1268 122.702Z" fill="#AD6359"/>
<path d="M119.694 206.31C118.523 208.788 115.714 208.406 115.714 208.406C115.873 209.762 115.551 211.132 114.804 212.276C113.397 214.231 109.718 212.879 109.718 212.879C109.587 214.32 109.027 215.689 108.109 216.809C106.577 218.543 102.666 217.709 102.666 217.709C101.816 218.965 100.542 219.875 99.0777 220.272C95.1172 221.172 90.7496 216.754 87.9451 214.01C85.1406 211.265 79.2953 199.711 78.069 197.816L96.1626 180.727C96.1626 180.727 112.276 189.553 115.116 193.292C117.488 196.393 121.001 203.525 119.694 206.31Z" fill="#AD6359"/>
<path d="M115.739 208.265C113.995 204.325 111.186 201.108 108.557 197.741C108.502 197.67 108.381 197.741 108.441 197.836C111.09 201.153 113.05 204.953 115.563 208.391C115.58 208.414 115.605 208.43 115.633 208.435C115.662 208.439 115.691 208.433 115.714 208.416C115.737 208.399 115.753 208.374 115.758 208.346C115.762 208.317 115.756 208.288 115.739 208.265Z" fill="#263238"/>
<path d="M109.889 212.583C109.409 211.726 108.818 210.937 108.13 210.235C107.46 209.445 106.765 208.667 106.044 207.903C104.63 206.369 103.179 204.873 101.692 203.415C101.626 203.35 101.511 203.415 101.576 203.506C102.983 205.038 104.366 206.586 105.708 208.175C106.376 208.969 107.044 209.768 107.718 210.572C108.292 211.372 108.951 212.106 109.683 212.763C109.709 212.775 109.739 212.779 109.767 212.775C109.796 212.771 109.823 212.758 109.844 212.739C109.866 212.72 109.882 212.695 109.89 212.667C109.898 212.64 109.897 212.61 109.889 212.583Z" fill="#263238"/>
<path d="M102.611 217.638C102.275 216.859 101.491 216.211 100.908 215.628C100.237 214.958 99.584 214.269 98.9474 213.562C97.6456 212.18 96.3439 210.798 95.0874 209.366C95.0741 209.353 95.0564 209.345 95.0378 209.344C95.0192 209.343 95.001 209.349 94.9866 209.361C94.9723 209.373 94.9628 209.39 94.9601 209.408C94.9573 209.427 94.9615 209.446 94.9718 209.461C96.2383 210.919 97.4848 212.391 98.7614 213.839C99.3913 214.546 100.023 215.253 100.656 215.96C101.199 216.558 101.807 217.367 102.541 217.729C102.553 217.738 102.568 217.742 102.583 217.74C102.598 217.739 102.612 217.731 102.621 217.719C102.631 217.707 102.635 217.692 102.633 217.676C102.631 217.661 102.623 217.648 102.611 217.638Z" fill="#263238"/>
<path d="M75.1289 200.434L101.264 182.843L85.6282 158C90.2371 149.088 98.8215 131.477 101.078 124.828C103.732 117.038 99.2136 116.052 92.5641 121.154C77.3504 132.819 60.8047 155.331 59.895 160.02C58.543 166.765 75.1289 200.434 75.1289 200.434Z" fill="#3B5CCC"/>
<path opacity="0.2" d="M75.1289 200.434L101.264 182.843L85.6282 158C90.2371 149.088 98.8215 131.477 101.078 124.828C103.732 117.038 99.2136 116.052 92.5641 121.154C77.3504 132.819 60.8047 155.331 59.895 160.02C58.543 166.765 75.1289 200.434 75.1289 200.434Z" fill="black"/>
<path d="M94.9063 172.701C85.3167 178.838 76.5965 184.406 69.6958 188.784C69.3607 188.057 69.0257 187.305 68.6906 186.527C68.6906 186.477 68.6504 186.427 68.6353 186.377C75.4657 182.029 84.0702 176.546 93.5242 170.514L93.6046 170.65L94.9063 172.701Z" fill="#3B5CCC"/>
<path d="M74.3249 192.172C75.7322 190.785 82.4168 186.111 84.0955 184.965C85.7742 183.819 92.6397 179.436 94.3888 178.275C94.4843 178.21 94.6049 178.325 94.5094 178.396C92.8156 179.582 86.2617 184.497 84.5981 185.658C82.9345 186.819 76.2046 191.408 74.3852 192.257C74.3739 192.265 74.3598 192.268 74.3462 192.266C74.3325 192.264 74.3203 192.256 74.3123 192.245C74.3043 192.233 74.3012 192.219 74.3035 192.206C74.3059 192.192 74.3136 192.18 74.3249 192.172Z" fill="#263238"/>
<path d="M96.2731 136.568C93.2575 143.781 89.106 150.983 86.0653 157.924C88.6537 162.518 91.619 166.926 94.3532 171.439C96.6987 175.215 99.0441 179.003 101.39 182.803L101.354 182.828L100.636 183.28L101.309 182.778V182.833C98.7962 179.174 96.32 175.488 93.8807 171.776C91.1265 167.614 88.3974 163.407 85.809 159.135C85.5418 158.772 85.3566 158.355 85.2661 157.914C88.2566 150.485 92.6393 143.695 96.2983 136.583L96.2731 136.568Z" fill="#263238"/>
<path d="M96.4495 137.846C95.9109 138.827 95.171 139.683 94.2782 140.359C94.9969 139.524 95.6554 138.584 96.4495 137.82V137.846Z" fill="#263238"/>
<path d="M139.426 176.546C140.653 184.844 151.881 182.919 155.696 178.471C164.637 168.027 169.552 154.989 172.211 142.841C173.066 138.936 150.785 129.271 148.539 132.925C146.191 136.735 136.949 159.714 139.426 176.546Z" fill="#AD6359"/>
<path d="M176.73 129.301C176.464 134.423 171.82 144.681 169.749 146.721C167.678 148.762 149.971 141.454 149.187 138.569C148.403 135.684 150.635 118.52 154.118 114.61C157.601 110.7 177.006 123.989 176.73 129.301Z" fill="#AD6359"/>
<path d="M149.971 121.691C152.258 123.159 153.344 121.189 153.344 121.189C153.344 121.189 151.333 126.064 153.615 128.019C155.811 129.904 158.214 126.33 158.39 126.079C158.284 126.336 156.555 130.864 159.048 132.613C161.637 134.412 163.431 130.412 163.547 130.155C163.547 130.432 163.305 134.071 165.497 134.955C169.261 136.463 170.085 127.18 172.694 125.175C172.694 125.175 176.594 129.195 176.715 129.301C176.715 129.301 177.68 120.47 174.78 117.108C174.367 116.61 173.796 116.269 173.162 116.141C172.529 116.013 171.87 116.106 171.297 116.404C171.297 116.404 171.92 113.595 170.005 112.167C169 111.438 166.989 112.368 166.989 112.368C166.989 112.368 167.396 110.096 165.607 108.935C164.19 108.001 162.36 109.081 162.36 109.081C162.36 109.081 166.718 98.1395 163.984 96.6619C159.269 94.1187 151.258 118.043 148.991 118.721C147.87 119.053 148.976 121.053 149.971 121.691Z" fill="#AD6359"/>
<path d="M162.044 109.197C162.049 109.19 162.052 109.181 162.052 109.172C162.052 109.162 162.049 109.154 162.043 109.147C162.037 109.139 162.029 109.135 162.02 109.133C162.011 109.131 162.002 109.132 161.994 109.137C158.063 112.117 154.656 116.595 153.213 121.345C153.163 121.501 153.384 122.224 153.449 122.053C155.043 117.781 158.425 112.981 162.044 109.197Z" fill="#263238"/>
<path d="M167.01 112.288C167.05 112.248 166.984 112.182 166.934 112.218C162.913 115.309 159.204 120.46 158.184 126.13C158.149 126.326 158.309 126.537 158.37 126.316C159.335 122.596 163.738 115.675 167.01 112.288Z" fill="#263238"/>
<path d="M163.612 130.567C164.803 125.174 167.603 120.696 171.151 116.494C171.196 116.444 171.116 116.384 171.066 116.419C168.779 117.992 166.803 120.892 165.457 123.28C164.167 125.472 163.474 127.964 163.446 130.507C163.421 130.628 163.587 130.683 163.612 130.567Z" fill="#263238"/>
<path d="M153.253 121.259C153.198 121.445 153.756 121.229 153.711 121.415C153.173 123.471 152.394 127.195 153.967 128.009C155.229 128.658 156.983 127.416 157.46 126.672L158.682 124.808L158.179 126.984C157.95 127.948 157.881 128.943 157.973 129.929C157.99 130.388 158.103 130.839 158.306 131.251C158.508 131.663 158.796 132.028 159.149 132.322C159.482 132.589 159.896 132.734 160.323 132.734C160.749 132.734 161.163 132.589 161.496 132.322C162.228 131.706 162.79 130.913 163.13 130.02L164.135 127.587L163.969 130.211C163.917 130.94 163.961 131.674 164.1 132.392C164.203 133.078 164.508 133.718 164.974 134.231C165.193 134.454 165.471 134.611 165.775 134.684C166.078 134.757 166.397 134.743 166.693 134.644C167.319 134.325 167.842 133.835 168.201 133.231C169.003 131.931 169.702 130.57 170.292 129.16C170.613 128.462 170.935 127.753 171.297 127.064C171.616 126.351 172.084 125.713 172.669 125.195C172.154 125.766 171.754 126.431 171.493 127.155C171.191 127.863 170.925 128.587 170.654 129.311C170.152 130.792 169.511 132.223 168.739 133.583C168.333 134.327 167.718 134.935 166.969 135.332C166.541 135.508 166.07 135.554 165.615 135.465C165.16 135.375 164.742 135.155 164.411 134.83C163.813 134.211 163.415 133.426 163.27 132.578C163.103 131.78 163.04 130.964 163.084 130.15L163.934 130.341C163.551 131.405 162.894 132.348 162.029 133.075C161.54 133.469 160.928 133.679 160.3 133.668C159.687 133.638 159.097 133.424 158.606 133.055C158.156 132.687 157.79 132.228 157.53 131.709C157.27 131.189 157.123 130.62 157.098 130.04C157.014 128.955 157.107 127.863 157.375 126.808L158.099 127.115C157.45 128.039 155.646 129.628 153.575 128.879C151.022 127.431 152.851 122.174 153.253 121.259Z" fill="#263238"/>
<path d="M149.187 138.564C149.187 138.564 142.528 126.044 143.659 121.385C144.789 116.726 154.902 113.373 158.782 112.74C164.13 111.861 164.22 115.786 162.144 117.852C159.732 120.249 155.108 122.491 154.766 122.652C154.766 122.652 161.531 127.482 161.129 133.523C160.727 139.564 149.187 138.564 149.187 138.564Z" fill="#AD6359"/>
<path d="M151.439 115.002C154.369 113.675 157.47 112.253 160.747 112.233C162.732 112.288 164.401 113.861 163.813 115.932C162.888 119.063 157.867 121.963 154.927 123.074L155.002 122.264C155.882 122.836 156.69 123.511 157.41 124.275C159.6 126.489 160.925 129.415 161.144 132.523C160.385 128.301 157.5 124.632 153.796 122.576L154.63 122.229C156.993 121.224 163.878 117.465 162.878 114.394C162.597 113.585 161.647 113.127 160.677 113.022C157.56 112.936 154.419 114.087 151.439 115.002Z" fill="#263238"/>
<path d="M143.342 140.927L172.664 147.742C172.664 147.742 165.879 173.375 154.47 180.069C148.68 183.457 143.227 183.587 140.347 180.396C133.662 173.028 143.342 140.927 143.342 140.927Z" fill="#3B5CCC"/>
<path opacity="0.2" d="M143.342 140.927L172.664 147.742C172.664 147.742 165.879 173.375 154.47 180.069C148.68 183.457 143.227 183.587 140.347 180.396C133.662 173.028 143.342 140.927 143.342 140.927Z" fill="black"/>
<path d="M144.533 148.209C146.503 148.314 154.464 150.099 156.445 150.566C158.425 151.033 166.296 153.169 168.326 153.657C168.437 153.682 168.432 153.848 168.326 153.823C166.316 153.376 158.274 151.853 156.264 151.405C154.253 150.958 146.358 149.083 144.508 148.314C144.448 148.284 144.488 148.204 144.533 148.209Z" fill="#263238"/>
<path d="M168.905 158.834C168.593 159.633 168.246 160.452 167.899 161.282C167.779 161.282 167.663 161.241 167.543 161.211L164.075 160.503L158.657 159.382L158.058 159.256C157.41 159.125 156.757 158.985 156.093 158.854L155.52 158.728L154.344 158.487L152.937 158.181L151.706 157.929C147.614 157.06 143.513 156.17 139.809 155.351C139.98 154.476 140.151 153.627 140.342 152.798C149.569 154.858 161.35 157.291 168.905 158.834Z" fill="#3B5CCC"/>
<path d="M143.106 141.816C141.729 150.526 139.558 160.181 138.115 168.881L137.864 170.7C138.105 160.894 140.472 151.224 143.106 141.816Z" fill="#263238"/>
<path d="M111.759 128.034C108.331 128.768 102.586 123.421 100.37 119.143C100.219 118.852 100.732 115.806 101.179 112.077C101.44 109.815 101.682 107.287 101.727 104.97C101.727 104.467 116.212 108.825 116.212 108.825C116.212 108.825 114.669 113.66 114.603 117.711C114.601 118.031 114.628 118.351 114.684 118.666C114.684 118.706 114.684 118.761 114.684 118.822C114.955 120.636 115.076 127.326 111.759 128.034Z" fill="#AD6359"/>
<path d="M116.207 108.825C116.207 108.825 114.759 113.384 114.608 117.37C110.537 116.917 103.792 115.073 101.5 108.881C101.616 107.574 101.701 106.247 101.727 104.98C101.737 104.488 116.207 108.825 116.207 108.825Z" fill="#263238"/>
<path d="M97.5547 88.1225C96.3636 93.3848 100.188 108.061 104.089 111.107C109.758 115.519 118.483 115.333 122.097 108.649C125.615 102.17 120.277 83.1317 115.96 80.4227C109.612 76.432 99.3088 80.3422 97.5547 88.1225Z" fill="#AD6359"/>
<path d="M110.603 96.3103C110.603 96.2751 110.537 96.3756 110.547 96.4158C110.794 97.421 110.909 98.582 110.08 99.1098C110.08 99.1098 110.08 99.1751 110.08 99.1651C111.17 98.773 110.995 97.2099 110.603 96.3103Z" fill="#263238"/>
<path d="M109.486 95.461C107.853 95.6872 108.426 98.934 109.939 98.7229C111.452 98.5118 110.854 95.27 109.486 95.461Z" fill="#263238"/>
<path d="M116.589 95.2144C116.589 95.1742 116.674 95.2446 116.679 95.2898C116.825 96.295 117.182 97.4359 118.132 97.6068C118.14 97.6068 118.147 97.61 118.153 97.6156C118.159 97.6213 118.162 97.629 118.162 97.637C118.162 97.645 118.159 97.6526 118.153 97.6583C118.147 97.6639 118.14 97.6671 118.132 97.6671C116.996 97.7023 116.563 96.1945 116.589 95.2144Z" fill="#263238"/>
<path d="M117.302 94.0032C118.895 93.5961 119.594 96.8177 118.116 97.1947C116.639 97.5716 115.965 94.3449 117.302 94.0032Z" fill="#263238"/>
<path d="M108.25 94.2695C108.682 94.1361 109.107 93.9801 109.522 93.8021C109.991 93.6993 110.413 93.4449 110.723 93.0783C110.8 92.945 110.829 92.79 110.808 92.6379C110.786 92.4858 110.714 92.3453 110.603 92.239C110.353 92.0591 110.059 91.9498 109.752 91.9223C109.445 91.8949 109.137 91.9505 108.859 92.0832C108.251 92.2591 107.733 92.6575 107.406 93.1989C107.338 93.3265 107.308 93.4713 107.321 93.6155C107.334 93.7596 107.388 93.8969 107.478 94.0106C107.568 94.1242 107.688 94.2092 107.826 94.2552C107.963 94.3012 108.11 94.3062 108.25 94.2695Z" fill="#263238"/>
<path d="M118.428 92.5106C117.982 92.5868 117.533 92.6405 117.081 92.6714C116.616 92.7941 116.123 92.7605 115.679 92.5759C115.551 92.4894 115.456 92.3634 115.407 92.2172C115.358 92.071 115.358 91.9127 115.408 91.7668C115.553 91.4909 115.769 91.259 116.034 91.0955C116.3 90.9319 116.604 90.8426 116.916 90.8369C117.536 90.719 118.179 90.8392 118.715 91.1737C118.834 91.2578 118.925 91.3749 118.978 91.5105C119.031 91.6461 119.043 91.7943 119.012 91.9366C118.982 92.0789 118.91 92.2091 118.806 92.3112C118.703 92.4132 118.571 92.4825 118.428 92.5106Z" fill="#263238"/>
<path d="M111.573 105.442C111.854 105.633 112.151 105.915 112.523 105.885C112.895 105.809 113.248 105.657 113.558 105.437C113.588 105.437 113.629 105.437 113.613 105.482C113.504 105.705 113.337 105.895 113.129 106.031C112.921 106.167 112.68 106.245 112.432 106.257C112.217 106.238 112.013 106.157 111.844 106.023C111.675 105.889 111.549 105.708 111.482 105.503C111.457 105.447 111.533 105.412 111.573 105.442Z" fill="#263238"/>
<path d="M112.1 102.246C112.426 102.599 112.821 102.88 113.26 103.073C113.699 103.266 114.174 103.366 114.654 103.367C115.073 103.373 115.491 103.319 115.895 103.206C115.974 103.189 116.051 103.165 116.126 103.136C116.198 103.116 116.268 103.093 116.337 103.065C116.389 103.045 116.433 103.009 116.463 102.962C116.493 102.915 116.507 102.86 116.503 102.804C116.5 102.77 116.491 102.736 116.478 102.704V102.613C116.362 101.834 116.081 100.673 116.081 100.673C116.388 100.764 117.946 101.176 117.85 100.758C117.061 97.4413 116.182 93.7572 114.694 90.626C114.682 90.6078 114.665 90.5939 114.645 90.5867C114.625 90.5796 114.602 90.5794 114.582 90.5864C114.562 90.5934 114.544 90.6071 114.533 90.6252C114.521 90.6434 114.516 90.6649 114.518 90.6863C115.151 93.898 116.342 96.9789 117.031 100.201C116.478 100.05 115.905 99.9811 115.332 99.9945C115.227 100.045 115.915 102.236 115.94 102.588C115.944 102.601 115.944 102.615 115.94 102.628C114.669 103.025 113.618 102.804 112.201 102.126C112.09 102.095 112.025 102.161 112.1 102.246Z" fill="#263238"/>
<path d="M115.337 102.99C114.988 103.589 114.492 104.089 113.894 104.442C113.57 104.629 113.196 104.71 112.824 104.673C112.005 104.568 111.889 103.844 111.949 103.206C111.986 102.863 112.063 102.525 112.181 102.201C113.122 102.793 114.228 103.07 115.337 102.99Z" fill="#263238"/>
<path d="M113.879 104.443C113.56 104.627 113.191 104.707 112.824 104.674C112.005 104.568 111.889 103.844 111.949 103.206C112.784 103.166 113.698 103.628 113.879 104.443Z" fill="#FF9ABB"/>
<path d="M98.9774 100.768C101.244 101.06 102.596 98.215 102.958 96.7776C103.32 95.3401 101.314 88.8767 102.078 86.6853C102.842 84.494 104.953 83.0364 106.823 83.3078C108.693 83.5792 111.286 84.6397 112.593 84.313C113.9 83.9863 113.91 81.8 114.834 81.6492C116.845 81.3527 119.549 85.278 120.237 87.4493C120.237 87.4493 118.991 77.9903 109.145 78.5231C99.5403 79.0257 97.4243 85.9968 97.0122 88.9772C96.2382 94.6968 98.9774 100.768 98.9774 100.768Z" fill="#263238"/>
<path d="M98.1001 106.434C107.36 113.201 101.791 103.4 102.4 102.777C103.008 102.154 97.9423 92.2141 100.34 86.022C101.908 82.0012 114.784 79.9355 116.88 82.0917C119.705 84.9967 121.233 90.4198 121.233 90.4198C121.376 89.6425 121.44 88.8528 121.424 88.0626C121.424 86.5548 119.006 79.904 114.841 77.2276C107.982 72.8204 98.0069 77.1966 94.539 82.092C91.071 86.9873 88.8398 99.6664 98.1001 106.434Z" fill="#263238"/>
<path d="M102.837 101.528C102.837 101.528 99.0273 97.0443 96.9616 98.4466C94.8959 99.8488 98.0774 106.574 100.726 107.282C101.059 107.396 101.412 107.442 101.764 107.416C102.115 107.391 102.458 107.294 102.771 107.133C103.084 106.971 103.361 106.748 103.586 106.477C103.811 106.205 103.978 105.891 104.078 105.553L102.837 101.528Z" fill="#AD6359"/>
<path d="M97.9217 100.351C97.9124 100.351 97.9034 100.355 97.8968 100.361C97.8902 100.368 97.8865 100.377 97.8865 100.386C97.8865 100.395 97.8902 100.404 97.8968 100.411C97.9034 100.418 97.9124 100.421 97.9217 100.421C99.7864 100.974 100.887 102.552 101.711 104.211C101.118 103.598 100.354 103.306 99.525 104.025C99.4848 104.06 99.525 104.13 99.5853 104.115C99.8912 103.985 100.23 103.953 100.555 104.023C100.88 104.093 101.175 104.263 101.4 104.507C101.771 104.919 102.098 105.369 102.375 105.849C102.475 106.005 102.757 105.89 102.676 105.714V105.673C102.48 103.382 100.4 100.346 97.9217 100.351Z" fill="#263238"/>
<path d="M99.6508 119.153C99.6508 119.153 99.48 113.373 99.6508 113.011C99.8217 112.65 108.085 117.912 108.853 118.203C109.622 118.495 111.316 124.4 111.316 124.4C111.316 124.4 112.13 118.771 112.412 118.56C112.693 118.349 115.005 116.364 115.292 116.329C115.578 116.293 115.086 122.274 115.051 123.139C115.015 124.003 114.774 127.914 111.96 128.321C109.145 128.728 102.722 125.783 99.6508 119.153Z" fill="#3B5CCC"/>
<path opacity="0.2" d="M99.6508 119.153C99.6508 119.153 99.48 113.373 99.6508 113.011C99.8217 112.65 108.085 117.912 108.853 118.203C109.622 118.495 111.316 124.4 111.316 124.4C111.316 124.4 112.13 118.771 112.412 118.56C112.693 118.349 115.005 116.364 115.292 116.329C115.578 116.293 115.086 122.274 115.051 123.139C115.015 124.003 114.774 127.914 111.96 128.321C109.145 128.728 102.722 125.783 99.6508 119.153Z" fill="black"/>
<path d="M81.8271 67.5795C91.1209 58.2858 91.1209 43.2176 81.8271 33.9238C72.5334 24.63 57.4652 24.63 48.1714 33.9238C38.8776 43.2176 38.8776 58.2858 48.1714 67.5796C57.4652 76.8733 72.5334 76.8733 81.8271 67.5795Z" fill="#EBEBEB"/>
<path d="M64.9774 77.6798C58.8552 77.6703 52.9192 75.573 48.1499 71.7342C43.3806 67.8955 40.0632 62.5449 38.7455 56.5662C37.4278 50.5874 38.1886 44.338 40.9024 38.8501C43.6161 33.3621 48.1204 28.9638 53.6714 26.3815C59.2224 23.7992 65.4882 23.1874 71.4339 24.6471C77.3796 26.1068 82.6496 29.5507 86.3737 34.41C90.0978 39.2694 92.0531 45.2535 91.9169 51.3743C91.7806 57.495 89.5609 63.3862 85.6243 68.0751C83.0958 71.0899 79.9361 73.5127 76.3684 75.1724C72.8008 76.832 68.9122 77.688 64.9774 77.6798ZM65.0478 24.3437C64.2687 24.3437 63.4847 24.3788 62.7006 24.4442C58.3724 24.8232 54.2045 26.2638 50.566 28.6383C46.9275 31.0127 43.9307 34.2478 41.841 38.0569C39.7513 41.8661 38.6332 46.1318 38.5857 50.4763C38.5382 54.8208 39.5627 59.1099 41.5687 62.9639C43.5746 66.8178 46.4999 70.1177 50.0856 72.5711C53.6714 75.0246 57.8067 76.5559 62.1256 77.0295C66.4444 77.5032 70.8134 76.9045 74.8456 75.2864C78.8778 73.6684 82.4488 71.081 85.2423 67.7534C88.4719 63.903 90.5367 59.2115 91.1945 54.2292C91.8522 49.2468 91.0757 44.1802 88.9559 39.6236C86.8361 35.067 83.461 31.2093 79.2264 28.5029C74.9918 25.7965 70.0733 24.3537 65.0478 24.3437Z" fill="#EBEBEB"/>
<path d="M64.8233 39.1787C70.7247 39.1787 75.5084 44.2814 75.5084 50.5762C75.5084 56.871 70.7247 61.9736 64.8233 61.9736C58.9219 61.9736 54.1382 56.871 54.1382 50.5762C54.1382 44.2814 58.9219 39.1787 64.8233 39.1787ZM64.8233 55.1352C64.5399 55.1352 64.2681 55.2552 64.0678 55.469C63.8674 55.6827 63.7548 55.9726 63.7548 56.2749C63.7548 56.5772 63.8674 56.8671 64.0678 57.0808C64.2681 57.2946 64.5399 57.4146 64.8233 57.4146C65.1067 57.4146 65.3785 57.2946 65.5789 57.0808C65.7792 56.8671 65.8918 56.5772 65.8918 56.2749C65.8918 55.9726 65.7792 55.6827 65.5789 55.469C65.3785 55.2552 65.1067 55.1352 64.8233 55.1352ZM64.8233 44.3076C63.796 44.3076 62.8108 44.7429 62.0844 45.5177C61.358 46.2925 60.9499 47.3434 60.9499 48.4391C60.9499 48.7414 61.0625 49.0313 61.2629 49.2451C61.4633 49.4588 61.7351 49.5789 62.0185 49.5789C62.3018 49.5789 62.5736 49.4588 62.774 49.2451C62.9744 49.0313 63.087 48.7414 63.087 48.4391C63.0873 48.103 63.1735 47.7732 63.3361 47.4853C63.4988 47.1973 63.7319 46.9621 64.0104 46.8047C64.2889 46.6473 64.6023 46.5737 64.917 46.5918C65.2317 46.61 65.5359 46.7191 65.7968 46.9076C66.0578 47.0961 66.2658 47.3568 66.3984 47.6618C66.531 47.9668 66.5833 48.3045 66.5497 48.6388C66.5161 48.973 66.3978 49.2912 66.2076 49.5593C66.0173 49.8273 65.7623 50.035 65.4698 50.1602C64.7474 50.4679 63.7548 51.2566 63.7548 52.5707V52.8557C63.7548 53.1579 63.8674 53.4478 64.0678 53.6616C64.2681 53.8753 64.5399 53.9954 64.8233 53.9954C65.1067 53.9954 65.3785 53.8753 65.5789 53.6616C65.7792 53.4478 65.8918 53.1579 65.8918 52.8557C65.8918 52.5776 65.9452 52.4385 66.1707 52.32L66.2637 52.2744C67.098 51.9164 67.7895 51.26 68.2198 50.4177C68.6501 49.5753 68.7923 48.5996 68.622 47.6577C68.4517 46.7158 67.9796 45.8665 67.2865 45.2552C66.5934 44.644 65.7226 44.309 64.8233 44.3076Z" fill="#5E8BFF"/>
<path d="M136.677 50.4836C145.971 41.1898 145.971 26.1217 136.677 16.8279C127.383 7.5341 112.315 7.5341 103.021 16.8279C93.7272 26.1217 93.7272 41.1899 103.021 50.4836C112.315 59.7774 127.383 59.7774 136.677 50.4836Z" fill="#EBEBEB"/>
<path d="M119.827 60.5846C113.705 60.575 107.769 58.4777 103 54.639C98.2302 50.8003 94.9128 45.4497 93.5951 39.471C92.2774 33.4922 93.0383 27.2428 95.752 21.7548C98.4657 16.2669 102.97 11.8686 108.521 9.28631C114.072 6.70403 120.338 6.09222 126.283 7.55191C132.229 9.01159 137.499 12.4555 141.223 17.3148C144.947 22.1742 146.903 28.1583 146.767 34.2791C146.63 40.3998 144.411 46.291 140.474 50.9798C137.945 53.9947 134.786 56.4175 131.218 58.0772C127.65 59.7368 123.762 60.5928 119.827 60.5846ZM119.897 7.24844C119.118 7.24844 118.334 7.28362 117.55 7.34896C113.222 7.72803 109.054 9.16859 105.416 11.543C101.777 13.9175 98.7803 17.1526 96.6906 20.9617C94.6009 24.7709 93.4828 29.0366 93.4353 33.3811C93.3878 37.7256 94.4124 42.0147 96.4183 45.8687C98.4242 49.7226 101.35 53.0224 104.935 55.4759C108.521 57.9293 112.656 59.4607 116.975 59.9343C121.294 60.408 125.663 59.8092 129.695 58.1912C133.727 56.5732 137.298 53.9858 140.092 50.6582C143.322 46.8078 145.386 42.1163 146.044 37.1339C146.702 32.1516 145.925 27.085 143.805 22.5284C141.686 17.9718 138.311 14.1141 134.076 11.4077C129.841 8.7013 124.923 7.25848 119.897 7.24844Z" fill="#EBEBEB"/>
<path d="M128.577 30.8092V29.9188C128.577 29.429 128.177 29.0283 127.687 29.0283C127.197 29.0283 126.797 29.429 126.797 29.9188V30.8092H125.906C125.416 30.8092 125.016 31.2099 125.016 31.6996C125.016 32.1894 125.416 32.59 125.906 32.59H126.797V33.4805C126.797 33.9702 127.197 34.3709 127.687 34.3709C128.177 34.3709 128.577 33.9702 128.577 33.4805V32.59H129.468C129.958 32.59 130.358 32.1894 130.358 31.6996C130.358 31.2099 129.958 30.8092 129.468 30.8092H128.577ZM116.112 33.4805C118.079 33.4805 119.673 31.8866 119.673 29.9188C119.673 27.9509 118.079 26.3571 116.112 26.3571C114.144 26.3571 112.55 27.9509 112.55 29.9188C112.55 31.8866 114.144 33.4805 116.112 33.4805ZM116.112 34.3709C113.734 34.3709 108.988 35.5641 108.988 37.9326V40.6039H123.235V37.9326C123.235 35.5641 118.489 34.3709 116.112 34.3709ZM120.127 26.4016C120.947 27.3454 121.454 28.5742 121.454 29.9188C121.454 31.2633 120.947 32.4921 120.127 33.4359C121.873 33.2133 123.235 31.7352 123.235 29.9188C123.235 28.1023 121.873 26.6242 120.127 26.4016ZM123.707 35.11C124.499 35.849 125.016 36.775 125.016 37.9326V40.6039H126.797V37.9326C126.797 36.6415 125.381 35.6976 123.707 35.11Z" fill="#5E8BFF"/>
<path d="M190.102 71.8546C199.396 62.5609 199.396 47.4927 190.102 38.1989C180.809 28.9051 165.74 28.9051 156.447 38.1989C147.153 47.4927 147.153 62.5609 156.447 71.8546C165.74 81.1484 180.809 81.1484 190.102 71.8546Z" fill="#EBEBEB"/>
<path d="M173.253 81.9549C167.13 81.9453 161.194 79.848 156.425 76.0093C151.656 72.1706 148.338 66.82 147.021 60.8413C145.703 54.8625 146.464 48.6131 149.178 43.1251C151.891 37.6372 156.396 33.2389 161.947 30.6566C167.498 28.0743 173.763 27.4625 179.709 28.9222C185.655 30.3819 190.925 33.8258 194.649 38.6851C198.373 43.5445 200.328 49.5286 200.192 55.6494C200.056 61.7701 197.836 67.6613 193.899 72.3501C191.371 75.365 188.211 77.7878 184.644 79.4475C181.076 81.1071 177.187 81.9631 173.253 81.9549ZM173.323 28.6187C172.544 28.6187 171.76 28.6539 170.976 28.7193C166.648 29.0983 162.48 30.5389 158.841 32.9133C155.203 35.2878 152.206 38.5229 150.116 42.332C148.026 46.1412 146.908 50.4069 146.861 54.7514C146.813 59.0959 147.838 63.385 149.844 67.239C151.85 71.0929 154.775 74.3927 158.361 76.8462C161.947 79.2996 166.082 80.831 170.401 81.3046C174.72 81.7783 179.089 81.1795 183.121 79.5615C187.153 77.9435 190.724 75.3561 193.517 72.0285C196.747 68.1781 198.812 63.4866 199.47 58.5042C200.127 53.5219 199.351 48.4553 197.231 43.8987C195.111 39.3421 191.736 35.4844 187.502 32.778C183.267 30.0716 178.348 28.6288 173.323 28.6187Z" fill="#EBEBEB"/>
<path fill-rule="evenodd" clip-rule="evenodd" d="M178.595 45.0939C178.456 44.9557 178.266 44.8781 178.069 44.8781C177.871 44.8781 177.681 44.9556 177.541 45.0939C177.401 45.2322 177.322 45.4199 177.322 45.6154V46.3669C176.664 46.3541 175.94 46.3538 175.142 46.3538H171.054C170.257 46.3538 169.532 46.3541 168.874 46.3669V45.6154C168.874 45.4199 168.795 45.2322 168.656 45.0939C168.516 44.9556 168.326 44.8781 168.128 44.8781C167.93 44.8784 167.742 44.9567 167.602 45.0949C167.463 45.2332 167.384 45.4201 167.383 45.6154V46.4294C167.126 46.4491 166.881 46.4739 166.649 46.5041C165.484 46.6595 164.54 46.9858 163.796 47.7215C163.053 48.4583 162.723 49.3921 162.566 50.5449C162.414 51.665 162.414 53.099 162.414 54.9064V56.9846C162.414 58.792 162.414 60.2237 162.566 61.3449C162.723 62.4973 163.053 63.4305 163.796 64.1672C164.54 64.903 165.484 65.2302 166.649 65.3857C167.78 65.536 169.232 65.536 171.056 65.536H175.149C176.973 65.536 178.417 65.536 179.548 65.3857C180.713 65.2302 181.657 64.903 182.401 64.1672C183.145 63.4305 183.475 62.4973 183.632 61.3449C183.784 60.2247 183.784 58.7908 183.784 56.9833V54.9052C183.784 53.0977 183.784 51.666 183.632 50.5449C183.475 49.3921 183.145 48.4583 182.401 47.7215C181.657 46.9858 180.713 46.6595 179.548 46.5041C179.317 46.4739 179.072 46.4491 178.814 46.4294V45.6154C178.814 45.4199 178.735 45.2322 178.595 45.0939ZM168.128 58.8958C167.864 58.8959 167.612 58.9998 167.425 59.1843C167.239 59.3686 167.134 59.6185 167.134 59.8792C167.134 60.1401 167.239 60.3908 167.425 60.5752C167.612 60.7596 167.864 60.8636 168.128 60.8637C168.391 60.8637 168.645 60.7597 168.831 60.5752C169.018 60.3908 169.123 60.14 169.123 59.8792C169.123 59.6186 169.018 59.3686 168.831 59.1843C168.645 58.9998 168.391 58.8958 168.128 58.8958ZM173.098 58.8958C172.834 58.8959 172.581 58.9999 172.395 59.1843C172.209 59.3686 172.104 59.6186 172.104 59.8792C172.104 60.1401 172.209 60.3908 172.395 60.5752C172.581 60.7596 172.834 60.8636 173.098 60.8637C173.361 60.8637 173.615 60.7597 173.801 60.5752C173.988 60.3908 174.093 60.1401 174.093 59.8792C174.092 59.6186 173.988 59.3686 173.801 59.1843C173.615 58.9998 173.361 58.8958 173.098 58.8958ZM178.069 58.8958C177.805 58.8958 177.551 58.9998 177.365 59.1843C177.179 59.3686 177.074 59.6186 177.074 59.8792C177.074 60.14 177.179 60.3908 177.365 60.5752C177.551 60.7597 177.805 60.8637 178.069 60.8637C178.332 60.8636 178.585 60.7596 178.771 60.5752C178.958 60.3908 179.062 60.1401 179.062 59.8792C179.062 59.6185 178.957 59.3686 178.771 59.1843C178.585 58.9998 178.332 58.8959 178.069 58.8958ZM168.128 54.9609C167.864 54.961 167.612 55.065 167.425 55.2494C167.239 55.4337 167.134 55.6837 167.134 55.9444C167.134 56.2052 167.239 56.4559 167.425 56.6403C167.612 56.8247 167.864 56.9287 168.128 56.9288C168.391 56.9288 168.645 56.8248 168.831 56.6403C169.018 56.4559 169.123 56.2051 169.123 55.9444C169.122 55.6837 169.018 55.4337 168.831 55.2494C168.645 55.0649 168.391 54.9609 168.128 54.9609ZM173.098 54.9609C172.834 54.961 172.581 55.065 172.395 55.2494C172.209 55.4337 172.104 55.6837 172.104 55.9444C172.104 56.2052 172.209 56.4559 172.395 56.6403C172.581 56.8247 172.834 56.9287 173.098 56.9288C173.361 56.9288 173.615 56.8248 173.801 56.6403C173.988 56.4559 174.093 56.2052 174.093 55.9444C174.092 55.6837 173.988 55.4337 173.801 55.2494C173.615 55.0649 173.361 54.9609 173.098 54.9609ZM178.069 54.9609C177.805 54.9609 177.551 55.0649 177.365 55.2494C177.179 55.4337 177.074 55.6837 177.074 55.9444C177.074 56.2051 177.179 56.4559 177.365 56.6403C177.551 56.8248 177.805 56.9288 178.069 56.9288C178.332 56.9287 178.585 56.8247 178.771 56.6403C178.958 56.4559 179.062 56.2052 179.062 55.9444C179.062 55.6837 178.957 55.4337 178.771 55.2494C178.585 55.065 178.332 54.961 178.069 54.9609ZM171.11 47.8285C169.215 47.8285 167.869 47.8309 166.846 47.9666C165.847 48.0994 165.271 48.3496 164.85 48.7655C164.43 49.1816 164.177 49.7521 164.042 50.7405C164.02 50.9078 164.001 51.0849 163.985 51.2711H182.212C182.196 51.0849 182.177 50.9074 182.154 50.7395C182.02 49.7511 181.767 49.1806 181.346 48.7645C180.926 48.3486 180.349 48.0984 179.35 47.9656C178.329 47.8299 176.982 47.8285 175.086 47.8285H171.11Z" fill="#5E8BFF"/>
<path d="M50.4836 116.731C59.7774 107.438 59.7774 92.3695 50.4836 83.0757C41.1899 73.7819 26.1217 73.7819 16.8279 83.0757C7.5341 92.3695 7.53409 107.438 16.8279 116.731C26.1217 126.025 41.1899 126.025 50.4836 116.731Z" fill="#EBEBEB"/>
<path d="M33.6339 126.832C27.5116 126.822 21.5757 124.725 16.8064 120.886C12.0371 117.047 8.71971 111.697 7.40201 105.718C6.08431 99.7394 6.84514 93.49 9.55887 88.002C12.2726 82.5141 16.7769 78.1158 22.3279 75.5335C27.8789 72.9512 34.1447 72.3394 40.0904 73.7991C46.0361 75.2588 51.3061 78.7026 55.0302 83.562C58.7543 88.4213 60.7096 94.4055 60.5734 100.526C60.4371 106.647 58.2174 112.538 54.2808 117.227C51.7523 120.242 48.5926 122.665 45.0249 124.324C41.4573 125.984 37.5687 126.84 33.6339 126.832ZM33.7042 73.4956C32.9252 73.4956 32.1412 73.5308 31.3571 73.5961C27.0289 73.9752 22.861 75.4157 19.2225 77.7902C15.584 80.1646 12.5872 83.3997 10.4975 87.2089C8.4078 91.0181 7.28967 95.2838 7.24217 99.6283C7.19466 103.973 8.21924 108.262 10.2252 112.116C12.2311 115.97 15.1564 119.27 18.7421 121.723C22.3278 124.177 26.4632 125.708 30.7821 126.181C35.1009 126.655 39.4699 126.056 43.5021 124.438C47.5343 122.82 51.1053 120.233 53.8988 116.905C57.1284 113.055 59.1932 108.363 59.851 103.381C60.5087 98.3988 59.7322 93.3322 57.6124 88.7756C55.4926 84.2189 52.1175 80.3612 47.8829 77.6548C43.6483 74.9485 38.7298 73.5056 33.7042 73.4956Z" fill="#EBEBEB"/>
<path fill-rule="evenodd" clip-rule="evenodd" d="M30.2052 92.6054C31.2446 92.6006 32.283 92.6831 33.3087 92.853L33.4021 92.8691C33.8373 92.942 34.2267 93.0079 34.568 93.1843C34.6362 93.2195 34.7026 93.259 34.767 93.3041C34.8957 93.3941 35.0166 93.5058 35.1296 93.6463C35.4194 94.0067 35.514 94.3963 35.5347 94.831L35.8738 94.945C36.1928 95.0519 36.4729 95.1454 36.6955 95.2496C36.9346 95.3628 37.1549 95.5079 37.323 95.7433C37.4916 95.978 37.5579 96.2349 37.5882 96.4993C37.6057 96.6556 37.6113 96.8338 37.6136 97.0296C37.488 96.949 37.3554 96.8785 37.2172 96.8207C37.0078 96.7333 36.7876 96.6745 36.5636 96.6454C36.5627 96.6358 36.5625 96.6255 36.5615 96.6162C36.5422 96.4516 36.5114 96.3893 36.4839 96.3518C36.457 96.3136 36.4085 96.2648 36.2593 96.1948C36.0966 96.1184 35.873 96.0425 35.5216 95.9238L35.5122 95.9208C35.5031 96.1181 35.4911 96.5211 35.4763 96.8324C34.5016 97.1444 33.7953 98.0639 33.7952 99.1497C33.7953 99.9142 34.1456 100.596 34.693 101.042C34.3122 101.657 33.5074 102.205 32.9007 102.615C32.2894 103.028 31.5553 103.288 30.6863 103.357C30.7095 103.418 30.7217 103.484 30.7225 103.55V104.765H31.708C31.9868 104.765 32.2576 104.863 32.4732 105.041C32.4987 105.063 32.5235 105.085 32.5471 105.108C32.3858 105.542 32.2979 106.012 32.2978 106.502V106.633C32.2979 106.696 32.3049 106.757 32.3152 106.816H33.392C33.3068 106.816 33.2329 106.746 33.2326 106.653V106.522C33.2328 104.822 34.5941 102.701 36.2673 102.7C37.1862 102.7 37.9417 103.301 38.4987 104.159C38.9558 104.864 39.3073 105.756 39.3074 106.522L39.6686 106.669L40.0298 106.816H40.3805C40.3816 106.803 40.3833 106.789 40.3841 106.775L40.3878 106.653V106.522C40.3877 105.404 40.0142 104.374 39.39 103.554C39.8749 103.234 40.4546 103.048 41.0747 103.048L41.2334 103.052C42.4065 103.112 43.4078 103.835 43.8782 104.858C43.9191 104.947 43.9561 105.038 43.9887 105.132C44.103 105.458 44.1651 105.809 44.1652 106.175V106.662L44.1601 106.754C44.1174 107.179 43.784 107.517 43.3637 107.56L43.3123 107.562V107.564H31.4399V107.545H26.0694C25.9325 107.545 25.8004 107.49 25.7035 107.393C25.6068 107.295 25.5522 107.162 25.5521 107.024C25.5521 106.886 25.6069 106.753 25.7035 106.656C25.8004 106.558 25.9324 106.503 26.0694 106.503H27.3687L27.5194 105.743C27.574 105.468 27.7224 105.22 27.9379 105.041C28.1535 104.863 28.4242 104.765 28.703 104.765H29.6885V103.55C29.6893 103.484 29.7015 103.418 29.7247 103.357C28.8557 103.288 28.1213 103.028 27.51 102.614C26.8077 102.14 26.2967 101.482 25.9245 100.745L24.1043 99.7257C23.862 99.5904 23.6484 99.4697 23.4797 99.3517C23.2965 99.2239 23.132 99.0748 23.0087 98.8645C22.8869 98.6549 22.838 98.4371 22.8159 98.2144C22.7953 98.0082 22.7949 97.7609 22.7949 97.4818V97.381C22.7949 97.0416 22.795 96.7445 22.8225 96.4993C22.8528 96.2349 22.9198 95.9787 23.0877 95.7433C23.2558 95.5079 23.4761 95.3628 23.7159 95.2503C23.9371 95.1461 24.2179 95.0519 24.5369 94.945L24.876 94.831C24.8974 94.397 24.992 94.0067 25.2811 93.6463C25.7338 93.085 26.3133 92.9865 27.0093 92.8691L27.102 92.853C27.9036 92.7168 28.9453 92.6054 30.2052 92.6054ZM28.703 105.808C28.6634 105.808 28.6244 105.822 28.5936 105.847C28.563 105.873 28.542 105.909 28.5342 105.948L28.4241 106.503H31.5015V105.808H28.703ZM24.889 95.9252C24.5377 96.044 24.314 96.1191 24.1514 96.1955C24.0022 96.2655 23.9536 96.3144 23.9268 96.3525C23.8993 96.3901 23.8685 96.4523 23.8492 96.6169C23.8293 96.7961 23.8289 97.0339 23.8289 97.408V97.4584C23.8248 97.6756 23.8299 97.894 23.8442 98.1107C23.8579 98.2462 23.8801 98.301 23.9007 98.3357C23.9207 98.3704 23.9576 98.4175 24.0688 98.4956C24.1901 98.5804 24.3588 98.6751 24.6267 98.8258L25.3615 99.2363C25.0665 98.1455 24.9481 96.9776 24.8985 95.9216L24.889 95.9252Z" fill="#5E8BFF"/>
<path d="M41.2638 98.5884C41.4814 98.5884 41.6973 98.6319 41.8986 98.7162C42.0998 98.8006 42.2833 98.9246 42.4377 99.0807C42.592 99.2368 42.7148 99.4227 42.7985 99.6271C42.8822 99.8314 42.9253 100.051 42.9254 100.273C42.9253 100.494 42.8821 100.713 42.7985 100.918C42.7149 101.122 42.5919 101.308 42.4377 101.464C42.2833 101.62 42.0998 101.744 41.8986 101.829C41.6973 101.913 41.4815 101.956 41.2638 101.956C41.0461 101.956 40.8304 101.913 40.6291 101.829C40.4278 101.744 40.2443 101.62 40.0899 101.464C39.9357 101.308 39.8127 101.122 39.7291 100.918C39.6456 100.714 39.6023 100.494 39.6023 100.273C39.6024 100.051 39.6455 99.8314 39.7291 99.6271C39.8128 99.4228 39.9357 99.2368 40.0899 99.0807C40.2443 98.9246 40.4278 98.8006 40.6291 98.7162C40.8303 98.6319 41.0462 98.5884 41.2638 98.5884Z" fill="#5E8BFF"/>
<path d="M36.2673 97.5417C36.4849 97.5417 36.7008 97.5852 36.902 97.6695C37.1032 97.7539 37.2868 97.8779 37.4411 98.034C37.5954 98.1901 37.7183 98.376 37.802 98.5804C37.8856 98.7847 37.9287 99.0047 37.9288 99.2261C37.9287 99.4473 37.8855 99.6668 37.802 99.871C37.7183 100.075 37.5954 100.261 37.4411 100.417C37.2868 100.574 37.1033 100.698 36.902 100.782C36.7008 100.866 36.4849 100.91 36.2673 100.91C36.0496 100.91 35.8338 100.866 35.6325 100.782C35.4313 100.698 35.2477 100.574 35.0934 100.417C34.9392 100.261 34.8162 100.075 34.7325 99.871C34.649 99.6669 34.6058 99.4472 34.6057 99.2261C34.6058 99.0048 34.649 98.7847 34.7325 98.5804C34.8162 98.3761 34.9392 98.1901 35.0934 98.034C35.2477 97.8779 35.4313 97.7539 35.6325 97.6695C35.8338 97.5852 36.0496 97.5417 36.2673 97.5417Z" fill="#5E8BFF"/>
<path d="M216.834 123.723C226.128 114.429 226.128 99.3611 216.834 90.0673C207.541 80.7735 192.472 80.7735 183.179 90.0673C173.885 99.3611 173.885 114.429 183.179 123.723C192.472 133.017 207.541 133.017 216.834 123.723Z" fill="#EBEBEB"/>
<path d="M199.985 133.823C193.862 133.814 187.927 131.716 183.157 127.878C178.388 124.039 175.071 118.688 173.753 112.71C172.435 106.731 173.196 100.482 175.91 94.9936C178.623 89.5056 183.128 85.1073 188.679 82.5251C194.23 79.9428 200.496 79.331 206.441 80.7906C212.387 82.2503 217.657 85.6942 221.381 90.5536C225.105 95.4129 227.06 101.397 226.924 107.518C226.788 113.639 224.568 119.53 220.632 124.219C218.103 127.233 214.943 129.656 211.376 131.316C207.808 132.976 203.92 133.831 199.985 133.823ZM200.055 80.4872C199.276 80.4872 198.492 80.5224 197.708 80.5877C193.38 80.9668 189.212 82.4073 185.573 84.7818C181.935 87.1562 178.938 90.3913 176.848 94.2005C174.759 98.0096 173.641 102.275 173.593 106.62C173.545 110.964 174.57 115.253 176.576 119.107C178.582 122.961 181.507 126.261 185.093 128.715C188.679 131.168 192.814 132.699 197.133 133.173C201.452 133.647 205.821 133.048 209.853 131.43C213.885 129.812 217.456 127.225 220.25 123.897C223.479 120.047 225.544 115.355 226.202 110.373C226.86 105.39 226.083 100.324 223.963 95.7671C221.843 91.2105 218.468 87.3528 214.234 84.6464C209.999 81.94 205.081 80.4972 200.055 80.4872Z" fill="#EBEBEB"/>
<path d="M210.853 117.536L206.579 113.262H195.894C195.306 113.262 194.803 113.053 194.385 112.635C193.967 112.216 193.757 111.713 193.757 111.125V110.056H205.51C206.098 110.056 206.601 109.847 207.02 109.429C207.439 109.011 207.648 108.508 207.647 107.919V100.44H208.716C209.303 100.44 209.807 100.649 210.225 101.068C210.644 101.487 210.853 101.99 210.853 102.577V117.536ZM191.619 107.038L192.875 105.782H203.373V98.3026H191.619V107.038ZM189.482 112.193V98.3026C189.482 97.7149 189.692 97.212 190.111 96.7938C190.53 96.3757 191.033 96.1662 191.619 96.1655H203.373C203.961 96.1655 204.464 96.375 204.883 96.7938C205.302 97.2127 205.511 97.7156 205.51 98.3026V105.782C205.51 106.37 205.301 106.873 204.883 107.292C204.465 107.711 203.962 107.92 203.373 107.919H193.757L189.482 112.193Z" fill="#5E8BFF"/>
</svg>
