<svg width="75" height="50" viewBox="0 0 75 50" fill="none" xmlns="http://www.w3.org/2000/svg">
<g opacity="0.85">
<path fill-rule="evenodd" clip-rule="evenodd" d="M37.5 27.7778C38.5376 27.7778 39.5576 27.8366 40.5545 27.9487C41.22 28.0234 41.8752 28.1218 42.5184 28.2416C43.1612 28.3615 43.7919 28.5038 44.4092 28.6648C45.0253 28.8255 45.6283 29.0041 46.2158 29.2019C48.2758 29.8955 50.1496 30.8067 51.7687 31.8495C53.6214 33.0439 55.2084 34.4529 56.3612 35.989C56.9263 36.7458 57.4201 37.5785 57.7718 38.4657C58.0355 39.1305 58.2196 39.8263 58.2954 40.5436C58.3207 40.7833 58.3333 41.0266 58.3333 41.2706C58.3332 41.7941 58.2729 42.2918 58.1597 42.7626C57.9332 43.7065 57.4971 44.5442 56.9119 45.2664C56.6201 45.6271 56.2893 45.9587 55.9326 46.2619C54.5857 47.4003 52.8305 48.1381 51.0173 48.6464C48.7376 49.2836 45.9971 49.6527 43.0311 49.84C41.8453 49.9148 40.6232 49.9615 39.3799 49.9837C38.7579 49.9948 38.1307 50 37.5 50C36.8693 50 36.2421 49.9948 35.6201 49.9837C34.3768 49.9615 33.1548 49.9148 31.9689 49.84C29.5956 49.6901 27.367 49.426 25.4042 48.999C24.9133 48.8923 24.4387 48.7738 23.9827 48.6464C23.0758 48.3922 22.1827 48.0822 21.3487 47.6915C20.9316 47.4961 20.5291 47.2807 20.147 47.0432C19.7652 46.8061 19.4037 46.5462 19.0674 46.2619C18.8892 46.1104 18.7177 45.9505 18.5547 45.7845C17.4093 44.6226 16.667 43.105 16.6667 41.2706C16.6667 39.5873 17.2951 38.003 18.1939 36.6292C18.3365 36.4108 18.4839 36.1964 18.6388 35.989C18.9269 35.6051 19.2431 35.2299 19.5828 34.8633C19.9226 34.496 20.2872 34.1387 20.6733 33.7918C21.4454 33.0985 22.3051 32.4466 23.2313 31.8495C23.694 31.5515 24.1772 31.2639 24.6799 30.9896C25.6842 30.4407 26.7659 29.9444 27.9107 29.5139C28.198 29.4059 28.4891 29.3013 28.7842 29.2019C31.4319 28.3103 34.3866 27.7778 37.5 27.7778ZM37.5 33.3333C33.0639 33.3333 29.0703 34.7012 26.237 36.5234C24.8203 37.4345 23.7626 38.4174 23.0849 39.3202C22.3911 40.2474 22.2222 40.9208 22.2222 41.2706C22.2224 41.4758 22.2653 41.6866 22.659 42.0193C23.1395 42.4303 24.0307 42.8915 25.4801 43.297C28.369 44.1025 32.5722 44.4444 37.5 44.4444C42.4278 44.4444 46.631 44.1025 49.5199 43.297C50.9693 42.8915 51.8605 42.4303 52.341 42.0193C52.7347 41.6866 52.7776 41.4758 52.7778 41.2706C52.7778 40.9208 52.6089 40.2474 51.9151 39.3202C51.2374 38.4174 50.1797 37.4345 48.763 36.5234C45.9297 34.7012 41.9361 33.3333 37.5 33.3333Z" fill="white"/>
<path d="M13.8889 27.7778C16.5538 27.7791 19.1801 28.4133 21.5522 29.6278C19.7959 30.756 18.2199 32.1434 16.8755 33.7402C15.3159 33.3034 13.6779 33.2124 12.0795 33.4744C10.4817 33.7365 8.96076 34.345 7.62261 35.2566C6.08669 36.326 5.65238 37.2753 5.57183 37.6031C5.73294 37.7309 6.10818 37.9532 6.83594 38.1755C8.44427 38.6616 10.8861 38.8889 13.8889 38.8889H14.1873L14.0544 39.464C13.947 40.0454 13.8926 40.6485 13.8889 41.2706C13.889 42.4174 14.0921 43.4781 14.4531 44.4444H13.8889C10.7556 44.4444 7.64399 44.2229 5.22732 43.4923C4.01906 43.1256 2.76298 42.5696 1.77138 41.6585C0.702311 40.6782 0.000231333 39.328 0 37.698C0 34.801 2.16019 32.2883 4.44336 30.6966C6.89336 28.9883 10.2222 27.7778 13.8889 27.7778Z" fill="white"/>
<path d="M61.1111 27.7778C64.7778 27.7778 68.1066 28.9883 70.5566 30.6966C72.8398 32.2883 75 34.801 75 37.698C74.9998 39.328 74.2977 40.6782 73.2286 41.6585C72.237 42.5696 70.9809 43.1256 69.7727 43.4923C67.356 44.2229 64.2444 44.4444 61.1111 44.4444H60.5469C60.9079 43.4781 61.111 42.4174 61.1111 41.2706C61.1074 40.6485 61.053 40.0454 60.9456 39.464L60.8127 38.8889H61.1111C64.1139 38.8889 66.5557 38.6616 68.1641 38.1755C68.8918 37.9532 69.2671 37.7309 69.4282 37.6031C69.3476 37.2753 68.9133 36.326 67.3774 35.2566C66.0392 34.345 64.5183 33.7365 62.9205 33.4744C61.3221 33.2124 59.6841 33.3034 58.1245 33.7402C56.7801 32.1434 55.2041 30.756 53.4478 29.6278C55.8199 28.4133 58.4462 27.7791 61.1111 27.7778Z" fill="white"/>
<path fill-rule="evenodd" clip-rule="evenodd" d="M13.8889 8.33333C16.099 8.33333 18.218 9.21194 19.7808 10.7747C21.3436 12.3375 22.2222 14.4565 22.2222 16.6667C22.2222 18.8768 21.3436 20.9958 19.7808 22.5586C18.218 24.1214 16.099 25 13.8889 25C11.6788 25 9.55976 24.1214 7.99696 22.5586C6.43416 20.9958 5.55556 18.8768 5.55556 16.6667C5.55556 14.4565 6.43416 12.3375 7.99696 10.7747C9.55976 9.21194 11.6788 8.33333 13.8889 8.33333ZM13.8889 13.8889C13.1522 13.8889 12.4458 14.1818 11.9249 14.7027C11.404 15.2236 11.1111 15.93 11.1111 16.6667C11.1111 17.4034 11.404 18.1097 11.9249 18.6306C12.4458 19.1516 13.1522 19.4444 13.8889 19.4444C14.6256 19.4444 15.3319 19.1516 15.8529 18.6306C16.3738 18.1097 16.6667 17.4034 16.6667 16.6667C16.6667 15.93 16.3738 15.2236 15.8529 14.7027C15.3319 14.1818 14.6256 13.8889 13.8889 13.8889Z" fill="white"/>
<path fill-rule="evenodd" clip-rule="evenodd" d="M37.5 0C39.1413 0 40.7661 0.324158 42.2824 0.952148C43.799 1.58033 45.1772 2.50138 46.3379 3.66211C47.4986 4.82284 48.4197 6.20099 49.0479 7.71756C49.6758 9.23392 50 10.8587 50 12.5C50 15.8152 48.6821 18.9937 46.3379 21.3379C43.9937 23.6821 40.8152 25 37.5 25C34.1848 25 31.0063 23.6821 28.6621 21.3379C26.3179 18.9937 25 15.8152 25 12.5C25 10.8587 25.3242 9.23392 25.9521 7.71756C26.5803 6.20099 27.5014 4.82284 28.6621 3.66211C29.8228 2.50138 31.201 1.58033 32.7176 0.952148C34.2339 0.324158 35.8587 0 37.5 0ZM37.5 5.55556C35.6582 5.55556 33.8924 6.28772 32.5901 7.59006C31.2877 8.8924 30.5556 10.6582 30.5556 12.5C30.5556 14.3418 31.2877 16.1076 32.5901 17.4099C33.8924 18.7123 35.6582 19.4444 37.5 19.4444C39.3418 19.4444 41.1076 18.7123 42.4099 17.4099C43.7123 16.1076 44.4444 14.3418 44.4444 12.5C44.4444 10.6582 43.7123 8.8924 42.4099 7.59006C41.1076 6.28772 39.3418 5.55556 37.5 5.55556Z" fill="white"/>
<path fill-rule="evenodd" clip-rule="evenodd" d="M61.1111 8.33333C63.3212 8.33333 65.4402 9.21194 67.003 10.7747C68.5658 12.3375 69.4444 14.4565 69.4444 16.6667C69.4444 18.8768 68.5658 20.9958 67.003 22.5586C65.4402 24.1214 63.3212 25 61.1111 25C58.901 25 56.782 24.1214 55.2192 22.5586C53.6564 20.9958 52.7778 18.8768 52.7778 16.6667C52.7778 14.4565 53.6564 12.3375 55.2192 10.7747C56.782 9.21194 58.901 8.33333 61.1111 8.33333ZM61.1111 13.8889C60.3744 13.8889 59.6681 14.1818 59.1471 14.7027C58.6262 15.2236 58.3333 15.93 58.3333 16.6667C58.3333 17.4034 58.6262 18.1097 59.1471 18.6306C59.6681 19.1516 60.3744 19.4444 61.1111 19.4444C61.8478 19.4444 62.5541 19.1516 63.0751 18.6306C63.596 18.1097 63.8889 17.4034 63.8889 16.6667C63.8889 15.93 63.596 15.2236 63.0751 14.7027C62.5541 14.1818 61.8478 13.8889 61.1111 13.8889Z" fill="white"/>
</g>
</svg>
