<svg width="22" height="22" viewBox="0 0 22 22" fill="none" xmlns="http://www.w3.org/2000/svg">
<path d="M10.7521 20.75C12.9245 20.7495 15.0375 20.0417 16.7718 18.7336C18.5061 17.4254 19.7672 15.5882 20.3645 13.4996C20.9618 11.411 20.8628 9.18474 20.0824 7.15746C19.302 5.13017 17.8826 3.41215 16.039 2.2632C14.1955 1.11426 12.0279 0.596884 9.8641 0.789328C7.70033 0.981773 5.65808 1.87357 4.04619 3.32984C2.4343 4.78611 1.34046 6.72766 0.930075 8.86085C0.519695 10.994 0.815102 13.2029 1.77162 15.1532C1.88838 15.3911 1.9273 15.6592 1.86784 15.9165L0.985676 19.7392C0.960806 19.8465 0.963659 19.9583 0.993965 20.0642C1.02427 20.17 1.08103 20.2665 1.1589 20.3443C1.23677 20.4222 1.33319 20.479 1.43906 20.5093C1.54493 20.5396 1.65677 20.5424 1.76405 20.5175L5.58567 19.6343C5.84369 19.5778 6.11331 19.6122 6.34891 19.7316C7.71906 20.4045 9.2257 20.7529 10.7521 20.75Z" stroke="white" stroke-width="1.5" stroke-linecap="round" stroke-linejoin="round"/>
<path d="M7.83398 8.2736C7.83394 7.81063 7.94406 7.35429 8.15525 6.9423C8.36644 6.5303 8.67263 6.17447 9.04854 5.90421C9.42444 5.63395 9.85926 5.45702 10.3171 5.38804C10.7749 5.31906 11.2425 5.36 11.6814 5.50749C12.1202 5.65498 12.5177 5.90478 12.8409 6.23625C13.1641 6.56772 13.4038 6.97135 13.5402 7.41378C13.6766 7.8562 13.7057 8.32473 13.6252 8.78065C13.5447 9.23657 13.3569 9.66679 13.0772 10.0358C12.9684 10.1564 12.8529 10.2708 12.7313 10.3785C12.6318 10.4628 12.5832 10.4974 12.4859 10.5633L11.4275 11.2931C11.1658 11.4731 10.9519 11.7141 10.8043 11.9953C10.6566 12.2766 10.5796 12.5895 10.5799 12.9071" stroke="white" stroke-width="1.5" stroke-linecap="round" stroke-linejoin="round"/>
<path d="M10.5664 15.5439C10.7492 15.5439 10.8974 15.6922 10.8975 15.875C10.8975 16.0579 10.7493 16.2061 10.5664 16.2061C10.3836 16.206 10.2354 16.0578 10.2354 15.875C10.2354 15.6922 10.3836 15.544 10.5664 15.5439Z" fill="white" stroke="white" stroke-width="1.5"/>
</svg>
