<svg width="105" height="100" viewBox="0 0 105 100" fill="none" xmlns="http://www.w3.org/2000/svg">
<path d="M89.1338 3.30273H93.6414L93.3376 19.9129H89.4376L89.1338 3.30273Z" fill="#EBEBEB"/>
<path d="M93.337 21.9922H89.4395V25.8897H93.337V21.9922Z" fill="#EBEBEB"/>
<path d="M99.6016 16.9165L103.267 17.9835L99.0903 31.4173L95.9189 30.4936L99.6016 16.9165Z" fill="#EBEBEB"/>
<path d="M98.5941 33.1103L95.4258 32.188L94.5035 35.3563L97.6718 36.2786L98.5941 33.1103Z" fill="#EBEBEB"/>
<path d="M55.3999 11.4139L58.3193 10.0332L63.2048 20.8909L60.6781 22.0863L55.3999 11.4139Z" fill="#EBEBEB"/>
<path d="M63.8416 22.2443L61.3154 23.4368L62.5079 25.9629L65.0341 24.7704L63.8416 22.2443Z" fill="#EBEBEB"/>
<path d="M100.048 79.5044H77.0088C77.0088 79.5044 79.2935 73.2654 82.8106 73.2654C86.3278 73.2654 87.4269 77.5704 87.4269 77.5704C87.4269 77.5704 89.798 75.2314 91.7468 75.2314C93.6955 75.2314 95.3899 78.3237 95.3899 78.3237C95.3899 78.3237 98.1414 76.6615 100.048 79.5044Z" fill="#EBEBEB"/>
<path d="M70.5875 69.9878H58.4404C58.4404 69.9878 61.1573 66.0532 63.2938 66.0532C65.4303 66.0532 66.0601 68.6787 66.0601 68.6787C66.0601 68.6787 67.5717 67.4561 68.9697 67.6735C70.3676 67.8908 70.5875 69.9878 70.5875 69.9878Z" fill="#EBEBEB"/>
<path d="M28.5886 37.6789H4.92188C4.92188 37.6789 8.1624 30.4446 11.6302 29.9901C15.0979 29.5356 16.7552 35.3671 16.7552 35.3671C16.7552 35.3671 18.9781 33.3072 20.7491 33.3072C22.52 33.3072 23.8661 36.0241 23.8661 36.0241C23.8661 36.0241 27.3833 34.1618 28.5886 37.6789Z" fill="#EBEBEB"/>
<path d="M51.0825 16.87H35.0947C35.0947 16.87 37.8413 11.6239 40.82 11.5498C43.7987 11.4757 45.3671 15.519 45.3671 15.519C45.3671 15.519 50.0006 11.7993 51.0825 16.87Z" fill="#EBEBEB"/>
<path d="M78.3865 19.7378H75.4424V99.7776H78.3865V19.7378Z" fill="#DBDBDB"/>
<path d="M76.9144 6.04443L53.7812 46.1113H100.048L76.9144 6.04443Z" fill="#3B5CCC"/>
<path d="M76.9145 11.8486L58.8101 43.209H95.0214L76.9145 11.8486Z" fill="white"/>
<path d="M75.082 20.9233H78.7499L78.5029 34.4436H75.329L75.082 20.9233Z" fill="#3B5CCC"/>
<path d="M78.5005 36.1382H75.3291V39.3095H78.5005V36.1382Z" fill="#3B5CCC"/>
<path d="M100.048 48.4429H53.7812V63.9218H100.048V48.4429Z" fill="#3B5CCC"/>
<path d="M99.008 62.8894H54.8213V49.4753H99.008V62.8894ZM55.0683 62.6424H98.761V49.7223H55.0683V62.6424Z" fill="white"/>
<path d="M60.8572 51.7551H61.7735L62.3515 53.4519L62.927 51.7551H63.8532L62.9788 54.0866L63.6284 55.7267L65.0807 51.7402H66.1625L64.0755 56.8653H63.2382L62.3515 54.714L61.4623 56.8653H60.625L58.5527 51.7402H59.6222L61.0795 55.7267L61.7142 54.0866L60.8572 51.7551Z" fill="#263238"/>
<path d="M67.7071 51.7402H68.5889L70.5426 56.8653H69.5176L69.036 55.5883H67.2453L66.776 56.8653H65.751L67.7071 51.7402ZM68.8557 54.8869L68.1493 52.8715L67.4083 54.8844L68.8557 54.8869Z" fill="#263238"/>
<path d="M71.1006 56.8654V51.7403H73.368C73.5939 51.738 73.8172 51.7888 74.02 51.8885C74.2157 51.9841 74.391 52.1166 74.5362 52.2787C74.682 52.4394 74.7975 52.6252 74.8771 52.8271C74.9565 53.0233 74.9976 53.2329 74.9981 53.4445C75.0019 53.7638 74.9164 54.0778 74.7511 54.351C74.5934 54.6136 74.3565 54.8194 74.0744 54.9388L75.2451 56.8654H74.1262L73.079 55.1488H72.091V56.8654H71.1006ZM72.0886 54.2744H73.3383C73.4246 54.2729 73.5093 54.2509 73.5853 54.2102C73.665 54.1655 73.7348 54.105 73.7903 54.0324C73.8504 53.9524 73.8971 53.8631 73.9286 53.7681C73.9618 53.6635 73.9785 53.5543 73.978 53.4445C73.9789 53.3309 73.9597 53.218 73.9212 53.1111C73.8843 53.0158 73.8317 52.9273 73.7656 52.8493C73.7035 52.7767 73.627 52.7178 73.5409 52.6764C73.4643 52.6372 73.3798 52.6161 73.2939 52.6147H72.0886V54.2744Z" fill="#263238"/>
<path d="M76.8976 53.5803V56.8653H75.9097V51.7402H76.6803L79.3453 55.0944V51.7476H80.3333V56.8653H79.533L76.8976 53.5803Z" fill="#263238"/>
<path d="M81.4097 56.8653V51.7402H82.3976V56.8653H81.4097Z" fill="#263238"/>
<path d="M84.4699 53.5803V56.8653H83.4819V51.7402H84.2525L86.9176 55.0944V51.7476H87.9055V56.8653H87.0979L84.4699 53.5803Z" fill="#263238"/>
<path d="M92.5394 56.287C92.3562 56.4818 92.135 56.637 91.8894 56.7428C91.6439 56.8486 91.3791 56.9028 91.1117 56.902C90.7838 56.9045 90.4593 56.8354 90.1608 56.6994C89.8691 56.5681 89.6069 56.3791 89.3902 56.1437C89.1657 55.9006 88.9889 55.6174 88.8691 55.3089C88.7395 54.9794 88.6749 54.628 88.6789 54.274C88.6737 53.6007 88.9316 52.952 89.3976 52.466C89.6219 52.2306 89.8905 52.0417 90.188 51.9103C90.4983 51.7702 90.8355 51.6994 91.176 51.7028C91.6075 51.6909 92.0342 51.7958 92.4109 52.0066C92.7444 52.1967 93.0142 52.4811 93.1865 52.8242L92.4455 53.3725C92.3271 53.1273 92.1378 52.9234 91.9021 52.7871C91.6704 52.6525 91.4069 52.5826 91.1389 52.5846C90.9323 52.5829 90.7283 52.6303 90.5437 52.7229C90.3643 52.813 90.2067 52.9411 90.0818 53.0983C89.9524 53.2628 89.8521 53.4483 89.7854 53.6466C89.7152 53.8585 89.6802 54.0804 89.6817 54.3036C89.6804 54.5335 89.7197 54.7617 89.7978 54.9779C89.8692 55.1775 89.9763 55.3625 90.1139 55.5238C90.2484 55.6759 90.4122 55.7994 90.5955 55.8868C90.7837 55.9765 90.9898 56.0222 91.1982 56.0202C91.4599 56.0119 91.7163 55.9447 91.9485 55.8237C92.1807 55.7027 92.3826 55.531 92.5394 55.3212V54.9606H91.5069V54.2197H93.3643V56.855H92.5394V56.287Z" fill="#263238"/>
<path d="M94.3076 54.9388V51.6909H95.2758V54.9388H94.3076ZM94.3076 56.8654V55.7761H95.2758V56.8654H94.3076Z" fill="#263238"/>
<path d="M59.9831 58.3672H60.4499L61.4823 61.0841H60.9389L60.6919 60.4073H59.7435L59.4965 61.0841H58.9531L59.9831 58.3672ZM60.5907 60.0319L60.2177 58.9674L59.8275 60.0344L60.5907 60.0319Z" fill="white"/>
<path d="M63.5398 58.8291H62.6729V61.0791H62.1443V58.8291H61.2773V58.3672H63.5348L63.5398 58.8291Z" fill="white"/>
<path d="M65.9035 58.8291H65.0366V61.0791H64.5129V58.8291H63.646V58.3672H65.9035V58.8291Z" fill="white"/>
<path d="M68.1218 60.6171V61.079H66.2397V58.3621H68.0872V58.8239H66.7658V59.4785H67.9094V59.9058H66.7658V60.6121L68.1218 60.6171Z" fill="white"/>
<path d="M69.0598 59.3403V61.0692H68.5312V58.3523H68.9413L70.354 60.1331V58.3572H70.8801V61.0741H70.4528L69.0598 59.3403Z" fill="white"/>
<path d="M73.4763 58.8291H72.6093V61.0791H72.0857V58.8291H71.2188V58.3672H73.4763V58.8291Z" fill="white"/>
<path d="M73.812 61.079V58.3621H74.3406V61.079H73.812Z" fill="white"/>
<path d="M76.0626 61.0987C75.8757 61.1006 75.6907 61.0601 75.5217 60.9801C75.364 60.9062 75.2229 60.8012 75.1068 60.6714C74.9898 60.5433 74.8985 60.3941 74.8375 60.2317C74.774 60.0696 74.7414 59.897 74.7412 59.7229C74.7411 59.5451 74.7755 59.369 74.8425 59.2043C74.9073 59.0416 75.0019 58.8924 75.1216 58.7646C75.2405 58.6359 75.3841 58.5326 75.5439 58.4608C75.7106 58.3849 75.8918 58.3462 76.075 58.3472C76.2605 58.3459 76.4439 58.3873 76.6109 58.4682C76.7686 58.5455 76.9095 58.6529 77.0259 58.7844C77.1404 58.9147 77.2307 59.0644 77.2926 59.2265C77.3873 59.4711 77.4113 59.7375 77.3619 59.9951C77.3126 60.2527 77.1919 60.4913 77.0135 60.6837C76.8953 60.8114 76.7524 60.9139 76.5936 60.9851C76.4269 61.0607 76.2457 61.0995 76.0626 61.0987ZM75.2747 59.7229C75.2755 59.8386 75.2938 59.9536 75.3291 60.0638C75.3629 60.1688 75.4156 60.2667 75.4847 60.3528C75.5523 60.4364 75.6364 60.5053 75.7316 60.5553C75.8362 60.6065 75.9511 60.6332 76.0676 60.6332C76.184 60.6332 76.2989 60.6065 76.4035 60.5553C76.4998 60.5048 76.5841 60.434 76.6505 60.3478C76.7183 60.2604 76.7701 60.1618 76.8036 60.0564C76.8378 59.9494 76.8553 59.8377 76.8555 59.7254C76.8551 59.6095 76.8359 59.4943 76.7986 59.3846C76.7638 59.28 76.7112 59.1822 76.643 59.0956C76.5758 59.0122 76.4916 58.944 76.3961 58.8955C76.2919 58.8443 76.1774 58.8177 76.0614 58.8177C75.9453 58.8177 75.8308 58.8443 75.7267 58.8955C75.6304 58.946 75.5461 59.0168 75.4797 59.103C75.4132 59.1899 75.3622 59.2876 75.3291 59.392C75.294 59.4988 75.2756 59.6105 75.2747 59.7229Z" fill="white"/>
<path d="M78.3196 59.3403V61.0692H77.791V58.3523H78.1985L79.6113 60.1331V58.3572H80.1374V61.0741H79.7101L78.3196 59.3403Z" fill="white"/>
<path d="M81.6226 61.079V58.3621H82.7735C82.8933 58.3615 83.0117 58.3886 83.1193 58.4411C83.2218 58.4921 83.3139 58.5616 83.391 58.6461C83.4673 58.7323 83.5283 58.8308 83.5713 58.9376C83.6127 59.0413 83.6345 59.1519 83.6355 59.2636C83.6359 59.3776 83.6149 59.4907 83.5738 59.597C83.5357 59.7032 83.4779 59.8013 83.4034 59.886C83.3285 59.9702 83.2379 60.039 83.1366 60.0885C83.0289 60.1406 82.9105 60.1668 82.7908 60.1651H82.1511V61.074L81.6226 61.079ZM82.1511 59.7082H82.7612C82.8088 59.7093 82.856 59.6992 82.8989 59.6786C82.9419 59.658 82.9793 59.6275 83.0082 59.5896C83.0788 59.498 83.1139 59.384 83.107 59.2685C83.1082 59.2053 83.0973 59.1424 83.0749 59.0833C83.0571 59.0328 83.0303 58.9859 82.9958 58.945C82.9648 58.9071 82.9249 58.8774 82.8798 58.8585C82.837 58.8393 82.7907 58.8292 82.7439 58.8289H82.1511V59.7082Z" fill="white"/>
<path d="M84.0034 61.079V58.3621H84.5295V60.6121H85.9127V61.074L84.0034 61.079Z" fill="white"/>
<path d="M88.1155 60.6171V61.079H86.2334V58.3621H88.0784V58.8239H86.757V59.4785H87.8981V59.9058H86.757V60.6121L88.1155 60.6171Z" fill="white"/>
<path d="M89.2989 58.3672H89.7657L90.7957 61.0841H90.2548L90.0078 60.4073H89.0667L88.8198 61.0841H88.2764L89.2989 58.3672ZM89.9065 60.0344L89.5311 58.9698L89.1433 60.0344H89.9065Z" fill="white"/>
<path d="M92.6675 59.0781C92.6381 59.05 92.6058 59.0252 92.5712 59.004C92.5157 58.9703 92.4579 58.9406 92.3983 58.9151C92.3273 58.8841 92.2537 58.8593 92.1785 58.841C92.0978 58.8199 92.0148 58.8091 91.9315 58.8089C91.8169 58.8004 91.7026 58.8289 91.6054 58.8904C91.5707 58.9162 91.5428 58.9503 91.5243 58.9895C91.5057 59.0287 91.4971 59.0718 91.4992 59.1151C91.4969 59.1651 91.5108 59.2145 91.5387 59.2559C91.57 59.2961 91.6096 59.3289 91.6548 59.3522C91.7163 59.3841 91.7809 59.4097 91.8475 59.4288L92.1167 59.5004C92.2501 59.5375 92.3637 59.5745 92.4798 59.6165C92.5788 59.6526 92.6713 59.7043 92.7539 59.7696C92.8274 59.828 92.8865 59.9023 92.9268 59.987C92.971 60.0864 92.9921 60.1945 92.9886 60.3031C92.9922 60.4322 92.9642 60.5603 92.9071 60.6761C92.8547 60.7756 92.7783 60.8605 92.6848 60.9231C92.5872 60.9891 92.4784 61.0368 92.3637 61.0639C92.2389 61.0919 92.1113 61.106 91.9833 61.1059C91.779 61.1061 91.5758 61.0753 91.3807 61.0145C91.1902 60.9568 91.0102 60.8693 90.8472 60.7551L91.0793 60.3007C91.1175 60.3343 91.1589 60.3641 91.2028 60.3896C91.2712 60.4312 91.3421 60.4683 91.4153 60.5007C91.5028 60.5401 91.5937 60.5716 91.6869 60.5946C91.7862 60.6202 91.8882 60.6334 91.9907 60.6341C92.2822 60.6341 92.4279 60.5403 92.4279 60.355C92.4284 60.3007 92.4111 60.2478 92.3785 60.2043C92.3385 60.1596 92.2897 60.1234 92.2353 60.0981C92.1647 60.0635 92.0911 60.0354 92.0154 60.0142L91.724 59.9302C91.6085 59.8998 91.4954 59.861 91.3856 59.8141C91.2957 59.7785 91.2123 59.7285 91.1386 59.6659C91.0768 59.6105 91.0279 59.5422 90.9954 59.4658C90.9608 59.3804 90.944 59.2888 90.946 59.1966C90.9442 59.0706 90.9704 58.9458 91.0225 58.8311C91.072 58.7264 91.1446 58.6343 91.2349 58.5619C91.33 58.49 91.437 58.4356 91.5511 58.4013C91.6759 58.3629 91.8058 58.3437 91.9364 58.3445C92.1158 58.3435 92.294 58.3744 92.4625 58.4359C92.6107 58.4891 92.7517 58.5604 92.8824 58.6483L92.6675 59.0781Z" fill="white"/>
<path d="M95.2761 60.6171V61.079H93.394V58.3621H95.2415V58.8239H93.9201V59.4785H95.0612V59.9058H93.9201V60.6121L95.2761 60.6171Z" fill="white"/>
<path d="M44.7331 99.7694H23.3486C23.1707 99.0803 23.0003 98.4036 22.8299 97.7367C22.6348 96.9685 22.4421 96.2202 22.2593 95.4915C22.2173 95.3285 22.1754 95.1655 22.1334 94.9976C21.9926 94.4394 21.8543 93.8935 21.7184 93.3649C21.6369 93.0439 21.5554 92.7252 21.4714 92.4116C21.3874 92.0979 21.3084 91.7768 21.2244 91.4705C21.2022 91.389 21.1849 91.3075 21.1627 91.2235C21.1405 91.1396 21.1182 91.0457 21.096 90.9593C21.0738 90.8728 21.0417 90.7493 21.0145 90.6431C20.9849 90.532 20.9577 90.4233 20.9305 90.3146L20.7774 89.707C20.7008 89.4156 20.6292 89.1266 20.5576 88.8475C20.5279 88.7265 20.4958 88.6005 20.4662 88.4844C20.4151 88.2885 20.3657 88.0983 20.318 87.9139C20.2859 87.7879 20.2562 87.6669 20.2266 87.5483C20.1006 87.0543 19.9796 86.5949 19.8759 86.1652C19.8438 86.0515 19.8191 85.9404 19.7869 85.8317C19.7425 85.644 19.6956 85.4662 19.6536 85.2933C19.6239 85.1846 19.5968 85.0784 19.5721 84.9747C19.4757 84.6067 19.3893 84.2707 19.3251 83.9744C19.3028 83.8978 19.2831 83.8212 19.2633 83.7471C19.2164 83.552 19.1695 83.3791 19.1324 83.2235C19.1151 83.1618 19.1028 83.1025 19.0855 83.0481C19.0682 82.9938 19.0559 82.9296 19.041 82.8777C19.0262 82.8259 19.0237 82.8012 19.0139 82.769C19.004 82.7369 18.9867 82.6653 18.9768 82.6233C18.9732 82.6014 18.9674 82.5799 18.9595 82.5591C18.9274 82.4307 18.9126 82.3665 18.9126 82.3665H39.729C39.729 82.3665 40.4132 84.7277 41.5123 88.5412C41.7346 89.3168 41.9742 90.1541 42.2335 91.0432C42.9671 93.5946 43.8167 96.5585 44.7331 99.7694Z" fill="#37474F"/>
<path d="M26.848 99.769H26.3145C25.5241 96.4923 24.7576 93.2098 24.015 89.9215C23.8347 89.1237 23.6593 88.3235 23.484 87.5208C23.4667 87.4442 23.4494 87.3726 23.4346 87.296C23.4346 87.2565 23.4864 87.2392 23.4963 87.2787L23.5185 87.3528C23.7606 88.2123 24.0002 89.0735 24.2373 89.9363C25.1396 93.2048 26.0099 96.4824 26.848 99.769Z" fill="#263238"/>
<path d="M39.0572 82.3809L38.1409 86.9798L37.3851 90.7514L36.1032 97.1731L35.9723 97.8301L35.7525 98.9292L35.587 99.7616H23.3461L22.8299 97.7289C22.6348 96.9607 22.4421 96.2123 22.2593 95.4837C22.2173 95.3207 22.1754 95.1577 22.1334 94.9897C21.9926 94.4315 21.8543 93.8857 21.7184 93.3571C21.6369 93.036 21.5554 92.7174 21.4714 92.4037C21.3874 92.0901 21.3084 91.769 21.2244 91.4627C21.2022 91.3812 21.1849 91.2997 21.1627 91.2157C21.1405 91.1317 21.1182 91.0379 21.096 90.9514C21.0738 90.865 21.0417 90.7415 21.0145 90.6353C20.9849 90.5241 20.9577 90.4155 20.9305 90.3068L20.7774 89.6992C20.7008 89.4077 20.6292 89.1188 20.5576 88.8397C20.5255 88.7162 20.4958 88.5927 20.4662 88.4766C20.4151 88.2807 20.3657 88.0905 20.318 87.9061C20.2859 87.7801 20.2562 87.6591 20.2266 87.5405C20.1006 87.0465 19.9796 86.5871 19.8759 86.1574C19.8438 86.0437 19.8191 85.9326 19.7869 85.8239C19.7425 85.6362 19.6956 85.4584 19.6536 85.2855C19.6239 85.1768 19.5968 85.0706 19.5721 84.9669C19.4757 84.5988 19.3893 84.2629 19.3251 83.9665C19.3028 83.89 19.2831 83.8134 19.2633 83.7393C19.2164 83.5442 19.1695 83.3713 19.1324 83.2157C19.1151 83.1539 19.1028 83.0947 19.0855 83.0403C19.0682 82.986 19.0559 82.9218 19.041 82.8699C19.0262 82.818 19.0237 82.7933 19.0139 82.7612C19.004 82.7291 18.9867 82.6575 18.9768 82.6155C18.9732 82.5936 18.9674 82.5721 18.9595 82.5513C18.9274 82.4229 18.9126 82.3586 18.9126 82.3586L39.0572 82.3809Z" fill="#263238"/>
<path d="M39.0624 82.3711C39.0624 82.4847 38.9734 83.7246 38.7734 85.619C38.7166 86.1723 38.6499 86.7799 38.5709 87.4295C38.4498 88.4569 38.2967 89.5906 38.109 90.7885C37.7904 92.8781 37.368 95.1553 36.832 97.3832C36.6394 98.1859 36.427 98.9812 36.2022 99.7592H9.33203C9.64818 95.6641 9.93963 91.9593 10.1693 89.0398C10.4904 84.9324 10.6979 82.3711 10.6979 82.3711H35.071H39.0624Z" fill="#37474F"/>
<path d="M39.0051 84.8412C38.9729 85.802 38.9334 86.7627 38.8717 87.7186C38.805 88.756 38.7111 89.7933 38.5753 90.8282C38.5753 90.8653 38.5753 90.9048 38.5753 90.9418C38.4469 91.9125 38.3036 92.8782 38.1381 93.844C37.9825 94.743 37.8689 95.7137 37.4712 96.546C37.3213 96.8678 37.1079 97.1559 36.8439 97.3932C36.6018 97.6149 36.3052 97.7683 35.9843 97.8378C35.9318 97.8519 35.878 97.861 35.8238 97.865H35.7769C35.7865 97.8708 35.7944 97.8792 35.7996 97.8892C35.8049 97.8993 35.8072 97.9105 35.8065 97.9218C35.8065 98.2453 35.8065 98.5738 35.7695 98.8925C35.7695 98.9073 35.7695 98.9196 35.7695 98.9344C35.7374 99.2135 35.6855 99.4902 35.6336 99.7668H35.1717C35.1723 99.7611 35.1723 99.7553 35.1717 99.7495C35.2533 99.4457 35.3199 99.1394 35.3965 98.8332C35.4731 98.5269 35.5793 98.2157 35.6435 97.8996C35.645 97.8934 35.6477 97.8875 35.6516 97.8825C35.6554 97.8774 35.6602 97.8731 35.6657 97.8699C35.373 97.8837 35.0831 97.8075 34.8349 97.6517C34.5868 97.4958 34.3923 97.2677 34.2776 96.998C34.1616 96.5863 34.1539 96.1515 34.2554 95.7359C34.3394 95.1851 34.4209 94.6368 34.5024 94.086C34.6605 93.0734 34.863 92.0755 35.0408 91.0703L35.1223 90.6109C35.483 88.5658 35.8633 86.5182 36.3128 84.4929C36.3301 84.4065 36.3474 84.3225 36.3672 84.2459C36.3869 84.1693 36.4709 84.2064 36.466 84.2607C36.4512 84.3966 36.4388 84.5349 36.4215 84.6707C36.3425 85.4488 36.2511 86.2218 36.1424 86.9949C36.0115 87.9038 35.9226 88.8152 35.7942 89.7242C35.7522 90.0329 35.7077 90.3416 35.6633 90.6504C35.4533 92.1447 35.236 93.6365 34.9816 95.1258C34.863 95.8174 34.4332 97.0549 35.4262 97.2697C35.6539 97.3196 35.8919 97.29 36.1004 97.1858C36.5402 96.921 36.8692 96.506 37.0267 96.0175C37.2693 95.204 37.4461 94.3722 37.5552 93.5303C37.7199 92.6197 37.864 91.7075 37.9874 90.7936C38.1505 89.6525 38.3184 88.5164 38.4963 87.3778L38.7704 85.6365C38.8149 85.3697 38.8569 85.1005 38.9013 84.8313C38.9137 84.7671 39.0051 84.7844 39.0051 84.8412Z" fill="#263238"/>
<path d="M15.2171 91.9837C16.336 91.9719 17.4492 91.8226 18.5317 91.5391C19.0257 91.4107 19.5197 91.2501 20.0136 91.0896C20.4987 90.9552 20.9526 90.7269 21.3499 90.4178C22.0908 89.7682 22.4539 88.7457 22.7824 87.8367C23.1409 86.8114 23.4313 85.7635 23.6518 84.7C23.6518 84.6481 23.7383 84.6654 23.7407 84.7148C23.7675 85.917 23.6151 87.1165 23.2887 88.2739C23.0195 89.2619 22.6564 90.3536 21.8611 91.0427C21.0263 91.7664 19.8852 92.0306 18.8231 92.1541C17.6223 92.2937 16.4084 92.2763 15.2121 92.1023C15.2043 92.1019 15.1967 92.1001 15.1896 92.0968C15.1826 92.0935 15.1762 92.0889 15.1709 92.0832C15.1657 92.0774 15.1616 92.0707 15.1589 92.0634C15.1562 92.0561 15.155 92.0483 15.1553 92.0405C15.1556 92.0327 15.1575 92.0251 15.1608 92.018C15.1641 92.011 15.1687 92.0046 15.1744 91.9993C15.1802 91.9941 15.1869 91.99 15.1942 91.9873C15.2015 91.9846 15.2093 91.9834 15.2171 91.9837Z" fill="#263238"/>
<path d="M13.3629 84.7322C13.3036 86.2355 13.241 87.7405 13.1751 89.2472C13.0187 92.7544 12.8491 96.2617 12.6663 99.769H12.1724C12.4045 96.2518 12.6515 92.7396 12.9133 89.2324C13.0121 87.7307 13.1216 86.2306 13.2418 84.7322C13.2418 84.6457 13.3678 84.6507 13.3629 84.7322Z" fill="#263238"/>
<path d="M34.9074 51.4111C38.595 55.8767 51.772 72.3189 49.9171 76.8981C48.0375 81.5365 43.6386 84.7252 41.349 81.4946C39.4595 78.8295 32.3461 60.3818 31.3285 55.6174C30.3603 51.0826 31.2717 47.0221 34.9074 51.4111Z" fill="#D3766A"/>
<path d="M33.8486 67.4853L47.5492 64.7684C47.5492 64.7684 37.9042 52.8116 34.0758 50.0947C29.7658 47.0394 29.136 49.9119 29.9461 54.869C30.7562 59.8261 33.8486 67.4853 33.8486 67.4853Z" fill="#3B5CCC"/>
<path d="M47.549 64.7607L33.8484 67.4776C33.8484 67.4776 30.7462 59.8209 29.9459 54.8539C29.1457 49.8869 29.7656 47.0243 34.0756 50.0796C34.293 50.2352 34.5301 50.4204 34.7845 50.6303L35.0957 50.8946C36.4863 52.1024 38.2819 53.9845 40.075 55.9727L40.1738 56.0814C41.5866 57.6548 42.9969 59.2923 44.1998 60.71L44.6938 61.3102C46.3857 63.3183 47.549 64.7607 47.549 64.7607Z" fill="#3B5CCC"/>
<path d="M37.8789 63.4566C37.7218 63.8519 37.6228 64.2679 37.585 64.6916C37.8346 64.3514 38.0358 63.9781 38.1827 63.5826C38.3397 63.1914 38.4396 62.7797 38.4791 62.36C38.2287 62.6956 38.0266 63.0648 37.8789 63.4566ZM32.7662 57.4548C32.3711 57.2966 31.9551 57.1967 31.5312 57.1584C31.8684 57.4106 32.2403 57.6127 32.6353 57.7586C33.0306 57.9162 33.4465 58.016 33.8703 58.055C33.5331 57.8028 33.1612 57.6006 32.7662 57.4548ZM35.4065 51.4974C35.3145 51.2951 35.2114 51.098 35.0978 50.907L34.7841 50.6477C34.8584 50.9874 34.9676 51.3185 35.1102 51.6357C35.2742 52.0241 35.4947 52.3862 35.7647 52.7101C35.7042 52.2907 35.5836 51.8823 35.4065 51.4974ZM44.8194 61.5573C44.7823 61.4782 44.7453 61.3992 44.7058 61.3226L44.2118 60.7225C44.2824 61.0555 44.3883 61.3801 44.5279 61.6907C44.6948 62.0782 44.9161 62.4399 45.1849 62.7651C45.1217 62.347 44.9986 61.9402 44.8194 61.5573ZM40.0771 55.9852C40.008 56.0346 39.9388 56.0889 39.8721 56.1457C39.9742 56.1337 40.0756 56.1163 40.1759 56.0938L40.0771 55.9852Z" fill="white"/>
<path d="M45.138 62.7109C44.644 62.7307 40.3662 63.5137 39.4399 63.6989C38.5137 63.8841 34.715 64.6301 33.774 64.9067C33.7667 64.9087 33.7602 64.913 33.7556 64.9191C33.751 64.9251 33.7485 64.9325 33.7485 64.94C33.7485 64.9476 33.751 64.955 33.7556 64.961C33.7602 64.967 33.7667 64.9714 33.774 64.9734C34.7471 64.8795 38.5779 64.1435 39.5264 63.9706C40.4748 63.7977 44.6959 62.9283 45.1454 62.7677C45.1948 62.7505 45.1726 62.7109 45.138 62.7109Z" fill="#263238"/>
<path d="M41.7447 65.9142L33.841 67.4825C33.841 67.4825 30.7388 59.8258 29.9385 54.8613C29.3482 51.2034 29.531 48.6866 31.3982 48.8372L41.7447 65.9142Z" fill="#263238"/>
<path d="M43.3748 90.058L8.61572 91.8956C8.61572 91.8956 11.5599 62.2789 24.4232 49.6849C26.0113 48.1288 30.2349 47.4101 32.3936 49.0946C33.5445 49.9936 35.6316 54.0146 36.7381 58.1196C37.8447 62.2246 43.4687 89.9197 43.3748 90.058Z" fill="#3B5CCC"/>
<path d="M28.3379 52.4534C28.1831 52.8452 28.0842 53.2567 28.044 53.676C28.2962 53.338 28.4984 52.9653 28.6442 52.5695C28.8001 52.178 28.8999 51.7664 28.9406 51.3469C28.689 51.6858 28.4861 52.0583 28.3379 52.4534ZM24.3391 68.3053C24.18 68.7001 24.0801 69.1162 24.0427 69.5402C24.5394 68.8555 24.8477 68.0524 24.9368 67.2111C24.6876 67.5462 24.4864 67.9145 24.3391 68.3053ZM21.7976 85.1229C21.6408 85.5133 21.541 85.9242 21.5012 86.343C21.9979 85.6583 22.3062 84.8551 22.3953 84.0139C22.1442 84.3532 21.9429 84.7266 21.7976 85.1229ZM37.9236 63.3482L37.8792 63.4569C37.722 63.8521 37.623 64.2681 37.5853 64.6918C37.768 64.4503 37.9222 64.1884 38.0447 63.9113C38.0027 63.7113 37.9631 63.5285 37.9236 63.3482ZM31.3314 83.3816C31.1727 83.7767 31.0721 84.1926 31.0326 84.6166C31.2855 84.2795 31.4885 83.9076 31.6352 83.5125C31.7903 83.1209 31.8893 82.7092 31.9292 82.2899C31.6801 82.6243 31.479 82.9917 31.3314 83.3816ZM17.2406 62.1651C17.0841 62.5563 16.9851 62.9681 16.9467 63.3877C17.1973 63.0491 17.3986 62.6765 17.5444 62.2812C17.7026 61.8861 17.8024 61.4701 17.8408 61.0462C17.5875 61.3881 17.3853 61.765 17.2406 62.1651ZM32.7665 57.455C32.3714 57.2968 31.9553 57.197 31.5315 57.1586C31.8687 57.4108 32.2405 57.613 32.6355 57.7588C33.0308 57.9164 33.4468 58.0162 33.8705 58.0552C33.5333 57.803 33.1615 57.6009 32.7665 57.455ZM36.2416 70.7011C35.851 70.5455 35.4401 70.4465 35.0215 70.4072C35.3582 70.6595 35.7302 70.861 36.1255 71.0049C36.517 71.1616 36.9286 71.2622 37.3481 71.3038C37.0105 71.0503 36.6377 70.8473 36.2416 70.7011ZM38.0619 86.4616C37.6669 86.3034 37.2508 86.2036 36.827 86.1652C37.5111 86.6618 38.3132 86.9708 39.1536 87.0618C38.8197 86.8115 38.4522 86.6094 38.0619 86.4616ZM12.0488 85.5996C11.6537 85.4414 11.2377 85.3416 10.8139 85.3032C11.4992 85.7994 12.3019 86.1084 13.143 86.1998C12.8084 85.9491 12.4401 85.747 12.0488 85.5996ZM21.311 75.0136C20.9161 74.8543 20.5001 74.7536 20.076 74.7147C20.414 74.9677 20.7867 75.1707 21.1826 75.3174C21.5781 75.4736 21.994 75.5726 22.4175 75.6113C22.0789 75.3606 21.7063 75.1594 21.311 75.0136ZM24.638 60.0089C24.4711 59.6214 24.2498 59.2596 23.981 58.9345C24.1135 59.7703 24.4636 60.5565 24.9961 61.2142C24.9337 60.7977 24.8131 60.3919 24.638 60.0089ZM30.6473 73.3464C30.4804 72.9594 30.2601 72.5977 29.9927 72.272C30.0537 72.6888 30.1743 73.0948 30.3509 73.4773C30.517 73.8646 30.7374 74.2264 31.0054 74.5517C30.944 74.1341 30.8234 73.7275 30.6473 73.3439V73.3464ZM16.4971 80.5956C16.3307 80.2086 16.1094 79.8476 15.8401 79.5236C15.9026 79.9401 16.0231 80.3459 16.1983 80.7289C16.3642 81.1162 16.5855 81.4773 16.8553 81.8009C16.7942 81.3832 16.6736 80.9765 16.4971 80.5931V80.5956ZM18.8485 91.1544C18.6826 90.7669 18.4622 90.4051 18.194 90.08C18.2534 90.4972 18.3741 90.9033 18.5521 91.2853C18.5669 91.3199 18.5842 91.352 18.599 91.3866L18.9374 91.3693L18.8485 91.1544ZM37.279 78.464C36.8914 78.6287 36.5296 78.8483 36.2046 79.1161C37.0396 78.984 37.8255 78.6357 38.4843 78.1059C38.0675 78.1602 37.6612 78.2767 37.279 78.4517V78.464ZM26.9992 89.1785C26.6119 89.3446 26.2501 89.565 25.9248 89.833C26.3415 89.7713 26.7473 89.6507 27.1301 89.4749C27.5182 89.309 27.8801 89.0877 28.2045 88.8179C27.7873 88.8785 27.3812 89 26.9992 89.1785ZM10.2038 91.6237C10.0556 91.6928 9.90742 91.7645 9.76416 91.8435L10.5817 91.8015C10.8796 91.6584 11.1577 91.4775 11.4091 91.2631C10.9898 91.3248 10.5814 91.4463 10.1964 91.6237H10.2038ZM16.6577 69.0957C16.2706 69.2623 15.9089 69.4827 15.5833 69.7502C16.419 69.6164 17.2055 69.2674 17.8655 68.7375C17.4453 68.7978 17.036 68.9184 16.6503 69.0957H16.6577ZM26.1051 79.5878C25.7178 79.7552 25.3561 79.9764 25.0307 80.2448C25.4486 80.185 25.8555 80.0644 26.2385 79.8867C26.6261 79.7201 26.9879 79.4988 27.3129 79.2297C26.8929 79.2911 26.4838 79.4117 26.0977 79.5878H26.1051ZM30.304 63.4174C29.9166 63.5835 29.5548 63.8039 29.2295 64.0719C30.0653 63.9381 30.8518 63.5891 31.5117 63.0592C31.0873 63.1183 30.6738 63.239 30.2842 63.4174H30.304ZM21.0047 53.97C20.9183 54.0095 20.8343 54.049 20.7577 54.0935C20.6614 54.2318 20.5651 54.3726 20.4712 54.5133C20.7009 54.4451 20.9261 54.3626 21.1455 54.2664C21.5324 54.0993 21.894 53.879 22.2199 53.6118C21.7964 53.6712 21.3837 53.7918 20.9949 53.97H21.0047Z" fill="white"/>
<path d="M19.7427 53.938C9.9742 65.4502 3.29802 83.6435 6.76578 86.316C10.7004 89.3515 25.2358 91.8486 31.0104 92.3499C32.8011 92.5056 33.0728 77.6688 31.1512 77.7133C28.8221 77.7676 20.1132 75.9992 19.881 75.9967C19.387 75.9967 24.1268 60.9303 25.4976 55.0321C27.4068 46.8098 23.4105 49.6156 19.7427 53.938Z" fill="#D3766A"/>
<path d="M50.068 80.0394C50.4829 81.5214 49.1467 82.3957 49.1467 82.3957C49.7125 82.9131 50.0795 83.6121 50.1841 84.3717C50.3051 85.7202 48.2427 86.5007 48.2427 86.5007C48.7176 87.1614 48.9827 87.9497 49.0034 88.7631C48.9886 90.0648 47.0275 91.1491 47.0275 91.1491C47.1292 91.9966 46.9223 92.8523 46.4446 93.5597C45.0911 95.3998 41.6135 95.138 39.4029 94.9923C37.1923 94.8465 30.4618 92.0926 29.2441 91.7369L30.6322 77.8165C30.6322 77.8165 40.7342 75.643 43.3103 76.1814C45.4813 76.6408 49.6012 78.3797 50.068 80.0394Z" fill="#D3766A"/>
<path d="M49.1044 82.3344C46.9136 81.2995 44.5351 80.9661 42.1887 80.4993C42.1368 80.4993 42.122 80.5734 42.1739 80.5833C44.5228 81.018 46.7531 81.9145 49.0896 82.4456C49.1017 82.4431 49.1128 82.437 49.1212 82.428C49.1297 82.4189 49.1351 82.4075 49.1367 82.3953C49.1384 82.383 49.1361 82.3706 49.1303 82.3597C49.1245 82.3488 49.1155 82.3399 49.1044 82.3344Z" fill="#263238"/>
<path d="M48.2085 86.3232C47.6856 86.1337 47.14 86.0141 46.5858 85.9676C46.0053 85.8836 45.4249 85.807 44.842 85.7428C43.6762 85.6094 42.5079 85.5065 41.3372 85.4341C41.2853 85.4341 41.268 85.5107 41.3224 85.5156C42.4832 85.649 43.6441 85.7996 44.7975 85.9824C45.3755 86.0746 45.9518 86.1701 46.5265 86.2689C47.0639 86.398 47.6139 86.4676 48.1665 86.4764C48.1839 86.4753 48.2006 86.4687 48.2142 86.4577C48.2277 86.4466 48.2375 86.4316 48.2421 86.4148C48.2467 86.3979 48.246 86.3801 48.2399 86.3636C48.2339 86.3472 48.2229 86.3331 48.2085 86.3232Z" fill="#263238"/>
<path d="M46.9704 91.1541C46.5406 90.9442 45.9676 90.959 45.5008 90.9071C44.9673 90.8577 44.4362 90.8059 43.9027 90.7515C42.8407 90.6429 41.7786 90.5317 40.719 90.386C40.6672 90.386 40.6499 90.4601 40.7042 90.4675C41.7786 90.6206 42.8506 90.791 43.9274 90.9343C44.456 91.0067 44.9846 91.0751 45.5131 91.1393C45.9651 91.1961 46.5209 91.3171 46.9679 91.2011C46.9716 91.1985 46.9747 91.1951 46.977 91.1911C46.9792 91.1871 46.9805 91.1827 46.9807 91.1782C46.9809 91.1737 46.9801 91.1691 46.9783 91.165C46.9766 91.1608 46.9738 91.1571 46.9704 91.1541Z" fill="#263238"/>
<path d="M23.2007 68.3172L9.36914 66.3042C9.36914 66.3042 18.3843 53.8658 22.067 50.9562C26.2115 47.6811 26.9796 50.5166 26.4387 55.5082C25.8978 60.4999 23.2007 68.3172 23.2007 68.3172Z" fill="#3B5CCC"/>
<path d="M20.9946 53.9695C20.6033 54.1338 20.2381 54.3543 19.9104 54.624C20.7461 54.4902 21.5326 54.1412 22.1926 53.6113C21.7783 53.6732 21.3749 53.7938 20.9946 53.9695ZM24.6378 60.0084C24.4709 59.6209 24.2496 59.2591 23.9808 58.934C24.1133 59.7698 24.4634 60.556 24.9959 61.2137C24.9335 60.7972 24.8129 60.3914 24.6378 60.0084ZM10.9545 64.1677C10.8878 64.2591 10.8211 64.3505 10.7544 64.4369H10.7717C11.167 64.5947 11.5829 64.6954 12.0066 64.7358C11.6841 64.4982 11.33 64.307 10.9545 64.1677ZM17.2404 62.1646C17.0839 62.5558 16.9849 62.9676 16.9465 63.3872C17.1971 63.0486 17.3984 62.676 17.5442 62.2807C17.7024 61.8856 17.8022 61.4696 17.8406 61.0457C17.5873 61.3876 17.3851 61.7645 17.2404 62.1646Z" fill="white"/>
<path d="M11.6802 64.032C12.1742 64.032 16.4866 64.5877 17.4203 64.731C18.3539 64.8742 22.1872 65.4151 23.1431 65.6424C23.1522 65.6424 23.161 65.646 23.1675 65.6525C23.174 65.659 23.1776 65.6678 23.1776 65.6769C23.1776 65.6861 23.174 65.6949 23.1675 65.7014C23.161 65.7079 23.1522 65.7115 23.1431 65.7115C22.1674 65.6671 18.302 65.1311 17.3462 65.0051C16.3903 64.8792 12.1297 64.232 11.6654 64.0962C11.6259 64.0839 11.6456 64.032 11.6802 64.032Z" fill="#263238"/>
<path d="M22.106 68.051C22.5259 68.0807 23.1804 68.1523 23.1804 68.1523C23.5929 66.2455 24.2104 64.3659 24.7068 62.4715C25.2033 60.5771 25.7763 58.6506 26.3048 56.7364C26.3065 56.7305 26.3104 56.7255 26.3157 56.7225C26.3211 56.7195 26.3274 56.7187 26.3333 56.7203C26.3391 56.722 26.3442 56.7259 26.3472 56.7312C26.3502 56.7365 26.3509 56.7428 26.3493 56.7487C26.1188 57.8503 25.8833 58.9494 25.6429 60.0461L25.8059 59.6509C25.9986 59.1841 26.2036 58.7222 26.3814 58.248C26.3837 58.2394 26.3893 58.2322 26.3969 58.2278C26.4046 58.2234 26.4137 58.2222 26.4222 58.2245C26.4307 58.2268 26.4379 58.2324 26.4423 58.24C26.4467 58.2477 26.4479 58.2567 26.4456 58.2653C26.3108 58.7582 26.1459 59.2424 25.9517 59.7151C25.8109 60.0461 25.6479 60.3647 25.4824 60.6833C25.3391 61.3106 25.1983 61.9405 25.0378 62.5654C24.5438 64.4845 24.1486 66.6506 23.5114 68.5252C23.5114 68.5252 22.5456 68.3005 22.0714 68.135C22.0631 68.1287 22.0571 68.1199 22.0544 68.1099C22.0517 68.0999 22.0523 68.0893 22.0563 68.0797C22.0602 68.0701 22.0672 68.062 22.0762 68.0569C22.0852 68.0517 22.0957 68.0496 22.106 68.051Z" fill="#263238"/>
<path d="M32.3592 55.0368C30.492 55.6716 26.9254 53.0609 25.4039 50.8207C25.3027 50.6651 25.3867 48.9312 25.3891 46.817C25.3891 45.5351 25.3545 44.1001 25.2286 42.8059C25.2014 42.5391 33.5794 44.0062 33.5794 44.0062C33.5794 44.0062 33.0384 46.8096 33.2681 49.0769C33.2879 49.2561 33.3243 49.4331 33.3768 49.6055C33.3768 49.6277 33.3916 49.6574 33.3966 49.692C33.6584 50.6898 34.1672 54.4218 32.3592 55.0368Z" fill="#D3766A"/>
<path d="M32.5611 49.8152C32.8415 49.7976 33.12 49.7563 33.3934 49.6917C33.3888 49.6616 33.3822 49.6319 33.3737 49.6028C33.3227 49.4301 33.2871 49.2532 33.2675 49.0742C33.0378 46.8093 33.5762 44.0059 33.5762 44.0059C33.5762 44.0059 26.779 42.813 25.4502 42.771C25.838 44.2529 27.7398 50.1708 32.5611 49.8152Z" fill="#263238"/>
<path d="M22.9188 32.6321C22.2643 35.596 24.4576 43.848 26.6657 45.5522C29.8766 48.0221 34.7793 47.8912 36.7923 44.1197C38.746 40.4617 35.6981 29.7621 33.2603 28.248C29.674 26.0202 23.887 28.2505 22.9188 32.6321Z" fill="#D3766A"/>
<path d="M37.3826 39.491H37.3629C37.5234 41.5682 37.2023 43.6577 35.8439 45.3051C35.5068 45.7308 35.095 46.0915 34.6287 46.3697C34.6251 46.3732 34.6229 46.3777 34.6222 46.3827C34.6216 46.3876 34.6227 46.3926 34.6252 46.3969C34.6278 46.4012 34.6317 46.4045 34.6364 46.4063C34.641 46.408 34.6462 46.4082 34.6509 46.4067C35.0734 46.1769 35.4658 45.8956 35.8192 45.5694C36.1676 45.2317 36.4669 44.8467 36.7084 44.4258C37.2524 43.4922 37.5515 42.4361 37.5778 41.3557C37.5755 40.7292 37.5102 40.1044 37.3826 39.491Z" fill="#263238"/>
<path d="M31.5438 37.1228C31.5438 37.1006 31.5068 37.1599 31.5142 37.1821C31.6648 37.7329 31.7612 38.3924 31.2894 38.6986C31.2746 38.6986 31.2894 38.7357 31.3018 38.7283C31.8945 38.4936 31.7784 37.6193 31.5438 37.1228Z" fill="#263238"/>
<path d="M30.9066 36.6606C29.9928 36.8112 30.3608 38.6242 31.2055 38.4834C32.0502 38.3426 31.6698 36.5346 30.9066 36.6606Z" fill="#263238"/>
<path d="M34.7744 36.4214C34.7744 36.3991 34.8238 36.4387 34.8288 36.4609C34.9202 37.0265 35.1202 37.6588 35.6661 37.7452C35.6834 37.7452 35.6858 37.7773 35.6661 37.7798C35.0288 37.8045 34.772 36.9697 34.7744 36.4214Z" fill="#263238"/>
<path d="M35.1621 35.7341C36.0513 35.4872 36.4786 37.2877 35.6561 37.515C34.8336 37.7422 34.4162 35.9392 35.1621 35.7341Z" fill="#263238"/>
<path d="M31.4148 35.7421C31.2032 35.8806 30.9848 36.0084 30.7603 36.125C30.5484 36.2906 30.2882 36.3825 30.0193 36.3868C29.9341 36.3712 29.8563 36.3279 29.7983 36.2636C29.7402 36.1993 29.705 36.1175 29.6982 36.0311C29.6982 35.6606 29.9452 35.4087 30.2564 35.2235C30.55 35.026 30.9067 34.9449 31.2568 34.9962C31.3356 35.0131 31.4079 35.0524 31.4649 35.1095C31.5219 35.1666 31.5611 35.239 31.5779 35.3179C31.5946 35.3968 31.5881 35.4789 31.5591 35.5541C31.5302 35.6294 31.4801 35.6947 31.4148 35.7421Z" fill="#263238"/>
<path d="M35.5868 34.0497C35.3335 34.0494 35.0804 34.0353 34.8286 34.0077C34.5594 34.0297 34.2905 33.9629 34.0629 33.8175C34.0025 33.7593 33.9626 33.683 33.9493 33.6001C33.9359 33.5173 33.9498 33.4324 33.9888 33.3581C34.1839 33.0444 34.547 32.9802 34.8977 32.9876C35.2516 32.9848 35.5939 33.1133 35.8585 33.3482C35.9113 33.4059 35.9469 33.4772 35.9613 33.5541C35.9757 33.6309 35.9684 33.7103 35.9402 33.7832C35.9119 33.8561 35.8639 33.9197 35.8015 33.9668C35.739 34.0138 35.6647 34.0426 35.5868 34.0497Z" fill="#263238"/>
<path d="M32.3638 41.603C33.0159 41.1732 33.947 41.072 34.5398 41.0226C34.604 41.0003 34.6361 40.862 34.6337 40.7978C34.6337 40.7781 34.3521 39.6221 34.3521 39.6221C34.5225 39.6666 35.3919 39.8691 35.3401 39.637C34.8461 37.8166 34.2928 35.7913 33.4135 34.0846C33.4089 34.0715 33.3993 34.0608 33.3868 34.0547C33.3743 34.0487 33.3599 34.0479 33.3468 34.0525C33.3337 34.0571 33.323 34.0667 33.317 34.0792C33.3109 34.0917 33.3101 34.1061 33.3147 34.1192C33.7247 35.8901 34.4385 37.5771 34.8782 39.3455C34.5677 39.2721 34.2483 39.2438 33.9297 39.2615C33.8729 39.2912 34.2953 40.4965 34.315 40.6867C34.315 40.6867 33.1122 40.5854 32.3119 41.3659C32.0946 41.5635 32.0526 41.808 32.3638 41.603Z" fill="#263238"/>
<path d="M31.2499 43.1614C31.4104 43.2602 31.5833 43.4084 31.7883 43.3861C31.9939 43.3377 32.1867 43.2459 32.3539 43.1169C32.3575 43.1142 32.3619 43.1127 32.3664 43.1128C32.3709 43.1129 32.3752 43.1145 32.3787 43.1174C32.3821 43.1203 32.3845 43.1242 32.3854 43.1286C32.3863 43.133 32.3856 43.1376 32.3836 43.1416C32.3273 43.2674 32.2382 43.3758 32.1257 43.4553C32.0131 43.5348 31.8812 43.5826 31.7439 43.5936C31.6245 43.5881 31.5095 43.5474 31.4132 43.4767C31.3169 43.4059 31.2438 43.3082 31.2029 43.196C31.1881 43.1663 31.2276 43.1466 31.2499 43.1614Z" fill="#263238"/>
<path d="M33.5368 40.741C33.0107 40.8447 31.3411 41.5215 31.756 42.297C31.9363 42.6379 32.497 42.4353 32.9267 41.9389C33.2022 41.5806 33.4091 41.1745 33.5368 40.741Z" fill="#263238"/>
<path d="M32.7122 42.1587C32.3318 42.4872 31.907 42.5811 31.7539 42.297C31.704 42.202 31.6833 42.0944 31.6943 41.9876C31.7053 41.8809 31.7475 41.7797 31.8156 41.6968C32.1367 41.6425 32.8209 41.5882 32.7122 42.1587Z" fill="#FF9ABB"/>
<path d="M35.6464 31.0416C33.1296 33.803 28.2935 31.6566 28.2935 31.6566C28.1922 32.3715 27.8626 33.0344 27.3539 33.5467C26.8452 34.059 26.1845 34.3932 25.4704 34.4995C25.4704 34.4995 26.073 39.7184 24.7294 40.0222C22.6843 40.489 20.4268 33.7116 20.7504 32.2C21.0739 30.6884 22.7263 29.9326 22.7263 29.9326C22.7263 29.9326 22.6053 28.8483 23.6402 27.5887C24.7813 26.1932 29.9286 26.4995 29.9286 26.4995C30.0515 25.7922 30.3392 25.1237 30.7683 24.5482C30.8705 24.406 31.0004 24.286 31.1503 24.1955C31.3002 24.105 31.4669 24.0458 31.6403 24.0215C31.8137 23.9973 31.9902 24.0085 32.1592 24.0544C32.3281 24.1004 32.486 24.1801 32.6233 24.2889C32.4555 24.7235 32.3888 25.1906 32.4281 25.6547C32.5368 27.1984 33.752 26.9119 33.4161 25.5658C33.3116 25.0578 33.0275 24.6044 32.6158 24.2889C33.0086 23.2663 33.92 22.7477 34.6239 23.0811C35.9107 23.6838 37.7409 28.7471 35.6464 31.0416Z" fill="#263238"/>
<path d="M25.2771 39.4887C25.2771 39.4887 22.9036 37.1793 21.8193 38.0759C20.735 38.9725 22.8789 42.5687 24.4003 42.8255C24.5931 42.8705 24.793 42.8763 24.9881 42.8427C25.1832 42.8092 25.3696 42.7368 25.5363 42.63C25.703 42.5232 25.8466 42.384 25.9586 42.2208C26.0707 42.0575 26.1488 41.8735 26.1885 41.6795L25.2771 39.4887Z" fill="#D3766A"/>
<path d="M22.4596 39.0914C22.4374 39.0914 22.4398 39.1259 22.4596 39.1309C23.534 39.3433 24.2355 40.1682 24.7838 41.0549C24.4182 40.7413 23.9761 40.6178 23.5488 41.0549C23.5266 41.0772 23.5488 41.1142 23.5859 41.1019C23.7503 41.0126 23.9384 40.9765 24.1242 40.9986C24.31 41.0207 24.4844 41.1 24.6232 41.2254C24.8542 41.4365 25.062 41.6717 25.2432 41.9268C25.3074 42.0083 25.4581 41.9268 25.4062 41.833C25.4012 41.8261 25.397 41.8186 25.3939 41.8107C25.174 40.5461 23.8477 38.958 22.4596 39.0914Z" fill="#263238"/>
<path d="M24.3688 51.4751C25.4396 53.1605 26.931 54.5378 28.6961 55.4714C29.5521 55.9463 30.5109 56.2057 31.4896 56.2272C32.0006 56.2433 32.5046 56.1038 32.9345 55.827C33.3278 55.5093 33.6316 55.0948 33.8162 54.6242C34.0409 54.0939 34.1841 53.5326 34.2411 52.9595C34.3148 52.3143 34.3429 51.6648 34.325 51.0157C34.325 50.991 34.3621 50.9934 34.3621 51.0157C34.3794 51.6307 34.4485 52.2506 34.4214 52.8582C34.4093 53.401 34.3262 53.9399 34.1744 54.4612C34.0264 54.9584 33.7737 55.4182 33.4334 55.8097C33.0689 56.1981 32.5792 56.4456 32.0503 56.5087C31.0166 56.6285 29.9705 56.4449 29.0394 55.9802C28.1054 55.5474 27.2446 54.9716 26.488 54.2735C25.6207 53.4728 24.8899 52.5359 24.3244 51.4998C24.2947 51.4652 24.3565 51.4405 24.3688 51.4751Z" fill="#263238"/>
<path d="M41.616 80.8794C43.4512 84.446 48.2403 81.8477 49.2728 79.2468C51.7155 73.1388 52.4664 60.2953 51.7995 54.3848C51.5846 52.4829 39.4326 54.2514 38.9757 56.2446C38.5064 58.3317 37.8939 73.6402 41.616 80.8794Z" fill="#D3766A"/>
<path d="M51.6953 55.2912C51.6953 55.2912 52.1893 51.4406 52.4783 48.0544C52.6364 46.1649 52.2313 42.3119 51.7102 40.8719C50.9346 38.7157 46.3134 30.1945 44.2239 31.2714C42.3319 32.2445 47.2322 39.0615 47.2322 39.0615C47.2322 39.0615 42.895 31.7456 40.8327 33.3387C38.7703 34.9318 45.3304 41.8945 45.3304 41.8945C45.3304 41.8945 40.7067 34.4847 38.8394 36.4607C37.4291 37.955 43.0161 44.6113 43.0161 44.6113C43.0161 44.6113 38.9975 38.2637 37.4785 39.7382C35.8039 41.3684 40.5733 47.8247 40.5733 47.8247C37.3624 52.2211 36.703 54.9701 39.2667 57.6031C39.6817 58.0106 51.6953 55.2912 51.6953 55.2912Z" fill="#D3766A"/>
<path d="M48.8927 41.4941C48.416 40.6172 47.9368 39.7256 47.3835 38.8932C46.8303 38.0609 46.2449 37.2483 45.6151 36.4703C44.0689 34.566 42.8043 33.6151 42.8759 33.6817C44.5728 35.2724 46.6055 38.2214 47.1588 39.0538C47.712 39.8862 48.3073 40.6864 48.863 41.5237C48.8778 41.5385 48.905 41.5089 48.8927 41.4941Z" fill="#263238"/>
<path d="M45.9261 43.5515C45.2666 42.4573 44.6516 41.3484 43.9502 40.2814C43.2487 39.2144 42.4855 38.2783 41.71 37.2681C41.6507 37.1915 41.6285 37.2483 41.6853 37.3298C42.4262 38.3672 43.019 39.3848 43.7402 40.432C44.4614 41.4793 45.2222 42.4993 45.9088 43.5688C45.9113 43.5861 45.936 43.5688 45.9261 43.5515Z" fill="#263238"/>
<path d="M43.6953 45.7748C42.7275 44.0364 41.5864 42.4004 40.2893 40.8918C40.2275 40.8177 40.2078 40.8918 40.2671 40.9758C41.4304 42.5392 42.3467 43.873 43.636 45.8094C43.6558 45.839 43.7151 45.8118 43.6953 45.7748Z" fill="#263238"/>
<path d="M40.6059 35.3913C40.4785 35.0374 40.4077 34.6657 40.396 34.2897C40.4058 33.9446 40.537 33.614 40.7665 33.3561C40.7813 33.3388 40.8085 33.3561 40.7912 33.3808C40.4973 33.6278 40.4923 34.107 40.5442 34.4552C40.6039 34.796 40.694 35.1308 40.8134 35.4555C40.9358 35.7939 41.0802 36.1239 41.2456 36.4435C41.402 36.762 41.5751 37.072 41.7643 37.3722C41.7661 37.3747 41.7671 37.3777 41.7671 37.3808C41.7671 37.3839 41.7661 37.3869 41.7643 37.3895C41.7627 37.3911 41.7608 37.3924 41.7587 37.3933C41.7565 37.3942 41.7543 37.3947 41.752 37.3947C41.7497 37.3947 41.7474 37.3942 41.7453 37.3933C41.7432 37.3924 41.7412 37.3911 41.7396 37.3895C41.3847 36.9694 40.9421 36.6322 40.4429 36.4015C40.2158 36.2757 39.9615 36.207 39.7019 36.2014C39.4619 36.2159 39.2353 36.3175 39.0648 36.4871C38.8943 36.6567 38.7915 36.8827 38.7757 37.1227C38.7777 37.3637 38.8237 37.6022 38.9116 37.8266C39.0822 38.3478 39.2818 38.859 39.5093 39.358C39.6353 39.6346 39.7563 39.9063 39.9119 40.173C40.0675 40.4398 40.2231 40.6967 40.3491 40.9708C40.3491 40.9881 40.2947 41.0029 40.2824 40.9931C40.1144 40.8523 38.9338 39.7087 38.2249 39.6494C38.0433 39.6244 37.8585 39.657 37.6963 39.7425C37.5342 39.828 37.4029 39.9621 37.3209 40.1261C37.1562 40.4811 37.1136 40.8806 37.1999 41.2623C37.3469 41.9181 37.5426 42.5621 37.7853 43.1888C37.7853 43.2086 37.7606 43.2184 37.7532 43.1888C37.5679 42.7319 37.1653 41.7513 37.0394 41.2746C36.9146 40.8768 36.9365 40.4474 37.1011 40.0644C37.1792 39.891 37.3016 39.7413 37.456 39.6303C37.6103 39.5193 37.7912 39.4509 37.9804 39.4321C38.3743 39.4457 38.7531 39.587 39.0598 39.8347C39.4383 40.1271 39.7987 40.4422 40.1391 40.7782C40.023 40.6102 39.5167 39.7285 39.3833 39.4592C39.1111 38.9211 38.8783 38.3639 38.6868 37.7921C38.5164 37.2981 38.4719 36.7473 38.8721 36.3348C39.0547 36.1621 39.2857 36.0492 39.5341 36.0113C39.7826 35.9733 40.0368 36.0121 40.2626 36.1224C40.6301 36.2789 40.9651 36.5025 41.2506 36.7819C41.1789 36.6806 41.1098 36.5744 41.048 36.4657C40.8665 36.1226 40.7185 35.7628 40.6059 35.3913Z" fill="#263238"/>
<path d="M39.8105 75.6653C40.0353 76.3223 40.2477 76.9793 40.4922 77.6264C40.7368 78.2735 40.9714 78.9206 41.2332 79.5529C41.4841 80.1782 41.8021 80.7745 42.1817 81.3312C42.2265 81.3965 42.276 81.4584 42.3299 81.5165L42.4879 81.6746C42.6134 81.7765 42.7463 81.869 42.8856 81.9512C43.1611 82.1151 43.4602 82.2359 43.7723 82.3093C44.0855 82.3809 44.4076 82.4059 44.7281 82.3834C45.0523 82.3544 45.3717 82.2855 45.6791 82.1784C46.3088 81.951 46.899 81.6259 47.4278 81.2152C47.7044 81.02 47.9563 80.7854 48.2132 80.5656C48.4594 80.338 48.6775 80.0818 48.8628 79.8024C49.2485 79.2328 49.5443 78.6071 49.7396 77.9475C49.6324 78.6399 49.4059 79.3084 49.0702 79.9234C48.8959 80.2359 48.6844 80.5261 48.4404 80.7879C48.1979 81.0462 47.9415 81.2911 47.6723 81.5214C47.1287 81.9905 46.5089 82.3631 45.8396 82.623C45.4962 82.7513 45.1375 82.8344 44.7726 82.87C44.4013 82.8996 44.0277 82.8747 43.6636 82.7959C43.303 82.7064 42.9582 82.5623 42.6411 82.3686C42.4823 82.2726 42.3312 82.1644 42.1891 82.045L41.9816 81.8376C41.9196 81.7668 41.8626 81.6917 41.8112 81.6128C41.4231 81.0159 41.1112 80.3729 40.8825 79.6986C40.4133 78.3864 40.0547 77.0373 39.8105 75.6653Z" fill="#263238"/>
<path d="M40.1597 23.6619L43.126 19.4088L44.5858 20.8956L47.2631 17.6897L48.792 19.2927L44.4524 22.0861L43.289 20.6363L40.1597 23.6619Z" fill="#455A64"/>
<path d="M39.2139 26.0281L43.3065 25.1143L43.309 26.4208L46.2828 26.6209L46.3124 28.0189L42.321 27.2977L42.6347 26.0182L39.2139 26.0281Z" fill="#455A64"/>
<path d="M37.8404 23.6621L37.5391 19.7226L38.942 19.893L38.9123 16.6821L40.4758 16.5142L39.5891 20.6735L38.3418 20.4388L37.8404 23.6621Z" fill="#455A64"/>
<path d="M3.28516 99.8764L15.5285 99.8147L27.7743 99.7949L52.266 99.7529L76.7576 99.7949L89.0035 99.8147L101.247 99.8764L89.0035 99.9357L76.7576 99.9579L52.266 99.9999L27.7743 99.9579L15.5285 99.9357L3.28516 99.8764Z" fill="#263238"/>
<path d="M3.03907 18.7875C3.03756 20.412 3.48775 22.0049 4.33934 23.3883C5.19093 24.7716 6.41039 25.891 7.86146 26.6213C9.31254 27.3515 10.9381 27.664 12.5565 27.5237C14.1749 27.3834 15.7224 26.7959 17.0262 25.8268L21.3214 26.9234L19.5331 22.9246C20.162 21.7497 20.5147 20.4469 20.5644 19.1152C20.6141 17.7835 20.3595 16.458 19.82 15.2395C19.2805 14.0209 18.4703 12.9414 17.451 12.0831C16.4316 11.2247 15.23 10.61 13.9374 10.2858C12.6448 9.96162 11.2953 9.93639 9.9915 10.2121C8.6877 10.4877 7.46391 11.057 6.41318 11.8767C5.36246 12.6964 4.51244 13.7448 3.92777 14.9423C3.3431 16.1398 3.03916 17.4549 3.03907 18.7875Z" fill="white"/>
<path d="M3.03906 18.7873C3.04748 20.4051 3.50124 21.9894 4.35059 23.3665C4.56374 23.7094 4.79715 24.0393 5.04957 24.3544C5.31231 24.6596 5.59272 24.949 5.88934 25.2214C6.03465 25.3602 6.18717 25.4913 6.34628 25.6141L6.84026 25.9747C7.00327 26.0932 7.18358 26.1846 7.354 26.2933L7.60099 26.4464C7.68744 26.4958 7.78129 26.5354 7.87021 26.5798L8.41606 26.8268L8.98414 27.0293C9.17215 27.1002 9.36538 27.1564 9.5621 27.1973C9.75722 27.2418 9.94988 27.306 10.1475 27.3331C10.5425 27.4038 10.9419 27.4476 11.3429 27.464C11.7429 27.4904 12.1443 27.4846 12.5433 27.4468C13.3418 27.3721 14.1262 27.1884 14.8749 26.9009C15.6206 26.609 16.3235 26.2177 16.9644 25.7376L16.9965 25.7129H17.0385L21.3386 26.7898L21.2127 26.9404L19.4171 22.9614L19.3924 22.9095L19.422 22.8577C20.0405 21.6979 20.3876 20.4128 20.4372 19.0993C20.4869 17.7858 20.2377 16.4782 19.7085 15.2751C19.1706 14.0746 18.3765 13.0065 17.3818 12.1457C16.3773 11.2901 15.1902 10.6759 13.9116 10.3501C12.6297 10.0199 11.2898 9.98359 9.99187 10.2439C8.69368 10.5193 7.47345 11.0813 6.42037 11.8888C5.3712 12.7076 4.52169 13.754 3.93595 14.949C3.35021 16.144 3.04353 17.4564 3.03906 18.7873ZM3.03906 18.7873C3.04006 17.4549 3.34359 16.1401 3.92675 14.9421C4.50992 13.7441 5.35749 12.6942 6.40555 11.8715C7.45305 11.0374 8.67852 10.4556 9.98701 10.1712C11.2955 9.8868 12.6519 9.90744 13.9511 10.2315C15.2573 10.548 16.4738 11.1588 17.5078 12.0172C18.543 12.8819 19.367 13.9715 19.917 15.2029C20.467 16.4344 20.7286 17.7753 20.6816 19.1232C20.6392 20.4739 20.2814 21.7959 19.6369 22.9836V22.8774L21.4152 26.8811L21.5066 27.0861L21.2892 27.0293L16.999 25.9129L17.0731 25.8981C15.7545 26.8693 14.1907 27.4528 12.5581 27.5826C12.1537 27.6147 11.7473 27.6147 11.3429 27.5826C10.9382 27.5625 10.5354 27.5138 10.1376 27.4369C9.93506 27.4072 9.7424 27.3405 9.54728 27.2936C9.34901 27.2482 9.15422 27.1888 8.96438 27.1158L8.3963 26.9034C8.21353 26.8194 8.03323 26.728 7.85045 26.6391C7.75906 26.5922 7.66768 26.5526 7.57876 26.5033L7.33177 26.3427C7.16382 26.234 6.98351 26.1377 6.8205 26.0167L6.32652 25.6511C6.16685 25.5273 6.0143 25.3945 5.86958 25.2535C5.57169 24.9798 5.29122 24.6878 5.02981 24.3791C4.77774 24.0649 4.54593 23.7349 4.33577 23.3912C3.48761 22.0053 3.03886 20.4121 3.03906 18.7873Z" fill="#263238"/>
<path d="M10.6338 13.4944H12.6838L12.5455 21.0523H10.7721L10.6338 13.4944Z" fill="#3B5CCC"/>
<path d="M12.5454 21.9983H10.772V23.7717H12.5454V21.9983Z" fill="#3B5CCC"/>
</svg>
