<svg width="18" height="12" viewBox="0 0 18 12" fill="none" xmlns="http://www.w3.org/2000/svg">
<path fill-rule="evenodd" clip-rule="evenodd" d="M6.24159 0.000159434C7.11709 -0.00370031 7.99173 0.0625207 8.85566 0.198794L8.93439 0.211685C9.30089 0.270212 9.62894 0.323034 9.91642 0.46452C9.97386 0.492793 10.0298 0.524506 10.084 0.560615C10.1924 0.632876 10.2942 0.722432 10.3894 0.83513C10.6335 1.12428 10.7132 1.4368 10.7306 1.78553L11.0162 1.87694C11.2849 1.96274 11.5209 2.03771 11.7084 2.12128C11.9098 2.21212 12.0953 2.3285 12.2369 2.51738C12.3789 2.70563 12.4348 2.91166 12.4603 3.12383C12.4751 3.24918 12.4797 3.39213 12.4817 3.54922C12.3759 3.48451 12.2642 3.42794 12.1478 3.38164C11.9714 3.31151 11.7859 3.26432 11.5973 3.24102C11.5965 3.23332 11.5963 3.22503 11.5954 3.21758C11.5792 3.08549 11.5533 3.03557 11.5301 3.00547C11.5075 2.97484 11.4666 2.93567 11.3409 2.87949C11.2039 2.8182 11.0156 2.75737 10.7196 2.6621L10.7117 2.65976C10.704 2.818 10.6939 3.1413 10.6815 3.39102C9.86046 3.64125 9.26551 4.37888 9.2655 5.24993C9.26553 5.86317 9.56063 6.41007 10.0217 6.76752C9.70091 7.2614 9.02305 7.70065 8.51204 8.02964C7.99714 8.36117 7.37876 8.56919 6.64685 8.62496C6.66643 8.67412 6.67671 8.72702 6.67737 8.77965V9.75466H7.50743C7.74229 9.75469 7.97031 9.8332 8.15194 9.97615C8.17343 9.99308 8.19434 10.011 8.21419 10.0295C8.0783 10.3774 8.00428 10.7546 8.00424 11.148V11.2529C8.00427 11.303 8.01023 11.3523 8.01889 11.4H8.92584C8.85408 11.4 8.79185 11.3434 8.79157 11.2687V11.1639C8.79179 9.80012 9.93837 8.09835 11.3477 8.0982C12.1216 8.0982 12.758 8.57967 13.2272 9.26833C13.6122 9.83361 13.9082 10.5492 13.9083 11.1639L14.2126 11.2819L14.5168 11.4H14.8122C14.8132 11.3892 14.8146 11.378 14.8153 11.3672L14.8183 11.2687V11.1639C14.8182 10.267 14.5037 9.44091 13.9779 8.78258C14.3864 8.52658 14.8746 8.37711 15.3969 8.37711L15.5306 8.38004C16.5187 8.4283 17.362 9.00846 17.7583 9.82908C17.7928 9.90047 17.8239 9.97368 17.8514 10.0485C17.9476 10.3103 18 10.5921 18 10.8855V11.2758L17.9957 11.3496C17.9597 11.6908 17.679 11.9618 17.325 11.9965L17.2816 11.9982V12H7.2816V11.9848H2.7581C2.64276 11.9847 2.53151 11.9405 2.44988 11.8623C2.36839 11.784 2.32244 11.6771 2.32232 11.5664C2.32239 11.4558 2.36852 11.3494 2.44988 11.2711C2.53153 11.1927 2.64266 11.1486 2.7581 11.1486H3.85243L3.97938 10.5392C4.02542 10.3182 4.15037 10.1191 4.33185 9.97615C4.51348 9.83322 4.74151 9.75468 4.97637 9.75466H5.80642V8.77965C5.80708 8.72701 5.81735 8.67414 5.83694 8.62496C5.10498 8.56975 4.48636 8.36117 3.97145 8.02906C3.37993 7.6484 2.94955 7.12062 2.63604 6.52933L1.10288 5.71194C0.898759 5.60338 0.718912 5.50659 0.576767 5.41194C0.422446 5.30945 0.283942 5.18982 0.180049 5.02111C0.0774508 4.85301 0.036307 4.6783 0.0176997 4.49962C0.000303738 4.33419 2.30651e-07 4.13578 0 3.91192V3.83106C9.62657e-09 3.5588 3.95626e-05 3.32046 0.0231927 3.12383C0.0487292 2.91167 0.10518 2.70618 0.246575 2.51738C0.388195 2.3285 0.573777 2.21215 0.775736 2.12186C0.962049 2.0383 1.19857 1.96273 1.46725 1.87694L1.75288 1.78553C1.77088 1.43739 1.85058 1.12426 2.09406 0.83513C2.47544 0.384909 2.96349 0.305856 3.54971 0.211685L3.62783 0.198794C4.30302 0.0895625 5.18043 0.000177326 6.24159 0.000159434ZM4.97637 10.5908C4.94295 10.5908 4.91009 10.6022 4.88421 10.6224C4.8584 10.6428 4.84073 10.6718 4.83416 10.7033L4.74139 11.1486H7.33348V10.5908H4.97637ZM1.76387 2.66328C1.46793 2.75854 1.27954 2.81879 1.14255 2.88007C1.01687 2.93627 0.975977 2.97543 0.953343 3.00605C0.930188 3.03616 0.904251 3.08611 0.888037 3.21816C0.871243 3.36191 0.870948 3.55263 0.870948 3.85274V3.89317C0.867472 4.06738 0.87178 4.24256 0.883765 4.41642C0.89536 4.52509 0.914008 4.56906 0.931371 4.59689C0.948248 4.62472 0.979341 4.6625 1.07297 4.72521C1.17513 4.79317 1.31728 4.86921 1.54293 4.99006L2.16181 5.31936C1.91336 4.44437 1.81362 3.50749 1.7718 2.66035L1.76387 2.66328Z" fill="white"/>
<path d="M15.5562 4.79963C15.7395 4.79963 15.9214 4.83456 16.0909 4.90217C16.2604 4.96984 16.415 5.06932 16.545 5.19455C16.6749 5.3198 16.7784 5.46892 16.8489 5.63284C16.9194 5.79677 16.9556 5.97325 16.9557 6.15081C16.9557 6.32828 16.9193 6.50435 16.8489 6.6682C16.7784 6.83215 16.6749 6.9812 16.545 7.10649C16.415 7.23177 16.2604 7.33117 16.0909 7.39888C15.9213 7.46653 15.7396 7.50141 15.5562 7.50142C15.3728 7.5014 15.1911 7.46656 15.0216 7.39888C14.852 7.33117 14.6975 7.23178 14.5675 7.10649C14.4376 6.98122 14.334 6.83211 14.2635 6.6682C14.1932 6.50436 14.1568 6.32826 14.1567 6.15081C14.1568 5.97328 14.1931 5.79674 14.2635 5.63284C14.334 5.46899 14.4376 5.31976 14.5675 5.19455C14.6975 5.06935 14.8521 4.96983 15.0216 4.90217C15.1911 4.83454 15.3729 4.79964 15.5562 4.79963Z" fill="white"/>
<path d="M11.3477 3.95997C11.531 3.95997 11.7128 3.9949 11.8823 4.06251C12.0518 4.13018 12.2064 4.22968 12.3364 4.3549C12.4663 4.48014 12.5698 4.62928 12.6403 4.79318C12.7108 4.9571 12.7471 5.13361 12.7472 5.31116C12.7471 5.48861 12.7107 5.66471 12.6403 5.82855C12.5699 5.99247 12.4663 6.14157 12.3364 6.26683C12.2064 6.39208 12.0518 6.49154 11.8823 6.55922C11.7128 6.62684 11.531 6.66176 11.3477 6.66176C11.1643 6.66173 10.9825 6.62687 10.813 6.55922C10.6435 6.49153 10.4889 6.39205 10.3589 6.26683C10.2291 6.14162 10.1254 5.99237 10.055 5.82855C9.98464 5.66476 9.94823 5.48855 9.94816 5.31116C9.9482 5.13364 9.98457 4.95708 10.055 4.79318C10.1254 4.62931 10.229 4.48013 10.3589 4.3549C10.4889 4.22966 10.6435 4.1302 10.813 4.06251C10.9825 3.99485 11.1643 3.96 11.3477 3.95997Z" fill="white"/>
</svg>
