<svg width="20" height="20" viewBox="0 0 20 20" fill="none" xmlns="http://www.w3.org/2000/svg">
<path d="M10.1068 20C9.68619 19.9985 9.26604 19.9716 8.84868 19.9193C6.62653 19.6305 4.56244 18.6164 2.97788 17.0349C1.39332 15.4534 0.377232 13.3932 0.0878678 11.1754C-0.246322 8.66868 0.380098 6.12848 1.84181 4.06295C3.30351 1.99743 5.49272 0.558907 7.97144 0.0351779C8.24319 -0.0264107 8.52709 -0.00681821 8.78777 0.0915135C9.04844 0.189845 9.27435 0.362568 9.43735 0.588156C9.60438 0.821719 9.69891 1.09915 9.70917 1.38592C9.71943 1.67269 9.64497 1.95615 9.49506 2.20101C8.79062 3.40739 8.52174 4.81831 8.73325 6.19858C8.92923 7.46675 9.52499 8.63961 10.4341 9.54694C11.3432 10.4543 12.5183 11.0489 13.7889 11.2445C15.1733 11.4618 16.5903 11.1887 17.7942 10.4726C18.0417 10.3263 18.327 10.2559 18.6143 10.2703C18.9017 10.2846 19.1784 10.383 19.4101 10.5533C19.6364 10.7131 19.8098 10.9364 19.9085 11.1949C20.0072 11.4534 20.0265 11.7353 19.9642 12.0048C19.496 14.2672 18.2591 16.2986 16.4629 17.7555C14.6667 19.2124 12.4214 20.0053 10.1068 20ZM7.69442 1.95908C6.30142 2.36766 5.03888 3.13094 4.03089 4.17392C3.0229 5.2169 2.30414 6.50369 1.94523 7.90784C1.58632 9.31198 1.59962 10.7852 1.98382 12.1826C2.36802 13.5801 3.1099 14.8537 4.13656 15.8784C5.16321 16.9031 6.43932 17.6436 7.83948 18.027C9.23964 18.4105 10.7157 18.4238 12.1225 18.0655C13.5294 17.7073 14.8186 16.9899 15.8636 15.9839C16.9086 14.9778 17.6734 13.7177 18.0827 12.3274C16.9899 12.8591 15.7875 13.1279 14.5719 13.112C13.3562 13.0962 12.1612 12.7962 11.0827 12.2361C10.0042 11.6761 9.07227 10.8715 8.36157 9.88707C7.65087 8.90259 7.18123 7.76558 6.99033 6.56723C6.74738 4.99546 6.99312 3.38713 7.69442 1.95908Z" fill="white"/>
</svg>
