<svg width="15" height="15" viewBox="0 0 15 15" fill="none" xmlns="http://www.w3.org/2000/svg">
<path d="M7.5 15C9.25 15 10.7986 14.4689 12.1458 13.4067C13.4931 12.3444 14.3681 10.9867 14.7708 9.33333C14.8264 9.125 14.7847 8.93416 14.6458 8.76083C14.5069 8.5875 14.3194 8.48666 14.0833 8.45833C13.8611 8.43055 13.6597 8.47222 13.4792 8.58333C13.2986 8.69444 13.1736 8.86111 13.1042 9.08333C12.7708 10.3333 12.0833 11.3542 11.0417 12.1458C10 12.9375 8.81945 13.3333 7.5 13.3333C5.875 13.3333 4.49639 12.7675 3.36417 11.6358C2.23195 10.5042 1.66611 9.12555 1.66667 7.5C1.66722 5.87444 2.23306 4.49611 3.36417 3.365C4.49528 2.23389 5.87389 1.66778 7.5 1.66667C8.45833 1.66667 9.35417 1.88889 10.1875 2.33333C11.0208 2.77778 11.7222 3.38889 12.2917 4.16667H10.8333C10.5972 4.16667 10.3992 4.24667 10.2392 4.40667C10.0792 4.56667 9.99944 4.76444 10 5C10.0006 5.23555 10.0806 5.43361 10.24 5.59417C10.3994 5.75472 10.5972 5.83444 10.8333 5.83333H14.1667C14.4028 5.83333 14.6006 5.75333 14.76 5.59333C14.9194 5.43333 14.9994 5.23555 15 5V1.66667C15 1.43056 14.92 1.23278 14.76 1.07333C14.6 0.913889 14.4022 0.833889 14.1667 0.833333C13.9311 0.832778 13.7331 0.912778 13.5725 1.07333C13.4119 1.23389 13.3322 1.43167 13.3333 1.66667V2.79167C12.625 1.90278 11.7603 1.21528 10.7392 0.729167C9.71806 0.243056 8.63833 0 7.5 0C6.45833 0 5.4825 0.198056 4.5725 0.594167C3.6625 0.990278 2.87083 1.52472 2.1975 2.1975C1.52417 2.87028 0.989446 3.66194 0.593334 4.5725C0.197224 5.48305 -0.000554085 6.45889 1.90735e-06 7.5C0.000556946 8.54111 0.198335 9.51694 0.593334 10.4275C0.988335 11.3381 1.52306 12.1297 2.1975 12.8025C2.87194 13.4753 3.66361 14.01 4.5725 14.4067C5.48139 14.8033 6.45722 15.0011 7.5 15Z" fill="white"/>
</svg>
