<svg width="17" height="15" viewBox="0 0 17 15" fill="none" xmlns="http://www.w3.org/2000/svg">
<path d="M1.22314 14.925L16.4687 8.3124C16.6263 8.24446 16.7607 8.13115 16.8552 7.98654C16.9496 7.84194 17 7.67242 17 7.49909C17 7.32575 16.9496 7.15624 16.8552 7.01163C16.7607 6.86703 16.6263 6.75371 16.4687 6.68578L1.22314 0.0732097C1.09113 0.0149471 0.946862 -0.00914428 0.80335 0.00310866C0.659838 0.0153616 0.521598 0.0635733 0.401102 0.143395C0.280606 0.223216 0.181644 0.332136 0.113145 0.460328C0.0446455 0.588519 0.00876381 0.73195 0.00873672 0.87768L0 4.95307C0 5.39509 0.323259 5.77522 0.760095 5.82826L13.1051 7.49909L0.760095 9.16107C0.323259 9.22295 0 9.60309 0 10.0451L0.00873672 14.1205C0.00873672 14.7482 0.646518 15.1813 1.22314 14.925Z" fill="white"/>
</svg>
