<svg width="22" height="22" viewBox="0 0 22 22" fill="none" xmlns="http://www.w3.org/2000/svg">
<path d="M3.125 17.22C5.3412 15.6104 8.01098 14.7456 10.75 14.75C13.599 14.75 16.233 15.666 18.375 17.22M7.75 8.75C7.75 9.54565 8.06607 10.3087 8.62868 10.8713C9.19129 11.4339 9.95435 11.75 10.75 11.75C11.5456 11.75 12.3087 11.4339 12.8713 10.8713C13.4339 10.3087 13.75 9.54565 13.75 8.75C13.75 7.95435 13.4339 7.19129 12.8713 6.62868C12.3087 6.06607 11.5456 5.75 10.75 5.75C9.95435 5.75 9.19129 6.06607 8.62868 6.62868C8.06607 7.19129 7.75 7.95435 7.75 8.75ZM19.103 5.25C18.1928 3.8663 16.9529 2.73059 15.4948 1.94507C14.0367 1.15956 12.4062 0.748885 10.75 0.750002C5.227 0.750002 0.75 5.227 0.75 10.75C0.75 16.273 5.227 20.75 10.75 20.75C16.273 20.75 20.75 16.273 20.75 10.75C20.7487 10.0633 20.682 9.39667 20.55 8.75C20.55 8.75 20.0132 6.63371 19.103 5.25Z" stroke="white" stroke-width="1.5"/>
</svg>
