<svg width="16" height="15" viewBox="0 0 16 15" fill="none" xmlns="http://www.w3.org/2000/svg">
<path fill-rule="evenodd" clip-rule="evenodd" d="M10.4882 0C13.5319 0 15.9998 2.31321 16 5.16675L15.9923 5.43296C15.8446 8.16304 13.4369 10.3342 10.4882 10.3342L10.2051 10.327C9.14121 10.2764 8.15783 9.94189 7.33698 9.40432L5.07394 11.6508L6.42712 12.7076C6.93116 13.1015 6.99882 13.8039 6.57876 14.2766C6.15857 14.7491 5.40942 14.8133 4.90527 14.4195L3.43913 13.2741L2.05267 14.6509C1.60202 15.0982 0.849375 15.1183 0.372215 14.6958C-0.104603 14.2733 -0.126245 13.5683 0.324246 13.1211L5.72229 7.7621C5.24876 6.9994 4.97722 6.11285 4.97722 5.16675C4.97738 2.31331 7.44467 0.000169391 10.4882 0ZM10.4882 2.22831C8.75733 2.22848 7.35416 3.54398 7.354 5.16675C7.354 6.78966 8.75723 8.10575 10.4882 8.10592C12.2194 8.10592 13.6232 6.78976 13.6232 5.16675C13.6231 3.54387 12.2193 2.22831 10.4882 2.22831Z" fill="white"/>
</svg>
