<svg width="22" height="22" viewBox="0 0 22 22" fill="none" xmlns="http://www.w3.org/2000/svg">
<g clip-path="url(#clip0_4293_7700)">
<path d="M11 21C16.5228 21 21 16.5228 21 11C21 5.47715 16.5228 1 11 1C5.47715 1 1 5.47715 1 11C1 16.5228 5.47715 21 11 21Z" stroke="white" stroke-opacity="0.5" stroke-width="1.5" stroke-linecap="round" stroke-linejoin="round"/>
<path d="M7.7576 9.6485C8.50393 9.6485 9.10895 9.04348 9.10895 8.29715C9.10895 7.55082 8.50393 6.9458 7.7576 6.9458C7.01127 6.9458 6.40625 7.55082 6.40625 8.29715C6.40625 9.04348 7.01127 9.6485 7.7576 9.6485Z" fill="white" fill-opacity="0.5"/>
<path d="M14.2439 9.6485C14.9903 9.6485 15.5953 9.04348 15.5953 8.29715C15.5953 7.55082 14.9903 6.9458 14.2439 6.9458C13.4976 6.9458 12.8926 7.55082 12.8926 8.29715C12.8926 9.04348 13.4976 9.6485 14.2439 9.6485Z" fill="white" fill-opacity="0.5"/>
<path d="M14.7436 13.4326C14.3641 14.0899 13.8182 14.6358 13.1608 15.0153C12.5035 15.3948 11.7578 15.5946 10.9988 15.5946C10.2397 15.5946 9.49406 15.3948 8.8367 15.0153C8.17935 14.6358 7.63346 14.0899 7.25391 13.4326" stroke="white" stroke-opacity="0.5" stroke-width="1.5" stroke-linecap="round" stroke-linejoin="round"/>
</g>
<defs>
<clipPath id="clip0_4293_7700">
<rect width="22" height="22" fill="white"/>
</clipPath>
</defs>
</svg>
