<svg width="22" height="22" viewBox="0 0 22 22" fill="none" xmlns="http://www.w3.org/2000/svg">
<path d="M10.4755 2.04896H3.10567C2.54721 2.04896 2.01163 2.27081 1.61674 2.6657C1.22185 3.06059 1 3.59617 1 4.15463V18.8943C1 19.4528 1.22185 19.9884 1.61674 20.3833C2.01163 20.7782 2.54721 21 3.10567 21H17.8454C18.4038 21 18.9394 20.7782 19.3343 20.3833C19.7292 19.9884 19.951 19.4528 19.951 18.8943V11.5245M17.1873 1.65415C17.6062 1.2353 18.1743 1 18.7666 1C19.3589 1 19.927 1.2353 20.3459 1.65415C20.7647 2.07299 21 2.64107 21 3.2334C21 3.82574 20.7647 4.39381 20.3459 4.81265L10.8566 14.3029C10.6066 14.5527 10.2978 14.7355 9.95858 14.8346L6.93378 15.719C6.84319 15.7454 6.74715 15.747 6.65574 15.7236C6.56432 15.7001 6.48088 15.6526 6.41415 15.5859C6.34742 15.5191 6.29986 15.4357 6.27644 15.3443C6.25302 15.2528 6.2546 15.1568 6.28102 15.0662L7.1654 12.0414C7.26493 11.7025 7.44813 11.394 7.69814 11.1444L17.1873 1.65415Z" stroke="white" stroke-width="2" stroke-linecap="round" stroke-linejoin="round"/>
</svg>
