<svg width="23" height="22" viewBox="0 0 23 22" fill="none" xmlns="http://www.w3.org/2000/svg">
<path fill-rule="evenodd" clip-rule="evenodd" d="M11.4997 1.60423C9.72628 1.60423 8.02551 2.31106 6.77153 3.56923C5.51755 4.8274 4.81307 6.53385 4.81307 8.31317C4.81307 10.0925 5.51755 11.7989 6.77153 13.0571C8.02551 14.3153 9.72628 15.0221 11.4997 15.0221C13.2731 15.0221 14.9738 14.3153 16.2278 13.0571C17.4818 11.7989 18.1863 10.0925 18.1863 8.31317C18.1863 6.53385 17.4818 4.8274 16.2278 3.56923C14.9738 2.31106 13.2731 1.60423 11.4997 1.60423ZM3.20828 8.31317C3.20914 7.09763 3.47548 5.89705 3.98856 4.7959C4.50163 3.69475 5.24898 2.71979 6.17801 1.93962C7.10703 1.15945 8.19518 0.59303 9.36586 0.280208C10.5365 -0.0326146 11.7613 -0.0842346 12.954 0.12898C14.1468 0.342194 15.2784 0.815063 16.2694 1.51431C17.2603 2.21356 18.0865 3.1222 18.6898 4.1763C19.2932 5.2304 19.6589 6.40434 19.7614 7.61552C19.8638 8.82671 19.7005 10.0457 19.2829 11.1867L21.7307 13.7286C22.0057 14.0152 22.2346 14.2535 22.4058 14.4521C22.5748 14.6475 22.7482 14.8708 22.8498 15.1305C23.2071 16.0376 22.9204 17.111 22.0592 17.6391C21.8131 17.7916 21.5307 17.8538 21.2889 17.8946C21.0407 17.9375 20.7261 17.9698 20.3549 18.0095L20.3292 18.0116C19.8381 18.0642 19.7451 18.0803 19.6819 18.105C19.5828 18.1439 19.4934 18.2041 19.42 18.2815C19.3466 18.3588 19.2911 18.4514 19.2572 18.5526C19.2294 18.6278 19.2133 18.7383 19.1631 19.2439L19.1609 19.2675C19.1224 19.655 19.0903 19.9803 19.0507 20.2358C19.0122 20.4827 18.9544 20.766 18.8121 21.014C18.3093 21.8964 17.2512 22.227 16.3333 21.8373C16.0755 21.7278 15.8561 21.5443 15.67 21.3704C15.4774 21.1922 15.2495 20.9539 14.9746 20.6673L14.9532 20.6458L11.4997 16.9972L8.0419 20.6523L8.02585 20.6684C7.7509 20.955 7.52195 21.1933 7.33044 21.3715C7.14322 21.5454 6.9239 21.7289 6.66713 21.8384C5.74705 22.2281 4.69003 21.8974 4.1872 21.0151C4.04598 20.7671 3.98714 20.4848 3.94862 20.2358C3.90904 19.9814 3.87694 19.6561 3.8395 19.2697L3.83629 19.245C3.78707 18.7394 3.76996 18.6299 3.74321 18.5537C3.70936 18.4525 3.65378 18.3599 3.58039 18.2826C3.507 18.2052 3.4176 18.145 3.31848 18.1061C3.25429 18.0814 3.16121 18.0653 2.67014 18.0127L2.64554 18.0105C2.2743 17.9708 1.95976 17.9375 1.71155 17.8957C1.46976 17.856 1.18732 17.7926 0.940185 17.6402C0.0800197 17.1121 -0.206702 16.0387 0.14956 15.1316C0.252267 14.8718 0.424514 14.6486 0.593551 14.4532C0.764728 14.2546 0.993678 14.0163 1.2697 13.7297L3.71646 11.1878C3.37841 10.2674 3.20633 9.29405 3.20828 8.31317ZM4.46857 12.7239L2.44012 14.831C2.14484 15.138 1.94585 15.3441 1.80677 15.5062C1.74448 15.5718 1.68926 15.6437 1.64201 15.7209C1.54572 15.9678 1.64201 16.1761 1.76932 16.2609C1.77895 16.2641 1.83352 16.2823 1.97688 16.307C2.16945 16.3392 2.43691 16.3682 2.83918 16.4111L2.91942 16.4197C3.28317 16.4573 3.6052 16.4916 3.89299 16.6022C4.53383 16.8491 5.02383 17.3643 5.25385 18.0105C5.35656 18.2993 5.38865 18.6256 5.42503 19.0056L5.43359 19.0861C5.47424 19.5037 5.50206 19.7828 5.53415 19.9878C5.56197 20.1617 5.58337 20.2175 5.58443 20.2207C5.67002 20.3657 5.84548 20.4365 6.03912 20.3549C6.03912 20.3549 6.09262 20.3259 6.23812 20.1896C6.39325 20.0458 6.59117 19.8407 6.88538 19.5348L6.88752 19.5327L9.79753 16.4562C8.70477 16.2257 7.66959 15.7763 6.75394 15.135C5.83829 14.4937 5.061 13.6736 4.46857 12.7239ZM13.2018 16.4573C14.2949 16.2267 15.3303 15.7773 16.2462 15.1358C17.162 14.4943 17.9394 13.6739 18.5318 12.7239L20.5603 14.831C20.8556 15.138 21.0535 15.3441 21.1926 15.5062C21.3242 15.6565 21.3541 15.7155 21.3573 15.7209C21.4536 15.9678 21.3573 16.1761 21.2311 16.2609C21.2204 16.2641 21.1669 16.2823 21.0235 16.307C20.8299 16.3392 20.5635 16.3682 20.1602 16.4111L20.0799 16.4197C19.7172 16.4573 19.3942 16.4916 19.1064 16.6022C18.4666 16.8491 17.9755 17.3643 17.7455 18.0105C17.6428 18.2993 17.6107 18.6256 17.5743 19.0056L17.5658 19.0861C17.5251 19.5037 17.4973 19.7828 17.4652 19.9878C17.4385 20.1617 17.416 20.2175 17.416 20.2207C17.3304 20.3657 17.1539 20.4376 16.9592 20.3549H16.9613C16.9613 20.3549 16.9078 20.3259 16.7612 20.1896C16.54 19.9768 16.3242 19.7585 16.114 19.5348L16.1118 19.5327L13.2018 16.4573ZM11.5007 6.20281C11.4387 6.31015 11.3674 6.43681 11.2868 6.5828L11.1819 6.77172L11.1584 6.81466C11.0739 6.96924 10.9348 7.22471 10.7026 7.40183C10.4662 7.58216 10.1805 7.64442 10.0147 7.68092L9.96871 7.69058L9.76437 7.73674C9.57607 7.77968 9.42415 7.81403 9.29363 7.8473C9.37815 7.95142 9.48834 8.08238 9.6317 8.25091L9.77079 8.41407L9.80288 8.45057C9.91843 8.58475 10.1057 8.79943 10.1912 9.07853C10.2768 9.35332 10.2469 9.63671 10.2287 9.8149L10.2233 9.86535L10.2019 10.0833C10.1857 10.2477 10.171 10.4123 10.1581 10.577C10.2693 10.5277 10.3956 10.4697 10.5464 10.3999L10.7379 10.3119L10.7807 10.2904C10.9348 10.2185 11.2023 10.0929 11.4997 10.0929C11.7982 10.0929 12.0646 10.2185 12.2186 10.2915L12.2614 10.3119L12.454 10.3999C12.6038 10.4697 12.73 10.5287 12.8423 10.577L12.7974 10.0833L12.776 9.86535L12.7707 9.8149C12.7525 9.63564 12.7236 9.35332 12.8081 9.07853C12.8937 8.79943 13.0809 8.58475 13.1965 8.45057L13.2286 8.41407L13.3676 8.25091C13.511 8.08238 13.6212 7.95142 13.7068 7.8473C13.5763 7.8151 13.4233 7.77968 13.2361 7.73674L13.0317 7.69058L12.9857 7.67985C12.8188 7.64442 12.5342 7.58216 12.2967 7.40075C12.0646 7.22471 11.9255 6.96924 11.842 6.81573L11.8174 6.77172L11.7126 6.5828C11.6327 6.43681 11.5617 6.31015 11.4997 6.20281M10.4437 4.87819C10.6277 4.63667 10.9626 4.28781 11.4986 4.28781C12.0357 4.28781 12.3705 4.63667 12.5546 4.87819C12.73 5.10791 12.9076 5.42672 13.0895 5.75411L13.113 5.79812L13.2788 6.09546L13.3848 6.12015L13.588 6.16631L13.6394 6.17704C13.9903 6.25755 14.338 6.33591 14.6055 6.44218C14.9018 6.55919 15.3009 6.78568 15.456 7.28482C15.6079 7.77323 15.4164 8.18758 15.2495 8.45486C15.0944 8.70175 14.8601 8.97655 14.6183 9.25886L14.5862 9.29643L14.4471 9.46067L14.3594 9.56479L14.3722 9.7097L14.3936 9.92761L14.3979 9.97699C14.4354 10.3548 14.4707 10.7198 14.4568 11.0118C14.4439 11.3188 14.3712 11.7825 13.9561 12.097C13.5281 12.4233 13.0574 12.3525 12.7578 12.2655C12.4818 12.1872 12.1566 12.0358 11.8271 11.8845L11.781 11.863L11.5895 11.7739L11.4986 11.732L11.4077 11.775L11.2172 11.863L11.1702 11.8845C10.8417 12.0358 10.5154 12.1872 10.2394 12.2655C9.93982 12.3514 9.46909 12.4233 9.04114 12.097C8.62711 11.7825 8.55436 11.3188 8.54045 11.0128C8.52761 10.7198 8.56185 10.3548 8.59929 9.97699L8.60464 9.92761L8.62604 9.7097L8.63888 9.56479L8.55008 9.46067L8.411 9.29643L8.3789 9.25886C8.13818 8.97655 7.90282 8.70068 7.74769 8.45379C7.58079 8.18758 7.39035 7.77324 7.5412 7.28375C7.69633 6.78675 8.09646 6.55919 8.39174 6.44218C8.65921 6.33591 9.00798 6.25755 9.35889 6.17812L9.4081 6.16738L9.71943 6.09546L9.77935 5.98812L9.88419 5.79812L9.9088 5.75411C10.0907 5.42672 10.2672 5.10791 10.4437 4.87819Z" fill="#5E8BFF"/>
</svg>
