<svg width="18" height="17" viewBox="0 0 18 17" fill="none" xmlns="http://www.w3.org/2000/svg">
<path fill-rule="evenodd" clip-rule="evenodd" d="M13.6297 0.177637C13.5121 0.0639285 13.3525 7.2349e-05 13.1861 0C13.0196 0 12.8594 0.0637797 12.7416 0.177637C12.624 0.291414 12.5576 0.445891 12.5575 0.606787V1.2252C12.0033 1.21468 11.3931 1.2144 10.721 1.2144H7.27734C6.60604 1.2144 5.99583 1.21468 5.44169 1.2252V0.606787C5.44159 0.445891 5.37521 0.291414 5.25753 0.177637C5.13977 0.0637793 4.97959 0 4.81306 0C4.64678 0.000286469 4.48777 0.0647072 4.37026 0.178467C4.25276 0.292221 4.1862 0.446031 4.1861 0.606787V1.27666C3.96903 1.29285 3.76283 1.31327 3.56752 1.33809C2.58629 1.46599 1.79144 1.73449 1.16434 2.33999C0.538141 2.94626 0.26037 3.71475 0.128069 4.66338C0 5.58521 0 6.76522 0 8.25264V9.96281C0 11.4502 0 12.6284 0.128069 13.551C0.260354 14.4994 0.538395 15.2674 1.16434 15.8736C1.79144 16.4791 2.58627 16.7484 3.56752 16.8763C4.51982 17 5.74319 17 7.27902 17H10.7273C12.2632 17 13.4793 17 14.4325 16.8763C15.4137 16.7484 16.2086 16.4791 16.8357 15.8736C17.4616 15.2674 17.7396 14.4994 17.8719 13.551C18 12.6292 18 11.4492 18 9.96177V8.25161C18 6.76419 18 5.58602 17.8719 4.66338C17.7396 3.71475 17.4619 2.94626 16.8357 2.33999C16.2086 1.73449 15.4137 1.46599 14.4325 1.33809C14.2377 1.31327 14.0315 1.29285 13.8139 1.27666V0.606787C13.8138 0.445891 13.7474 0.291414 13.6297 0.177637ZM4.81306 11.5356C4.59111 11.5357 4.37821 11.6212 4.22126 11.773C4.0644 11.9247 3.97609 12.1304 3.976 12.3449C3.976 12.5596 4.06426 12.7659 4.22126 12.9177C4.37821 13.0694 4.59111 13.155 4.81306 13.1551C5.03511 13.1551 5.24868 13.0695 5.40569 12.9177C5.56261 12.7659 5.65095 12.5595 5.65095 12.3449C5.65086 12.1305 5.56247 11.9247 5.40569 11.773C5.24868 11.6212 5.03511 11.5356 4.81306 11.5356ZM8.99916 11.5356C8.77726 11.5357 8.56428 11.6213 8.40737 11.773C8.25055 11.9247 8.1622 12.1304 8.16211 12.3449C8.16211 12.5596 8.25041 12.7659 8.40737 12.9177C8.56428 13.0694 8.77726 13.155 8.99916 13.1551C9.22122 13.1551 9.43478 13.0695 9.5918 12.9177C9.74876 12.7659 9.83705 12.5596 9.83705 12.3449C9.83697 12.1304 9.74862 11.9247 9.5918 11.773C9.43478 11.6212 9.22122 11.5356 8.99916 11.5356ZM13.1861 11.5356C12.9641 11.5356 12.7505 11.6212 12.5935 11.773C12.4367 11.9247 12.3483 12.1305 12.3482 12.3449C12.3482 12.5595 12.4366 12.7659 12.5935 12.9177C12.7505 13.0695 12.9641 13.1551 13.1861 13.1551C13.4081 13.155 13.621 13.0694 13.7779 12.9177C13.9349 12.7659 14.0232 12.5596 14.0232 12.3449C14.0231 12.1304 13.9348 11.9247 13.7779 11.773C13.621 11.6212 13.4081 11.5357 13.1861 11.5356ZM4.81306 8.29746C4.59111 8.29753 4.37821 8.38311 4.22126 8.53486C4.0644 8.68659 3.9761 8.89226 3.976 9.10679C3.976 9.32147 4.06427 9.52773 4.22126 9.67954C4.37821 9.83129 4.59111 9.91687 4.81306 9.91694C5.03511 9.91694 5.24868 9.83136 5.40569 9.67954C5.56259 9.52774 5.65095 9.3214 5.65095 9.10679C5.65085 8.89233 5.56247 8.68657 5.40569 8.53486C5.24868 8.38305 5.03511 8.29746 4.81306 8.29746ZM8.99916 8.29746C8.77726 8.29757 8.56428 8.38314 8.40737 8.53486C8.25054 8.68658 8.16221 8.89229 8.16211 9.10679C8.16211 9.32144 8.25042 9.52774 8.40737 9.67954C8.56428 9.83126 8.77726 9.91684 8.99916 9.91694C9.22122 9.91694 9.43478 9.83136 9.5918 9.67954C9.74874 9.52774 9.83705 9.32144 9.83705 9.10679C9.83696 8.89229 9.74862 8.68658 9.5918 8.53486C9.43478 8.38305 9.22122 8.29746 8.99916 8.29746ZM13.1861 8.29746C12.9641 8.29746 12.7505 8.38305 12.5935 8.53486C12.4367 8.68657 12.3483 8.89232 12.3482 9.10679C12.3482 9.32141 12.4366 9.52774 12.5935 9.67954C12.7505 9.83136 12.9641 9.91694 13.1861 9.91694C13.4081 9.91687 13.621 9.83129 13.7779 9.67954C13.9349 9.52773 14.0232 9.32147 14.0232 9.10679C14.0231 8.89226 13.9348 8.68659 13.7779 8.53486C13.621 8.38311 13.4081 8.29753 13.1861 8.29746ZM7.32506 2.42798C5.72844 2.42798 4.59478 2.42999 3.73326 2.5417C2.89202 2.65096 2.40659 2.85683 2.05246 3.19912C1.69834 3.54151 1.48497 4.01103 1.37193 4.82441C1.35295 4.96202 1.33678 5.10778 1.32338 5.26104H16.6758C16.6624 5.10778 16.6462 4.96173 16.6272 4.82358C16.5142 4.01021 16.3008 3.54067 15.9467 3.19829C15.5926 2.85601 15.1071 2.65013 14.2651 2.54087C13.4052 2.42916 12.2707 2.42798 10.6741 2.42798H7.32506Z" fill="white"/>
</svg>
