<svg width="20" height="20" viewBox="0 0 20 20" fill="none" xmlns="http://www.w3.org/2000/svg">
<path d="M19.2928 6.85098C20.4891 5.65475 19.9436 4.25755 19.2928 3.57809L16.4217 0.707122C15.2159 -0.489113 13.8282 0.0563701 13.1487 0.707122L11.5217 2.34357H9.04296C7.22459 2.34357 6.17185 3.30056 5.63591 4.4011L1.38666 8.65012V12.4781L0.707159 13.148C-0.489139 14.3538 0.056373 15.7414 0.707159 16.4209L3.57827 19.2918C4.09507 19.8086 4.65016 20 5.17653 20C5.85602 20 6.4781 19.6651 6.85134 19.2918L9.43535 16.6984H12.8711C14.4981 16.6984 15.3211 15.684 15.6178 14.6887C16.6993 14.4016 17.2926 13.5786 17.5319 12.7747C19.0153 12.3919 19.5704 10.9852 19.5704 9.99947V7.12851H19.0057L19.2928 6.85098ZM17.6563 9.99947C17.6563 10.4301 17.4745 10.9565 16.6993 10.9565H15.7422V11.9135C15.7422 12.3441 15.5604 12.8704 14.7852 12.8704H13.8282V13.8274C13.8282 14.2581 13.6463 14.7844 12.8711 14.7844H8.65058L5.51149 17.9233C5.21481 18.2009 5.04254 18.0382 4.93727 17.9329L2.07572 15.0811C1.79818 14.7844 1.96088 14.6122 2.06615 14.5069L3.30073 13.2628V9.43485L5.21481 7.52088V9.04249C5.21481 10.2004 5.98044 11.9135 8.08592 11.9135C10.1914 11.9135 10.957 10.2004 10.957 9.04249H17.6563V9.99947ZM17.9338 5.49206L16.3069 7.12851H9.04296V9.04249C9.04296 9.47313 8.86113 9.99947 8.08592 9.99947C7.31072 9.99947 7.12889 9.47313 7.12889 9.04249V6.17152C7.12889 5.73131 7.29158 4.25755 9.04296 4.25755H12.3065L14.4885 2.07561C14.7852 1.79809 14.9575 1.96078 15.0627 2.06604L17.9243 4.91787C18.2018 5.21453 18.0391 5.38679 17.9338 5.49206Z" fill="white"/>
</svg>
