<svg width="30" height="20" viewBox="0 0 30 20" fill="none" xmlns="http://www.w3.org/2000/svg">
<path d="M27.5 6.25V5C27.5 4.3125 26.9375 3.75 26.25 3.75C25.5625 3.75 25 4.3125 25 5V6.25H23.75C23.0625 6.25 22.5 6.8125 22.5 7.5C22.5 8.1875 23.0625 8.75 23.75 8.75H25V10C25 10.6875 25.5625 11.25 26.25 11.25C26.9375 11.25 27.5 10.6875 27.5 10V8.75H28.75C29.4375 8.75 30 8.1875 30 7.5C30 6.8125 29.4375 6.25 28.75 6.25H27.5ZM10 10C12.7625 10 15 7.7625 15 5C15 2.2375 12.7625 0 10 0C7.2375 0 5 2.2375 5 5C5 7.7625 7.2375 10 10 10ZM10 11.25C6.6625 11.25 0 12.925 0 16.25V20H20V16.25C20 12.925 13.3375 11.25 10 11.25ZM15.6375 0.0625002C16.7875 1.3875 17.5 3.1125 17.5 5C17.5 6.8875 16.7875 8.6125 15.6375 9.9375C18.0875 9.625 20 7.55 20 5C20 2.45 18.0875 0.375 15.6375 0.0625002ZM20.6625 12.2875C21.775 13.325 22.5 14.625 22.5 16.25V20H25V16.25C25 14.4375 23.0125 13.1125 20.6625 12.2875Z" fill="white"/>
</svg>
