<svg width="23" height="24" viewBox="0 0 23 24" fill="none" xmlns="http://www.w3.org/2000/svg">
<path d="M10.75 2.30078C11.5309 2.30029 12.3065 2.38446 13.0635 2.55078C12.9117 3.02025 12.8134 3.51317 12.7725 4.02246C12.1114 3.87461 11.4335 3.79938 10.751 3.7998H10.75C5.64121 3.7998 1.5 7.94102 1.5 13.0498C1.5 15.0903 2.16219 16.9753 3.28125 18.5049C5.50085 17.0654 8.09422 16.2958 10.75 16.2998C13.503 16.2998 16.067 17.1108 18.2178 18.5049C19.3369 16.9755 19.9998 15.0911 20 13.0508C19.9987 12.4172 19.9371 11.8052 19.8174 11.2139C19.8138 11.2 19.809 11.179 19.8018 11.1523C19.7928 11.1195 19.78 11.0776 19.7656 11.0273C20.2767 10.9872 20.7711 10.889 21.2422 10.7373C21.2443 10.7452 21.2471 10.7526 21.249 10.7598C21.2578 10.7919 21.2649 10.8172 21.2695 10.835C21.2719 10.8439 21.2731 10.8514 21.2744 10.8564C21.275 10.8589 21.276 10.8608 21.2764 10.8623V10.8643L21.2773 10.8652L21.2812 10.8828L21.2852 10.8994C21.4275 11.5969 21.4986 12.3143 21.5 13.0488V13.0498C21.5 18.987 16.6872 23.7998 10.75 23.7998C4.81279 23.7998 0 18.987 0 13.0498C1.03073e-06 7.11292 4.81226 2.30131 10.749 2.30078L10.75 2.2998V2.30078ZM10.749 17.7998C8.45345 17.7961 6.20982 18.4414 4.27246 19.6514C5.94121 21.289 8.22715 22.2998 10.75 22.2998C13.2726 22.2998 15.5579 21.2887 17.2266 19.6514C15.3478 18.4784 13.1297 17.7998 10.75 17.7998H10.749ZM10.75 7.2998C11.7446 7.2998 12.6981 7.69518 13.4014 8.39844C14.1046 9.1017 14.5 10.0552 14.5 11.0498C14.5 12.0444 14.1046 12.9979 13.4014 13.7012C12.6981 14.4044 11.7446 14.7998 10.75 14.7998C9.75544 14.7998 8.80189 14.4044 8.09863 13.7012C7.39537 12.9979 7 12.0444 7 11.0498C7 10.0552 7.39537 9.1017 8.09863 8.39844C8.80189 7.69518 9.75544 7.2998 10.75 7.2998ZM10.75 8.7998C10.1533 8.7998 9.58114 9.03703 9.15918 9.45898C8.73722 9.88094 8.5 10.4531 8.5 11.0498C8.5 11.6465 8.73722 12.2187 9.15918 12.6406C9.58114 13.0626 10.1533 13.2998 10.75 13.2998C11.3467 13.2998 11.9189 13.0626 12.3408 12.6406C12.7628 12.2187 13 11.6465 13 11.0498C13 10.4531 12.7628 9.88094 12.3408 9.45898C11.9189 9.03703 11.3467 8.7998 10.75 8.7998ZM17.248 3.4707C16.7865 4.3352 16.9038 5.42727 17.6318 6.15527C18.0868 6.6101 18.6844 6.82445 19.2822 6.81152V5.4209L21.1221 7.26074L19.2891 9.09961V7.79297H19.25C18.4181 7.79297 17.5862 7.47502 16.9492 6.84473C16.4201 6.3151 16.0895 5.6188 16.0137 4.87402C15.9379 4.12926 16.1217 3.38119 16.5332 2.75586L17.248 3.4707ZM19.2109 1.3125C20.0558 1.2995 20.9073 1.6051 21.5508 2.25488C22.6557 3.35981 22.7928 5.08277 21.9609 6.34375L21.2451 5.62891C21.7066 4.76447 21.5902 3.67234 20.8623 2.94434C20.6514 2.73154 20.3998 2.56317 20.123 2.44824C19.8463 2.33331 19.5496 2.27368 19.25 2.27441H19.2109V3.67188L17.3711 1.83887L19.2109 0V1.3125Z" fill="white"/>
</svg>
