<svg width="18" height="12" viewBox="0 0 18 12" fill="none" xmlns="http://www.w3.org/2000/svg">
<path d="M16.5 3.75V3C16.5 2.5875 16.1625 2.25 15.75 2.25C15.3375 2.25 15 2.5875 15 3V3.75H14.25C13.8375 3.75 13.5 4.0875 13.5 4.5C13.5 4.9125 13.8375 5.25 14.25 5.25H15V6C15 6.4125 15.3375 6.75 15.75 6.75C16.1625 6.75 16.5 6.4125 16.5 6V5.25H17.25C17.6625 5.25 18 4.9125 18 4.5C18 4.0875 17.6625 3.75 17.25 3.75H16.5ZM6 6C7.6575 6 9 4.6575 9 3C9 1.3425 7.6575 0 6 0C4.3425 0 3 1.3425 3 3C3 4.6575 4.3425 6 6 6ZM6 6.75C3.9975 6.75 0 7.755 0 9.75V12H12V9.75C12 7.755 8.0025 6.75 6 6.75ZM9.3825 0.0375001C10.0725 0.8325 10.5 1.8675 10.5 3C10.5 4.1325 10.0725 5.1675 9.3825 5.9625C10.8525 5.775 12 4.53 12 3C12 1.47 10.8525 0.225 9.3825 0.0375001ZM12.3975 7.3725C13.065 7.995 13.5 8.775 13.5 9.75V12H15V9.75C15 8.6625 13.8075 7.8675 12.3975 7.3725Z" fill="white"/>
</svg>
