<svg width="10" height="10" viewBox="0 0 10 10" fill="none" xmlns="http://www.w3.org/2000/svg">
<path d="M5.05055 0C7.49397 0 9.53204 1.71777 10 4H8.80592C8.36102 2.35867 6.84886 1.1499 5.05055 1.1499C2.90276 1.1499 1.16153 2.8737 1.16153 5C1.16153 7.1263 2.90276 8.8501 5.05055 8.8501C6.27572 8.8501 7.368 8.28867 8.08089 7.41211V9C7.23675 9.62777 6.18762 10 5.05055 10C2.26121 10 0 7.76142 0 5C0 2.23858 2.26121 0 5.05055 0Z" fill="white"/>
<path d="M9.68779 8.88086V9.97607H8.58594V8.88086H9.68779Z" fill="white"/>
<path d="M9.68779 4.5V7.78564H8.58594V4.5H9.68779Z" fill="white"/>
<path d="M5.05006 2.22217C5.20864 2.22182 5.34197 2.27531 5.45006 2.38232C5.55813 2.48935 5.61209 2.6212 5.61134 2.77783V4.77783L7.01406 6.1665C7.11694 6.26836 7.16843 6.39826 7.16843 6.55566C7.1684 6.71298 7.11688 6.84252 7.01406 6.94434C6.91122 7.04614 6.78035 7.09712 6.62146 7.09717C6.46246 7.09717 6.33124 7.04619 6.22836 6.94434L4.65697 5.38867C4.60093 5.33316 4.55873 5.27085 4.5307 5.20166C4.50265 5.13241 4.48878 5.06028 4.48878 4.98584V2.77783C4.48878 2.62042 4.54281 2.48862 4.65055 2.38232C4.7583 2.27603 4.89144 2.22254 5.05006 2.22217Z" fill="white"/>
</svg>
