<svg width="16" height="20" viewBox="0 0 16 20" fill="none" xmlns="http://www.w3.org/2000/svg">
<path d="M6.76923 2.5H4.30769C3.742 2.5 3.18184 2.61316 2.65921 2.83303C2.13658 3.05289 1.6617 3.37515 1.26169 3.78141C0.861688 4.18766 0.544385 4.66996 0.327903 5.20076C0.111422 5.73156 0 6.30047 0 6.875C0 7.44953 0.111422 8.01844 0.327903 8.54924C0.544385 9.08004 0.861688 9.56234 1.26169 9.96859C1.6617 10.3748 2.13658 10.6971 2.65921 10.917C3.18184 11.1368 3.742 11.25 4.30769 11.25H6.76923V15H1.23077V17.5H6.76923V20H9.23077V17.5H11.6923C12.8348 17.5 13.9305 17.0391 14.7383 16.2186C15.5462 15.3981 16 14.2853 16 13.125C16 11.9647 15.5462 10.8519 14.7383 10.0314C13.9305 9.21094 12.8348 8.75 11.6923 8.75H9.23077V5H14.7692V2.5H9.23077V0H6.76923V2.5ZM9.23077 11.25H11.6923C12.1819 11.25 12.6515 11.4475 12.9977 11.7992C13.344 12.1508 13.5385 12.6277 13.5385 13.125C13.5385 13.6223 13.344 14.0992 12.9977 14.4508C12.6515 14.8025 12.1819 15 11.6923 15H9.23077V11.25ZM6.76923 8.75H4.30769C4.06525 8.75 3.82519 8.7015 3.6012 8.60727C3.37721 8.51305 3.1737 8.37494 3.00226 8.20083C2.83083 8.02672 2.69485 7.82002 2.60207 7.59253C2.50929 7.36505 2.46154 7.12123 2.46154 6.875C2.46154 6.62877 2.50929 6.38495 2.60207 6.15747C2.69485 5.92998 2.83083 5.72328 3.00226 5.54917C3.1737 5.37506 3.37721 5.23695 3.6012 5.14273C3.82519 5.0485 4.06525 5 4.30769 5H6.76923V8.75Z" fill="white"/>
</svg>
