<svg width="20" height="20" viewBox="0 0 20 20" fill="none" xmlns="http://www.w3.org/2000/svg">
<path d="M10 0C14.8379 0 18.8733 3.43553 19.7998 8H17.4355C16.5547 4.71734 13.5606 2.2998 10 2.2998C5.74741 2.2998 2.2998 5.74741 2.2998 10C2.2998 14.2526 5.74741 17.7002 10 17.7002C12.4258 17.7002 14.5885 16.5773 16 14.8242V18C14.3286 19.2555 12.2514 20 10 20C4.47715 20 0 15.5228 0 10C0 4.47715 4.47715 0 10 0ZM19.1816 17.7617V19.9521H17V17.7617H19.1816ZM19.1816 9V15.5713H17V9H19.1816ZM9.99902 4.44434C10.313 4.44365 10.577 4.55062 10.791 4.76465C11.005 4.9787 11.1118 5.2424 11.1104 5.55566V9.55566L13.8877 12.333C14.0914 12.5367 14.1934 12.7965 14.1934 13.1113C14.1933 13.426 14.0913 13.685 13.8877 13.8887C13.6841 14.0923 13.425 14.1942 13.1104 14.1943C12.7955 14.1943 12.5357 14.0924 12.332 13.8887L9.2207 10.7773C9.10976 10.6663 9.0262 10.5417 8.9707 10.4033C8.91516 10.2648 8.8877 10.1206 8.8877 9.97168V5.55566C8.8877 5.24085 8.99467 4.97724 9.20801 4.76465C9.42134 4.55206 9.68495 4.44508 9.99902 4.44434Z" fill="#EF4444"/>
</svg>
