<svg width="23" height="22" viewBox="0 0 23 22" fill="none" xmlns="http://www.w3.org/2000/svg">
<path d="M6.83333 6.88235H16.1667M6.83333 11.5882H13.8333M18.5 1C19.4283 1 20.3185 1.37185 20.9749 2.03374C21.6313 2.69563 22 3.59335 22 4.52941V13.9412C22 14.8772 21.6313 15.775 20.9749 16.4368C20.3185 17.0987 19.4283 17.4706 18.5 17.4706H12.6667L6.83333 21V17.4706H4.5C3.57174 17.4706 2.6815 17.0987 2.02513 16.4368C1.36875 15.775 1 14.8772 1 13.9412V4.52941C1 3.59335 1.36875 2.69563 2.02513 2.03374C2.6815 1.37185 3.57174 1 4.5 1H18.5Z" stroke="white" stroke-width="2" stroke-linecap="round" stroke-linejoin="round"/>
</svg>
