<svg width="20" height="18" viewBox="0 0 20 18" fill="none" xmlns="http://www.w3.org/2000/svg">
<path d="M16.2695 3.22292H15.3708L14.1313 1.02266C13.7904 0.402865 13.1086 0 12.3958 0H7.4375C6.72474 0 6.04297 0.402865 5.67109 1.02266L4.43151 3.22292H3.53281C1.58047 3.22292 0 4.80339 0 6.78672V7.99531H0.929688H6.47682C7.22057 6.91068 8.49115 6.19792 9.91667 6.19792C11.3422 6.19792 12.5818 6.91068 13.3565 7.99531H18.9036H19.8333V6.78672C19.8333 4.80339 18.2529 3.22292 16.2695 3.22292ZM4.12161 6.66276H3.5638C3.2849 6.66276 3.06797 6.44583 3.06797 6.16693C3.06797 5.88802 3.2849 5.67109 3.5638 5.67109H4.12161C4.40052 5.67109 4.61745 5.88802 4.61745 6.16693C4.58646 6.44583 4.36953 6.66276 4.12161 6.66276Z" fill="#0A1124"/>
<path d="M13.8523 8.9248C14.0383 9.38965 14.1313 9.88548 14.1313 10.4123C14.1313 12.7365 12.2409 14.6269 9.94766 14.6269C7.62344 14.6269 5.73307 12.7365 5.73307 10.4123C5.73307 9.88548 5.82604 9.38965 6.01198 8.9248H0.929688H0V14.0381C0 15.9904 1.61146 17.6019 3.5638 17.6019H16.2695C18.2219 17.6019 19.8333 15.9904 19.8333 14.0381V8.9248H18.9036H13.8523Z" fill="#0A1124"/>
<path d="M9.91649 13.6658C11.7139 13.6658 13.1704 12.2092 13.1704 10.3809C13.1704 9.76107 13.0155 9.17227 12.7056 8.70742C12.1477 7.77773 11.0941 7.12695 9.91649 7.12695C8.73889 7.12695 7.68524 7.74674 7.12743 8.70742C6.81753 9.20326 6.66258 9.79206 6.66258 10.3809C6.6316 12.2092 8.1191 13.6658 9.91649 13.6658Z" fill="#0A1124"/>
</svg>
