<svg width="20" height="20" viewBox="0 0 20 20" fill="none" xmlns="http://www.w3.org/2000/svg">
<g clip-path="url(#clip0_2726_6297)">
<path d="M14.7355 12.3713L14.7154 12.39L14.7319 12.4066C14.7013 12.5805 14.558 12.7266 14.3651 12.7407C14.3555 12.7417 14.3449 12.7417 14.3333 12.7417H13.5935C13.4831 12.7417 13.3865 12.6994 13.3159 12.6324C13.1935 12.516 13.1476 12.3265 13.2323 12.1586L13.3159 11.9917L13.6486 11.3239L13.7378 11.143V9.80593C13.6154 9.8719 13.4944 9.9354 13.372 9.99995C13.3533 10.0095 13.3332 10.0201 13.3155 10.0292C13.1049 10.1411 12.8957 10.2515 12.6865 10.3619C12.6019 10.4078 12.5172 10.4512 12.4336 10.496C12.5959 10.8463 12.6865 11.2357 12.6865 11.6471C12.6865 11.7882 12.676 11.9258 12.6548 12.0598C12.6276 12.2422 12.5832 12.4172 12.5218 12.5865C12.3419 13.0744 12.0279 13.4956 11.6247 13.8082C11.5728 13.848 11.5213 13.8858 11.4659 13.9211C11.1424 14.1363 10.771 14.2834 10.3713 14.3433C10.2372 14.3645 10.0996 14.3751 9.95851 14.3751C9.9504 14.3751 9.94334 14.3751 9.93488 14.374C9.78212 14.374 9.63255 14.361 9.48791 14.3342C9.09738 14.2671 8.73649 14.1165 8.42252 13.9027C8.36149 13.8615 8.30258 13.817 8.24507 13.7711C7.85596 13.4561 7.55363 13.0338 7.38536 12.5516C7.33491 12.4115 7.29716 12.2669 7.27247 12.1177C7.24425 11.9649 7.23013 11.8083 7.23013 11.6474C7.23013 11.2301 7.32433 10.835 7.49119 10.4808C7.39947 10.4314 7.30774 10.381 7.21602 10.3302C7.01494 10.2197 6.8128 10.1104 6.6103 9.9996C6.59267 9.99008 6.57397 9.97844 6.55386 9.96891L5.2627 9.26336C5.58372 9.10214 5.867 8.98572 6.17992 8.8365C6.22472 8.81533 6.26917 8.7931 6.31397 8.76947C6.3623 8.74583 6.41028 8.72255 6.45614 8.69891C6.48895 8.68233 6.52211 8.66716 6.55386 8.64952C6.55739 8.64846 6.55986 8.64705 6.56197 8.646C7.01 8.42128 7.45803 8.1955 7.905 7.97113C8.01894 7.91363 8.13183 7.85719 8.24472 7.79933C8.66206 7.59119 9.07833 7.38058 9.49602 7.17139C9.64172 7.0973 9.78883 7.02428 9.93453 6.9502C10.0816 7.02428 10.2263 7.0973 10.373 7.17139C10.7904 7.38199 11.2081 7.59119 11.6243 7.80039C11.7372 7.85683 11.8512 7.91434 11.9641 7.97078C12.4121 8.1955 12.859 8.42128 13.3071 8.64564C13.3095 8.6467 13.3131 8.64811 13.3152 8.64917C13.348 8.66681 13.3812 8.68339 13.414 8.69962C13.4609 8.72184 13.5082 8.74654 13.5551 8.76911C13.9209 8.95362 14.2864 9.13847 14.6522 9.32192C14.5182 9.39247 14.3841 9.46409 14.249 9.53464C14.2289 9.54628 14.2077 9.55687 14.1865 9.56745V11.1419L14.43 11.6287L14.6945 12.1579C14.7288 12.2274 14.7415 12.3001 14.7344 12.3706L14.7355 12.3713Z" fill="white"/>
<path d="M1.63591 6.41449L2.43107 7.20965C2.65226 7.43085 2.65191 7.78927 2.43107 8.01011L1.90967 8.53116C1.82147 8.61935 1.76432 8.73365 1.74809 8.85748C1.74562 8.87547 1.74351 8.89311 1.74139 8.9111C1.69482 9.26776 1.67048 9.63147 1.67048 10.0001C1.67048 10.3688 1.69482 10.7328 1.74139 11.0891C1.75127 11.1713 1.76326 11.2532 1.77702 11.3354C1.86874 11.9101 2.02079 12.466 2.2254 12.9952C2.43989 13.5526 2.71294 14.0818 3.03749 14.5732C3.10241 14.6723 3.16979 14.7704 3.24069 14.867C3.50175 15.2308 3.79314 15.574 4.11029 15.8901C4.36746 16.1473 4.64192 16.3886 4.93085 16.6091C4.95449 16.6274 4.97812 16.6454 5.00176 16.6634C5.22789 16.8348 5.54609 16.8112 5.74541 16.6091C6.36912 15.9765 7.83315 14.7785 9.99955 14.7785C12.166 14.7785 13.6314 15.9765 14.2551 16.6091C14.4544 16.8112 14.7726 16.8348 14.9988 16.6634C15.0224 16.6454 15.046 16.627 15.0697 16.6091C15.3586 16.3886 15.6331 16.1473 15.8902 15.8901C16.2074 15.574 16.4991 15.2311 16.7598 14.867C16.8307 14.7704 16.8981 14.6723 16.963 14.5732C17.2876 14.0821 17.561 13.5526 17.7751 12.9952C17.9797 12.466 18.1314 11.9097 18.2235 11.3354C18.2369 11.2532 18.2493 11.1713 18.2591 11.0891C18.3057 10.7325 18.33 10.3688 18.33 10.0001C18.33 9.63147 18.3057 9.2674 18.2591 8.9111V8.91004C18.257 8.8924 18.2549 8.87441 18.2524 8.85712C18.2362 8.73365 18.179 8.6197 18.0912 8.53151L17.5698 8.01011C17.349 7.78927 17.349 7.4312 17.5694 7.21036L17.7741 7.0054L18.3646 6.41485L18.4503 6.32912C18.7431 6.03632 19.2395 6.14744 19.3831 6.53585C19.4977 6.84629 19.5976 7.16379 19.6815 7.488C19.7083 7.59348 19.7341 7.6986 19.7574 7.80655V7.80761C19.8861 8.37841 19.9655 8.96649 19.9902 9.56938C19.9962 9.71261 20.0001 9.85619 20.0001 10.0005C20.0001 10.1448 19.9976 10.2883 19.9902 10.4305C19.9659 11.0331 19.8861 11.6211 19.7588 12.1923C19.7355 12.3002 19.7097 12.4068 19.6815 12.5119C19.5249 13.1208 19.3104 13.7075 19.0458 14.2663C18.8705 14.6413 18.6708 15.0025 18.4503 15.3493C18.3586 15.4939 18.263 15.6361 18.1649 15.7754C17.8365 16.2386 17.4703 16.6722 17.071 17.0715C16.9694 17.1731 16.8653 17.2723 16.7598 17.3693C16.4487 17.6547 16.1202 17.9207 15.7749 18.1655C15.547 18.3271 15.3117 18.4791 15.0693 18.6213C14.8083 18.7758 14.5402 18.9176 14.2657 19.0464C13.9778 19.1836 13.6825 19.306 13.3799 19.414C13.0955 19.517 12.8052 19.6062 12.5103 19.6821C12.4048 19.7103 12.2983 19.7361 12.1917 19.7594C12.0263 19.796 11.8587 19.8292 11.6894 19.8574C11.2777 19.9283 10.8575 19.9738 10.4299 19.9908C10.2867 19.9968 10.1431 20.0007 9.99885 20.0007C9.85456 20.0007 9.71098 19.9982 9.56881 19.9908C9.14125 19.9735 8.72109 19.9283 8.3094 19.8574C8.14042 19.8292 7.9725 19.7975 7.80704 19.7594C7.69909 19.7361 7.59397 19.7103 7.48848 19.6821H7.48743C7.19215 19.6062 6.90323 19.5166 6.61889 19.415C6.31621 19.306 6.02093 19.1836 5.73342 19.0464C5.4579 18.9176 5.18944 18.7758 4.92979 18.6213C4.68708 18.4791 4.45213 18.3274 4.22424 18.1655C3.87887 17.9203 3.55043 17.6547 3.23928 17.3693C3.1338 17.2726 3.02973 17.1731 2.92813 17.0715C2.52879 16.6722 2.16261 16.2386 1.83417 15.7754C1.7361 15.6357 1.6405 15.4936 1.54877 15.3493C1.32829 15.0025 1.12862 14.6413 0.953286 14.2663C0.688703 13.7078 0.474214 13.1208 0.317581 12.5119C0.289359 12.4064 0.263606 12.2999 0.240323 12.1923C0.112971 11.6215 0.0332428 11.0334 0.0089012 10.4305C0.00149288 10.2883 -0.000976562 10.1451 -0.000976562 10.0005C-0.000976562 9.85584 0.00255121 9.71261 0.0089012 9.56938C0.0332428 8.96684 0.112971 8.37876 0.241734 7.80761C0.265018 7.69966 0.29077 7.59312 0.317581 7.488C0.401542 7.16415 0.501378 6.84665 0.616031 6.53585C0.759611 6.14744 1.25597 6.03596 1.54877 6.32877L1.6345 6.41449H1.63591Z" fill="white"/>
<path d="M17.9568 4.22909C17.9568 4.68665 17.5853 5.05812 17.1277 5.05812C16.8797 5.05812 16.6575 4.94876 16.5068 4.7759C16.5139 4.78401 16.5209 4.79354 16.5291 4.80306C16.4913 4.77131 16.3915 4.68418 16.3139 4.55365C16.1597 4.38185 16.0165 4.23368 15.8905 4.10915C15.499 3.72462 15.1709 3.46956 15.0696 3.39054C14.9084 3.2646 14.744 3.14713 14.5733 3.03671C14.1958 2.78729 13.7961 2.56998 13.3798 2.38407C13.2528 2.32657 13.1234 2.27471 12.9942 2.22532C12.5744 2.06198 12.138 1.93357 11.69 1.84079C11.5725 1.8161 11.4547 1.79493 11.3362 1.77623C11.254 1.76212 11.1714 1.75154 11.0892 1.7399C10.7329 1.69404 10.3696 1.66934 9.99915 1.66934C9.62874 1.66934 9.26644 1.69404 8.91013 1.7399C8.82793 1.75048 8.74538 1.76212 8.66425 1.77623C8.54536 1.79387 8.42789 1.8161 8.31041 1.84079C7.85991 1.93251 7.42388 2.06198 7.00408 2.22426C6.87461 2.27471 6.74549 2.32657 6.61955 2.38301C6.20327 2.56892 5.80357 2.78765 5.4261 3.03671C5.25677 3.14713 5.09096 3.26495 4.92975 3.39054C4.90399 3.41065 4.86025 3.44452 4.8038 3.49038C4.70044 3.57399 4.43586 3.7913 4.10989 4.1088C3.96772 4.24744 3.80051 4.41677 3.61847 4.61926C3.6033 4.6369 3.58778 4.65454 3.57155 4.67218C3.42444 4.90396 3.16586 5.05777 2.872 5.05777C2.41444 5.05777 2.04297 4.68629 2.04297 4.22874C2.04297 4.01355 2.12517 3.81846 2.26063 3.67135C2.47124 3.41277 2.69349 3.16441 2.92844 2.92946H2.9295C3.0318 2.8261 3.13411 2.72732 3.23994 2.63207C3.55144 2.34526 3.88094 2.07927 4.22525 1.83585C4.4535 1.67252 4.68739 1.52082 4.92975 1.37971C5.18974 1.22555 5.45785 1.08338 5.73408 0.95391C6.0223 0.817385 6.31722 0.693913 6.61955 0.585963C6.92646 0.476602 7.21821 0.388408 7.48985 0.318911L7.80629 0.2413C7.97315 0.203552 8.14143 0.170744 8.31076 0.142522C8.72245 0.0730249 9.14332 0.0271638 9.57018 0.00952499C9.71235 0.00246944 9.85593 0 9.99951 0C10.1431 0 10.2877 0.00246944 10.4299 0.00952499C10.8568 0.0271638 11.279 0.0730249 11.6904 0.142522C11.8586 0.171803 12.0266 0.204964 12.1938 0.242358H12.1948C12.3007 0.264583 12.4054 0.290688 12.5113 0.318911C12.8066 0.395463 13.0958 0.484716 13.3802 0.587021C13.6825 0.695324 13.9774 0.817385 14.2656 0.95391C14.5408 1.08338 14.8089 1.22555 15.07 1.37971C15.3109 1.52082 15.5462 1.67252 15.7745 1.83585C16.1191 2.07927 16.4493 2.34491 16.7598 2.63207C16.8656 2.72732 16.9679 2.8261 17.0702 2.92946H17.0713C17.3066 3.16476 17.5288 3.41277 17.7391 3.67135C17.8742 3.81846 17.9568 4.01355 17.9568 4.22874V4.22909Z" fill="white"/>
<path d="M15.3322 6.72534C15.3322 7.21464 14.936 7.61081 14.4477 7.61081C14.289 7.61081 14.1408 7.56847 14.0138 7.49686C13.8844 7.42384 13.7764 7.31941 13.6988 7.19594C13.5577 6.99133 13.4014 6.7973 13.2307 6.61986C12.8437 6.21416 12.3865 5.88149 11.8806 5.64161C11.7934 5.60033 11.7053 5.56294 11.6149 5.52872C11.114 5.32869 10.5697 5.21933 10.0003 5.21933H9.99922C9.43019 5.21933 8.88691 5.32869 8.38456 5.52625C8.2939 5.56258 8.20464 5.60033 8.11751 5.64161C7.61198 5.88149 7.15548 6.21416 6.76743 6.61986C6.5981 6.79625 6.44393 6.9878 6.30282 7.19136C6.1476 7.44289 5.8689 7.61116 5.55141 7.61116C5.06351 7.61116 4.66699 7.21499 4.66699 6.72569C4.66699 6.4798 4.76824 6.25755 4.93052 6.09669C5.00213 5.99544 5.07621 5.89561 5.15277 5.7993C5.2773 5.64055 5.41029 5.48885 5.54894 5.34421C5.9123 4.96216 6.32258 4.62808 6.76708 4.34938C6.79071 4.33421 6.81399 4.31869 6.83869 4.30458C7.316 4.01424 7.83458 3.786 8.38385 3.63536C8.40855 3.62831 8.43571 3.62019 8.46252 3.61314C8.76944 3.532 9.08694 3.47661 9.41044 3.44627C9.6034 3.42616 9.80096 3.41699 9.99852 3.41699C10.1961 3.41699 10.3926 3.42652 10.5877 3.44627C10.9111 3.47696 11.2286 3.532 11.5342 3.61314C11.5613 3.62019 11.5881 3.62831 11.6142 3.63536C12.1621 3.786 12.6796 4.01389 13.1583 4.30564C13.183 4.31869 13.2077 4.33386 13.23 4.34903C13.6755 4.62772 14.0847 4.96286 14.4495 5.34386C14.5881 5.4885 14.7201 5.64019 14.8457 5.79894C14.9222 5.89525 14.9974 5.99544 15.0679 6.09775C15.2302 6.25755 15.3314 6.4798 15.3314 6.72569L15.3322 6.72534Z" fill="white"/>
</g>
<defs>
<clipPath id="clip0_2726_6297">
<rect width="20" height="20" fill="white"/>
</clipPath>
</defs>
</svg>
