<svg width="21" height="22" viewBox="0 0 21 22" fill="none" xmlns="http://www.w3.org/2000/svg">
<path d="M13.9447 17.0658C13.9447 17.5496 13.8492 18.0287 13.6635 18.4757C13.4778 18.9227 13.2056 19.3288 12.8625 19.6709C12.5194 20.013 12.112 20.2844 11.6637 20.4696C11.2154 20.6547 10.7349 20.75 10.2497 20.75C9.76445 20.75 9.28396 20.6547 8.83566 20.4696C8.38736 20.2844 7.98002 20.013 7.6369 19.6709C7.29379 19.3288 7.02161 18.9227 6.83592 18.4757C6.65022 18.0287 6.55465 17.5496 6.55465 17.0658M17.8836 17.0658H2.61679C2.24747 17.0656 1.88649 16.9563 1.57948 16.7516C1.27247 16.5469 1.03322 16.2561 0.891975 15.9158C0.750731 15.5756 0.713835 15.2012 0.785952 14.8401C0.858069 14.4789 1.03596 14.1472 1.29714 13.8868L1.93268 13.2521C2.5263 12.6599 2.85971 11.8568 2.85961 11.0195V8.11842C2.85961 6.16419 3.63821 4.29001 5.02411 2.90816C6.41002 1.52631 8.28972 0.75 10.2497 0.75C12.2097 0.75 14.0894 1.52631 15.4753 2.90816C16.8612 4.29001 17.6398 6.16419 17.6398 8.11842V11.0195C17.6399 11.8569 17.9737 12.66 18.5677 13.2521L19.2044 13.8868C19.465 14.1474 19.6424 14.4791 19.7143 14.8401C19.7861 15.201 19.7491 15.5751 19.6079 15.9152C19.4668 16.2552 19.2278 16.546 18.9211 16.7507C18.6144 16.9555 18.2527 17.0651 17.8836 17.0658Z" stroke="white" stroke-width="1.5" stroke-linecap="round" stroke-linejoin="round"/>
</svg>
