<svg width="20" height="20" viewBox="0 0 20 20" fill="none" xmlns="http://www.w3.org/2000/svg">
<path d="M9.20346 20C8.77249 20 8.3686 19.9048 7.9918 19.7143C7.61501 19.5238 7.29547 19.254 7.03319 18.9048L2 12.3095L2.43867 11.8333C2.74651 11.5 3.11592 11.3016 3.5469 11.2381C3.97787 11.1746 4.37807 11.2619 4.74747 11.5L6.45599 12.5714V4.76191C6.45599 4.49206 6.54465 4.26603 6.72196 4.08381C6.89928 3.90159 7.11846 3.81016 7.37951 3.80952C7.64056 3.80889 7.86374 3.90032 8.04906 4.08381C8.23438 4.2673 8.32673 4.49333 8.32612 4.76191V9.52381H15.2294C15.999 9.52381 16.6532 9.80159 17.1919 10.3571C17.7306 10.9127 18 11.5873 18 12.381V16.1905C18 17.2381 17.6383 18.1349 16.9149 18.881C16.1914 19.627 15.3218 20 14.3059 20H9.20346ZM3.38528 7.14286C3.18519 6.79365 3.03127 6.41683 2.92352 6.01238C2.81578 5.60794 2.7619 5.19111 2.7619 4.76191C2.7619 3.44444 3.21227 2.32159 4.11302 1.39333C5.01376 0.46508 6.10259 0.000635571 7.37951 6.50089e-07C8.65643 -0.000634271 9.74557 0.46381 10.6469 1.39333C11.5483 2.32286 11.9983 3.44571 11.9971 4.76191C11.9971 5.19048 11.9432 5.6073 11.8355 6.01238C11.7278 6.41746 11.5738 6.79429 11.3737 7.14286L9.78066 6.19048C9.9038 5.96825 9.99615 5.74222 10.0577 5.51238C10.1193 5.28254 10.1501 5.03238 10.1501 4.76191C10.1501 3.96825 9.88071 3.29365 9.34199 2.7381C8.80327 2.18254 8.14911 1.90476 7.37951 1.90476C6.60991 1.90476 5.95575 2.18254 5.41703 2.7381C4.87831 3.29365 4.60895 3.96825 4.60895 4.76191C4.60895 5.03175 4.63973 5.28191 4.7013 5.51238C4.76287 5.74286 4.85522 5.96889 4.97835 6.19048L3.38528 7.14286Z" fill="white"/>
</svg>
