<svg width="15" height="15" viewBox="0 0 15 15" fill="none" xmlns="http://www.w3.org/2000/svg">
<path d="M12.3565 10.1983L11.2775 9.11777L12.3565 8.03875C13.0668 7.32213 13.4644 6.35331 13.4622 5.34427C13.46 4.33524 13.0582 3.36817 12.3447 2.65467C11.6312 1.94117 10.6642 1.53936 9.65523 1.53715C8.64625 1.53494 7.67748 1.93252 6.9609 2.64288L5.88117 3.72266L4.8022 2.64364L5.88117 1.56462C6.88293 0.562812 8.24161 0 9.65831 0C11.075 0 12.4337 0.562812 13.4355 1.56462C14.4372 2.56644 15 3.92518 15 5.34196C15 6.75873 14.4372 8.11748 13.4355 9.11929L12.3565 10.1983ZM10.1978 12.3564L9.11883 13.4354C8.11707 14.4372 6.75839 15 5.34169 15C3.92498 15 2.5663 14.4372 1.56454 13.4354C0.562783 12.4336 1.49274e-08 11.0748 0 9.65804C-1.49274e-08 8.24127 0.562783 6.88252 1.56454 5.88071L2.64427 4.80168L3.72324 5.88223L2.64427 6.96125C1.94369 7.67976 1.55437 8.64537 1.56066 9.6489C1.56694 10.6524 1.96833 11.6131 2.67787 12.3228C3.3874 13.0324 4.34795 13.434 5.35143 13.4404C6.35492 13.4468 7.32053 13.0576 8.0391 12.3571L9.11883 11.2781L10.1978 12.3564ZM9.65831 4.26218L10.738 5.34196L5.34169 10.7371L4.26272 9.65804L9.65831 4.26218Z" fill="#5E8BFF"/>
</svg>
