<svg width="22" height="20" viewBox="0 0 22 20" fill="none" xmlns="http://www.w3.org/2000/svg">
<path d="M4 12V0H0V12H4ZM8 0C7.46957 0 6.96086 0.210714 6.58579 0.585787C6.21071 0.96086 6 1.46957 6 2V12C6 12.55 6.22 13.05 6.59 13.41L13.17 20L14.23 18.94C14.5 18.67 14.67 18.3 14.67 17.89L14.64 17.57L13.69 13H20C20.5304 13 21.0391 12.7893 21.4142 12.4142C21.7893 12.0391 22 11.5304 22 11V9C22 8.74 21.95 8.5 21.86 8.27L18.84 1.22C18.54 0.499999 17.83 0 17 0H8ZM8 2H17.03L20 9V11H11.21L12.34 16.32L8 11.97V2Z" fill="#5E8BFF"/>
</svg>
