<svg width="21" height="20" viewBox="0 0 21 20" fill="none" xmlns="http://www.w3.org/2000/svg">
<path d="M9.0791 0C10.9955 9.12572e-05 12.8346 0.758819 14.1904 2.11035C15.5463 3.462 16.3085 5.29647 16.3086 7.20898V7.86816C15.9553 7.79966 15.5901 7.76367 15.2168 7.76367C15.0795 7.76368 14.9435 7.76974 14.8086 7.7793V7.20898C14.8085 5.69581 14.2049 4.24356 13.1309 3.17285C12.0567 2.10221 10.5991 1.50009 9.0791 1.5C7.55912 1.5 6.10157 2.10234 5.02734 3.17285C3.95326 4.24356 3.34974 5.6958 3.34961 7.20898V9.75195L3.3457 9.92676C3.30247 10.7965 2.93609 11.6219 2.31641 12.2402L1.75977 12.7959L1.75879 12.7969C1.63513 12.9202 1.55073 13.0777 1.5166 13.248C1.48258 13.4185 1.5007 13.596 1.56738 13.7568C1.63422 13.9176 1.74779 14.0552 1.89355 14.1523C2.03939 14.2495 2.21085 14.3016 2.38672 14.3018H9.58008C9.65806 14.8289 9.80944 15.332 10.0215 15.8018H6.70703C6.72829 15.8685 6.75137 15.9351 6.77832 16C6.90321 16.3006 7.0864 16.5744 7.31738 16.8047C7.54838 17.035 7.82289 17.218 8.125 17.3428C8.42723 17.4676 8.75184 17.5312 9.0791 17.5312C9.40614 17.5312 9.73019 17.4674 10.0322 17.3428C10.2755 17.2423 10.4991 17.102 10.6982 16.9316C11.0055 17.331 11.3649 17.6876 11.7656 17.9932C11.4246 18.3033 11.0325 18.5531 10.6055 18.7295C10.1217 18.9292 9.60259 19.0312 9.0791 19.0312C8.55551 19.0312 8.0366 18.9293 7.55273 18.7295C7.06896 18.5297 6.62932 18.2365 6.25879 17.8672C5.88837 17.4979 5.59422 17.0589 5.39355 16.5762C5.28973 16.3262 5.21199 16.0662 5.16113 15.8018H2.38672C1.91512 15.8016 1.45393 15.662 1.06152 15.4004C0.669194 15.1389 0.362494 14.7675 0.181641 14.332C0.000892236 13.8965 -0.0464538 13.4165 0.0458984 12.9541C0.138335 12.4919 0.366322 12.0672 0.700195 11.7344L1.25684 11.1787V11.1777C1.63624 10.7991 1.84967 10.2861 1.84961 9.75195V7.20898C1.84974 5.29645 2.61187 3.462 3.96777 2.11035C5.32368 0.758933 7.16272 0 9.0791 0ZM15.6553 9.5166C16.264 9.5166 16.8344 9.6319 17.3662 9.86328C17.8981 10.0948 18.3613 10.4076 18.7549 10.8008C19.1483 11.1939 19.4609 11.6565 19.6924 12.1885C19.9239 12.7206 20.0394 13.291 20.0391 13.8994C20.0387 14.5077 19.9232 15.0783 19.6924 15.6104C19.4615 16.1423 19.149 16.605 18.7549 16.998C18.3607 17.3912 17.8974 17.7038 17.3662 17.9355C16.8351 18.1672 16.2646 18.2829 15.6553 18.2822C14.6324 18.2822 13.7269 17.9713 12.9395 17.3506C12.1523 16.7299 11.6407 15.9367 11.4053 14.9707C11.3728 14.849 11.3973 14.737 11.4785 14.6357C11.5597 14.5345 11.6696 14.4755 11.8076 14.459C11.9373 14.4428 12.0548 14.4675 12.1602 14.5322C12.2657 14.5971 12.3393 14.6944 12.3799 14.8242C12.5747 15.5547 12.9762 16.1516 13.585 16.6143C14.1938 17.0769 14.8841 17.3076 15.6553 17.3076C16.6051 17.3076 17.4114 16.9777 18.0732 16.3164C18.735 15.6551 19.0657 14.8492 19.0654 13.8994C19.0651 12.9495 18.7343 12.1434 18.0732 11.4824C17.4121 10.8214 16.6058 10.4909 15.6553 10.4902C15.0953 10.4903 14.5719 10.6203 14.085 10.8799C13.5979 11.1396 13.1873 11.4966 12.8545 11.9512H13.707C13.845 11.9512 13.9612 11.9983 14.0547 12.0918C14.148 12.1852 14.1947 12.301 14.1943 12.4385C14.1939 12.576 14.1468 12.6914 14.0537 12.7852C13.9605 12.879 13.845 12.9255 13.707 12.9248H11.7588C11.6209 12.9248 11.5053 12.8785 11.4121 12.7852C11.319 12.6917 11.2719 12.576 11.2715 12.4385V10.4902C11.2715 10.3523 11.3186 10.2367 11.4121 10.1436C11.5056 10.0504 11.6211 10.0033 11.7588 10.0029C11.8964 10.0026 12.0126 10.0498 12.1064 10.1436C12.2001 10.2373 12.2467 10.353 12.2461 10.4902V11.1475C12.66 10.6282 13.1651 10.2264 13.7617 9.94238C14.3585 9.65833 14.99 9.51662 15.6553 9.5166ZM15.6553 11.4639C15.793 11.4635 15.9091 11.5107 16.0029 11.6045C16.0967 11.6983 16.1432 11.8139 16.1426 11.9512V13.7041L17.3604 14.9219C17.4496 15.0111 17.4941 15.1248 17.4941 15.2627C17.4941 15.4006 17.4496 15.5142 17.3604 15.6035C17.2711 15.6927 17.1574 15.7372 17.0195 15.7373C16.8816 15.7373 16.768 15.6927 16.6787 15.6035L15.3145 14.2402C15.2658 14.1916 15.2294 14.1368 15.2051 14.0762C15.1807 14.0155 15.168 13.952 15.168 13.8867V11.9512C15.168 11.8132 15.2151 11.6977 15.3086 11.6045C15.4021 11.5113 15.5177 11.4642 15.6553 11.4639Z" fill="white"/>
</svg>
