<svg width="15" height="15" viewBox="0 0 15 15" fill="none" xmlns="http://www.w3.org/2000/svg">
<mask id="path-1-inside-1_2630_11960" fill="white">
<path d="M11.386 7.22904C12.1721 7.2289 12.9366 6.97255 13.5639 6.49881C14.1911 6.02507 14.6469 5.35978 14.862 4.60376C15.0771 3.84774 15.0399 3.0422 14.7561 2.30921C14.4722 1.57622 13.9571 0.955746 13.2889 0.541808C12.6207 0.127871 11.8357 -0.0569626 11.053 0.0153188C10.2703 0.0876001 9.53246 0.413056 8.95134 0.942365C8.37023 1.47167 7.9775 2.17598 7.83267 2.94856C7.68784 3.72114 7.79881 4.51987 8.14876 5.2237C8.21473 5.35156 8.23194 5.49904 8.1972 5.63865L7.98177 6.44324C7.96044 6.5229 7.96045 6.60678 7.9818 6.68643C8.00315 6.76609 8.04509 6.83872 8.10341 6.89703C8.16172 6.95535 8.23436 6.99729 8.31402 7.01864C8.39367 7.03999 8.47755 7.04 8.55721 7.01867L9.36182 6.80325C9.50144 6.7685 9.64892 6.78572 9.77678 6.85168C10.2768 7.10007 10.8277 7.22923 11.386 7.22904Z"/>
<path d="M9.68352 10.5132L10.0125 10.1669L9.22591 9.41943L8.89699 9.76715L9.68352 10.5132ZM11.0961 10.0209L12.4769 10.8161L13.0184 9.87559L11.6369 9.08039L11.0961 10.0209ZM12.7436 12.4636L11.7171 13.5443L12.5029 14.2918L13.5295 13.2111L12.7436 12.4636ZM11.099 13.8913C10.0616 13.9932 7.35427 13.9065 4.41632 10.8139L3.6305 11.56C6.83232 14.9308 9.88666 15.1015 11.2053 14.9706L11.099 13.8913ZM4.41632 10.8139C1.61428 7.86375 1.14438 5.37479 1.08582 4.28321L0.00288633 4.34176C0.0751784 5.67913 0.641949 8.41388 3.6305 11.56L4.41632 10.8139ZM5.41106 6.01528L5.61782 5.79769L4.832 5.05021L4.62452 5.26852L5.41106 6.01528ZM5.7812 3.07957L4.86959 1.79064L3.98401 2.41667L4.89489 3.70561L5.7812 3.07957ZM1.78344 1.51159L0.649901 2.70728L1.43644 3.45404L2.57143 2.25908L1.78344 1.51159ZM5.01779 5.64154C4.88769 5.51615 4.75635 5.39205 4.6238 5.26925L4.62018 5.27286L4.58404 5.31479C4.51325 5.40864 4.45718 5.51273 4.41777 5.62347C4.34692 5.82227 4.30933 6.0854 4.35704 6.4136C4.45102 7.05843 4.87393 7.92519 5.97783 9.08834L6.76437 8.34086C5.73204 7.25434 5.47757 6.58565 5.42986 6.25601C5.40672 6.09697 5.42986 6.01384 5.43925 5.98709L5.44504 5.97335C5.43727 5.98554 5.42831 5.99692 5.41829 6.00733L5.41178 6.01384C5.41178 6.01384 5.41034 6.01528 5.01779 5.64154ZM5.97783 9.08834C7.07884 10.2479 7.9102 10.7026 8.5442 10.806C8.87024 10.8587 9.1341 10.8161 9.33363 10.7373C9.44429 10.6941 9.54711 10.6331 9.63798 10.5566L9.66401 10.532L9.68136 10.5146C9.68136 10.5146 9.68352 10.5132 9.29025 10.1394C8.89699 9.76643 8.89771 9.76498 8.89771 9.76498L8.89915 9.76426L8.9006 9.76209L8.91144 9.75125L8.93819 9.72811C8.94542 9.72426 8.94446 9.7245 8.9353 9.72884C8.92084 9.73462 8.85578 9.75775 8.71842 9.73534C8.42781 9.68763 7.80031 9.43172 6.76437 8.34086L5.97783 9.08834ZM4.86959 1.79064C4.13655 0.753992 2.67047 0.578327 1.78416 1.51232L2.56926 2.25908C2.94734 1.86148 3.61388 1.89256 3.98401 2.41667L4.86959 1.79064ZM1.08582 4.28321C1.06992 3.99405 1.19643 3.70561 1.43644 3.45404L0.649901 2.70728C0.262415 3.11499 -0.0325368 3.68103 0.00288633 4.34176L1.08582 4.28321ZM11.7164 13.545C11.5147 13.7576 11.3043 13.8711 11.099 13.8913L11.2053 14.9706C11.7453 14.9178 12.1827 14.6294 12.5029 14.2918L11.7164 13.545ZM5.61782 5.79769C6.31833 5.06033 6.36676 3.90874 5.7812 3.07957L4.89489 3.70561C5.19997 4.13718 5.1537 4.71189 4.832 5.05021L5.61782 5.79769ZM12.4769 10.8161C13.0704 11.158 13.1868 11.9973 12.7436 12.4636L13.5295 13.2111C14.4729 12.2178 14.1982 10.5551 13.0184 9.87559L12.4769 10.8161ZM10.0125 10.1669C10.2908 9.87342 10.7253 9.80763 11.0961 10.0209L11.6369 9.08039C10.8424 8.62352 9.85847 8.75581 9.22591 9.42088L10.0125 10.1669Z"/>
</mask>
<path d="M9.68352 10.5132L10.0125 10.1669L9.22591 9.41943L8.89699 9.76715L9.68352 10.5132ZM11.0961 10.0209L12.4769 10.8161L13.0184 9.87559L11.6369 9.08039L11.0961 10.0209ZM12.7436 12.4636L11.7171 13.5443L12.5029 14.2918L13.5295 13.2111L12.7436 12.4636ZM11.099 13.8913C10.0616 13.9932 7.35427 13.9065 4.41632 10.8139L3.6305 11.56C6.83232 14.9308 9.88666 15.1015 11.2053 14.9706L11.099 13.8913ZM4.41632 10.8139C1.61428 7.86375 1.14438 5.37479 1.08582 4.28321L0.00288633 4.34176C0.0751784 5.67913 0.641949 8.41388 3.6305 11.56L4.41632 10.8139ZM5.41106 6.01528L5.61782 5.79769L4.832 5.05021L4.62452 5.26852L5.41106 6.01528ZM5.7812 3.07957L4.86959 1.79064L3.98401 2.41667L4.89489 3.70561L5.7812 3.07957ZM1.78344 1.51159L0.649901 2.70728L1.43644 3.45404L2.57143 2.25908L1.78344 1.51159ZM5.01779 5.64154C4.88769 5.51615 4.75635 5.39205 4.6238 5.26925L4.62018 5.27286L4.58404 5.31479C4.51325 5.40864 4.45718 5.51273 4.41777 5.62347C4.34692 5.82227 4.30933 6.0854 4.35704 6.4136C4.45102 7.05843 4.87393 7.92519 5.97783 9.08834L6.76437 8.34086C5.73204 7.25434 5.47757 6.58565 5.42986 6.25601C5.40672 6.09697 5.42986 6.01384 5.43925 5.98709L5.44504 5.97335C5.43727 5.98554 5.42831 5.99692 5.41829 6.00733L5.41178 6.01384C5.41178 6.01384 5.41034 6.01528 5.01779 5.64154ZM5.97783 9.08834C7.07884 10.2479 7.9102 10.7026 8.5442 10.806C8.87024 10.8587 9.1341 10.8161 9.33363 10.7373C9.44429 10.6941 9.54711 10.6331 9.63798 10.5566L9.66401 10.532L9.68136 10.5146C9.68136 10.5146 9.68352 10.5132 9.29025 10.1394C8.89699 9.76643 8.89771 9.76498 8.89771 9.76498L8.89915 9.76426L8.9006 9.76209L8.91144 9.75125L8.93819 9.72811C8.94542 9.72426 8.94446 9.7245 8.9353 9.72884C8.92084 9.73462 8.85578 9.75775 8.71842 9.73534C8.42781 9.68763 7.80031 9.43172 6.76437 8.34086L5.97783 9.08834ZM4.86959 1.79064C4.13655 0.753992 2.67047 0.578327 1.78416 1.51232L2.56926 2.25908C2.94734 1.86148 3.61388 1.89256 3.98401 2.41667L4.86959 1.79064ZM1.08582 4.28321C1.06992 3.99405 1.19643 3.70561 1.43644 3.45404L0.649901 2.70728C0.262415 3.11499 -0.0325368 3.68103 0.00288633 4.34176L1.08582 4.28321ZM11.7164 13.545C11.5147 13.7576 11.3043 13.8711 11.099 13.8913L11.2053 14.9706C11.7453 14.9178 12.1827 14.6294 12.5029 14.2918L11.7164 13.545ZM5.61782 5.79769C6.31833 5.06033 6.36676 3.90874 5.7812 3.07957L4.89489 3.70561C5.19997 4.13718 5.1537 4.71189 4.832 5.05021L5.61782 5.79769ZM12.4769 10.8161C13.0704 11.158 13.1868 11.9973 12.7436 12.4636L13.5295 13.2111C14.4729 12.2178 14.1982 10.5551 13.0184 9.87559L12.4769 10.8161ZM10.0125 10.1669C10.2908 9.87342 10.7253 9.80763 11.0961 10.0209L11.6369 9.08039C10.8424 8.62352 9.85847 8.75581 9.22591 9.42088L10.0125 10.1669Z" fill="white"/>
<path d="M11.0961 10.0209L10.6627 9.77167L11.5295 10.2703L11.0961 10.0209ZM12.4769 10.8161L12.0435 10.5667L12.9102 11.0656L12.4769 10.8161ZM13.5295 13.2111L13.1849 13.5733L13.8742 12.8489L13.5295 13.2111ZM11.2053 14.9706L10.7077 15.02L11.7029 14.9216L11.2053 14.9706ZM4.41632 10.8139L4.76074 11.1764L4.07206 10.4513L4.41632 10.8139ZM0.00288633 4.34176L-0.0244417 3.84251L0.029882 4.84103L0.00288633 4.34176ZM5.61782 5.79769L5.27321 6.15997L5.96259 5.43557L5.61782 5.79769ZM3.98401 2.41667L3.69539 2.00839L4.27248 2.82506L3.98401 2.41667ZM9.28953 10.1402L9.63396 9.77772L9.24141 9.4047L8.89699 9.76715L8.55256 10.1296L8.94511 10.5026L9.28953 10.1402ZM9.61918 9.79317L9.27474 10.1556L9.66801 10.5294L10.0125 10.1669L10.3569 9.80448L9.96362 9.43074L9.61918 9.79317ZM11.3665 9.551L10.9331 9.30164L10.6627 9.77153L11.0961 10.0209L11.5295 10.2703L11.7999 9.80037L11.3665 9.551ZM12.7473 10.3462L12.3139 10.0968L12.0435 10.5667L12.4769 10.8161L12.9103 11.0654L13.1806 10.5956L12.7473 10.3462ZM13.1369 12.8373L12.7921 13.1994L13.1847 13.5732L13.5295 13.2111L13.8742 12.8489L13.4817 12.4752L13.1369 12.8373ZM12.1104 13.9188L12.4545 13.556L12.0605 13.1823L11.7164 13.545L11.3723 13.9078L11.7663 14.2815L12.1104 13.9188ZM11.1518 14.432L10.6542 14.4815L10.7077 15.02L11.2053 14.9706L11.7028 14.9212L11.6493 14.3826L11.1518 14.432ZM4.02377 11.1869L4.3682 11.5494L4.76074 11.1764L4.41632 10.8139L4.0719 10.4515L3.67935 10.8245L4.02377 11.1869ZM0.544354 4.31212L0.517026 3.81287L-0.0244417 3.84251L0.00288633 4.34176L0.0302143 4.84101L0.571682 4.81138L0.544354 4.31212ZM5.22527 5.42395L4.8805 5.78607L5.27304 6.15981L5.61782 5.79769L5.96259 5.43557L5.57004 5.06183L5.22527 5.42395ZM5.33804 3.39259L5.62651 3.80098L6.06966 3.48797L5.7812 3.07957L5.49273 2.67118L5.04958 2.98419L5.33804 3.39259ZM4.42716 2.10365L4.1387 1.69526L3.69555 2.00827L3.98401 2.41667L4.27248 2.82506L4.71563 2.51205L4.42716 2.10365ZM2.17599 1.88606L1.8319 2.24883L2.22517 2.62185L2.56926 2.25908L2.91335 1.89631L2.52008 1.52329L2.17599 1.88606ZM1.04172 3.07957L1.38615 2.71712L0.993601 2.3441L0.649178 2.70655L0.304755 3.06901L0.697301 3.44203L1.04172 3.07957ZM6.3711 8.7146L6.71554 9.07704L7.10881 8.7033L6.76437 8.34086L6.41993 7.97843L6.02666 8.35217L6.3711 8.7146ZM12.4769 10.8161L12.9102 11.0656L13.4517 10.1251L13.0184 9.87559L12.585 9.62611L12.0436 10.5666L12.4769 10.8161ZM11.6369 9.08039L11.2034 8.83117L10.6627 9.77167L11.0961 10.0209L11.5296 10.2701L12.0703 9.32961L11.6369 9.08039ZM13.5295 13.2111L13.8741 12.8488L13.0883 12.1013L12.7436 12.4636L12.399 12.8259L13.1849 13.5733L13.5295 13.2111ZM4.41632 10.8139L4.07206 10.4513L3.28625 11.1973L3.6305 11.56L3.97476 11.9226L4.76058 11.1765L4.41632 10.8139ZM11.2053 14.9706L11.7029 14.9216L11.5966 13.8423L11.099 13.8913L10.6014 13.9403L10.7077 15.0196L11.2053 14.9706ZM1.08582 4.28321L1.05883 3.78394L-0.0241094 3.84249L0.00288633 4.34176L0.029882 4.84103L1.11282 4.78248L1.08582 4.28321ZM5.61782 5.79769L5.96242 5.43541L5.17661 4.68793L4.832 5.05021L4.48739 5.41249L5.27321 6.15997L5.61782 5.79769ZM4.86959 1.79064L4.58097 1.38235L3.69539 2.00839L3.98401 2.41667L4.27264 2.82495L5.15822 2.19892L4.86959 1.79064ZM4.89489 3.70561L5.18336 4.114L6.06966 3.48797L5.7812 3.07957L5.49273 2.67118L4.60643 3.29721L4.89489 3.70561ZM0.649901 2.70728L0.305636 3.06988L1.09217 3.81664L1.43644 3.45404L1.7807 3.09143L0.994166 2.34467L0.649901 2.70728ZM5.97783 9.08834L6.32227 9.45078L7.10881 8.7033L6.76437 8.34086L6.41993 7.97843L5.63339 8.72591L5.97783 9.08834ZM11.386 7.22904L11.3858 6.22904H11.3857L11.386 7.22904ZM8.14876 5.2237L7.25334 5.66891L7.25666 5.67559L7.26007 5.68221L8.14876 5.2237ZM8.1972 5.63865L9.16317 5.89729L9.16546 5.88874L9.1676 5.88015L8.1972 5.63865ZM7.98177 6.44324L8.94774 6.70189L8.94774 6.70188L7.98177 6.44324ZM8.55721 7.01867L8.29858 6.0527L8.29858 6.0527L8.55721 7.01867ZM9.36182 6.80325L9.12033 5.83285L9.11174 5.83498L9.1032 5.83727L9.36182 6.80325ZM9.77678 6.85168L9.31829 7.74038L9.32508 7.74389L9.33193 7.74729L9.77678 6.85168ZM8.89699 9.76715L8.17053 9.07994L7.48424 9.80543L8.20881 10.4927L8.89699 9.76715ZM10.0125 10.1669L10.7375 10.8556L10.7381 10.855L10.0125 10.1669ZM11.0961 10.0209L11.5952 9.15432L11.5946 9.154L11.0961 10.0209ZM12.4769 10.8161L12.9761 9.94959L12.9759 9.94951L12.4769 10.8161ZM13.5295 13.2111L14.2545 13.8998L14.2545 13.8997L13.5295 13.2111ZM11.7164 13.545L12.4049 12.8198L11.6795 12.1312L10.991 12.8567L11.7164 13.545ZM11.2053 14.9706L11.108 13.9753L11.1065 13.9755L11.2053 14.9706ZM4.41632 10.8139L3.69125 11.5026L3.69132 11.5027L4.41632 10.8139ZM0.00288633 4.34176L-0.99568 4.3953L-0.995656 4.39574L0.00288633 4.34176ZM5.61782 5.79769L6.34275 6.48651L6.34281 6.48645L5.61782 5.79769ZM5.7812 3.07957L6.59804 2.50271L6.59764 2.50214L5.7812 3.07957ZM3.98401 2.41667L3.16718 2.99354L3.16736 2.99379L3.98401 2.41667ZM2.56926 2.25908L1.88006 2.98365L2.60473 3.67294L3.29392 2.94818L2.56926 2.25908ZM6.76437 8.34086L7.48949 7.65224L7.48932 7.65207L6.76437 8.34086ZM9.68352 10.5132L8.99534 11.2387L9.72035 11.9264L10.4086 11.2019L9.68352 10.5132ZM9.22591 9.41943L9.9148 8.69456L9.18825 8.00409L8.49946 8.73223L9.22591 9.41943ZM13.0184 9.87559L13.5175 9.00904L13.5172 9.00891L13.0184 9.87559ZM11.6369 9.08039L12.1357 8.21371L12.1354 8.21351L11.6369 9.08039ZM12.7436 12.4636L12.0188 11.7747L12.0186 11.7749L12.7436 12.4636ZM11.7171 13.5443L10.992 12.8556L10.3038 13.5802L11.0279 14.2689L11.7171 13.5443ZM11.099 13.8913L11.1968 14.8865L11.1971 14.8865L11.099 13.8913ZM3.6305 11.56L4.35556 10.8713L4.35553 10.8712L3.6305 11.56ZM1.08582 4.28321L2.08439 4.22964L2.08431 4.22829L1.08582 4.28321ZM5.41106 6.01528L4.72253 6.74049L5.44744 7.42874L6.13599 6.70411L5.41106 6.01528ZM4.832 5.05021L4.10732 4.36112L4.10713 4.36132L4.832 5.05021ZM4.62452 5.26852L3.89965 4.57964L3.21043 5.30486L3.93599 5.99373L4.62452 5.26852ZM4.86959 1.79064L4.0531 2.368L4.05315 2.36807L4.86959 1.79064ZM4.89489 3.70561L4.07824 4.28273L4.07831 4.28284L4.89489 3.70561ZM1.78344 1.51159L2.47166 0.786089L1.74593 0.0976659L1.05773 0.823598L1.78344 1.51159ZM0.649901 2.70728L1.37476 3.39617L1.37561 3.39527L0.649901 2.70728ZM1.43644 3.45404L2.15998 4.14432L2.16151 4.14271L1.43644 3.45404ZM2.57143 2.25908L3.29649 2.94775L3.98561 2.22222L3.25964 1.53357L2.57143 2.25908ZM5.01779 5.64154L4.32383 6.36158L4.32824 6.36578L5.01779 5.64154ZM4.6238 5.26925L5.3034 4.53567L4.59736 3.88157L3.91674 4.56209L4.6238 5.26925ZM4.62018 5.27286L3.91312 4.56571L3.88695 4.59188L3.86278 4.61992L4.62018 5.27286ZM4.58404 5.31479L3.82663 4.66185L3.80533 4.68656L3.78569 4.7126L4.58404 5.31479ZM4.41777 5.62347L5.35974 5.95916L5.35987 5.95878L4.41777 5.62347ZM4.35704 6.4136L3.36744 6.55747L3.3675 6.55782L4.35704 6.4136ZM5.97783 9.08834L5.25249 9.77674L5.25266 9.77691L5.97783 9.08834ZM5.42986 6.25601L6.41954 6.11276L6.41944 6.11207L5.42986 6.25601ZM5.43925 5.98709L4.51761 5.59904L4.50585 5.62699L4.4958 5.6556L5.43925 5.98709ZM5.44504 5.97335L6.36668 6.3614L4.60155 5.4362L5.44504 5.97335ZM5.41829 6.00733L6.12537 6.71446L6.13197 6.70787L6.13844 6.70115L5.41829 6.00733ZM5.41178 6.01384L4.7047 5.3067L4.70469 5.30672L5.41178 6.01384ZM8.5442 10.806L8.38327 11.7929L8.38442 11.7931L8.5442 10.806ZM9.33363 10.7373L8.97023 9.80565L8.96632 9.80719L9.33363 10.7373ZM9.63798 10.5566L10.282 11.3215L10.3039 11.3032L10.3246 11.2836L9.63798 10.5566ZM9.66401 10.532L10.3506 11.259L10.361 11.2492L10.3711 11.2391L9.66401 10.532ZM9.68136 10.5146L9.12631 9.68281L9.04413 9.73765L8.97427 9.80751L9.68136 10.5146ZM9.29025 10.1394L9.97914 9.41457L9.97843 9.41391L9.29025 10.1394ZM8.89771 9.76498L8.45073 8.87044L8.15242 9.01949L8.00328 9.31776L8.89771 9.76498ZM8.89915 9.76426L9.34613 10.6588L9.58391 10.54L9.73132 10.3188L8.89915 9.76426ZM8.9006 9.76209L8.19352 9.05495L8.12342 9.12505L8.06844 9.20756L8.9006 9.76209ZM8.91144 9.75125L8.2573 8.99487L8.22995 9.01853L8.20437 9.04411L8.91144 9.75125ZM8.93819 9.72811L8.46761 8.84576L8.36878 8.89847L8.28405 8.97174L8.93819 9.72811ZM8.9353 9.72884L9.30668 10.6573L9.33541 10.6458L9.36338 10.6326L8.9353 9.72884ZM8.71842 9.73534L8.55642 10.7221L8.5574 10.7223L8.71842 9.73534ZM1.78416 1.51232L1.05878 0.823973L0.371243 1.5485L1.09497 2.23689L1.78416 1.51232ZM9.22591 9.42088L8.50132 8.73171L7.8112 9.4573L8.53773 10.1464L9.22591 9.42088ZM11.386 7.22904L11.3862 8.22904C12.3897 8.22887 13.3658 7.90159 14.1666 7.29679L13.5639 6.49881L12.9612 5.70083C12.5075 6.0435 11.9544 6.22894 11.3858 6.22904L11.386 7.22904ZM13.5639 6.49881L14.1666 7.29679C14.9674 6.69199 15.5492 5.84264 15.8238 4.87745L14.862 4.60376L13.9002 4.33007C13.7446 4.87692 13.4149 5.35815 12.9612 5.70083L13.5639 6.49881ZM14.862 4.60376L15.8238 4.87745C16.0985 3.91227 16.051 2.88385 15.6886 1.94807L14.7561 2.30921L13.8236 2.67035C14.0289 3.20054 14.0558 3.78322 13.9002 4.33007L14.862 4.60376ZM14.7561 2.30921L15.6886 1.94807C15.3262 1.01229 14.6686 0.220154 13.8155 -0.308301L13.2889 0.541808L12.7623 1.39192C13.2457 1.69134 13.6182 2.14015 13.8236 2.67035L14.7561 2.30921ZM13.2889 0.541808L13.8155 -0.308301C12.9624 -0.836756 11.9603 -1.07272 10.961 -0.980444L11.053 0.0153188L11.145 1.01108C11.7111 0.958797 12.2789 1.0925 12.7623 1.39192L13.2889 0.541808ZM11.053 0.0153188L10.961 -0.980444C9.96179 -0.888167 9.01984 -0.472673 8.27796 0.203073L8.95134 0.942365L9.62473 1.68166C10.0451 1.29879 10.5788 1.06337 11.145 1.01108L11.053 0.0153188ZM8.95134 0.942365L8.27796 0.203073C7.53607 0.878819 7.03469 1.77799 6.84979 2.76431L7.83267 2.94856L8.81555 3.13281C8.92031 2.57398 9.20438 2.06453 9.62473 1.68166L8.95134 0.942365ZM7.83267 2.94856L6.84979 2.76431C6.66489 3.75063 6.80657 4.77035 7.25334 5.66891L8.14876 5.2237L9.04419 4.77849C8.79106 4.26938 8.71079 3.69164 8.81555 3.13281L7.83267 2.94856ZM8.14876 5.2237L7.26007 5.68221C7.21475 5.59438 7.20293 5.49306 7.2268 5.39715L8.1972 5.63865L9.1676 5.88015C9.26096 5.50502 9.2147 5.10874 9.03745 4.76519L8.14876 5.2237ZM8.1972 5.63865L7.23122 5.38001L7.01579 6.1846L7.98177 6.44324L8.94774 6.70188L9.16317 5.89729L8.1972 5.63865ZM7.98177 6.44324L7.0158 6.18459C6.94907 6.43379 6.94911 6.69616 7.0159 6.94534L7.9818 6.68643L8.9477 6.42752C8.97179 6.51739 8.9718 6.61202 8.94774 6.70189L7.98177 6.44324ZM7.9818 6.68643L7.0159 6.94534C7.08269 7.19452 7.21389 7.42173 7.39631 7.60415L8.10341 6.89703L8.81051 6.18992C8.8763 6.25571 8.92361 6.33765 8.9477 6.42752L7.9818 6.68643ZM8.10341 6.89703L7.39631 7.60415C7.57873 7.78657 7.80595 7.91776 8.05512 7.98454L8.31402 7.01864L8.57292 6.05274C8.66277 6.07682 8.74471 6.12413 8.81051 6.18992L8.10341 6.89703ZM8.31402 7.01864L8.05512 7.98454C8.3043 8.05133 8.56666 8.05137 8.81585 7.98465L8.55721 7.01867L8.29858 6.0527C8.38844 6.02864 8.48306 6.02865 8.57292 6.05274L8.31402 7.01864ZM8.55721 7.01867L8.81584 7.98465L9.62045 7.76922L9.36182 6.80325L9.1032 5.83727L8.29858 6.0527L8.55721 7.01867ZM9.36182 6.80325L9.60332 7.77365C9.50742 7.79751 9.40612 7.78569 9.31829 7.74038L9.77678 6.85168L10.2353 5.96298C9.89173 5.78574 9.49545 5.73949 9.12033 5.83285L9.36182 6.80325ZM9.77678 6.85168L9.33193 7.74729C9.97033 8.06439 10.6735 8.22928 11.3863 8.22904L11.386 7.22904L11.3857 6.22904C10.9818 6.22917 10.5834 6.13575 10.2216 5.95608L9.77678 6.85168ZM9.68352 10.5132L10.4086 11.2019L10.7375 10.8556L10.0125 10.1669L9.28742 9.4782L8.9585 9.82447L9.68352 10.5132ZM10.0125 10.1669L10.7013 9.44204L9.9148 8.69456L9.22591 9.41943L8.53703 10.1443L9.32357 10.8918L10.0125 10.1669ZM9.22591 9.41943L8.49946 8.73223L8.17053 9.07994L8.89699 9.76715L9.62345 10.4544L9.95237 10.1066L9.22591 9.41943ZM8.89699 9.76715L8.20881 10.4927L8.99534 11.2387L9.68352 10.5132L10.3717 9.78765L9.58517 9.04161L8.89699 9.76715ZM11.0961 10.0209L10.5971 10.8875L11.9778 11.6827L12.4769 10.8161L12.9759 9.94951L11.5952 9.15432L11.0961 10.0209ZM13.0184 9.87559L13.5172 9.00891L12.1357 8.21371L11.6369 9.08039L11.138 9.94707L12.5195 10.7423L13.0184 9.87559ZM12.7436 12.4636L12.0186 11.7749L10.992 12.8556L11.7171 13.5443L12.4422 14.233L13.4687 13.1523L12.7436 12.4636ZM11.7171 13.5443L11.0279 14.2689L11.8137 15.0164L12.5029 14.2918L13.1921 13.5672L12.4063 12.8198L11.7171 13.5443ZM12.5029 14.2918L13.228 14.9805L14.2545 13.8998L13.5295 13.2111L12.8044 12.5224L11.7779 13.6031L12.5029 14.2918ZM11.099 13.8913L11.0012 12.8961C10.2226 12.9726 7.83574 12.9614 5.14132 10.1252L4.41632 10.8139L3.69132 11.5027C6.8728 14.8516 9.90061 15.0139 11.1968 14.8865L11.099 13.8913ZM3.6305 11.56L2.90545 12.2486C6.35065 15.8758 9.72566 16.1223 11.304 15.9657L11.2053 14.9706L11.1065 13.9755C10.0477 14.0806 7.31399 13.9859 4.35556 10.8713L3.6305 11.56ZM4.41632 10.8139L5.1414 10.1252C2.51074 7.35552 2.13081 5.095 2.08439 4.22964L1.08582 4.28321L0.0872581 4.33677C0.15795 5.65459 0.717816 8.37197 3.69125 11.5026L4.41632 10.8139ZM0.00288633 4.34176L-0.995656 4.39574C-0.911155 5.95896 -0.254565 8.92207 2.90548 12.2487L3.6305 11.56L4.35553 10.8712C1.53846 7.90568 1.06151 5.3993 1.00143 4.28778L0.00288633 4.34176ZM5.41106 6.01528L6.13599 6.70411L6.34275 6.48651L5.61782 5.79769L4.89289 5.10887L4.68613 5.32646L5.41106 6.01528ZM4.832 5.05021L4.10713 4.36132L3.89965 4.57964L4.62452 5.26852L5.34939 5.95741L5.55687 5.73909L4.832 5.05021ZM4.62452 5.26852L3.93599 5.99373L4.72253 6.74049L5.41106 6.01528L6.09959 5.29008L5.31305 4.54332L4.62452 5.26852ZM5.7812 3.07957L6.59764 2.50214L5.68603 1.21321L4.86959 1.79064L4.05315 2.36807L4.96476 3.657L5.7812 3.07957ZM3.98401 2.41667L3.16736 2.99379L4.07824 4.28273L4.89489 3.70561L5.71155 3.12848L4.80067 1.83955L3.98401 2.41667ZM1.78344 1.51159L1.05773 0.823598L-0.0758127 2.01928L0.649901 2.70728L1.37561 3.39527L2.50915 2.19959L1.78344 1.51159ZM1.43644 3.45404L2.16151 4.14271L3.29649 2.94775L2.57143 2.25908L1.84636 1.5704L0.711372 2.76536L1.43644 3.45404ZM2.57143 2.25908L3.25964 1.53357L2.47166 0.786089L1.78344 1.51159L1.09523 2.2371L1.88321 2.98458L2.57143 2.25908ZM5.01779 5.64154L5.71174 4.92152C5.5769 4.79156 5.44078 4.66294 5.3034 4.53567L4.6238 5.26925L3.94419 6.00282C4.07192 6.12115 4.19848 6.24074 4.32384 6.36157L5.01779 5.64154ZM4.62018 5.27286L3.86278 4.61992L3.82663 4.66185L4.58404 5.31479L5.34145 5.96773L5.37759 5.9258L4.62018 5.27286ZM4.58404 5.31479L3.78569 4.7126C3.6537 4.88758 3.54915 5.08166 3.47566 5.28816L4.41777 5.62347L5.35987 5.95878C5.36521 5.94379 5.3728 5.92969 5.38239 5.91698L4.58404 5.31479ZM4.41777 5.62347L3.47579 5.28778C3.34752 5.64772 3.29746 6.07606 3.36744 6.55747L4.35704 6.4136L5.34664 6.26974C5.3212 6.09475 5.34632 5.99682 5.35974 5.95916L4.41777 5.62347ZM4.35704 6.4136L3.3675 6.55782C3.50402 7.4946 4.08287 8.54434 5.25249 9.77674L5.97783 9.08834L6.70317 8.39995C5.66498 7.30604 5.39802 6.62227 5.34659 6.26938L4.35704 6.4136ZM6.76437 8.34086L7.48932 7.65207C6.52286 6.63487 6.42488 6.14962 6.41954 6.11276L5.42986 6.25601L4.44017 6.39926C4.53026 7.02168 4.94121 7.87381 6.03941 9.02966L6.76437 8.34086ZM5.42986 6.25601L6.41944 6.11207C6.41835 6.10459 6.42186 6.12344 6.41811 6.16395C6.41412 6.20721 6.40327 6.26006 6.38271 6.31858L5.43925 5.98709L4.4958 5.6556C4.43078 5.84064 4.39479 6.08731 4.44027 6.39995L5.42986 6.25601ZM5.43925 5.98709L6.36089 6.37513L6.36668 6.3614L5.44504 5.97335L4.5234 5.58531L4.51761 5.59904L5.43925 5.98709ZM5.44504 5.97335L4.60155 5.4362C4.62956 5.39221 4.66192 5.35111 4.69814 5.31351L5.41829 6.00733L6.13844 6.70115C6.19471 6.64274 6.24499 6.57887 6.28852 6.51051L5.44504 5.97335ZM5.41178 6.01384C4.70469 5.30672 4.79923 5.22341 4.9035 5.15265C4.93759 5.13341 5.03799 5.08633 5.10548 5.0619C5.23113 5.02147 5.34195 5.0132 5.42039 5.01387C5.5682 5.01515 5.68041 5.04928 5.72803 5.06516C5.82877 5.09874 5.90061 5.14118 5.91941 5.15226C5.97085 5.18257 6.00809 5.21103 6.01568 5.21678C6.04018 5.23535 6.05835 5.251 6.06141 5.25363C6.0679 5.25918 6.07269 5.26344 6.0746 5.26515C6.07687 5.26717 6.07827 5.26844 6.07842 5.26858C6.07865 5.26879 6.07663 5.26694 6.07102 5.26174C6.06558 5.25669 6.05757 5.24922 6.04606 5.23842C5.99948 5.19474 5.90321 5.10379 5.70734 4.9173L5.01779 5.64154L4.32824 6.36578C4.52492 6.55304 4.62564 6.64823 4.67793 6.69726C4.70346 6.72121 4.72038 6.73691 4.73243 6.74787C4.73722 6.75223 4.74786 6.76189 4.7605 6.77271C4.76437 6.77602 4.78295 6.79201 4.80766 6.81074C4.81535 6.81657 4.85265 6.84507 4.90412 6.87539C4.92294 6.88649 4.99479 6.92893 5.09553 6.96251C5.14316 6.97839 5.25536 7.01253 5.40318 7.0138C5.48162 7.01447 5.59243 7.0062 5.71808 6.96577C5.78558 6.94135 5.88597 6.89426 5.92006 6.87503C6.02433 6.80427 6.11888 6.72096 5.41178 6.01384ZM5.97783 9.08834L5.25266 9.77691C6.41462 11.0006 7.43335 11.638 8.38327 11.7929L8.5442 10.806L8.70513 9.819C8.38704 9.76713 7.74306 9.49512 6.703 8.39978L5.97783 9.08834ZM8.5442 10.806L8.38442 11.7931C8.88463 11.8741 9.33082 11.8136 9.70094 11.6674L9.33363 10.7373L8.96632 9.80719C8.93739 9.81862 8.85585 9.84339 8.70398 9.81881L8.5442 10.806ZM9.33363 10.7373L9.69703 11.6689C9.90975 11.5859 10.1074 11.4686 10.282 11.3215L9.63798 10.5566L8.99392 9.79159C8.98684 9.79755 8.97884 9.8023 8.97023 9.80565L9.33363 10.7373ZM9.63798 10.5566L10.3246 11.2836L10.3506 11.259L9.66401 10.532L8.97739 9.80496L8.95137 9.82954L9.63798 10.5566ZM9.68136 10.5146C10.2364 11.3465 10.3186 11.2853 10.3942 11.216C10.4182 11.1907 10.4842 11.1109 10.5232 11.0543C10.5972 10.939 10.6381 10.8232 10.6595 10.7224C10.6998 10.5329 10.675 10.3787 10.6588 10.3036C10.627 10.1562 10.5686 10.0524 10.5544 10.027C10.5145 9.95564 10.4743 9.90524 10.4672 9.89616C10.4421 9.86427 10.4203 9.84074 10.4162 9.83634C10.402 9.82096 10.3896 9.80839 10.3847 9.80347C10.3718 9.79053 10.3542 9.77331 10.3289 9.74882C10.2768 9.69835 10.1763 9.60192 9.97914 9.41457L9.29025 10.1394L8.60137 10.8643C8.79751 11.0507 8.89251 11.1419 8.93762 11.1856C8.96095 11.2082 8.96742 11.2147 8.96644 11.2137C8.96587 11.2131 8.96388 11.2111 8.96097 11.2081C8.95851 11.2055 8.95266 11.1995 8.94516 11.1913C8.94182 11.1877 8.92032 11.1646 8.89539 11.1329C8.88833 11.1239 8.84813 11.0736 8.80829 11.0022C8.79412 10.9769 8.73569 10.873 8.70388 10.7257C8.68766 10.6506 8.66291 10.4964 8.70319 10.3068C8.72458 10.2061 8.76555 10.0903 8.83947 9.97498C8.87855 9.9184 8.94454 9.83853 8.96856 9.81326C9.04409 9.74399 9.12631 9.68281 9.68136 10.5146ZM9.29025 10.1394L9.97843 9.41391C9.78211 9.22769 9.68565 9.13567 9.6388 9.09072C9.61493 9.06782 9.60606 9.05917 9.60417 9.05731C9.60236 9.05554 9.60735 9.06039 9.61468 9.06792C9.61677 9.07006 9.62895 9.08251 9.64388 9.09924C9.64872 9.10466 9.67092 9.12942 9.69646 9.16332C9.70598 9.17596 9.74072 9.22206 9.77596 9.28679C9.7919 9.31606 9.83084 9.39009 9.85981 9.49229C9.87474 9.54498 9.895 9.63246 9.89746 9.74265C9.8968 9.80771 9.88705 9.9106 9.88074 9.94839C9.84566 10.0834 9.79213 10.2122 8.89771 9.76498C8.00328 9.31776 7.94976 9.44657 7.91467 9.58157C7.90837 9.61937 7.89862 9.72226 7.89796 9.78732C7.90042 9.8975 7.92067 9.98498 7.93561 10.0377C7.96457 10.1399 8.00352 10.2139 8.01945 10.2432C8.0547 10.3079 8.08944 10.354 8.09898 10.3667C8.12454 10.4006 8.14678 10.4254 8.15171 10.4309C8.16682 10.4479 8.17938 10.4607 8.18221 10.4636C8.19104 10.4727 8.19904 10.4806 8.20331 10.4848C8.21358 10.4948 8.2291 10.5099 8.25421 10.5339C8.30531 10.583 8.40513 10.6782 8.60208 10.865L9.29025 10.1394ZM8.89771 9.76498L9.34469 10.6595L9.34613 10.6588L8.89915 9.76426L8.45218 8.86971L8.45073 8.87044L8.89771 9.76498ZM8.89915 9.76426L9.73132 10.3188L9.73276 10.3166L8.9006 9.76209L8.06844 9.20756L8.06699 9.20973L8.89915 9.76426ZM8.91144 9.75125L9.56558 10.5076L9.59233 10.4845L8.93819 9.72811L8.28405 8.97174L8.2573 8.99487L8.91144 9.75125ZM8.93819 9.72811L9.40877 10.6105C9.41131 10.6091 9.42539 10.6016 9.44183 10.5922C9.44673 10.5893 9.4554 10.5843 9.46604 10.5777C9.47283 10.5736 9.49797 10.5581 9.52849 10.5361C9.54137 10.5268 9.57804 10.5001 9.62067 10.4608C9.64128 10.4418 9.68249 10.4024 9.72709 10.346C9.75531 10.3104 9.86984 10.1658 9.91947 9.94097C9.94775 9.81285 9.96235 9.62389 9.89283 9.41271C9.82002 9.19154 9.68115 9.02606 9.53222 8.91744C9.28185 8.73485 9.02846 8.72769 8.97626 8.72595C8.82618 8.72095 8.70946 8.75299 8.70047 8.75523C8.63995 8.77036 8.59372 8.78832 8.58846 8.79031C8.57305 8.79614 8.56097 8.80116 8.55497 8.80368C8.54244 8.80894 8.53255 8.81339 8.52849 8.81523C8.51924 8.81942 8.51127 8.82318 8.50722 8.8251L8.9353 9.72884L9.36338 10.6326C9.36316 10.6327 9.36224 10.6331 9.3608 10.6338C9.35953 10.6344 9.35666 10.6357 9.35277 10.6375C9.34998 10.6387 9.34109 10.6427 9.32933 10.6477C9.3237 10.6501 9.31192 10.6549 9.29677 10.6607C9.29176 10.6626 9.24572 10.6805 9.18532 10.6956C9.17638 10.6978 9.05971 10.7298 8.90965 10.7248C8.85747 10.7231 8.60409 10.7159 8.35373 10.5334C8.20479 10.4247 8.06593 10.2593 7.99312 10.0381C7.9236 9.82691 7.9382 9.63796 7.96649 9.50984C8.01611 9.28507 8.13064 9.14046 8.15884 9.10482C8.20344 9.04847 8.24463 9.00911 8.26522 8.99013C8.30782 8.95087 8.34443 8.92418 8.35725 8.91492C8.38763 8.89297 8.41257 8.87767 8.4191 8.87366C8.42947 8.86728 8.43782 8.86242 8.44233 8.85982C8.45144 8.85456 8.45847 8.85071 8.46095 8.84936C8.46418 8.84759 8.46657 8.84632 8.46761 8.84576L8.93819 9.72811ZM8.9353 9.72884L8.56392 8.80036C8.63183 8.77319 8.70164 8.75516 8.7684 8.74814C8.82985 8.74168 8.86889 8.74667 8.87945 8.74839L8.71842 9.73534L8.5574 10.7223C8.86784 10.7729 9.11746 10.733 9.30668 10.6573L8.9353 9.72884ZM8.71842 9.73534L8.88043 8.74855C8.90467 8.75253 8.46411 8.67852 7.48949 7.65224L6.76437 8.34086L6.03925 9.02948C7.13652 10.1849 7.95095 10.6227 8.55642 10.7221L8.71842 9.73534ZM4.86959 1.79064L5.68608 1.21327C4.62281 -0.290363 2.4185 -0.608915 1.05878 0.823973L1.78416 1.51232L2.50955 2.20066C2.92243 1.76557 3.65029 1.79835 4.0531 2.368L4.86959 1.79064ZM1.78416 1.51232L1.09497 2.23689L1.88006 2.98365L2.56926 2.25908L3.25845 1.5345L2.47336 0.787743L1.78416 1.51232ZM2.56926 2.25908L3.29392 2.94818C3.28177 2.96095 3.26438 2.97289 3.24393 2.98044C3.22421 2.98771 3.20532 2.9896 3.18933 2.98815C3.17291 2.98666 3.16132 2.98185 3.15533 2.97836C3.14863 2.97444 3.15446 2.97554 3.16718 2.99354L3.98401 2.41667L4.80085 1.8398C4.08873 0.831453 2.68252 0.688807 1.84459 1.56997L2.56926 2.25908ZM1.08582 4.28321L2.08431 4.22829C2.08555 4.25073 2.07982 4.25895 2.08486 4.24716C2.09084 4.23315 2.11014 4.19656 2.15997 4.14432L1.43644 3.45404L0.712903 2.76375C0.335333 3.15951 0.0525039 3.70491 0.0873315 4.33813L1.08582 4.28321ZM0.649901 2.70728L-0.0749618 2.01838C-0.597578 2.56829 -1.04957 3.39012 -0.99568 4.3953L0.00288633 4.34176L1.00145 4.28823C0.984496 3.97194 1.12241 3.6617 1.37476 3.39617L0.649901 2.70728ZM11.7164 13.545L10.991 12.8567C10.9474 12.9026 10.9232 12.9163 10.9235 12.9161C10.9241 12.9158 10.9312 12.9119 10.9448 12.9075C10.9586 12.903 10.9776 12.8984 11.0009 12.8961L11.099 13.8913L11.1971 14.8865C11.7102 14.8359 12.1292 14.5628 12.4417 14.2334L11.7164 13.545ZM11.2053 14.9706L11.3025 15.9659C12.153 15.8828 12.7992 15.4325 13.2284 14.98L12.5029 14.2918L11.7774 13.6036C11.5661 13.8263 11.3376 13.9529 11.108 13.9753L11.2053 14.9706ZM12.5029 14.2918L13.1914 13.5666L12.4049 12.8198L11.7164 13.545L11.0278 14.2702L11.8144 15.017L12.5029 14.2918ZM5.61782 5.79769L6.34281 6.48645C7.39284 5.38118 7.44099 3.69634 6.59804 2.50271L5.7812 3.07957L4.96435 3.65643C5.29254 4.12115 5.24381 4.73948 4.89282 5.10893L5.61782 5.79769ZM4.89489 3.70561L4.07831 4.28284C4.0951 4.30658 4.10142 4.33285 4.1001 4.35609C4.0986 4.38247 4.08971 4.37964 4.10732 4.36112L4.832 5.05021L5.55668 5.73929C6.22582 5.03558 6.27645 3.92762 5.71148 3.12838L4.89489 3.70561ZM12.4769 10.8161L11.9777 11.6826C11.9829 11.6856 11.9879 11.6896 11.9937 11.6986C12.0006 11.709 12.0076 11.7253 12.0107 11.7455C12.0138 11.7659 12.0115 11.7805 12.0098 11.7864C12.0086 11.7908 12.0098 11.7842 12.0188 11.7747L12.7436 12.4636L13.4685 13.1525C14.3707 12.2032 14.1141 10.6052 12.9761 9.94959L12.4769 10.8161ZM13.5295 13.2111L14.2545 13.8997C15.661 12.419 15.2363 9.99905 13.5175 9.00904L13.0184 9.87559L12.5193 10.7421C13.16 11.1112 13.2848 12.0166 12.8044 12.5224L13.5295 13.2111ZM10.0125 10.1669L10.7381 10.855C10.7215 10.8725 10.6927 10.8894 10.6578 10.8943C10.6414 10.8966 10.6269 10.8957 10.6154 10.8935C10.6098 10.8923 10.6053 10.891 10.6022 10.8898C10.599 10.8886 10.5975 10.8877 10.5976 10.8878L11.0961 10.0209L11.5946 9.154C10.8328 8.71596 9.89041 8.84234 9.28684 9.47882L10.0125 10.1669ZM11.6369 9.08039L12.1354 8.21351C10.9497 7.53169 9.45867 7.72514 8.50132 8.73171L9.22591 9.42088L9.95051 10.1101C10.2583 9.78647 10.735 9.71534 11.1384 9.94728L11.6369 9.08039ZM9.22591 9.42088L8.53773 10.1464L9.32427 10.8925L10.0125 10.1669L10.7006 9.44138L9.91409 8.69534L9.22591 9.42088ZM4.6238 5.26925L3.91674 4.56209L3.91312 4.56571L4.62018 5.27286L5.32724 5.98001L5.33086 5.9764L4.6238 5.26925ZM5.41829 6.00733L4.71121 5.3002L4.7047 5.3067L5.41178 6.01384L6.11886 6.72097L6.12537 6.71446L5.41829 6.00733ZM9.66401 10.532L10.3711 11.2391L10.3884 11.2218L9.68136 10.5146L8.97427 9.80751L8.95692 9.82486L9.66401 10.532ZM8.9006 9.76209L9.60768 10.4692L9.61852 10.4584L8.91144 9.75125L8.20437 9.04411L8.19352 9.05495L8.9006 9.76209Z" fill="white" mask="url(#path-1-inside-1_2630_11960)"/>
</svg>
