<svg width="15" height="15" viewBox="0 0 15 15" fill="none" xmlns="http://www.w3.org/2000/svg">
<path d="M4.79199 8.33301C5.28916 8.33309 5.76563 8.53126 6.11719 8.88281C6.46874 9.23437 6.66691 9.71084 6.66699 10.208V13.125C6.66699 13.6223 6.46882 14.0995 6.11719 14.4512C5.76567 14.8025 5.289 14.9999 4.79199 15H1.875C1.37772 15 0.900459 14.8028 0.548828 14.4512C0.197198 14.0995 1.14443e-07 13.6223 0 13.125V10.208C8.60657e-05 9.711 0.197478 9.23433 0.548828 8.88281C0.900459 8.53118 1.37772 8.33301 1.875 8.33301H4.79199ZM13.125 8.33301C13.6223 8.33301 14.0995 8.53118 14.4512 8.88281C14.8025 9.23433 14.9999 9.711 15 10.208V13.125C15 13.6223 14.8028 14.0995 14.4512 14.4512C14.0995 14.8028 13.6223 15 13.125 15H10.208C9.711 14.9999 9.23433 14.8025 8.88281 14.4512C8.53118 14.0995 8.33301 13.6223 8.33301 13.125V10.208C8.33309 9.71084 8.53126 9.23437 8.88281 8.88281C9.23437 8.53126 9.71084 8.33309 10.208 8.33301H13.125ZM4.79199 0C5.289 8.6192e-05 5.76566 0.197478 6.11719 0.548828C6.46882 0.900459 6.66699 1.37772 6.66699 1.875V4.79199C6.66691 5.28916 6.46874 5.76563 6.11719 6.11719C5.76563 6.46874 5.28916 6.66691 4.79199 6.66699H1.875C1.37772 6.66699 0.900459 6.46882 0.548828 6.11719C0.197478 5.76566 8.6192e-05 5.289 0 4.79199V1.875C0 1.37772 0.197197 0.900459 0.548828 0.548828C0.900459 0.197197 1.37772 0 1.875 0H4.79199ZM13.125 0C13.6223 1.14443e-07 14.0995 0.197198 14.4512 0.548828C14.8028 0.900459 15 1.37772 15 1.875V4.79199C14.9999 5.289 14.8025 5.76567 14.4512 6.11719C14.0995 6.46882 13.6223 6.66699 13.125 6.66699H10.208C9.71084 6.66691 9.23437 6.46874 8.88281 6.11719C8.53126 5.76563 8.33309 5.28916 8.33301 4.79199V1.875C8.33301 1.37772 8.53118 0.900459 8.88281 0.548828C9.23433 0.197478 9.711 8.60658e-05 10.208 0H13.125Z" fill="white"/>
</svg>
