<svg width="24" height="15" viewBox="0 0 24 15" fill="none" xmlns="http://www.w3.org/2000/svg">
<path d="M7.5 8.4375C8.53121 8.43688 9.54691 8.55767 10.5469 8.80078C11.5469 9.04391 12.5312 9.4075 13.5 9.89062C13.9529 10.1249 14.3161 10.4648 14.5898 10.9102C14.8636 11.3558 15.0006 11.8444 15 12.375V15H0V12.375C1.63808e-07 11.8438 0.136406 11.3552 0.410156 10.9102C0.649773 10.5207 0.958409 10.212 1.33496 9.9834L1.5 9.89062C2.46875 9.40625 3.45312 9.04266 4.45312 8.80078C5.45309 8.55892 6.46879 8.43812 7.5 8.4375ZM16.79 9.25781C17.6805 9.25729 18.5574 9.3635 19.4209 9.57617C20.2845 9.78891 21.135 10.1066 21.9717 10.5293C22.363 10.7344 22.6767 11.032 22.9131 11.4219C23.1495 11.8118 23.2671 12.2388 23.2666 12.7031V15H16V14H22.2666V12.7021C22.2669 12.4177 22.1981 12.1706 22.0586 11.9404C21.9146 11.7029 21.7349 11.5356 21.5127 11.418C20.7424 11.0295 19.9654 10.7399 19.1816 10.5469C18.3967 10.3536 17.5998 10.2573 16.79 10.2578C16.3288 10.2581 15.8719 10.2902 15.4189 10.3525C15.2061 10.0139 14.9502 9.71832 14.6533 9.46777C15.3567 9.32897 16.069 9.25826 16.79 9.25781ZM7.50098 9.4375C6.5486 9.43808 5.61145 9.55021 4.68848 9.77344C3.7691 9.99581 2.85846 10.3295 1.95703 10.7793C1.67116 10.9285 1.4432 11.1412 1.2627 11.4346C1.08759 11.7192 1 12.0255 1 12.375V14H14V12.374C14.0004 12.0257 13.9136 11.719 13.7383 11.4336C13.5574 11.1393 13.3279 10.9278 13.041 10.7793V10.7783C12.14 10.3301 11.2298 9.99595 10.3105 9.77246C9.38843 9.54829 8.4524 9.43695 7.50098 9.4375ZM16.9551 1.87891C17.7751 1.91653 18.4825 2.23642 19.0771 2.83887C19.7113 3.48143 20.0283 4.25394 20.0283 5.15625L20.0244 5.32422C19.9872 6.15478 19.6716 6.87131 19.0771 7.47363L18.957 7.59082C18.3475 8.15549 17.6248 8.43743 16.79 8.4375C15.9552 8.4375 15.2326 8.15537 14.623 7.59082L14.5029 7.47363C13.9084 6.87129 13.5919 6.15482 13.5547 5.32422L13.5508 5.15625C13.5508 4.31023 13.8302 3.57861 14.3877 2.96094L14.5029 2.83887C15.1371 2.19646 15.8995 1.875 16.79 1.875L16.9551 1.87891ZM7.5 0C8.53125 0 9.41406 0.367188 10.1484 1.10156C10.8828 1.83594 11.25 2.71875 11.25 3.75C11.25 4.78125 10.8828 5.66406 10.1484 6.39844C9.41406 7.13281 8.53125 7.5 7.5 7.5C6.46875 7.5 5.58594 7.13281 4.85156 6.39844C4.11719 5.66406 3.75 4.78125 3.75 3.75C3.75 2.71875 4.11719 1.83594 4.85156 1.10156C5.58594 0.367188 6.46875 0 7.5 0ZM16.79 2.875C16.171 2.875 15.6631 3.08589 15.2139 3.54102C14.7642 3.99657 14.5508 4.51703 14.5508 5.15625C14.5508 5.79547 14.7642 6.31593 15.2139 6.77148C15.6631 7.22661 16.171 7.4375 16.79 7.4375C17.4088 7.43743 17.9161 7.2264 18.3652 6.77148C18.8148 6.31594 19.0283 5.79545 19.0283 5.15625C19.0283 4.51704 18.8148 3.99656 18.3652 3.54102C17.9161 3.0861 17.4088 2.87507 16.79 2.875ZM7.5 1C6.73607 1 6.10693 1.26026 5.55859 1.80859C5.01026 2.35693 4.75 2.98607 4.75 3.75C4.75 4.51393 5.01026 5.14307 5.55859 5.69141C6.10693 6.23974 6.73607 6.5 7.5 6.5L7.78027 6.4873C8.41992 6.42997 8.96163 6.17119 9.44141 5.69141C9.98974 5.14307 10.25 4.51393 10.25 3.75C10.25 2.98607 9.98974 2.35693 9.44141 1.80859C8.89307 1.26026 8.26392 1 7.5 1Z" fill="white"/>
</svg>
