<svg width="20" height="20" viewBox="0 0 20 20" fill="none" xmlns="http://www.w3.org/2000/svg">
<path fill-rule="evenodd" clip-rule="evenodd" d="M8.53818 1.99954C8.53378 0.498561 6.7814 0 4.99996 0L2.49998 4.55L0 5.99961V11.9999L7.39218 13.2897C7.62468 13.3196 7.84181 13.3333 8.04487 13.3333C10.1582 13.3333 10.7436 11.8345 10.977 11.237C11.4314 10.0709 11.809 7.9646 11.9497 7.16056L11.9511 7.15596C12.1018 6.25718 11.9015 5.4388 11.3875 4.85117C11.0669 4.48489 10.6378 4.22192 10.141 4.09185C9.9097 4.03128 9.66374 3.9995 9.40724 3.9995H8.10121C8.10121 3.9995 8.3046 3.19466 8.4577 2.59823C8.51296 2.38293 8.53874 2.18366 8.53818 1.99954ZM9.88237 6.16821C9.82241 6.09973 9.68526 5.99947 9.40724 5.99947H5.53293C5.61543 5.6729 5.69785 5.34631 5.7802 5.01969L5.78076 5.01748C6.01701 4.08069 6.25336 3.14376 6.49307 2.20781L6.12646 2.10304L3.98475 6.00087L1.99997 7.15174V10.3186L7.68726 11.3109C7.82306 11.3269 7.9417 11.3333 8.04487 11.3333C8.33156 11.3333 8.49749 11.2836 8.58548 11.2465C8.6729 11.2097 8.73421 11.1638 8.78652 11.1103C8.91562 10.9783 9.00032 10.8005 9.11381 10.51C9.48041 9.56917 9.82757 7.68471 9.97963 6.8157L9.98409 6.79038C10.042 6.39851 9.93229 6.22545 9.88237 6.16821ZM8.61252 15.1488C8.40463 14.9111 8.24802 14.6357 8.14523 14.3324C8.94168 14.3175 9.59259 14.1263 10.1179 13.832C10.178 13.9005 10.3152 14.0005 10.5928 14.0005H14.4671L13.8377 16.4911L13.8373 16.4929L13.8355 16.4999L13.7165 16.9694C13.6469 17.2437 13.5771 17.518 13.5069 17.7921C13.596 17.8264 13.7166 17.8635 13.8735 17.8969L16.0153 13.9991L18 12.8482V9.68134L12.6688 8.75116C12.7833 8.18852 12.8712 7.6953 12.925 7.38865L12.9274 7.38059L12.9373 7.32148C12.9676 7.14163 12.987 6.96011 12.9953 6.77792L20 8.00008V14.0004L17.5 15.45L15 20C13.2186 20 11.4662 19.5014 11.4618 18.0005C11.4613 17.8163 11.487 17.6171 11.5423 17.4018C11.6954 16.8053 11.8988 16.0005 11.8988 16.0005H10.5928C10.3363 16.0005 10.0903 15.9687 9.85902 15.9082C9.3622 15.7781 8.9331 15.5151 8.61252 15.1488Z" fill="white"/>
</svg>
