<svg width="18" height="18" viewBox="0 0 18 18" fill="none" xmlns="http://www.w3.org/2000/svg">
<path d="M18 18L14.4 14.4H5.4C4.905 14.4 4.4814 14.2239 4.1292 13.8717C3.777 13.5195 3.6006 13.0956 3.6 12.6V11.7H13.5C13.995 11.7 14.4189 11.5239 14.7717 11.1717C15.1245 10.8195 15.3006 10.3956 15.3 9.9V3.6H16.2C16.695 3.6 17.1189 3.7764 17.4717 4.1292C17.8245 4.482 18.0006 4.9056 18 5.4V18ZM1.8 9.1575L2.8575 8.1H11.7V1.8H1.8V9.1575ZM0 13.5V1.8C0 1.305 0.1764 0.8814 0.5292 0.5292C0.882 0.177 1.3056 0.0006 1.8 0H11.7C12.195 0 12.6189 0.1764 12.9717 0.5292C13.3245 0.882 13.5006 1.3056 13.5 1.8V8.1C13.5 8.595 13.3239 9.0189 12.9717 9.3717C12.6195 9.7245 12.1956 9.9006 11.7 9.9H3.6L0 13.5Z" fill="white"/>
<path d="M1.8 9.1575L2.8575 8.1H11.7V1.8H1.8V8.1V9.1575Z" fill="white"/>
</svg>
