<svg width="161" height="154" viewBox="0 0 161 154" fill="none" xmlns="http://www.w3.org/2000/svg">
<g filter="url(#filter0_d_1501_5657)">
<path d="M139.81 67.0542L144.596 67.1466L147.025 67.1876C147.839 67.1876 148.656 67.1876 149.469 67.2047H149.629V67.0542L149.651 63.2272V63.0527H149.469L144.64 63.0733C143.027 63.0733 141.419 63.1109 139.81 63.128H139.708V63.2203C139.708 63.8667 139.741 64.5131 139.756 65.1527L139.81 67.0542ZM139.81 67.0542L139.861 65.1185C139.861 64.4823 139.902 63.853 139.909 63.2272L139.81 63.3195C141.419 63.3366 143.027 63.3742 144.64 63.3742L149.469 63.3982L149.287 63.2272V67.0542L149.451 66.9003C148.656 66.9003 147.86 66.9003 147.062 66.9003L144.662 66.9414L139.81 67.0542Z" fill="#EBEBEB"/>
<path d="M145.196 71.8794L149.982 71.9718L152.411 72.0128C153.224 72.0128 154.041 72.0128 154.855 72.0299H155.015V71.8794L155.037 68.0523V67.8882H154.855L150.025 67.9087C148.417 67.9087 146.805 67.9463 145.196 67.9634H145.094V68.0558C145.094 68.7022 145.123 69.3486 145.141 69.9881L145.196 71.8794ZM145.196 71.8794L145.247 69.9402C145.265 69.3041 145.287 68.6748 145.295 68.0489L145.196 68.1413C146.805 68.1584 148.417 68.196 150.025 68.196L154.855 68.2302L154.672 68.0626L154.691 71.8897L154.855 71.7358C154.06 71.7358 153.264 71.7358 152.466 71.7529L150.066 71.7939L145.196 71.8794Z" fill="#EBEBEB"/>
<path d="M6.28297 71.8794L11.0722 71.9718L13.5014 72.0128C14.3112 72.0128 15.1282 72.0128 15.9416 72.0299H16.1058V71.8794L16.124 68.0523V67.8882H15.9416L11.1123 67.9087C9.50374 67.9087 7.89153 67.9463 6.28297 67.9634H6.18449V68.0558C6.18449 68.7022 6.21367 69.3486 6.23191 69.9881L6.28297 71.8794ZM6.28297 71.8794L6.33404 69.9437C6.33404 69.3075 6.3778 68.6782 6.38145 68.0523L6.28297 68.1447C7.89153 68.1618 9.50374 68.1994 11.1123 68.1994L15.9416 68.2199L15.7593 68.0523L15.7812 71.8794L15.9416 71.7255C15.1465 71.7255 14.3513 71.7255 13.5562 71.7426L11.1561 71.7837L6.28297 71.8794Z" fill="#EBEBEB"/>
<path d="M11.6722 4.001L16.4615 4.09677L18.8907 4.13439C19.7005 4.13439 20.5175 4.13439 21.3309 4.15491H21.4805V4.001V0.173934V0.00292969H21.2944L16.4651 0.0234506C14.8565 0.0234506 13.248 0.0644923 11.6358 0.0815927H11.5373V0.170514C11.5373 0.820329 11.5701 1.46673 11.5847 2.10286L11.6722 4.001ZM11.6722 4.001L11.7233 2.06866C11.7416 1.4291 11.7671 0.799808 11.7744 0.173934L11.6722 0.266276C13.2845 0.266276 14.893 0.320998 16.5016 0.324418L21.3309 0.344938L21.1485 0.173934L21.1704 4.001L21.3309 3.8471C20.5358 3.8471 19.7442 3.8471 18.9454 3.86762L16.5454 3.90524L11.6722 4.001Z" fill="#EBEBEB"/>
<path d="M6.28297 8.82718L11.0722 8.92294L13.5014 8.96056C14.3112 8.96056 15.1282 8.96056 15.9416 8.98108H16.1058V8.82718L16.124 5.00011V4.8291H15.9416L11.1123 4.84962C9.50374 4.84962 7.89153 4.89066 6.28297 4.90776H6.18449V5.00011C6.18449 5.64992 6.21367 6.29632 6.23191 6.93245L6.28297 8.82718ZM6.28297 8.82718L6.33404 6.89483C6.33404 6.25528 6.3778 5.62598 6.38145 5.00011L6.28297 5.09245C7.89153 5.09245 9.50374 5.14717 11.1123 5.15059L15.9416 5.17111L15.7593 5.00011L15.7812 8.82718L15.9416 8.67327C15.1465 8.67327 14.3513 8.67327 13.5562 8.69379L11.1561 8.73141L6.28297 8.82718Z" fill="#EBEBEB"/>
<path d="M139.81 4.00149L144.596 4.09726L147.025 4.13488C147.839 4.13488 148.656 4.13488 149.469 4.1554H149.629V4.00149L149.651 0.171004V0H149.469L144.64 0.020521C143.027 0.020521 141.419 0.0615613 139.81 0.0786617H139.708V0.171004C139.708 0.820819 139.741 1.46721 139.756 2.10335L139.81 4.00149ZM139.81 4.00149L139.861 2.06915C139.861 1.42959 139.902 0.800298 139.909 0.174424L139.81 0.266766C141.419 0.266766 143.027 0.321488 144.64 0.324908L149.469 0.345428L149.287 0.174424V4.00149L149.451 3.84759C148.656 3.84759 147.86 3.84759 147.062 3.86811L144.662 3.90573L139.81 4.00149Z" fill="#EBEBEB"/>
<path d="M143.168 29.0089C142.138 29.3973 141.048 29.6283 139.94 29.6929C137.284 29.8554 134.66 29.0731 132.592 27.5019C130.524 25.9307 129.164 23.6862 128.782 21.2162C128.401 18.7462 129.027 16.2322 130.535 14.1757C132.044 12.1193 134.323 10.6716 136.92 10.1214C139.516 9.57128 142.238 9.95914 144.543 11.2076C146.847 12.4561 148.566 14.4734 149.354 16.8571C150.143 19.2408 149.944 21.8157 148.797 24.0681C147.651 26.3204 145.641 28.0847 143.168 29.0089Z" fill="#EBEBEB"/>
<path d="M142.681 19.2041C142.567 19.7911 142.271 20.3335 141.829 20.7626C141.387 21.1917 140.819 21.4883 140.197 21.6148C139.575 21.7413 138.928 21.6921 138.336 21.4734C137.744 21.2548 137.234 20.8764 136.871 20.3862C136.509 19.896 136.309 19.316 136.298 18.7195C136.287 18.123 136.465 17.5368 136.809 17.0351C137.153 16.5333 137.649 16.1385 138.232 15.9006C138.815 15.6627 139.461 15.5924 140.087 15.6985C140.926 15.8417 141.671 16.2912 142.157 16.9484C142.643 17.6056 142.832 18.4169 142.681 19.2041Z" fill="white"/>
<path d="M143.405 27.7841L143.168 29.0085C142.138 29.397 141.048 29.6279 139.94 29.6925C138.539 29.7753 137.135 29.5943 135.81 29.1602C134.485 28.7261 133.266 28.0478 132.226 27.1651L132.463 25.9441C132.725 24.5835 133.554 23.3765 134.765 22.5886C135.977 21.8006 137.473 21.4963 138.924 21.7426C140.375 21.9888 141.663 22.7655 142.503 23.9017C143.343 25.0379 143.668 26.4406 143.405 27.8012V27.7841Z" fill="white"/>
<path d="M44.5306 86.326C43.5361 87.3329 42.2271 88.0188 40.7912 88.2853C39.3554 88.5517 37.8664 88.3851 36.5378 87.8092C35.2092 87.2334 34.1091 86.2779 33.3954 85.0797C32.6816 83.8815 32.3907 82.5022 32.5644 81.1395C32.7381 79.7768 33.3675 78.5006 34.3624 77.494C35.3572 76.4873 36.6665 75.8018 38.1024 75.5358C39.5384 75.2698 41.0273 75.4369 42.3557 76.0132C43.6841 76.5895 44.7838 77.5453 45.4972 78.7437C46.2069 79.9423 46.4955 81.3202 46.3219 82.6814C46.1484 84.0427 45.5216 85.318 44.5306 86.326Z" fill="#EBEBEB"/>
<path d="M41.2724 80.6689C41.3857 81.0455 41.3772 81.4452 41.2481 81.8173C41.1189 82.1894 40.8749 82.5171 40.5469 82.7591C40.2189 83.0011 39.8217 83.1463 39.4056 83.1765C38.9896 83.2066 38.5733 83.1203 38.2096 82.9284C37.8458 82.7365 37.551 82.4478 37.3625 82.0987C37.1739 81.7496 37.1001 81.3559 37.1504 80.9674C37.2006 80.5789 37.3727 80.2132 37.6449 79.9165C37.917 79.6199 38.2769 79.4056 38.679 79.3008C39.2163 79.1618 39.7905 79.2276 40.2763 79.4839C40.7621 79.7401 41.1201 80.1661 41.2724 80.6689Z" fill="white"/>
<path d="M44.2978 85.5388L44.5312 86.3255C43.656 87.2094 42.5355 87.8474 41.2955 88.1681C40.0554 88.4889 38.7446 88.4797 37.5097 88.1415L37.2763 87.3583C37.0759 86.5032 37.2328 85.6086 37.7148 84.8587C38.1968 84.1089 38.9672 83.5609 39.8672 83.3277C40.7672 83.0945 41.7283 83.1938 42.5526 83.6051C43.3769 84.0165 44.0015 84.7086 44.2978 85.5388Z" fill="white"/>
<path d="M122.195 35.948C122.486 34.8308 122.417 33.6577 121.997 32.5772C121.578 31.4966 120.825 30.557 119.836 29.8774C118.846 29.1977 117.664 28.8084 116.439 28.7588C115.213 28.7092 114 29.0015 112.951 29.5987C111.903 30.1959 111.067 31.0712 110.55 32.1138C110.032 33.1564 109.856 34.3196 110.043 35.4562C110.231 36.5928 110.774 37.6517 111.603 38.499C112.432 39.3463 113.511 39.9439 114.703 40.2163C116.3 40.5813 117.986 40.3368 119.391 39.5364C120.796 38.736 121.804 37.4453 122.195 35.948Z" fill="#EBEBEB"/>
<path d="M113.01 35.2983C113.947 37.0665 116.172 38.1199 116.172 38.1199C116.172 38.1199 118.401 37.0665 119.335 35.2983C120.115 33.8208 119.619 32.2202 118.39 31.8782C116.625 31.3789 116.172 34.2723 116.172 34.2723C116.172 34.2723 115.72 31.3926 113.955 31.8782C112.725 32.2237 112.229 33.8208 113.01 35.2983Z" fill="white"/>
<path d="M23.5803 58.6233C23.3866 57.4877 22.838 56.4314 22.0039 55.5881C21.1699 54.7448 20.0878 54.1524 18.8946 53.8859C17.7014 53.6193 16.4507 53.6905 15.3007 54.0905C14.1507 54.4905 13.1531 55.2013 12.434 56.1331C11.7149 57.0648 11.3066 58.1755 11.2609 59.3248C11.2151 60.4741 11.5339 61.6103 12.1769 62.5897C12.82 63.5691 13.7583 64.3477 14.8733 64.8269C15.9884 65.3062 17.2299 65.4646 18.441 65.2822C20.064 65.0377 21.517 64.199 22.4808 62.9503C23.4445 61.7016 23.84 60.1453 23.5803 58.6233Z" fill="#EBEBEB"/>
<path d="M14.8488 61.3633C16.4428 62.6561 18.9304 62.8134 18.9304 62.8134C18.9304 62.8134 20.5499 61.035 20.6776 59.0513C20.7834 57.4063 19.6709 56.1169 18.3906 56.2434C16.5668 56.4247 17.3328 59.2429 17.3328 59.2429C17.3328 59.2429 15.7242 56.753 14.3017 57.8577C13.3132 58.6546 13.5175 60.286 14.8488 61.3633Z" fill="white"/>
<path fill-rule="evenodd" clip-rule="evenodd" d="M94.6394 58.4832C94.9239 58.319 95.1683 58.0762 95.5513 58.1104C95.6972 58.1104 95.6644 58.0112 95.6644 57.9394C95.6644 56.5987 95.6644 55.258 95.6826 53.9208C95.6826 53.8216 95.6826 53.7429 95.5623 53.6882C94.468 53.1683 94.0048 52.1526 93.3409 51.2941C92.9993 50.862 92.7541 50.3698 92.62 49.8468C92.4859 49.3238 92.4656 48.7808 92.5603 48.2503C92.6041 47.9493 92.4545 47.8159 92.1664 47.7509C92.0207 47.705 91.8632 47.7035 91.7165 47.7465C91.5698 47.7895 91.4413 47.8748 91.3493 47.9904C91.0335 48.5367 90.8212 49.1304 90.722 49.7448C90.6563 50.251 90.8496 50.7469 90.9153 51.2497C90.9627 51.6156 91.0539 51.9816 91.1269 52.3544C91.032 52.4194 90.9189 52.3852 90.8168 52.3852H87.1948C86.6878 52.3852 86.4398 52.5185 86.3668 52.8366C86.3268 53.0312 86.3562 53.2328 86.4505 53.4101C86.5447 53.5875 86.6986 53.7309 86.8884 53.8182C86.9796 53.8626 87.1401 53.8182 87.151 53.955C87.162 54.0918 86.9942 54.0781 86.9103 54.1328C86.4726 54.4098 86.5455 54.9913 87.0562 55.3264C87.1766 55.4085 87.421 55.3709 87.421 55.5385C87.421 55.706 87.2021 55.6684 87.1 55.7642C86.7352 56.0891 86.9212 56.7013 87.4465 56.9475C87.519 56.9687 87.5897 56.995 87.658 57.0262C87.7164 57.0638 87.7748 57.1049 87.658 57.1835C87.1328 57.5255 87.1401 58.018 87.658 58.3737L87.8149 58.4832C88.0059 58.5896 88.2286 58.6352 88.4496 58.6131L94.1288 58.6336C94.2204 58.643 94.313 58.6344 94.4009 58.6085C94.4888 58.5826 94.57 58.5399 94.6394 58.4832Z" fill="#EBEBEB"/>
<path fill-rule="evenodd" clip-rule="evenodd" d="M100.026 56.1409C100.026 55.2893 100.026 54.4309 100.026 53.5861C100.026 53.4117 100.026 53.3296 99.7818 53.3296C98.6729 53.3296 97.5665 53.3296 96.4625 53.3296C96.2437 53.3296 96.2108 53.398 96.2108 53.5793C96.2108 55.2916 96.2108 57.0016 96.2108 58.7094C96.2108 58.9283 96.2692 58.9898 96.5026 58.9864C97.5969 58.9864 98.651 58.9864 99.7234 58.9864C99.9897 58.9864 100.03 58.9009 100.026 58.682C100.012 57.8407 100.023 56.9925 100.026 56.1409Z" fill="#EBEBEB"/>
<path d="M156.639 114.845L137.62 114.763L118.602 114.732L80.5693 114.678L42.5365 114.732L23.5182 114.763L4.5 114.845L23.5182 114.931L42.5365 114.962L80.5693 115.016L118.602 114.962L137.62 114.931L156.639 114.845Z" fill="#263238"/>
<path d="M80.5691 146C41.1518 146 9.19778 141.788 9.19778 136.591C9.19778 131.395 41.1518 127.183 80.5691 127.183C119.986 127.183 151.94 131.395 151.94 136.591C151.94 141.788 119.986 146 80.5691 146Z" fill="#EBEBEB"/>
<path d="M74.4724 29.8369C72.8712 19.928 80.1402 10.6781 90.7081 9.17669C101.276 7.67533 111.141 14.491 112.742 24.4C114.344 34.309 107.075 43.5589 96.5066 45.0603C85.9386 46.5616 76.0736 39.7459 74.4724 29.8369Z" fill="#5E8BFF"/>
<path opacity="0.1" d="M96.8845 45.005C99.8802 44.5529 102.72 43.4459 105.175 41.7737C107.63 40.1014 109.631 37.9109 111.015 35.3792C112.399 32.8475 113.129 30.0458 113.144 27.2007C113.16 24.3557 112.461 21.5472 111.104 19.0025C109.747 16.4577 107.77 14.2483 105.333 12.5528C102.897 10.8573 100.069 9.72339 97.0778 9.24285C94.0871 8.76231 91.0178 8.9486 88.1181 9.78667C85.2184 10.6247 82.5698 12.091 80.3867 14.0669C83.3977 11.5478 87.2762 10.1307 91.3111 10.0751C95.3461 10.0196 99.2672 11.3295 102.356 13.7647C105.444 16.1998 107.494 19.5971 108.128 23.3339C108.762 27.0706 107.938 30.8965 105.808 34.1102C103.678 37.3238 100.384 39.7101 96.5299 40.8314C92.6758 41.9528 88.5198 41.7342 84.8236 40.2156C81.1274 38.6971 78.1388 35.9804 76.4054 32.5635C74.672 29.1466 74.3101 25.2584 75.3859 21.6116C74.3842 24.5623 74.2054 27.7043 74.8664 30.7381C75.5275 33.772 77.0064 36.5964 79.1622 38.9422C81.318 41.288 84.0787 43.0768 87.1811 44.1381C90.2835 45.1995 93.6241 45.4979 96.8845 45.005Z" fill="black"/>
<path d="M105.007 21.7892C105.001 21.4206 104.916 21.0569 104.758 20.7192C104.601 20.3815 104.373 20.0768 104.088 19.8227C103.792 19.548 103.434 19.3398 103.041 19.2139C102.637 19.0873 102.207 19.0533 101.786 19.1147C101.367 19.1812 100.971 19.3394 100.63 19.5765C100.299 19.813 100.029 20.1156 99.8383 20.4623C99.6539 20.7877 99.5406 21.1444 99.5049 21.5114C99.4692 21.8784 99.5118 22.2484 99.6304 22.5998C99.6725 21.9303 99.9097 21.2844 100.316 20.7324C100.499 20.4815 100.734 20.2675 101.006 20.103C101.279 19.9386 101.583 19.827 101.903 19.7748C102.223 19.7293 102.55 19.7453 102.863 19.8217C103.177 19.8981 103.47 20.0334 103.727 20.2194C104.299 20.6221 104.743 21.1653 105.007 21.7892Z" fill="#263238"/>
<path d="M86.7705 24.5461C86.7648 24.1777 86.681 23.8141 86.5238 23.4764C86.3666 23.1388 86.1392 22.8339 85.855 22.5795C85.5591 22.3056 85.2014 22.0975 84.8081 21.9708C84.4047 21.8418 83.9737 21.8075 83.5528 21.8706C83.1318 21.9338 82.7338 22.0927 82.3935 22.3333C82.0628 22.5698 81.7924 22.8724 81.602 23.2191C81.4168 23.5443 81.303 23.901 81.2673 24.2681C81.2316 24.6353 81.2747 25.0054 81.394 25.3566C81.4369 24.6872 81.674 24.0415 82.0798 23.4893C82.2588 23.2353 82.4921 23.0189 82.765 22.8539C83.0378 22.6889 83.3443 22.5788 83.6648 22.5305C83.9854 22.4823 84.3132 22.497 84.6274 22.5737C84.9416 22.6505 85.2354 22.7875 85.4902 22.9763C86.0643 23.3777 86.5077 23.9214 86.7705 24.5461Z" fill="#263238"/>
<path d="M89.0493 23.3694C89.1068 23.8839 89.2754 24.382 89.5448 24.8335C89.8142 25.285 90.1787 25.6803 90.6162 25.9955C91.0537 26.3107 91.555 26.5391 92.0896 26.6669C92.6242 26.7947 93.181 26.8191 93.726 26.7388C94.271 26.6584 94.7929 26.4749 95.2599 26.1994C95.7269 25.9239 96.1292 25.5622 96.4424 25.1363C96.7556 24.7104 96.9731 24.2293 97.0816 23.7221C97.1902 23.2149 97.1876 22.6923 97.0739 22.186L89.0493 23.3694Z" fill="#263238"/>
<path d="M90.3341 25.5989C90.7844 25.9827 91.3207 26.267 91.9035 26.4309C92.4864 26.5948 93.1011 26.634 93.7023 26.5457C94.3035 26.4575 94.8759 26.244 95.3775 25.9209C95.8791 25.5978 96.297 25.1734 96.6006 24.6789C95.6109 24.1057 94.4351 23.8834 93.2859 24.0521C92.1366 24.2208 91.0896 24.7695 90.3341 25.5989Z" fill="#C95F50"/>
<path d="M105.32 21.6595C105.32 21.6595 108.238 20.7224 110.139 21.7553C112.039 22.7881 111.455 24.8334 109.522 24.9838C107.589 25.1343 105.32 21.6595 105.32 21.6595Z" fill="white"/>
<path d="M80.9336 25.3564C80.9336 25.3564 77.8587 25.5651 76.5566 27.2101C75.2544 28.8552 76.6186 30.5139 78.4679 29.9462C80.3172 29.3785 80.9336 25.3564 80.9336 25.3564Z" fill="white"/>
<path d="M126.893 47.1591C126.098 39.4773 132.095 32.646 140.288 31.9009C148.481 31.1558 155.767 36.7791 156.561 44.4609C157.356 52.1428 151.358 58.9741 143.166 59.7192C134.973 60.4643 127.687 54.841 126.893 47.1591Z" fill="#5E8BFF"/>
<path opacity="0.1" d="M137.448 59.1914C139.688 59.8177 142.054 59.9412 144.354 59.5519C146.655 59.1627 148.825 58.2716 150.69 56.9506C152.556 55.6296 154.063 53.9158 155.092 51.9476C156.12 49.9794 156.64 47.812 156.61 45.6205C156.58 43.429 156.001 41.2748 154.919 39.332C153.837 37.3891 152.283 35.7121 150.382 34.4364C148.482 33.1607 146.288 32.3221 143.978 31.9883C141.667 31.6544 139.306 31.8348 137.084 32.5147C140.074 31.7159 143.271 31.9542 146.09 33.186C148.908 34.4177 151.158 36.5604 152.429 39.2215C153.699 41.8825 153.904 44.8837 153.007 47.6751C152.109 50.4664 150.169 52.861 147.541 54.42C144.914 55.9791 141.775 56.5982 138.7 56.1638C135.626 55.7295 132.821 54.2709 130.8 52.0552C128.779 49.8395 127.677 47.0152 127.696 44.0998C127.716 41.1843 128.855 38.3731 130.905 36.181C129.152 37.9126 127.901 40.0362 127.272 42.3495C126.643 44.6628 126.656 47.0887 127.31 49.3959C127.965 51.703 129.238 53.8146 131.01 55.5294C132.781 57.2441 134.992 58.5048 137.43 59.1914H137.448Z" fill="black"/>
<path d="M151.159 46.3867C151.298 46.1307 151.378 45.8506 151.396 45.5639C151.413 45.2773 151.368 44.9904 151.261 44.7211C151.155 44.4319 150.98 44.1688 150.751 43.9516C150.51 43.7332 150.217 43.5714 149.897 43.4797C149.575 43.391 149.234 43.3769 148.905 43.4386C148.585 43.5021 148.285 43.6318 148.026 43.8182C147.781 43.9903 147.576 44.2078 147.425 44.4573C147.274 44.7069 147.179 44.9829 147.147 45.2684C147.428 44.8293 147.83 44.4691 148.31 44.2252C148.52 44.1117 148.751 44.0392 148.991 44.0122C149.232 43.9852 149.475 44.0043 149.707 44.0683C149.939 44.1323 150.155 44.2398 150.341 44.3844C150.527 44.5289 150.68 44.7075 150.791 44.9092C151.05 45.3627 151.177 45.8724 151.159 46.3867Z" fill="#263238"/>
<path d="M133.75 40.6789C133.633 41.051 133.635 41.4475 133.757 41.8184C133.879 42.1893 134.115 42.5181 134.436 42.7632C134.757 43.0084 135.148 43.1591 135.561 43.1962C135.973 43.2333 136.387 43.1552 136.752 42.9718C137.117 42.7884 137.416 42.5079 137.611 42.1655C137.806 41.8232 137.889 41.4343 137.849 41.048C137.808 40.6617 137.647 40.2951 137.385 39.9945C137.123 39.6939 136.772 39.4727 136.377 39.3587C136.112 39.2829 135.834 39.257 135.558 39.2824C135.282 39.3078 135.015 39.384 134.771 39.5067C134.527 39.6294 134.311 39.7961 134.136 39.9973C133.961 40.1984 133.83 40.4301 133.75 40.6789Z" fill="#263238"/>
<path d="M145.645 44.5464C145.645 44.5464 144.696 45.7468 142.424 45.5519C142.424 45.5519 142.745 49.5636 145.437 48.63C148.129 47.6963 145.645 44.5464 145.645 44.5464Z" fill="#C95F50"/>
<path d="M146.473 43.363C146.014 44.1005 145.334 44.6953 144.518 45.073C143.718 45.3844 142.826 45.416 142.004 45.162C141.164 44.9692 140.43 44.4931 139.94 43.8247C139.465 43.1036 139.202 42.2777 139.178 41.4307C138.938 42.3211 139.051 43.2627 139.495 44.0812C139.733 44.5019 140.067 44.8685 140.472 45.1551C140.88 45.432 141.337 45.6393 141.822 45.7673C142.306 45.8958 142.809 45.9478 143.31 45.9212C143.817 45.886 144.309 45.7458 144.751 45.5108C145.602 45.0326 146.219 44.262 146.473 43.363Z" fill="#263238"/>
<path d="M144.916 47.5599C144.893 47.1773 144.808 46.8003 144.664 46.4416C144.537 46.0744 144.348 45.7282 144.106 45.4155C144.126 45.7981 144.21 46.1755 144.354 46.5339C144.485 46.9006 144.674 47.2466 144.916 47.5599Z" fill="#263238"/>
<path d="M33.975 33.7114H67.6855V51.147H33.975V33.7114Z" fill="#455A64"/>
<path d="M74.1855 51.1508H67.6856V45.7163L74.1855 51.1508Z" fill="#455A64"/>
<path d="M48.3037 36.9331H63.5869V37.3264H48.3037V36.9331Z" fill="white"/>
<path d="M37.9156 39.0537H63.5869V39.447H37.9156V39.0537Z" fill="white"/>
<path d="M37.9156 41.1743H63.5869V41.5676H37.9156V41.1743Z" fill="white"/>
<path d="M42.8361 43.2944H63.5869V43.6877H42.8361V43.2944Z" fill="white"/>
<path d="M37.9156 45.415H63.5869V45.8084H37.9156V45.415Z" fill="white"/>
<path d="M54.1434 47.5356H63.5869V47.929H54.1434V47.5356Z" fill="white"/>
<path d="M19.8564 54.2051H53.3408V67.1364H19.8564V54.2051Z" fill="#5E8BFF"/>
<path d="M53.3303 61.9512V67.136H60.0527L53.3303 61.9512Z" fill="#5E8BFF"/>
<path d="M23.8788 57.4233H49.2656V57.8167H23.8788V57.4233Z" fill="white"/>
<path d="M34.7813 59.5435H49.2656V59.9368H34.7813V59.5435Z" fill="white"/>
<path d="M29.6857 61.6636H49.2656V62.0569H29.6857V61.6636Z" fill="white"/>
<path d="M42.4447 63.7847H49.2656V64.178H42.4447V63.7847Z" fill="white"/>
<path d="M74.3465 62.3783L74.5508 62.2108C74.3939 62.0398 74.2261 61.8688 74.0584 61.7012L73.8578 61.8756C74.0255 62.0432 74.1897 62.2108 74.3465 62.3783Z" fill="#263238"/>
<path d="M66.2574 83.4769V83.2204C65.7906 83.2204 65.3127 83.1827 64.8349 83.1314L64.8021 83.388C65.2945 83.4358 65.7833 83.4666 66.2574 83.4769ZM68.0812 83.3982C68.5643 83.3474 69.044 83.2721 69.5183 83.1725L69.4563 82.9228C68.9929 83.0201 68.5241 83.0932 68.052 83.1417L68.0812 83.3982ZM63.0294 83.1041L63.0877 82.8544C62.6318 82.7587 62.1685 82.6424 61.7053 82.5124L61.6251 82.7587C62.081 82.8886 62.5552 83.0083 63.0184 83.1041H63.0294ZM71.2582 82.6834C71.7124 82.5216 72.1558 82.3343 72.5859 82.1225L72.4582 81.8934C72.0381 82.0997 71.6057 82.2836 71.1634 82.444L71.2582 82.6834ZM59.918 82.1807L60.0238 81.9413C59.5861 81.7737 59.1484 81.5992 58.718 81.394L58.5976 81.6232C59.0207 81.825 59.4657 82.0097 59.9071 82.1807H59.918ZM74.1434 81.2128C74.5339 80.9424 74.9055 80.6488 75.2559 80.3338L75.0662 80.1491C74.721 80.4565 74.3556 80.7432 73.972 81.0076L74.1434 81.2128ZM57.0182 80.8195L57.1605 80.6006C56.7556 80.3714 56.3544 80.1252 55.9641 79.8653L55.8072 80.0773C56.1756 80.3372 56.5842 80.5869 56.9927 80.8195H57.0182ZM76.4705 79.065C76.7666 78.7039 77.0382 78.3258 77.2839 77.9329L77.0468 77.803C76.808 78.1864 76.5437 78.5554 76.2553 78.9076L76.4705 79.065ZM54.3774 79.0342L54.5561 78.8392C54.1914 78.5554 53.8449 78.251 53.4984 77.9398L53.3087 78.1244C53.6333 78.4391 53.9908 78.7469 54.3519 79.0342H54.3774ZM52.0539 76.9001L52.2582 76.7291C51.9445 76.4076 51.6308 76.045 51.3244 75.703L51.1129 75.8638C51.3901 76.2297 51.7147 76.5752 52.0284 76.9001H52.0539ZM78.0791 76.3973C78.2583 75.9729 78.4106 75.539 78.535 75.0977L78.2688 75.0327C78.1481 75.4633 78.0007 75.887 77.8274 76.3015L78.0791 76.3973ZM49.9931 74.5334L50.2156 74.3795C49.9311 74.0375 49.6539 73.6544 49.3803 73.285L49.1541 73.4287C49.4168 73.8049 49.694 74.1708 49.9785 74.5334H49.9931ZM78.8524 73.4218C78.9047 72.9823 78.9314 72.5405 78.9326 72.0983V72.0606H78.6591V72.1017C78.659 72.5336 78.6334 72.9652 78.5825 73.3945L78.8524 73.4218ZM48.1511 72.023L48.3809 71.8828C48.1219 71.5066 47.8629 71.1304 47.6076 70.7439L47.3778 70.8807C47.6185 71.2672 47.8775 71.6502 48.1365 72.023H48.1511ZM78.5314 70.3951L78.8013 70.3574C78.7339 69.9075 78.6414 69.4611 78.5241 69.0202L78.2578 69.0818C78.369 69.5149 78.4554 69.9533 78.5168 70.3951H78.5314ZM46.4331 69.4409L46.6665 69.3075C46.4185 68.9244 46.1705 68.5414 45.937 68.1515L45.7036 68.2849L46.4331 69.4409ZM77.7289 67.4846L77.9843 67.3957C77.8165 66.975 77.6195 66.5543 77.4079 66.1439L77.1636 66.2568C77.3532 66.6603 77.5466 67.0742 77.7107 67.4846H77.7289ZM44.7589 66.8382L44.9923 66.7048L44.2446 65.5488L44.0111 65.6822L44.7589 66.8382ZM76.2955 64.7861L76.5289 64.6493C76.2736 64.2697 76 63.8901 75.7118 63.5241L75.493 63.678C75.7556 64.044 76.0292 64.4168 76.2772 64.8101L76.2955 64.7861ZM43.0591 64.2423L43.2926 64.1055C43.0372 63.7259 42.7746 63.3463 42.512 62.9701L42.2822 63.1103C42.5266 63.4933 42.7892 63.873 43.0409 64.2492L43.0591 64.2423ZM41.2791 61.7115L41.5053 61.5644C41.2317 61.195 40.9508 60.8291 40.6663 60.4632L40.4475 60.6136C40.715 60.9807 40.9861 61.3535 41.2609 61.732L41.2791 61.7115ZM39.3605 59.273L39.5757 59.1122C39.273 58.7531 38.9666 58.4008 38.6638 58.0623L38.4523 58.2298C38.7368 58.5718 39.0432 58.9207 39.3532 59.2798L39.3605 59.273ZM37.2668 56.9678L37.4674 56.7934C37.1392 56.4514 36.7999 56.1333 36.4644 55.8187L36.271 56C36.5884 56.3214 36.9203 56.6463 37.2486 56.9747L37.2668 56.9678ZM34.9689 54.8474L35.1513 54.6559C34.7865 54.3549 34.4218 54.0573 34.057 53.7735L33.8856 53.9718C34.2284 54.2591 34.6114 54.5498 34.9506 54.8542L34.9689 54.8474ZM32.463 52.9458L32.6235 52.7406C32.2369 52.4738 31.8357 52.2139 31.4344 51.9677L31.2849 52.1831C31.6642 52.4328 32.0581 52.6927 32.4448 52.9527L32.463 52.9458ZM29.7638 51.3008L29.8988 51.0785C29.4866 50.8561 29.0599 50.6338 28.6331 50.4286L28.5055 50.6544C28.914 50.8664 29.3371 51.0853 29.7456 51.3076L29.7638 51.3008ZM26.8969 49.9327L27.01 49.7002C26.5723 49.5155 26.1236 49.3376 25.6786 49.17L25.5765 49.4095C26.0032 49.5702 26.4446 49.7617 26.8786 49.9293L26.8969 49.9327ZM23.8986 48.828L23.9862 48.5852C23.5339 48.4382 23.0706 48.3013 22.6074 48.1714L22.5308 48.4176C22.9721 48.5408 23.4317 48.681 23.8804 48.8246L23.8986 48.828Z" fill="#263238"/>
<path d="M20.7185 47.9529L20.7842 47.7032L20.0729 47.5459L20.0109 47.7956L20.7185 47.9529Z" fill="#263238"/>
<path d="M20.463 45.104L23.2461 48.5309L19.3286 47.1424L5.9203 46.5644L20.463 45.104Z" fill="#5E8BFF"/>
<path opacity="0.1" d="M20.463 45.104L23.2461 48.5309L19.3286 47.1424L5.9203 46.5644L20.463 45.104Z" fill="black"/>
<path d="M19.2229 48.1613L23.2461 48.5306L19.3286 47.1421L19.2229 48.1613Z" fill="#263238"/>
<path d="M19.3301 47.1424L5.92174 46.5645L18.8085 52.7206L19.3301 47.1424Z" fill="#5E8BFF"/>
<path d="M20.4625 45.1043L24.4639 40.6104L5.9198 46.5647L20.4625 45.1043Z" fill="#5E8BFF"/>
<path d="M127.531 136.317L60.0517 136.591C43.6378 124.515 41.9563 106.624 53.6576 95.7826C60.7374 89.2229 69.7286 90.5464 78.293 89.5033H78.3149C81.2986 89.1374 84.2239 88.4773 86.9997 87.1093C95.8158 82.7487 100.787 72.4611 108.203 63.8082C109.129 62.7207 110.102 61.6684 111.121 60.6515C117.22 54.5432 129.359 54.3449 135.709 62.9293C151.838 84.7426 144.448 117.213 127.531 136.317Z" fill="#5E8BFF"/>
<path opacity="0.2" d="M127.531 136.317L60.0517 136.591C43.6378 124.515 41.9563 106.624 53.6576 95.7826C60.7374 89.2229 69.7286 90.5464 78.293 89.5033H78.3149C81.2986 89.1374 84.2239 88.4773 86.9997 87.1093C95.8158 82.7487 100.787 72.4611 108.203 63.8082C109.129 62.7207 110.102 61.6684 111.121 60.6515C117.22 54.5432 129.359 54.3449 135.709 62.9293C151.838 84.7426 144.448 117.213 127.531 136.317Z" fill="black"/>
<path opacity="0.1" d="M129.03 86.4078C127.257 112.349 95.2941 122.052 75.3239 114.278C57.9653 107.517 63.6518 92.0851 78.3003 89.503H78.3222C81.3058 89.137 84.2312 88.4769 87.0069 87.1089C95.823 82.7483 100.795 72.4607 108.21 63.8079C119.262 58.4247 130.325 67.4024 129.03 86.4078Z" fill="black"/>
<path d="M69.4988 138.373C70.4727 138.031 92.4564 121.563 92.8722 120.438C93.0327 120.014 90.6582 116.871 87.6781 113.149C87.0361 112.346 86.365 111.522 85.6793 110.687C81.2366 105.259 76.389 99.5957 76.389 99.5957L61.6457 110.578L71.3444 121.365L73.471 123.735C73.471 123.735 68.0617 133.571 67.748 134.85C67.4343 136.129 68.5322 138.708 69.4988 138.373Z" fill="#C95F50"/>
<path d="M69.4989 138.373C70.4728 138.031 92.4565 121.563 92.8723 120.438C93.0656 119.918 89.5239 115.39 85.6794 110.687L71.3446 121.364L73.4711 123.735C73.4711 123.735 68.0618 133.571 67.7481 134.85C67.4344 136.129 68.5323 138.708 69.4989 138.373Z" fill="white"/>
<path d="M69.4988 138.373C70.4727 138.031 92.4564 121.563 92.8722 120.438C93.0327 120.014 90.6581 116.871 87.6781 113.15L73.471 123.752C73.471 123.752 68.0617 133.588 67.748 134.867C67.4343 136.147 68.5322 138.708 69.4988 138.373Z" fill="#5E8BFF"/>
<path d="M69.1129 137.316C72.7239 134.47 87.584 123.293 91.3847 120.752C91.4175 120.732 91.4321 120.752 91.3847 120.773C87.8721 123.666 72.9172 134.716 69.1347 137.37C69.08 137.425 69.0363 137.37 69.1129 137.316Z" fill="#263238"/>
<path d="M68.5325 133.051C68.9325 132.734 69.3984 132.498 69.9007 132.358C70.403 132.219 70.9308 132.179 71.4505 132.241C72.388 132.345 73.2463 132.785 73.8469 133.468C73.8652 133.489 73.8251 133.52 73.8032 133.503C73.0952 132.912 72.2018 132.552 71.2573 132.478C70.3127 132.404 69.368 132.62 68.5653 133.092C68.5325 133.113 68.5033 133.072 68.5325 133.051Z" fill="#263238"/>
<path d="M72.3366 125.148C73.7956 124.022 75.9185 123.232 77.8079 123.674C77.8808 123.691 77.8553 123.79 77.8079 123.8C75.9767 124.133 74.1889 124.649 72.4752 125.339C72.4618 125.348 72.4467 125.354 72.4308 125.357C72.415 125.36 72.3986 125.36 72.3827 125.357C72.3668 125.354 72.3516 125.348 72.338 125.34C72.3245 125.332 72.3129 125.321 72.3038 125.308C72.2947 125.296 72.2883 125.282 72.285 125.267C72.2817 125.252 72.2816 125.237 72.2847 125.222C72.2877 125.207 72.2939 125.193 72.3028 125.18C72.3117 125.167 72.3232 125.156 72.3366 125.148Z" fill="#263238"/>
<path d="M71.5524 126.417C73.0114 125.295 75.1379 124.501 77.0237 124.946C77.0967 124.963 77.0711 125.059 77.0237 125.069C75.1937 125.402 73.4071 125.918 71.6947 126.608C71.6812 126.617 71.6661 126.623 71.6502 126.626C71.6342 126.63 71.6177 126.63 71.6016 126.627C71.5855 126.625 71.5701 126.619 71.5564 126.611C71.5426 126.602 71.5307 126.592 71.5214 126.579C71.5121 126.566 71.5054 126.552 71.502 126.537C71.4985 126.522 71.4981 126.507 71.501 126.492C71.5039 126.477 71.5099 126.462 71.5187 126.449C71.5275 126.436 71.539 126.425 71.5524 126.417Z" fill="#263238"/>
<path d="M70.7682 127.689C72.2272 126.564 74.3537 125.77 76.2395 126.215C76.3125 126.215 76.2869 126.328 76.2395 126.341C74.4096 126.673 72.623 127.188 70.9105 127.877C70.8839 127.895 70.8509 127.902 70.8187 127.897C70.7866 127.892 70.7579 127.875 70.739 127.85C70.7202 127.825 70.7126 127.794 70.7181 127.764C70.7236 127.734 70.7416 127.707 70.7682 127.689Z" fill="#263238"/>
<path d="M69.9909 128.958C71.4499 127.832 73.5764 127.039 75.4622 127.484C75.5351 127.501 75.5096 127.596 75.4622 127.61C73.6323 127.942 71.8457 128.456 70.1331 129.146C70.12 129.154 70.1051 129.161 70.0893 129.164C70.0736 129.167 70.0573 129.168 70.0414 129.165C70.0254 129.163 70.0102 129.157 69.9966 129.149C69.9829 129.141 69.971 129.131 69.9617 129.118C69.9524 129.106 69.9457 129.092 69.9421 129.077C69.9385 129.062 69.9381 129.047 69.9408 129.032C69.9435 129.017 69.9493 129.003 69.9579 128.99C69.9665 128.977 69.9777 128.966 69.9909 128.958Z" fill="#263238"/>
<path d="M87.6502 118.164C89.3099 116.929 91.3598 119.343 89.7002 120.582C88.0405 121.82 85.9906 119.408 87.6502 118.164Z" fill="white"/>
<path d="M67.5946 122.651C67.8463 121.512 69.2725 121.375 70.2464 121.625C71.9101 122.097 73.4122 122.971 74.6015 124.159C74.6076 124.164 74.6125 124.169 74.6159 124.175C74.6192 124.181 74.621 124.188 74.621 124.195C74.621 124.202 74.6192 124.209 74.6159 124.215C74.6125 124.222 74.6076 124.227 74.6015 124.231C74.6181 124.261 74.6268 124.295 74.627 124.329C74.6271 124.363 74.6186 124.397 74.6022 124.427C74.5859 124.457 74.5621 124.484 74.5328 124.504C74.5035 124.524 74.4696 124.537 74.4337 124.542C72.8033 124.648 71.0707 124.953 69.4549 124.584C68.4956 124.378 67.3575 123.732 67.5946 122.651ZM71.9097 124.235C72.7158 124.204 73.5109 124.132 74.3134 124.125C73.4813 123.609 72.6218 123.133 71.7382 122.699C71.3061 122.495 70.8602 122.318 70.4032 122.169C69.692 121.953 67.259 121.882 68.3971 123.496C69.0208 124.389 70.954 124.276 71.9097 124.235Z" fill="#263238"/>
<path d="M78.7015 121.926C77.5744 123.071 75.9585 123.721 74.5397 124.484C74.5067 124.498 74.4705 124.505 74.4342 124.503C74.3979 124.502 74.3624 124.493 74.3308 124.476C74.2991 124.459 74.2721 124.436 74.252 124.407C74.2318 124.379 74.2192 124.347 74.215 124.313C74.1822 124.313 74.153 124.296 74.1603 124.258C74.4457 122.651 75.1765 121.142 76.2795 119.884C76.9361 119.162 78.2018 118.533 79.0881 119.35C79.9745 120.168 79.3617 121.262 78.7015 121.926ZM78.9203 120.469C78.9203 118.536 76.9288 119.863 76.4656 120.414C76.1737 120.775 75.9081 121.155 75.6704 121.549C75.1935 122.371 74.7613 123.214 74.3755 124.077C75.0467 123.663 75.7506 123.307 76.44 122.917C77.2571 122.456 78.9276 121.542 78.9203 120.475V120.469Z" fill="#263238"/>
<path d="M46.76 89.4621C47.7704 96.6443 66.6428 117.37 68.824 119.75L69.3201 120.291L84.9461 109.042L84.7674 108.823L71.0198 91.9451L112.025 91.7194L96.4541 80.3681C96.4541 80.3681 95.192 81.0521 92.5658 80.693C83.5163 79.4515 63.1119 76.7018 58.3009 76.8831C52.0818 77.1225 45.8336 82.875 46.76 89.4621Z" fill="#37474F"/>
<path d="M66.068 85.6729C66.5785 86.2147 67.0524 86.7858 67.4869 87.3829C67.972 87.9815 68.4645 88.5731 68.9459 89.1716V89.1887C68.862 89.0143 68.7781 88.8467 68.687 88.662C68.3806 88.0704 68.1362 87.4548 67.7751 86.887C67.7532 86.8494 67.8079 86.8186 67.8298 86.8528C68.1945 87.4171 68.6359 87.9541 68.9532 88.5629C69.1028 88.8433 69.245 89.1238 69.3763 89.411C69.4493 89.5684 69.5259 89.7291 69.5879 89.8864C69.6237 89.962 69.6541 90.0397 69.6791 90.119C69.8979 90.396 70.1095 90.6731 70.321 90.9569C70.7843 91.5862 71.1928 92.2497 71.6597 92.8756C71.6852 92.9064 71.6269 92.9372 71.6013 92.9064C71.1272 92.3215 70.5946 91.7743 70.1131 91.1963C69.6317 90.6183 69.1575 89.9925 68.6979 89.3803C68.2383 88.7681 67.8115 88.1764 67.3629 87.5779C66.8718 86.9866 66.4198 86.3675 66.0097 85.7242C66.0169 85.6729 66.0461 85.6524 66.068 85.6729Z" fill="#263238"/>
<path d="M104.851 69.981C101.455 78.1447 90.6258 87.6628 86.9418 87.9706C82.6523 88.3332 71.5711 83.7195 67.2816 78.1277C66.2675 76.8041 75.3499 70.494 76.8855 71.4824C80.037 73.5071 85.9752 76.2705 86.4858 76.2911C87.4998 76.3629 94.2405 71.414 99.6169 67.8777C106.314 63.4829 106.204 66.7285 104.851 69.981Z" fill="#C95F50"/>
<path d="M68.5908 79.6092C68.5908 79.6092 64.6624 75.806 64.2466 72.2252C63.9584 69.7456 64.2283 63.1723 70.586 58.7193C72.0961 57.6625 75.0433 57.1632 73.2487 59.7248C71.9721 61.5477 70.5787 62.3412 70.0425 63.5245C70.0425 63.5245 73.8724 63.3056 74.9412 64.7626C75.8755 66.0367 76.7116 67.3716 77.4434 68.7572C77.2044 68.9431 76.9521 69.1134 76.6883 69.2668C76.6883 69.2668 77.5528 70.717 76.9546 73.176L68.5908 79.6092Z" fill="#C95F50"/>
<path d="M77.9761 56.1679L82.3531 69.1642C82.5245 69.5438 82.3531 69.8687 81.9336 69.8892L74.6641 70.2825C74.442 70.2797 74.2254 70.2174 74.0399 70.1028C73.8544 69.9883 73.7077 69.8263 73.6172 69.6362L69.2584 56.6398C69.0834 56.2602 69.2584 55.9353 69.6743 55.9114L76.9219 55.5249C77.1446 55.5274 77.3619 55.5891 77.5485 55.703C77.7351 55.8168 77.8834 55.978 77.9761 56.1679Z" fill="#A6A6A6"/>
<path d="M77.1147 56.2089L81.4918 69.2052C81.6632 69.5814 81.4918 69.9097 81.0723 69.9302L73.821 70.327C73.5987 70.3232 73.3821 70.2604 73.1962 70.146C73.0103 70.0317 72.8627 69.8703 72.7705 69.6806L68.4154 56.6843C68.2403 56.3047 68.4154 55.9832 68.8312 55.9592L76.0642 55.5762C76.285 55.5788 76.5005 55.6395 76.6862 55.7513C76.872 55.8632 77.0204 56.0217 77.1147 56.2089Z" fill="#C7C7C7"/>
<path d="M75.1636 56.9202C75.1734 57.0341 75.219 57.1428 75.2946 57.2324C75.3702 57.3221 75.4725 57.3887 75.5885 57.4239C75.7045 57.459 75.829 57.4611 75.9463 57.43C76.0636 57.3988 76.1684 57.3357 76.2474 57.2487C76.3264 57.1616 76.3762 57.0546 76.3904 56.9411C76.4045 56.8275 76.3825 56.7126 76.327 56.6108C76.2715 56.509 76.1851 56.425 76.0786 56.3693C75.9722 56.3135 75.8505 56.2886 75.729 56.2977C75.6483 56.3038 75.5696 56.3247 75.4975 56.3592C75.4254 56.3938 75.3613 56.4413 75.3088 56.4991C75.2563 56.5569 75.2165 56.6239 75.1915 56.6961C75.1666 56.7684 75.1572 56.8445 75.1636 56.9202Z" fill="#263238"/>
<path d="M64.6291 68.6986C65.4279 67.6281 67.1568 65.3845 69.2542 64.0097C71.5813 62.4843 76.5091 60.1313 77.6909 61.7558C78.559 62.946 76.7644 63.9994 76.7644 63.9994C76.7644 63.9994 79.0186 63.4282 79.5511 64.6834C80.0363 65.8086 78.5955 66.5439 78.5955 66.5439C78.5955 66.5439 80.0253 66.4208 80.2734 67.5905C80.5652 68.9961 77.5195 69.0269 76.5055 70.6959C76.2793 71.0516 64.6291 68.6986 64.6291 68.6986Z" fill="#C95F50"/>
<path d="M70.5642 66.5856C72.282 65.1496 74.4261 64.2392 76.7103 63.9761C76.7687 63.9761 76.8051 64.0103 76.7504 64.024C74.5897 64.6481 72.5174 65.5151 70.5788 66.6061C70.5788 66.6061 70.5533 66.5959 70.5642 66.5856Z" fill="#263238"/>
<path d="M72.2733 68.747C73.156 68.063 75.9719 66.5992 78.5762 66.4829C78.6346 66.4829 78.6674 66.5205 78.6127 66.5342C76.4214 67.0527 74.2996 67.8019 72.2878 68.7675C72.2878 68.7675 72.2623 68.7538 72.2733 68.747Z" fill="#263238"/>
<path d="M76.9989 70.1011C76.9989 70.8911 76.999 71.6572 76.9041 72.4199C76.8676 72.8029 76.802 73.1791 76.729 73.5554C76.6395 73.9334 76.5287 74.3067 76.3971 74.6737C76.9081 74.0275 77.2095 73.2568 77.2652 72.4541C77.3035 72.057 77.3035 71.6575 77.2652 71.2605C77.228 70.8652 77.1386 70.4757 76.9989 70.1011Z" fill="#263238"/>
<path d="M100.247 78.429L93.5505 71.4144C93.5505 71.4144 98.8759 67.1359 102.731 65.5182C106.587 63.9005 107.134 66.233 105.438 69.7523C103.742 73.2715 100.247 78.429 100.247 78.429Z" fill="#C7C7C7"/>
<path d="M95.3295 73.2751L100.246 78.4292C100.246 78.4292 103.741 73.2717 105.437 69.7524C106.71 67.1053 106.724 65.1285 105.006 65.002L95.3295 73.2751Z" fill="#A6A6A6"/>
<path d="M95.4648 70.3511C96.5992 71.3498 99.5865 74.1508 101.261 76.2166C101.261 76.2166 101.221 76.2747 101.21 76.261C99.5282 74.7528 96.4241 71.5071 95.3955 70.4161C95.3736 70.3956 95.4429 70.334 95.4648 70.3511Z" fill="#263238"/>
<path d="M120.667 95.9336C120.598 96.002 93.9127 90.5196 93.6756 90.2289C93.3108 89.8185 98.1 71.0012 103.13 65.3889C104.388 63.9832 108.393 64.079 110.188 65.4983C119.062 72.5129 120.923 95.6839 120.667 95.9336Z" fill="#EBEBEB"/>
<path fill-rule="evenodd" clip-rule="evenodd" d="M104.452 64.6188L110.708 65.9457C110.544 65.7918 110.376 65.6516 110.208 65.5182L105.193 64.458C104.942 64.4943 104.694 64.548 104.452 64.6188ZM103.529 65.0326L111.51 66.7221C111.638 66.8521 111.758 66.982 111.875 67.1188L103.212 65.2857C103.309 65.1916 103.415 65.1069 103.529 65.0326ZM102.767 65.7987L112.488 67.8507C112.59 67.9738 112.685 68.1004 112.78 68.2304L102.566 66.0654C102.621 65.9799 102.69 65.8876 102.767 65.7987ZM102.165 66.599L113.287 68.952C113.37 69.0751 113.454 69.1982 113.535 69.3248L101.976 66.8623L102.165 66.599ZM101.633 67.413L113.972 70.0259L114.184 70.3918L101.458 67.6968L101.633 67.413ZM101.14 68.2304L114.57 71.0724L114.76 71.4144L100.994 68.5211L101.14 68.2304ZM100.688 69.058L115.103 72.1121C115.161 72.2284 115.216 72.3481 115.274 72.4542L100.538 69.3316C100.586 69.2564 100.63 69.1606 100.688 69.0649V69.058ZM100.261 69.8925L115.581 73.1382L115.734 73.4802L100.112 70.173C100.163 70.0909 100.21 69.9951 100.265 69.8994L100.261 69.8925ZM99.8526 70.7339L116.026 74.1539C116.077 74.2702 116.124 74.3865 116.172 74.4959L99.714 71.0109C99.7615 70.9322 99.8052 70.8365 99.8526 70.7407V70.7339ZM99.4624 71.5786L116.431 75.1731C116.477 75.2894 116.521 75.4034 116.562 75.5151L99.3311 71.8659L99.4624 71.5786ZM99.0976 72.4268L116.814 76.1889C116.857 76.3052 116.898 76.418 116.938 76.5309L98.9736 72.7278C99.0064 72.6286 99.0502 72.5294 99.0903 72.4336L99.0976 72.4268ZM98.7329 73.2784L117.157 77.1807C117.193 77.297 117.233 77.4099 117.27 77.5227L98.6125 73.5691L98.7329 73.2784ZM98.3681 74.1334L117.478 78.1828L117.587 78.5248L98.255 74.4207L98.3681 74.1334ZM98.0362 74.9884L117.773 79.1746C117.809 79.2875 117.842 79.4038 117.875 79.5166L97.934 75.2894C97.9778 75.1902 98.0143 75.091 98.0544 74.9953L98.0362 74.9884ZM97.7115 75.8469L118.065 80.1596C118.094 80.2725 118.127 80.3853 118.156 80.5016L97.6204 76.1513L97.7115 75.8469ZM97.3979 76.7053L118.309 81.1343C118.343 81.2483 118.372 81.3623 118.397 81.4763L97.2921 77.0063C97.3468 76.9105 97.3796 76.8113 97.4161 76.7121L97.3979 76.7053ZM97.0878 77.5706L118.561 82.1159C118.59 82.2287 118.616 82.3416 118.645 82.4579L96.9857 77.8716C97.0368 77.7758 97.0732 77.6766 97.1061 77.5774L97.0878 77.5706ZM96.7924 78.4324L118.794 83.094L118.871 83.436L96.6902 78.7403C96.7413 78.6411 96.7741 78.5385 96.8106 78.4393L96.7924 78.4324ZM96.5006 79.2977L119.013 84.0653C119.039 84.1782 119.064 84.291 119.086 84.4073L96.4021 79.6192L96.5006 79.2977ZM96.2161 80.1664L119.232 85.0435C119.254 85.1563 119.279 85.2692 119.298 85.3855L96.1358 80.4777C96.1723 80.3716 96.2051 80.2725 96.2343 80.1733L96.2161 80.1664ZM95.9425 81.0317L119.433 86.0148C119.455 86.1242 119.476 86.2371 119.495 86.3568L95.8695 81.3532C95.8878 81.2267 95.9316 81.1412 95.9607 81.0386L95.9425 81.0317ZM95.6762 81.9038L119.597 86.9758C119.619 87.0887 119.641 87.1981 119.659 87.3178L95.585 82.2219C95.6325 82.1125 95.6616 82.0133 95.6945 81.9107L95.6762 81.9038ZM95.4136 82.776L119.765 87.93L119.819 88.272L95.3224 83.0872C95.3735 82.9846 95.4027 82.8854 95.4318 82.7828L95.4136 82.776ZM95.1619 83.6481L119.921 88.8911L119.976 89.2331L95.0926 83.9627C95.1182 83.8567 95.1583 83.7575 95.1802 83.6549L95.1619 83.6481ZM94.9102 84.5236L120.078 89.8521C120.078 89.965 120.111 90.071 120.126 90.1941L94.8336 84.8383C94.8738 84.7322 94.8993 84.6467 94.9285 84.5305L94.9102 84.5236ZM94.6732 85.3992L120.206 90.8063L120.25 91.1483L94.5893 85.7138C94.633 85.6112 94.6622 85.5086 94.6914 85.406L94.6732 85.3992ZM94.4397 86.2747L120.337 91.7468C120.337 91.8597 120.363 91.9691 120.377 92.0888L94.3704 86.5791L94.4397 86.2747ZM94.2172 87.1537L120.443 92.7079C120.443 92.8219 120.454 92.9359 120.476 93.0499L94.1443 87.4717C94.1844 87.3828 94.2099 87.2631 94.2354 87.1605L94.2172 87.1537ZM94.0057 88.036L120.538 93.6552C120.538 93.7681 120.56 93.8775 120.567 93.9972L93.94 88.3575C93.9765 88.2515 93.9984 88.1489 94.0239 88.0429L94.0057 88.036ZM93.8123 88.9253L120.618 94.6026C120.618 94.7155 120.618 94.8249 120.64 94.9241L93.7503 89.2296C93.7868 89.1407 93.8087 89.0415 93.8306 88.9321L93.8123 88.9253ZM93.6518 89.8179L120.691 95.5465C120.697 95.6525 120.697 95.7586 120.691 95.8646L93.6518 90.1394C93.6516 90.0343 93.6577 89.9292 93.6701 89.8247L93.6518 89.8179Z" fill="#DBDBDB"/>
<path d="M104.315 69.7281C105.53 69.858 108.218 67.8915 109.341 66.1575C109.414 66.0378 109.279 64.745 109.188 63.1649C109.141 62.2073 109.108 61.1403 109.155 60.1655L102.553 61.3797C102.868 62.6115 103.02 63.8751 103.006 65.1417C102.999 65.2756 102.978 65.4084 102.944 65.5385C102.944 65.559 102.944 65.5795 102.944 65.6035C102.761 66.373 102.415 69.5229 104.315 69.7281Z" fill="#C95F50"/>
<path d="M102.943 65.5526C102.943 65.5731 102.943 65.5902 102.943 65.621C103.165 65.6572 103.389 65.6766 103.614 65.6791C107.331 65.7578 108.44 61.5545 108.691 60.2549L102.553 61.3904C102.866 62.6226 103.019 63.8858 103.009 65.1524C102.997 65.2871 102.975 65.4208 102.943 65.5526Z" fill="#263238"/>
<path d="M111.161 52.6452C111.551 54.8888 109.446 60.956 107.615 62.1359C104.96 63.846 101.05 63.5519 99.6164 60.6551C98.2193 57.8438 101.112 49.981 103.118 48.9515C106.072 47.433 110.581 49.3346 111.161 52.6452Z" fill="#C95F50"/>
<path d="M105.953 54.4952C105.774 54.396 105.628 54.2763 105.46 54.1532C105.293 54.0301 105.096 53.9378 105.026 53.7257C105.005 53.6609 105.009 53.5913 105.037 53.5288C105.065 53.4664 105.116 53.4151 105.18 53.3837C105.309 53.3386 105.449 53.3269 105.585 53.3498C105.721 53.3726 105.848 53.4292 105.953 53.5137C106.193 53.6559 106.368 53.8764 106.445 54.1327C106.465 54.1934 106.465 54.2584 106.445 54.319C106.424 54.3796 106.385 54.4331 106.332 54.4723C106.278 54.5115 106.214 54.5347 106.146 54.5388C106.078 54.5429 106.011 54.5277 105.953 54.4952Z" fill="#263238"/>
<path d="M101.619 53.305C101.82 53.3152 102.023 53.3152 102.224 53.305C102.437 53.339 102.656 53.3066 102.848 53.2127C102.9 53.1722 102.937 53.1172 102.953 53.0557C102.97 52.9942 102.965 52.9294 102.939 52.8707C102.865 52.7604 102.76 52.6707 102.636 52.6106C102.513 52.5505 102.374 52.5223 102.235 52.5287C101.954 52.5052 101.674 52.5794 101.447 52.7373C101.392 52.7752 101.35 52.8281 101.328 52.8888C101.306 52.9496 101.304 53.0153 101.322 53.0771C101.341 53.1389 101.379 53.1939 101.432 53.2346C101.485 53.2754 101.55 53.3 101.619 53.305Z" fill="#263238"/>
<path d="M104.156 59.2046C104.021 59.273 103.875 59.3791 103.711 59.3483C103.548 59.3002 103.398 59.221 103.27 59.1157C103.27 59.1157 103.237 59.1157 103.244 59.1157C103.281 59.2144 103.346 59.3016 103.433 59.368C103.519 59.4343 103.623 59.4772 103.733 59.4919C103.83 59.4945 103.925 59.4702 104.007 59.4221C104.088 59.374 104.153 59.3043 104.193 59.2217C104.207 59.2149 104.174 59.1978 104.156 59.2046Z" fill="#263238"/>
<path d="M104.075 57.8432C103.912 57.9746 103.722 58.0728 103.517 58.1317C103.311 58.1905 103.095 58.2088 102.882 58.1852C102.694 58.1698 102.51 58.1283 102.335 58.0621C102.301 58.0523 102.268 58.0397 102.236 58.0245L102.141 57.9834C102.12 57.9723 102.103 57.9551 102.092 57.9342C102.082 57.9133 102.078 57.8898 102.083 57.8672L102.101 57.8261V57.7919C102.189 57.4704 102.371 56.995 102.371 56.995C102.229 57.019 101.518 57.1148 101.576 56.9506C102.06 55.5259 102.697 54.1509 103.476 52.8465C103.481 52.8365 103.49 52.8287 103.501 52.8249C103.512 52.821 103.524 52.8214 103.535 52.826C103.545 52.8305 103.554 52.8388 103.558 52.8491C103.562 52.8593 103.562 52.8707 103.557 52.8807C103.115 54.194 102.433 55.4286 101.97 56.7454C102.225 56.7113 102.484 56.7113 102.74 56.7454C102.783 56.7693 102.375 57.6551 102.342 57.8022C102.341 57.8078 102.341 57.8136 102.342 57.8193C102.612 57.9198 102.901 57.9688 103.192 57.9635C103.482 57.9583 103.769 57.8988 104.035 57.7885C104.086 57.7817 104.111 57.8193 104.075 57.8432Z" fill="#263238"/>
<path d="M102.583 57.9708C102.701 58.248 102.891 58.4928 103.137 58.6822C103.274 58.7809 103.439 58.8371 103.611 58.8429C103.976 58.8429 104.093 58.5522 104.111 58.2752C104.116 58.1284 104.104 57.9816 104.075 57.8374C103.605 58.0305 103.083 58.0773 102.583 57.9708Z" fill="#263238"/>
<path d="M103.137 58.6779C103.274 58.7766 103.44 58.8328 103.612 58.8386C103.976 58.8386 104.093 58.5479 104.111 58.2709C103.924 58.2263 103.726 58.2422 103.549 58.316C103.372 58.3898 103.227 58.5173 103.137 58.6779Z" fill="#FF9BBC"/>
<path d="M105.58 55.5076C105.587 55.3892 105.561 55.2711 105.503 55.1656C105.47 55.1095 105.425 55.0607 105.37 55.0224C105.315 54.9841 105.252 54.9571 105.186 54.9433C105.118 54.9301 105.048 54.9319 104.98 54.9485C104.913 54.9651 104.851 54.9961 104.799 55.039C104.71 55.1167 104.641 55.2127 104.599 55.3195C104.571 55.3824 104.55 55.4477 104.537 55.5144C104.502 55.6528 104.502 55.7968 104.537 55.9351C104.554 55.8343 104.583 55.7356 104.624 55.641C104.658 55.5547 104.7 55.4712 104.748 55.3913C104.85 55.2271 104.996 55.104 105.142 55.1451C105.288 55.1861 105.386 55.3161 105.408 55.5042C105.428 55.6998 105.428 55.8968 105.408 56.0924C105.512 55.9123 105.571 55.7122 105.58 55.5076Z" fill="#263238"/>
<path d="M101.31 54.2324C101.37 54.1317 101.457 54.047 101.561 53.9862C101.622 53.9559 101.688 53.9376 101.757 53.9323C101.825 53.927 101.894 53.9348 101.959 53.9554C102.024 53.979 102.081 54.0163 102.128 54.0644C102.175 54.1124 102.209 54.1699 102.229 54.2324C102.26 54.3446 102.26 54.4623 102.229 54.5744C102.213 54.6415 102.194 54.7077 102.17 54.7728C102.118 54.9021 102.036 55.019 101.93 55.1148C101.973 55.0215 102.005 54.924 102.025 54.8241C102.042 54.7335 102.054 54.6422 102.061 54.5505C102.061 54.3624 102.014 54.1845 101.868 54.1435C101.785 54.1243 101.699 54.131 101.621 54.1625C101.543 54.194 101.479 54.2486 101.437 54.3179C101.313 54.4765 101.206 54.646 101.116 54.8241C101.13 54.6154 101.197 54.4127 101.31 54.2324Z" fill="#263238"/>
<path d="M101.408 50.7337C103.392 52.7379 107.153 51.1407 107.153 51.1407C107.24 51.6611 107.504 52.1414 107.904 52.5108C108.305 52.8802 108.821 53.1193 109.378 53.1927C109.378 53.1927 108.944 57.0095 109.991 57.225C111.588 57.567 113.306 52.5839 113.044 51.4827C112.781 50.3814 111.486 49.8342 111.486 49.8342C111.485 49.1978 111.224 48.586 110.757 48.1242C109.856 47.0981 105.84 47.3649 105.84 47.3649C105.739 46.8476 105.509 46.36 105.169 45.9422C105.088 45.8374 104.985 45.7493 104.867 45.6832C104.748 45.6171 104.617 45.5744 104.48 45.5578C104.343 45.5411 104.204 45.5508 104.072 45.5863C103.939 45.6219 103.816 45.6824 103.71 45.7643C103.843 46.0815 103.898 46.423 103.87 46.763C103.797 47.8916 102.845 47.6898 103.093 46.7048C103.171 46.3319 103.39 45.9979 103.71 45.7643C103.396 45.0187 102.681 44.6459 102.134 44.8956C101.149 45.3573 99.7556 49.0784 101.408 50.7337Z" fill="#263238"/>
<path d="M104.734 57.5635C105.081 57.6276 105.44 57.5992 105.771 57.4815C106.101 57.3639 106.39 57.1617 106.604 56.8979C106.818 56.6342 106.948 56.3194 106.981 55.9895C107.014 55.6595 106.947 55.3275 106.789 55.0313C106.63 54.7351 106.387 54.4864 106.085 54.3136C105.783 54.1408 105.436 54.0508 105.083 54.0538C104.729 54.0568 104.384 54.1526 104.086 54.3305C103.788 54.5084 103.549 54.7611 103.396 55.06C103.18 55.4833 103.152 55.9696 103.317 56.4124C103.482 56.8553 103.828 57.2187 104.279 57.4232C104.423 57.4899 104.576 57.5371 104.734 57.5635ZM105.42 54.3178C105.554 54.3432 105.683 54.3834 105.807 54.4375C106.184 54.6055 106.479 54.902 106.631 55.2667C106.784 55.6313 106.782 56.0367 106.626 56.4002C106.471 56.7638 106.174 57.0581 105.795 57.2233C105.416 57.3884 104.985 57.412 104.588 57.2892C104.192 57.1665 103.86 56.9065 103.66 56.5624C103.461 56.2182 103.409 55.8158 103.515 55.437C103.621 55.0582 103.877 54.7316 104.231 54.5236C104.585 54.3157 105.01 54.2421 105.42 54.3178Z" fill="#5E8BFF"/>
<path d="M100.7 56.3115C101.429 56.4106 102.159 55.8121 102.432 54.9195C102.562 54.4951 102.548 54.0432 102.392 53.6267C102.336 53.4435 102.231 53.277 102.087 53.1431C101.942 53.0093 101.763 52.9127 101.568 52.8628C101.372 52.8129 101.165 52.8114 100.968 52.8583C100.771 52.9053 100.591 52.9991 100.444 53.1308C100.084 53.4169 99.8284 53.8022 99.7147 54.2321C99.4411 55.1726 99.8278 56.096 100.579 56.2841L100.7 56.3115ZM101.407 53.0761L101.502 53.0932C101.655 53.1396 101.795 53.2196 101.908 53.3267C102.022 53.4338 102.106 53.5648 102.155 53.7088C102.294 54.0791 102.306 54.4811 102.188 54.8579C101.951 55.6753 101.261 56.226 100.645 56.0584C100.028 55.8908 99.722 55.111 99.9591 54.2936C100.058 53.9117 100.284 53.5692 100.605 53.3155C100.713 53.2247 100.84 53.1565 100.979 53.1153C101.117 53.074 101.263 53.0606 101.407 53.0761Z" fill="#5E8BFF"/>
<path d="M103.387 55.275L103.599 55.1485C103.402 54.8509 102.869 54.3721 102.278 54.6799L102.402 54.8851C102.931 54.6081 103.369 55.234 103.387 55.275Z" fill="#5E8BFF"/>
<path d="M111.251 58.1411L111.503 58.1C111.481 57.9906 111.299 57.0295 110.773 56.7833C110.248 56.5371 106.976 55.8633 106.838 55.8325L106.783 56.0651C107.735 56.2634 110.292 56.8175 110.66 56.9953C111.029 57.1732 111.207 57.8743 111.251 58.1411Z" fill="#5E8BFF"/>
<path d="M109.021 57.5357C109.021 57.5357 110.845 55.747 111.735 56.39C112.625 57.0329 111.005 59.7758 109.813 60.005C109.66 60.0454 109.501 60.0564 109.344 60.0374C109.187 60.0183 109.035 59.9696 108.899 59.8941C108.763 59.8187 108.644 59.7181 108.55 59.5984C108.456 59.4787 108.39 59.3425 108.354 59.1978L109.021 57.5357Z" fill="#C95F50"/>
<path d="M111.249 57.1661C111.271 57.1661 111.249 57.19 111.249 57.1934C110.399 57.3815 109.863 58.0143 109.451 58.6914C109.51 58.6234 109.584 58.5682 109.668 58.5295C109.752 58.4908 109.844 58.4696 109.937 58.4674C110.031 58.4651 110.124 58.4818 110.21 58.5163C110.296 58.5509 110.373 58.6024 110.436 58.6675C110.454 58.6846 110.436 58.712 110.406 58.7051C110.273 58.6437 110.122 58.6222 109.974 58.6436C109.827 58.665 109.69 58.7282 109.582 58.8248C109.404 58.9883 109.245 59.1695 109.108 59.3652C109.061 59.4268 108.937 59.3652 108.977 59.2968C109.13 58.3118 110.14 57.1011 111.249 57.1661Z" fill="#263238"/>
<path d="M112.39 72.4406C110.537 83.0771 105.916 89.9856 103.753 90.3208C97.9352 91.2203 88.0941 82.2973 85.1506 80.2042C83.9651 79.356 93.642 71.7635 94.7837 72.8032C97.4829 75.2519 101.109 79.0961 101.298 79.1372C101.663 79.2227 103.049 76.8047 107.696 69.9645C111.468 64.4274 113.145 68.0937 112.39 72.4406Z" fill="#C95F50"/>
<path d="M79.7744 62.5497C78.9683 63.6989 82.1599 65.3166 82.1599 65.3166C81.5277 65.3199 80.9169 65.5318 80.4346 65.9151C79.6176 66.623 80.4346 68.1381 80.4346 68.1381C79.78 68.2701 79.1827 68.5835 78.7203 69.0376C78.0127 69.79 78.6182 71.4317 78.6182 71.4317C78.0969 71.871 77.753 72.4652 77.6443 73.1143C77.2795 76.0214 84.042 80.1768 86.2379 80.9805L95.1123 73.4563C95.1123 73.4563 91.8295 66.5546 89.1376 64.7728C87.6604 63.7844 81.0036 60.7918 79.7744 62.5497Z" fill="#C95F50"/>
<path d="M82.2068 65.2996C84.1145 65.8399 85.8835 66.8078 87.5796 67.7586C87.6161 67.7791 87.5796 67.8339 87.5431 67.8133C85.8689 66.8489 83.8774 66.2811 82.1667 65.3817C82.1193 65.3577 82.1557 65.2859 82.2068 65.2996Z" fill="#263238"/>
<path d="M80.5704 68.0452C80.9926 68.2072 81.3901 68.4211 81.7522 68.6814C82.1534 68.931 82.5473 69.1875 82.9376 69.4509C83.7218 69.9776 84.4951 70.5214 85.2465 71.0891C85.283 71.113 85.2465 71.1678 85.2137 71.1438C84.4295 70.6171 83.638 70.1178 82.8355 69.6116C82.4306 69.3654 82.0257 69.1226 81.6172 68.8831C81.2184 68.6772 80.8442 68.4318 80.5011 68.1512C80.4573 68.1068 80.5084 68.0247 80.5704 68.0452Z" fill="#263238"/>
<path d="M78.6621 71.4523C79.0404 71.6032 79.3883 71.8137 79.6907 72.0748L80.7522 72.8101C81.4598 73.2957 82.1711 73.7848 82.8969 74.2465C82.9047 74.251 82.9102 74.2583 82.9122 74.2666C82.9143 74.275 82.9127 74.2837 82.9079 74.291C82.903 74.2982 82.8953 74.3034 82.8864 74.3053C82.8775 74.3072 82.8682 74.3058 82.8604 74.3012C82.1309 73.8361 81.3722 73.3778 80.6354 72.9024C80.2707 72.6699 79.9059 72.4373 79.5412 72.2184C79.1919 72.0318 78.8807 71.7887 78.622 71.5002C78.6152 71.4952 78.6109 71.4879 78.6098 71.4799C78.6088 71.4719 78.6112 71.4638 78.6165 71.4574C78.6219 71.4511 78.6296 71.447 78.6382 71.446C78.6467 71.4451 78.6554 71.4473 78.6621 71.4523Z" fill="#263238"/>
<path d="M78.0173 72.1641C77.6862 72.6125 77.5374 73.1572 77.5978 73.6997C77.6732 74.2425 77.8955 74.7582 78.2435 75.1977C78.898 76.0756 79.6594 76.879 80.5122 77.5917C81.3556 78.3116 82.2581 78.968 83.2114 79.5549C84.164 80.1416 85.1711 80.6464 86.2206 81.0631H86.1951C86.8638 81.5784 87.5374 82.0857 88.2158 82.585C87.5957 82.0196 86.9684 81.4633 86.3337 80.916C85.3205 80.4516 84.3452 79.9178 83.4157 79.3189C82.4886 78.7248 81.6029 78.076 80.7639 77.3763C79.9223 76.6837 79.1518 75.9189 78.4623 75.0917C78.1185 74.6934 77.8798 74.2247 77.7656 73.7236C77.6513 73.1922 77.7404 72.64 78.0173 72.1641Z" fill="#263238"/>
<path d="M111.248 81.0861L102.322 76.7802C102.322 76.7802 105.656 71.0037 108.654 68.1958C111.653 65.3879 113.031 67.3886 112.798 71.2431C112.564 75.0975 111.248 81.0861 111.248 81.0861Z" fill="#C7C7C7"/>
<path d="M103.912 75.1596C105.353 75.7136 109.209 77.3245 111.572 78.6925C111.572 78.6925 111.572 78.7575 111.543 78.7507C109.398 77.9059 105.262 75.9188 103.883 75.2451C103.847 75.2314 103.887 75.1493 103.912 75.1596Z" fill="#263238"/>
<path d="M12.5052 119.703C12.8699 120.613 30.5058 141.175 31.7094 141.561C32.1617 141.708 35.5065 139.475 39.4641 136.667C40.3176 136.062 41.1967 135.429 42.0867 134.782C47.8607 130.6 53.8828 126.03 53.8828 126.03L42.1268 112.244L30.6517 121.372L28.1312 123.373C28.1312 123.373 17.6227 118.335 16.2585 118.045C14.8943 117.754 12.1477 118.79 12.5052 119.703Z" fill="#C95F50"/>
<path d="M12.5074 119.703C12.8721 120.612 30.5079 141.174 31.7116 141.56C32.2661 141.738 37.0844 138.404 42.0889 134.782L30.6538 121.378L28.1334 123.379C28.1334 123.379 17.6249 118.341 16.2607 118.051C14.8965 117.76 12.1499 118.789 12.5074 119.703Z" fill="white"/>
<path d="M12.5069 119.703C12.8716 120.612 30.5075 141.174 31.7112 141.56C32.1635 141.707 35.5082 139.474 39.4658 136.666L28.1329 123.379C28.1329 123.379 17.6244 118.341 16.2602 118.051C14.896 117.76 12.1494 118.789 12.5069 119.703Z" fill="#5E8BFF"/>
<path d="M13.6369 119.334C16.6862 122.713 28.6355 136.608 31.3748 140.165C31.3967 140.196 31.3748 140.21 31.3493 140.182C28.2525 136.896 16.4236 122.911 13.5785 119.382C13.5165 119.306 13.5712 119.265 13.6369 119.334Z" fill="#263238"/>
<path d="M18.1977 118.776C18.5363 119.151 18.7886 119.588 18.9386 120.059C19.0886 120.53 19.1332 121.024 19.0694 121.512C18.9603 122.391 18.4939 123.197 17.7673 123.763C17.7454 123.78 17.7126 123.742 17.7308 123.722C18.3591 123.056 18.7397 122.216 18.8153 121.33C18.891 120.444 18.6576 119.558 18.1503 118.807C18.1472 118.801 18.1465 118.794 18.1483 118.788C18.1501 118.782 18.1542 118.776 18.1599 118.772C18.1656 118.769 18.1726 118.767 18.1795 118.768C18.1864 118.768 18.1929 118.771 18.1977 118.776Z" fill="#263238"/>
<path d="M26.6184 122.319C27.8258 123.687 28.6757 125.674 28.2088 127.45C28.1905 127.518 28.0884 127.491 28.0738 127.432C27.714 125.718 27.1589 124.045 26.4178 122.443C26.4004 122.418 26.3943 122.387 26.4008 122.358C26.4073 122.329 26.4259 122.303 26.4525 122.287C26.4791 122.271 26.5115 122.265 26.5426 122.271C26.5738 122.277 26.601 122.294 26.6184 122.319Z" fill="#263238"/>
<path d="M25.2666 121.584C26.4703 122.952 27.3202 124.939 26.8533 126.714C26.835 126.782 26.7329 126.759 26.7183 126.714C26.3585 124.999 25.8034 123.325 25.0623 121.721C25.043 121.695 25.0352 121.664 25.0407 121.633C25.0461 121.602 25.0644 121.575 25.0915 121.557C25.1186 121.538 25.1523 121.531 25.1851 121.536C25.2179 121.541 25.2472 121.559 25.2666 121.584Z" fill="#263238"/>
<path d="M23.9088 120.855C25.1125 122.223 25.966 124.21 25.4955 125.985C25.4772 126.053 25.3751 126.03 25.3641 125.985C25.0016 124.27 24.4452 122.596 23.7045 120.992C23.6852 120.966 23.6774 120.935 23.6828 120.904C23.6883 120.873 23.7066 120.846 23.7337 120.828C23.7608 120.809 23.7944 120.802 23.8273 120.807C23.8601 120.812 23.8894 120.83 23.9088 120.855Z" fill="#263238"/>
<path d="M22.5533 120.127C23.757 121.495 24.6105 123.482 24.14 125.257C24.14 125.325 24.0196 125.298 24.0087 125.257C23.6477 123.543 23.0926 121.87 22.3527 120.267C22.3329 120.242 22.3244 120.211 22.3292 120.18C22.334 120.149 22.3516 120.121 22.3782 120.103C22.4048 120.084 22.4382 120.076 22.4711 120.081C22.5039 120.085 22.5335 120.102 22.5533 120.127Z" fill="#263238"/>
<path d="M34.1108 136.656C35.4349 138.205 32.867 140.138 31.5393 138.581C30.2116 137.025 32.7868 135.1 34.1108 136.656Z" fill="white"/>
<path d="M29.2669 117.866C30.4852 118.099 30.6348 119.433 30.3612 120.349C29.8651 121.915 28.9379 123.33 27.673 124.453C27.6682 124.459 27.6621 124.464 27.6551 124.467C27.6482 124.47 27.6406 124.472 27.6328 124.472C27.6251 124.472 27.6175 124.47 27.6105 124.467C27.6036 124.464 27.5975 124.459 27.5927 124.453C27.5601 124.468 27.5242 124.476 27.488 124.475C27.4517 124.475 27.4161 124.466 27.3839 124.451C27.3517 124.435 27.3238 124.413 27.3024 124.385C27.281 124.358 27.2668 124.326 27.2608 124.293C27.1441 122.764 26.8158 121.143 27.2024 119.628C27.4286 118.718 28.118 117.647 29.2669 117.866ZM27.5927 121.926C27.6328 122.682 27.7094 123.427 27.7167 124.183C28.2647 123.401 28.7699 122.592 29.2305 121.762C29.4469 121.355 29.6345 120.936 29.7922 120.507C30.0183 119.84 30.0876 117.558 28.3696 118.629C27.4213 119.21 27.5453 121.02 27.5927 121.926Z" fill="#263238"/>
<path d="M30.0737 128.277C28.8444 127.223 28.1478 125.712 27.3307 124.385C27.3148 124.354 27.3069 124.32 27.3078 124.285C27.3086 124.251 27.3182 124.218 27.3357 124.188C27.3532 124.157 27.378 124.132 27.4083 124.112C27.4385 124.093 27.4732 124.081 27.5094 124.077C27.5088 124.07 27.5099 124.062 27.5127 124.056C27.5154 124.049 27.5198 124.043 27.5254 124.038C27.531 124.033 27.5377 124.029 27.5451 124.027C27.5524 124.025 27.5602 124.024 27.5678 124.025C29.2826 124.289 30.8937 124.969 32.2403 125.999C33.0136 126.611 33.6993 127.798 32.8203 128.629C31.9412 129.46 30.7886 128.892 30.0737 128.277ZM31.6239 128.478C33.6884 128.461 32.2658 126.608 31.6786 126.177C31.2921 125.904 30.8863 125.656 30.4639 125.434C29.5853 124.989 28.6832 124.587 27.7611 124.227C28.2061 124.856 28.5891 125.513 29.0086 126.16C29.5046 126.926 30.4858 128.489 31.6239 128.478Z" fill="#263238"/>
<path d="M31.2655 119.296L43.503 134.775L84.7931 107.904L88.7726 105.311C88.7726 105.311 89.8997 106.023 91.5994 106.902C93.9557 108.122 97.4099 109.672 100.467 110.092C105.573 110.804 114.148 110.729 118.471 105.304C122.118 100.742 120.134 94.791 120.134 94.791L114.491 92.544C114.491 92.544 101.171 82.1367 92.5441 81.8255C88.8784 81.6887 83.542 84.2914 78.6033 87.0137C73.6645 89.7361 31.2655 119.296 31.2655 119.296Z" fill="#37474F"/>
<path d="M88.7728 105.321C88.7728 105.321 89.8999 106.033 91.5997 106.912C94.5979 103.546 100.948 97.4279 101.142 97.2124L88.7728 105.321Z" fill="#263238"/>
<path d="M109.624 89.0591C110.42 89.5789 111.189 90.1296 111.973 90.6597C112.758 91.1898 113.545 91.6857 114.279 92.2466C115.012 92.8075 115.738 93.4505 116.438 94.0763C116.777 94.3773 117.113 94.6817 117.441 94.9963C117.788 95.2969 118.109 95.6229 118.4 95.9711C118.426 96.0053 118.375 96.0429 118.342 96.0224C117.968 95.7722 117.611 95.5004 117.273 95.2084L116.179 94.3226C115.449 93.7514 114.72 93.1974 114.016 92.6126C113.312 92.0277 112.652 91.4224 111.948 90.8478C111.244 90.2732 110.401 89.6576 109.621 89.0728L109.624 89.0591Z" fill="#263238"/>
<path d="M34.1392 118.742C34.9344 119.545 35.6675 120.411 36.408 121.259C37.1484 122.107 37.8925 122.969 38.6257 123.824C40.0847 125.534 41.5729 127.244 43.0027 128.992C43.7942 129.946 44.5785 130.907 45.3153 131.902C45.3481 131.947 45.2715 131.994 45.235 131.957C43.6556 130.329 42.2112 128.592 40.7485 126.875C39.2859 125.158 37.8305 123.431 36.3715 121.69C35.5836 120.736 34.7739 119.788 34.048 118.793C34.0371 118.752 34.1064 118.707 34.1392 118.742Z" fill="#263238"/>
<path d="M68.0265 118.899C70.08 117.38 72.2102 115.947 74.3404 114.525C76.4705 113.102 78.5788 111.689 80.7272 110.314C81.3473 109.918 81.971 109.531 82.5911 109.145C83.2112 108.758 83.8604 108.399 84.4659 107.999C84.5024 107.975 84.5352 108.03 84.4988 108.054C83.9407 108.43 83.4045 108.851 82.8647 109.241C82.3248 109.63 81.8215 109.99 81.2926 110.356C80.2603 111.07 79.2171 111.775 78.1776 112.479C76.0693 113.909 73.9428 115.317 71.798 116.703C70.5761 117.486 69.3651 118.273 68.1177 119.019C68.0447 119.063 67.9572 118.95 68.0265 118.899Z" fill="#263238"/>
<path d="M54.8227 102.927C56.7194 101.453 58.7547 100.126 60.7463 98.7612C62.7378 97.3966 64.7586 95.991 66.7793 94.6195L72.7941 90.5462C74.7382 89.2261 76.6714 87.8888 78.725 86.7226C79.8484 86.0864 80.9974 85.4948 82.1828 84.9612C83.3315 84.4123 84.5272 83.9547 85.7574 83.5932C85.7656 83.59 85.7749 83.59 85.7831 83.5932C85.7913 83.5964 85.7978 83.6026 85.8012 83.6103C85.8046 83.618 85.8046 83.6267 85.8011 83.6343C85.7977 83.642 85.7912 83.6482 85.7829 83.6513C84.7689 84.1814 83.7075 84.6295 82.6862 85.1391C81.6649 85.6487 80.6764 86.1651 79.6952 86.7328C77.6562 87.8922 75.734 89.209 73.8008 90.512C69.7885 93.2173 65.7762 95.9363 61.7384 98.6039C59.4769 100.098 57.2629 101.682 54.9139 103.05C54.8409 103.088 54.7534 102.982 54.8227 102.927Z" fill="#263238"/>
<path d="M9.4147 84.2678C13.872 89.928 18.5335 96.498 19.6533 103.595C19.6533 103.704 19.4819 103.738 19.4564 103.632C18.9377 101.696 18.2734 99.7964 17.4685 97.9481C14.5504 97.1923 11.6616 96.5801 10.1223 93.844C8.55387 91.0395 8.7545 87.3835 9.04995 84.3293C9.07913 84.1652 9.32351 84.1583 9.4147 84.2678Z" fill="#5E8BFF"/>
<path d="M17.4368 97.893C15.4343 93.6795 12.8628 89.4488 9.5946 85.9843C9.57271 85.9603 9.53988 85.9843 9.56176 86.0185C11.6992 88.4844 13.326 91.1725 14.9127 93.9086C13.4354 92.503 11.8196 91.2444 10.4226 89.7532C10.3934 89.7258 10.3496 89.7532 10.3752 89.7977C11.7649 91.3572 13.2932 93.057 15.0914 94.213C15.5778 95.0498 16.0641 95.89 16.5504 96.7336L16.1857 96.5558C16.1638 96.5558 16.1456 96.5763 16.1675 96.5865C16.3024 96.6515 16.441 96.7199 16.5833 96.7781C16.8167 97.1748 17.0502 97.5749 17.2909 97.9717C17.3493 98.0606 17.466 97.9853 17.4368 97.893Z" fill="#263238"/>
<path d="M15.9508 96.4223C14.751 95.7958 13.6068 95.0798 12.5294 94.2813C12.5002 94.2608 12.4565 94.2984 12.4856 94.3223C13.532 95.1684 14.6773 95.9004 15.8997 96.5044C15.9581 96.5283 16.0092 96.453 15.9508 96.4223Z" fill="#263238"/>
<path d="M20.1657 102.541C20.1657 102.626 20.0016 102.623 20.0016 102.541C19.9797 100.202 20.0016 97.852 19.9651 95.5058C19.3231 94.2951 17.9553 93.6282 16.9997 92.6603C16.3156 91.9519 15.7196 91.1728 15.2233 90.3381C14.0728 88.3427 13.3702 86.1475 13.1588 83.8878C12.8962 81.3877 13.9065 73.1351 15.0336 73.4224C15.6136 73.5728 17.503 77.6598 18.0027 79.0108C18.8143 81.2355 19.4077 83.5251 19.7754 85.8509C20.6873 91.3538 20.6107 97.0038 20.1657 102.541Z" fill="#5E8BFF"/>
<path d="M20.1842 92.4552C20.0456 89.4968 19.338 86.5111 18.6705 83.6416C17.941 80.5636 17.1167 77.6428 15.4206 74.8862C15.4143 74.8758 15.4038 74.8681 15.3915 74.8649C15.3792 74.8617 15.366 74.8632 15.3549 74.8691C15.3438 74.875 15.3356 74.8848 15.3322 74.8964C15.3288 74.9079 15.3304 74.9203 15.3367 74.9307C16.4671 77.0744 17.3429 79.3281 17.9483 81.6511C17.8352 81.487 17.6966 81.3297 17.5835 81.1723C17.5398 81.1074 17.4303 81.1723 17.4741 81.2305C17.627 81.4745 17.8054 81.7036 18.0067 81.9145C18.0067 81.9145 18.0067 81.9145 18.0285 81.9145C18.6121 84.1239 19.0316 86.3845 19.3891 88.6384C19.3643 88.6072 19.3375 88.5775 19.3088 88.5495C19.2906 88.5495 19.2614 88.5494 19.2724 88.5768C19.3161 88.6521 19.3672 88.7273 19.4146 88.7991C19.597 89.9448 19.7794 91.0872 19.9326 92.2192C17.744 90.4784 15.9203 88.4263 14.8588 85.8955C14.8588 85.8955 14.8333 85.8955 14.8369 85.8955C15.8619 88.5187 17.4778 90.8477 19.9654 92.4415C20.0128 92.7459 20.0566 93.0503 20.104 93.3547C20.104 93.4162 20.2207 93.3991 20.2207 93.3547C20.2207 93.0845 20.2207 92.8143 20.1952 92.5441C20.2059 92.5308 20.2107 92.5141 20.2086 92.4976C20.2066 92.481 20.1979 92.4659 20.1842 92.4552Z" fill="#263238"/>
<path d="M19.1606 88.1702C17.501 85.848 15.9508 83.5907 14.7362 81.0222C14.7333 81.0154 14.7276 81.01 14.7204 81.0071C14.7132 81.0042 14.7051 81.0041 14.6979 81.0069C14.6906 81.0096 14.6848 81.0149 14.6817 81.0216C14.6787 81.0284 14.6785 81.036 14.6815 81.0428C15.7064 83.5941 17.1399 86.1729 19.0804 88.2249C19.1169 88.2728 19.1971 88.2181 19.1606 88.1702Z" fill="#263238"/>
<path d="M16.9535 80.4471C16.2678 79.3048 15.5419 78.1967 14.8963 77.027C14.8781 76.9928 14.8306 77.027 14.8452 77.0544C15.3752 78.2681 16.0468 79.4232 16.8477 80.4984C16.8951 80.5634 16.9936 80.5121 16.9535 80.4471Z" fill="#263238"/>
<path d="M21.8439 95.7792C21.88 97.3269 22.0779 98.8676 22.4348 100.379L22.3582 100.882C21.8519 99.2101 21.5568 97.4882 21.4792 95.7518C21.4648 95.7278 21.4572 95.7007 21.4572 95.6731C21.4572 95.6456 21.4648 95.6185 21.4792 95.5945C21.4092 93.2641 21.5938 90.9332 22.03 88.638C22.8032 84.3424 24.4884 80.2178 27.6873 77.0098C27.7136 76.9859 27.7457 76.9684 27.7807 76.9588C27.8158 76.9491 27.8529 76.9476 27.8888 76.9543C27.9246 76.961 27.9582 76.9758 27.9867 76.9974C28.0151 77.019 28.0375 77.0467 28.052 77.0782C29.3433 80.1562 28.891 83.8191 27.7931 86.8869C27.1965 88.5473 26.3437 90.1167 25.2617 91.5451C24.1419 92.9781 22.7449 94.1991 21.8439 95.7792Z" fill="#5E8BFF"/>
<path d="M27.3173 78.4324C24.2898 83.0427 22.1815 88.508 21.9226 93.9527C21.9226 94.0485 22.0904 94.0724 22.1049 93.9732C22.1779 93.4842 22.2581 93.0019 22.342 92.5163C23.5968 91.3911 24.8953 90.2043 25.778 88.7987C25.7962 88.7713 25.7561 88.7439 25.7379 88.7645C24.6987 89.9666 23.583 91.1087 22.3967 92.1845C22.6156 90.9841 22.8709 89.7905 23.1773 88.6311L23.4144 88.3677C23.4691 88.3096 23.3816 88.2241 23.3269 88.2822L23.2539 88.3575C23.6747 86.75 24.1997 85.1682 24.826 83.6207C25.5956 82.7588 26.4601 82.0132 27.0145 80.9735C27.0145 80.9496 26.989 80.9291 26.9744 80.953C26.5221 81.5447 26.0844 82.1432 25.5737 82.6938C25.3695 82.9161 25.1433 83.1213 24.9318 83.3334C25.6297 81.6627 26.4587 80.0428 27.4121 78.4871C27.4112 78.477 27.4077 78.4672 27.402 78.4586C27.3964 78.45 27.3886 78.4427 27.3794 78.4374C27.3702 78.4321 27.3597 78.4288 27.349 78.428C27.3382 78.4271 27.3273 78.4286 27.3173 78.4324Z" fill="#263238"/>
<path d="M26.6891 84.1203C25.7115 85.355 24.5954 86.5349 23.6835 87.8106C23.658 87.8482 23.7163 87.8858 23.7491 87.8551C24.9164 86.829 25.9085 85.4234 26.7547 84.1545C26.7802 84.1169 26.7182 84.0827 26.6891 84.1203Z" fill="#263238"/>
<path d="M23.5478 88.0979L23.504 88.1355C23.4748 88.1628 23.5222 88.2039 23.5514 88.1765L23.5915 88.1389C23.5973 88.1334 23.6006 88.1261 23.6006 88.1184C23.6006 88.1107 23.5973 88.1033 23.5915 88.0979C23.5857 88.0924 23.5778 88.0894 23.5696 88.0894C23.5614 88.0894 23.5536 88.0924 23.5478 88.0979Z" fill="#263238"/>
<path d="M32.0583 87.2941C31.699 89.8679 30.5938 92.3 28.863 94.3258C28.1485 95.1197 27.2652 95.765 26.2696 96.2205C25.1462 96.7404 23.9717 97.3423 22.8118 97.7698C22.2596 99.0871 21.8491 100.453 21.5862 101.847C21.5497 101.73 21.5132 101.604 21.4731 101.487C22.2209 95.4818 26.3645 90.3517 31.6607 87.0581C31.7022 87.0329 31.7506 87.0193 31.8002 87.019C31.8497 87.0188 31.8982 87.0319 31.9401 87.0567C31.9819 87.0815 32.0153 87.1171 32.0362 87.1592C32.0572 87.2013 32.0648 87.2481 32.0583 87.2941Z" fill="#5E8BFF"/>
<path d="M30.2138 89.0691C30.2503 89.0383 30.2138 88.9734 30.1591 89.0007C27.247 91.031 24.9255 93.7147 23.4075 96.8053C23.3674 96.8874 23.4878 96.9592 23.5388 96.8772C23.7832 96.4736 24.0349 96.0803 24.2902 95.6938C25.5012 95.4783 26.6465 94.6678 27.5438 93.9222C27.5694 93.9017 27.5438 93.8709 27.5074 93.8914C27.045 94.2855 26.5315 94.6233 25.979 94.8969C25.483 95.1329 24.9541 95.28 24.4398 95.4681C24.8884 94.8012 25.3553 94.1616 25.8441 93.5426C27.1548 93.0764 28.3841 92.4297 29.4916 91.6239C29.4994 91.6194 29.5049 91.6121 29.5069 91.6038C29.509 91.5955 29.5074 91.5867 29.5026 91.5794C29.4977 91.5722 29.49 91.567 29.4811 91.5651C29.4722 91.5632 29.4629 91.5647 29.4551 91.5692C28.3623 92.1896 27.2348 92.7547 26.0775 93.2621C26.8164 92.3495 27.613 91.4793 28.463 90.656C28.8752 90.4508 29.291 90.249 29.6886 90.0301C29.6968 90.027 29.7033 90.0209 29.7068 90.0132C29.7102 90.0055 29.7102 89.9968 29.7068 89.9891C29.7034 89.9814 29.6969 89.9753 29.6887 89.9721C29.6805 89.9689 29.6713 89.9688 29.6631 89.972C29.3321 90.0812 29.0162 90.227 28.722 90.4064C29.1925 89.9515 29.6849 89.5035 30.2138 89.0691Z" fill="#263238"/>
<path d="M30.1026 91.1452C30.03 91.1845 29.9616 91.2303 29.8984 91.282C29.8801 91.282 29.8984 91.3196 29.9239 91.3127C29.9968 91.2792 30.0675 91.2415 30.1355 91.1999C30.1719 91.1725 30.1391 91.1178 30.1026 91.1452Z" fill="#263238"/>
<path d="M13.1911 114.846H27.7119L26.5411 102.448L26.2821 99.7124H14.6209L14.3619 102.448L13.1911 114.846Z" fill="#455A64"/>
<path d="M14.3648 102.448H26.5439L26.285 99.7124H14.6238L14.3648 102.448Z" fill="#263238"/>
<path d="M13.9296 97.8003H26.9805V100.506H13.9296V97.8003Z" fill="#455A64"/>
</g>
<defs>
<filter id="filter0_d_1501_5657" x="0.5" y="0" width="160.139" height="154" filterUnits="userSpaceOnUse" color-interpolation-filters="sRGB">
<feFlood flood-opacity="0" result="BackgroundImageFix"/>
<feColorMatrix in="SourceAlpha" type="matrix" values="0 0 0 0 0 0 0 0 0 0 0 0 0 0 0 0 0 0 127 0" result="hardAlpha"/>
<feOffset dy="4"/>
<feGaussianBlur stdDeviation="2"/>
<feComposite in2="hardAlpha" operator="out"/>
<feColorMatrix type="matrix" values="0 0 0 0 0 0 0 0 0 0 0 0 0 0 0 0 0 0 0.25 0"/>
<feBlend mode="normal" in2="BackgroundImageFix" result="effect1_dropShadow_1501_5657"/>
<feBlend mode="normal" in="SourceGraphic" in2="effect1_dropShadow_1501_5657" result="shape"/>
</filter>
</defs>
</svg>
